M48
; DRILL file {KiCad 9.0.4} date 2025-09-15T23:51:39+0530
; FORMAT={-:-/ absolute / metric / decimal}
; #@! TF.CreationDate,2025-09-15T23:51:39+05:30
; #@! TF.GenerationSoftware,Kicad,Pcbnew,9.0.4
; #@! TF.FileFunction,Plated,1,2,PTH
FMAT,2
METRIC
; #@! TA.AperFunction,Plated,PTH,ViaDrill
T1C0.300
; #@! TA.AperFunction,Plated,PTH,ComponentDrill
T2C0.800
; #@! TA.AperFunction,Plated,PTH,ComponentDrill
T3C0.900
%
G90
G05
T1
X111.014Y-97.942
X111.438Y-106.092
X112.294Y-89.881
X113.548Y-113.977
X115.222Y-82.263
X116.25Y-98.75
X116.5Y-105.25
X117.0Y-91.75
X117.25Y-121.25
X119.67Y-75.42
X122.384Y-127.595
X123.25Y-79.5
X125.25Y-112.25
X125.25Y-114.25
X125.443Y-69.651
X127.25Y-75.0
X127.25Y-112.25
X127.25Y-114.25
X128.25Y-98.25
X128.725Y-132.733
X129.75Y-82.25
X129.75Y-84.25
X131.75Y-82.25
X131.75Y-84.25
X132.29Y-65.208
X132.4Y-102.0
X133.0Y-71.0
X133.4Y-112.2
X135.5Y-115.9
X135.995Y-136.442
X136.6Y-108.8
X136.6Y-111.6
X137.2Y-106.0
X139.91Y-62.286
X140.0Y-122.75
X142.4Y-128.4
X143.556Y-138.667
X144.0Y-64.0
X145.0Y-115.0
X145.0Y-117.0
X145.75Y-131.5
X146.0Y-77.25
X146.0Y-79.25
X146.0Y-81.25
X146.0Y-83.25
X146.0Y-85.25
X146.4Y-100.6
X146.6Y-135.6
X147.0Y-115.0
X147.0Y-117.0
X147.0Y-123.4
X147.972Y-61.013
X148.0Y-77.25
X148.0Y-79.25
X148.0Y-81.25
X148.0Y-83.25
X148.0Y-85.25
X148.2Y-123.4
X148.8Y-63.6
X149.0Y-138.75
X149.2Y-131.6
X149.4Y-102.0
X150.0Y-77.25
X150.0Y-79.25
X150.0Y-81.25
X150.0Y-83.25
X150.0Y-85.25
X150.0Y-138.75
X151.0Y-130.6
X151.0Y-138.75
X151.2Y-63.6
X152.0Y-77.25
X152.0Y-79.25
X152.0Y-81.25
X152.0Y-83.25
X152.0Y-85.25
X152.6Y-100.0
X153.25Y-107.25
X153.25Y-109.25
X153.4Y-114.6
X153.6Y-117.8
X154.0Y-77.25
X154.0Y-79.25
X154.0Y-81.25
X154.0Y-83.25
X154.0Y-85.25
X155.0Y-104.05
X155.25Y-107.25
X155.25Y-109.25
X155.5Y-66.25
X156.122Y-61.443
X156.5Y-66.25
X157.4Y-64.4
X157.5Y-66.25
X160.09Y-137.714
X160.4Y-100.0
X160.4Y-101.4
X160.75Y-123.0
X160.75Y-125.0
X162.75Y-123.0
X162.75Y-125.0
X164.0Y-96.4
X164.0Y-101.4
X164.005Y-63.558
X164.75Y-112.5
X166.25Y-129.25
X166.4Y-98.0
X167.0Y-109.25
X167.5Y-102.25
X167.5Y-120.25
X167.71Y-134.792
X168.5Y-120.25
X169.5Y-104.25
X169.5Y-120.25
X170.0Y-90.5
X170.0Y-92.5
X170.5Y-104.25
X170.75Y-126.75
X171.0Y-73.5
X171.275Y-67.267
X171.5Y-104.25
X172.0Y-90.5
X172.0Y-92.5
X174.5Y-110.0
X174.5Y-111.25
X174.557Y-130.349
X175.5Y-122.0
X175.75Y-78.5
X175.75Y-110.0
X175.75Y-111.25
X177.0Y-80.4
X177.616Y-72.405
X178.0Y-81.75
X178.5Y-82.5
X179.086Y-83.25
X180.33Y-124.58
X182.75Y-78.75
X184.778Y-117.737
X186.452Y-86.023
X187.706Y-110.119
X188.562Y-93.908
X188.986Y-102.058
T2
X128.5Y-92.0
X130.5Y-92.0
T3
X119.941Y-88.959
X119.95Y-111.073
X120.913Y-86.612
X120.922Y-113.419
X136.562Y-70.93
X136.612Y-129.087
X138.909Y-69.958
X138.959Y-130.059
X147.42Y-66.275
X149.96Y-66.275
X152.5Y-66.275
X161.073Y-69.95
X161.073Y-130.05
X163.419Y-70.922
X163.419Y-129.078
X179.078Y-113.419
X179.086Y-86.599
X180.05Y-111.073
X180.058Y-88.946
M30
