%TF.GenerationSoftware,KiCad,Pcbnew,9.0.4*%
%TF.CreationDate,2025-09-15T23:51:39+05:30*%
%TF.ProjectId,IRHub_V3,49524875-625f-4563-932e-6b696361645f,3*%
%TF.SameCoordinates,Original*%
%TF.FileFunction,Drillmap*%
%TF.FilePolarity,Positive*%
%FSLAX45Y45*%
G04 Gerber Fmt 4.5, Leading zero omitted, Abs format (unit mm)*
G04 Created by KiCad (PCBNEW 9.0.4) date 2025-09-15 23:51:39*
%MOMM*%
%LPD*%
G01*
G04 APERTURE LIST*
%ADD10C,0.050000*%
%ADD11C,0.200000*%
%ADD12C,0.100000*%
G04 APERTURE END LIST*
D10*
X19000000Y-10000000D02*
G75*
G02*
X11000000Y-10000000I-4000000J0D01*
G01*
X11000000Y-10000000D02*
G75*
G02*
X19000000Y-10000000I4000000J0D01*
G01*
D11*
D12*
X14678500Y-13375000D02*
X14743500Y-13440000D01*
X14743500Y-13375000D02*
X14678500Y-13440000D01*
X15256500Y-13375000D02*
X15321500Y-13440000D01*
X15321500Y-13375000D02*
X15256500Y-13440000D01*
D11*
X11258277Y-14313984D02*
X11258277Y-14113984D01*
X11258277Y-14113984D02*
X11305896Y-14113984D01*
X11305896Y-14113984D02*
X11334467Y-14123508D01*
X11334467Y-14123508D02*
X11353515Y-14142555D01*
X11353515Y-14142555D02*
X11363039Y-14161603D01*
X11363039Y-14161603D02*
X11372562Y-14199698D01*
X11372562Y-14199698D02*
X11372562Y-14228269D01*
X11372562Y-14228269D02*
X11363039Y-14266365D01*
X11363039Y-14266365D02*
X11353515Y-14285412D01*
X11353515Y-14285412D02*
X11334467Y-14304460D01*
X11334467Y-14304460D02*
X11305896Y-14313984D01*
X11305896Y-14313984D02*
X11258277Y-14313984D01*
X11458277Y-14313984D02*
X11458277Y-14180650D01*
X11458277Y-14218746D02*
X11467801Y-14199698D01*
X11467801Y-14199698D02*
X11477324Y-14190174D01*
X11477324Y-14190174D02*
X11496372Y-14180650D01*
X11496372Y-14180650D02*
X11515420Y-14180650D01*
X11582086Y-14313984D02*
X11582086Y-14180650D01*
X11582086Y-14113984D02*
X11572562Y-14123508D01*
X11572562Y-14123508D02*
X11582086Y-14133031D01*
X11582086Y-14133031D02*
X11591610Y-14123508D01*
X11591610Y-14123508D02*
X11582086Y-14113984D01*
X11582086Y-14113984D02*
X11582086Y-14133031D01*
X11705896Y-14313984D02*
X11686848Y-14304460D01*
X11686848Y-14304460D02*
X11677324Y-14285412D01*
X11677324Y-14285412D02*
X11677324Y-14113984D01*
X11810658Y-14313984D02*
X11791610Y-14304460D01*
X11791610Y-14304460D02*
X11782086Y-14285412D01*
X11782086Y-14285412D02*
X11782086Y-14113984D01*
X12039229Y-14313984D02*
X12039229Y-14113984D01*
X12039229Y-14113984D02*
X12105896Y-14256841D01*
X12105896Y-14256841D02*
X12172562Y-14113984D01*
X12172562Y-14113984D02*
X12172562Y-14313984D01*
X12353515Y-14313984D02*
X12353515Y-14209222D01*
X12353515Y-14209222D02*
X12343991Y-14190174D01*
X12343991Y-14190174D02*
X12324943Y-14180650D01*
X12324943Y-14180650D02*
X12286848Y-14180650D01*
X12286848Y-14180650D02*
X12267801Y-14190174D01*
X12353515Y-14304460D02*
X12334467Y-14313984D01*
X12334467Y-14313984D02*
X12286848Y-14313984D01*
X12286848Y-14313984D02*
X12267801Y-14304460D01*
X12267801Y-14304460D02*
X12258277Y-14285412D01*
X12258277Y-14285412D02*
X12258277Y-14266365D01*
X12258277Y-14266365D02*
X12267801Y-14247317D01*
X12267801Y-14247317D02*
X12286848Y-14237793D01*
X12286848Y-14237793D02*
X12334467Y-14237793D01*
X12334467Y-14237793D02*
X12353515Y-14228269D01*
X12448753Y-14180650D02*
X12448753Y-14380650D01*
X12448753Y-14190174D02*
X12467801Y-14180650D01*
X12467801Y-14180650D02*
X12505896Y-14180650D01*
X12505896Y-14180650D02*
X12524943Y-14190174D01*
X12524943Y-14190174D02*
X12534467Y-14199698D01*
X12534467Y-14199698D02*
X12543991Y-14218746D01*
X12543991Y-14218746D02*
X12543991Y-14275888D01*
X12543991Y-14275888D02*
X12534467Y-14294936D01*
X12534467Y-14294936D02*
X12524943Y-14304460D01*
X12524943Y-14304460D02*
X12505896Y-14313984D01*
X12505896Y-14313984D02*
X12467801Y-14313984D01*
X12467801Y-14313984D02*
X12448753Y-14304460D01*
X12629705Y-14294936D02*
X12639229Y-14304460D01*
X12639229Y-14304460D02*
X12629705Y-14313984D01*
X12629705Y-14313984D02*
X12620182Y-14304460D01*
X12620182Y-14304460D02*
X12629705Y-14294936D01*
X12629705Y-14294936D02*
X12629705Y-14313984D01*
X12629705Y-14190174D02*
X12639229Y-14199698D01*
X12639229Y-14199698D02*
X12629705Y-14209222D01*
X12629705Y-14209222D02*
X12620182Y-14199698D01*
X12620182Y-14199698D02*
X12629705Y-14190174D01*
X12629705Y-14190174D02*
X12629705Y-14209222D01*
D12*
X10932500Y-14610000D02*
X10997500Y-14675000D01*
X10997500Y-14610000D02*
X10932500Y-14675000D01*
D11*
X11296372Y-14533984D02*
X11315420Y-14533984D01*
X11315420Y-14533984D02*
X11334467Y-14543508D01*
X11334467Y-14543508D02*
X11343991Y-14553031D01*
X11343991Y-14553031D02*
X11353515Y-14572079D01*
X11353515Y-14572079D02*
X11363039Y-14610174D01*
X11363039Y-14610174D02*
X11363039Y-14657793D01*
X11363039Y-14657793D02*
X11353515Y-14695888D01*
X11353515Y-14695888D02*
X11343991Y-14714936D01*
X11343991Y-14714936D02*
X11334467Y-14724460D01*
X11334467Y-14724460D02*
X11315420Y-14733984D01*
X11315420Y-14733984D02*
X11296372Y-14733984D01*
X11296372Y-14733984D02*
X11277324Y-14724460D01*
X11277324Y-14724460D02*
X11267801Y-14714936D01*
X11267801Y-14714936D02*
X11258277Y-14695888D01*
X11258277Y-14695888D02*
X11248753Y-14657793D01*
X11248753Y-14657793D02*
X11248753Y-14610174D01*
X11248753Y-14610174D02*
X11258277Y-14572079D01*
X11258277Y-14572079D02*
X11267801Y-14553031D01*
X11267801Y-14553031D02*
X11277324Y-14543508D01*
X11277324Y-14543508D02*
X11296372Y-14533984D01*
X11448753Y-14714936D02*
X11458277Y-14724460D01*
X11458277Y-14724460D02*
X11448753Y-14733984D01*
X11448753Y-14733984D02*
X11439229Y-14724460D01*
X11439229Y-14724460D02*
X11448753Y-14714936D01*
X11448753Y-14714936D02*
X11448753Y-14733984D01*
X11629705Y-14533984D02*
X11591610Y-14533984D01*
X11591610Y-14533984D02*
X11572562Y-14543508D01*
X11572562Y-14543508D02*
X11563039Y-14553031D01*
X11563039Y-14553031D02*
X11543991Y-14581603D01*
X11543991Y-14581603D02*
X11534467Y-14619698D01*
X11534467Y-14619698D02*
X11534467Y-14695888D01*
X11534467Y-14695888D02*
X11543991Y-14714936D01*
X11543991Y-14714936D02*
X11553515Y-14724460D01*
X11553515Y-14724460D02*
X11572562Y-14733984D01*
X11572562Y-14733984D02*
X11610658Y-14733984D01*
X11610658Y-14733984D02*
X11629705Y-14724460D01*
X11629705Y-14724460D02*
X11639229Y-14714936D01*
X11639229Y-14714936D02*
X11648753Y-14695888D01*
X11648753Y-14695888D02*
X11648753Y-14648269D01*
X11648753Y-14648269D02*
X11639229Y-14629222D01*
X11639229Y-14629222D02*
X11629705Y-14619698D01*
X11629705Y-14619698D02*
X11610658Y-14610174D01*
X11610658Y-14610174D02*
X11572562Y-14610174D01*
X11572562Y-14610174D02*
X11553515Y-14619698D01*
X11553515Y-14619698D02*
X11543991Y-14629222D01*
X11543991Y-14629222D02*
X11534467Y-14648269D01*
X11829705Y-14533984D02*
X11734467Y-14533984D01*
X11734467Y-14533984D02*
X11724943Y-14629222D01*
X11724943Y-14629222D02*
X11734467Y-14619698D01*
X11734467Y-14619698D02*
X11753515Y-14610174D01*
X11753515Y-14610174D02*
X11801134Y-14610174D01*
X11801134Y-14610174D02*
X11820182Y-14619698D01*
X11820182Y-14619698D02*
X11829705Y-14629222D01*
X11829705Y-14629222D02*
X11839229Y-14648269D01*
X11839229Y-14648269D02*
X11839229Y-14695888D01*
X11839229Y-14695888D02*
X11829705Y-14714936D01*
X11829705Y-14714936D02*
X11820182Y-14724460D01*
X11820182Y-14724460D02*
X11801134Y-14733984D01*
X11801134Y-14733984D02*
X11753515Y-14733984D01*
X11753515Y-14733984D02*
X11734467Y-14724460D01*
X11734467Y-14724460D02*
X11724943Y-14714936D01*
X11963039Y-14533984D02*
X11982086Y-14533984D01*
X11982086Y-14533984D02*
X12001134Y-14543508D01*
X12001134Y-14543508D02*
X12010658Y-14553031D01*
X12010658Y-14553031D02*
X12020182Y-14572079D01*
X12020182Y-14572079D02*
X12029705Y-14610174D01*
X12029705Y-14610174D02*
X12029705Y-14657793D01*
X12029705Y-14657793D02*
X12020182Y-14695888D01*
X12020182Y-14695888D02*
X12010658Y-14714936D01*
X12010658Y-14714936D02*
X12001134Y-14724460D01*
X12001134Y-14724460D02*
X11982086Y-14733984D01*
X11982086Y-14733984D02*
X11963039Y-14733984D01*
X11963039Y-14733984D02*
X11943991Y-14724460D01*
X11943991Y-14724460D02*
X11934467Y-14714936D01*
X11934467Y-14714936D02*
X11924943Y-14695888D01*
X11924943Y-14695888D02*
X11915420Y-14657793D01*
X11915420Y-14657793D02*
X11915420Y-14610174D01*
X11915420Y-14610174D02*
X11924943Y-14572079D01*
X11924943Y-14572079D02*
X11934467Y-14553031D01*
X11934467Y-14553031D02*
X11943991Y-14543508D01*
X11943991Y-14543508D02*
X11963039Y-14533984D01*
X12115420Y-14733984D02*
X12115420Y-14600650D01*
X12115420Y-14619698D02*
X12124943Y-14610174D01*
X12124943Y-14610174D02*
X12143991Y-14600650D01*
X12143991Y-14600650D02*
X12172563Y-14600650D01*
X12172563Y-14600650D02*
X12191610Y-14610174D01*
X12191610Y-14610174D02*
X12201134Y-14629222D01*
X12201134Y-14629222D02*
X12201134Y-14733984D01*
X12201134Y-14629222D02*
X12210658Y-14610174D01*
X12210658Y-14610174D02*
X12229705Y-14600650D01*
X12229705Y-14600650D02*
X12258277Y-14600650D01*
X12258277Y-14600650D02*
X12277324Y-14610174D01*
X12277324Y-14610174D02*
X12286848Y-14629222D01*
X12286848Y-14629222D02*
X12286848Y-14733984D01*
X12382086Y-14733984D02*
X12382086Y-14600650D01*
X12382086Y-14619698D02*
X12391610Y-14610174D01*
X12391610Y-14610174D02*
X12410658Y-14600650D01*
X12410658Y-14600650D02*
X12439229Y-14600650D01*
X12439229Y-14600650D02*
X12458277Y-14610174D01*
X12458277Y-14610174D02*
X12467801Y-14629222D01*
X12467801Y-14629222D02*
X12467801Y-14733984D01*
X12467801Y-14629222D02*
X12477324Y-14610174D01*
X12477324Y-14610174D02*
X12496372Y-14600650D01*
X12496372Y-14600650D02*
X12524943Y-14600650D01*
X12524943Y-14600650D02*
X12543991Y-14610174D01*
X12543991Y-14610174D02*
X12553515Y-14629222D01*
X12553515Y-14629222D02*
X12553515Y-14733984D01*
X12943991Y-14524460D02*
X12772563Y-14781603D01*
X13201134Y-14533984D02*
X13220182Y-14533984D01*
X13220182Y-14533984D02*
X13239229Y-14543508D01*
X13239229Y-14543508D02*
X13248753Y-14553031D01*
X13248753Y-14553031D02*
X13258277Y-14572079D01*
X13258277Y-14572079D02*
X13267801Y-14610174D01*
X13267801Y-14610174D02*
X13267801Y-14657793D01*
X13267801Y-14657793D02*
X13258277Y-14695888D01*
X13258277Y-14695888D02*
X13248753Y-14714936D01*
X13248753Y-14714936D02*
X13239229Y-14724460D01*
X13239229Y-14724460D02*
X13220182Y-14733984D01*
X13220182Y-14733984D02*
X13201134Y-14733984D01*
X13201134Y-14733984D02*
X13182086Y-14724460D01*
X13182086Y-14724460D02*
X13172563Y-14714936D01*
X13172563Y-14714936D02*
X13163039Y-14695888D01*
X13163039Y-14695888D02*
X13153515Y-14657793D01*
X13153515Y-14657793D02*
X13153515Y-14610174D01*
X13153515Y-14610174D02*
X13163039Y-14572079D01*
X13163039Y-14572079D02*
X13172563Y-14553031D01*
X13172563Y-14553031D02*
X13182086Y-14543508D01*
X13182086Y-14543508D02*
X13201134Y-14533984D01*
X13353515Y-14714936D02*
X13363039Y-14724460D01*
X13363039Y-14724460D02*
X13353515Y-14733984D01*
X13353515Y-14733984D02*
X13343991Y-14724460D01*
X13343991Y-14724460D02*
X13353515Y-14714936D01*
X13353515Y-14714936D02*
X13353515Y-14733984D01*
X13486848Y-14533984D02*
X13505896Y-14533984D01*
X13505896Y-14533984D02*
X13524944Y-14543508D01*
X13524944Y-14543508D02*
X13534467Y-14553031D01*
X13534467Y-14553031D02*
X13543991Y-14572079D01*
X13543991Y-14572079D02*
X13553515Y-14610174D01*
X13553515Y-14610174D02*
X13553515Y-14657793D01*
X13553515Y-14657793D02*
X13543991Y-14695888D01*
X13543991Y-14695888D02*
X13534467Y-14714936D01*
X13534467Y-14714936D02*
X13524944Y-14724460D01*
X13524944Y-14724460D02*
X13505896Y-14733984D01*
X13505896Y-14733984D02*
X13486848Y-14733984D01*
X13486848Y-14733984D02*
X13467801Y-14724460D01*
X13467801Y-14724460D02*
X13458277Y-14714936D01*
X13458277Y-14714936D02*
X13448753Y-14695888D01*
X13448753Y-14695888D02*
X13439229Y-14657793D01*
X13439229Y-14657793D02*
X13439229Y-14610174D01*
X13439229Y-14610174D02*
X13448753Y-14572079D01*
X13448753Y-14572079D02*
X13458277Y-14553031D01*
X13458277Y-14553031D02*
X13467801Y-14543508D01*
X13467801Y-14543508D02*
X13486848Y-14533984D01*
X13629706Y-14553031D02*
X13639229Y-14543508D01*
X13639229Y-14543508D02*
X13658277Y-14533984D01*
X13658277Y-14533984D02*
X13705896Y-14533984D01*
X13705896Y-14533984D02*
X13724944Y-14543508D01*
X13724944Y-14543508D02*
X13734467Y-14553031D01*
X13734467Y-14553031D02*
X13743991Y-14572079D01*
X13743991Y-14572079D02*
X13743991Y-14591127D01*
X13743991Y-14591127D02*
X13734467Y-14619698D01*
X13734467Y-14619698D02*
X13620182Y-14733984D01*
X13620182Y-14733984D02*
X13743991Y-14733984D01*
X13924944Y-14533984D02*
X13829706Y-14533984D01*
X13829706Y-14533984D02*
X13820182Y-14629222D01*
X13820182Y-14629222D02*
X13829706Y-14619698D01*
X13829706Y-14619698D02*
X13848753Y-14610174D01*
X13848753Y-14610174D02*
X13896372Y-14610174D01*
X13896372Y-14610174D02*
X13915420Y-14619698D01*
X13915420Y-14619698D02*
X13924944Y-14629222D01*
X13924944Y-14629222D02*
X13934467Y-14648269D01*
X13934467Y-14648269D02*
X13934467Y-14695888D01*
X13934467Y-14695888D02*
X13924944Y-14714936D01*
X13924944Y-14714936D02*
X13915420Y-14724460D01*
X13915420Y-14724460D02*
X13896372Y-14733984D01*
X13896372Y-14733984D02*
X13848753Y-14733984D01*
X13848753Y-14733984D02*
X13829706Y-14724460D01*
X13829706Y-14724460D02*
X13820182Y-14714936D01*
X14105896Y-14533984D02*
X14067801Y-14533984D01*
X14067801Y-14533984D02*
X14048753Y-14543508D01*
X14048753Y-14543508D02*
X14039229Y-14553031D01*
X14039229Y-14553031D02*
X14020182Y-14581603D01*
X14020182Y-14581603D02*
X14010658Y-14619698D01*
X14010658Y-14619698D02*
X14010658Y-14695888D01*
X14010658Y-14695888D02*
X14020182Y-14714936D01*
X14020182Y-14714936D02*
X14029706Y-14724460D01*
X14029706Y-14724460D02*
X14048753Y-14733984D01*
X14048753Y-14733984D02*
X14086848Y-14733984D01*
X14086848Y-14733984D02*
X14105896Y-14724460D01*
X14105896Y-14724460D02*
X14115420Y-14714936D01*
X14115420Y-14714936D02*
X14124944Y-14695888D01*
X14124944Y-14695888D02*
X14124944Y-14648269D01*
X14124944Y-14648269D02*
X14115420Y-14629222D01*
X14115420Y-14629222D02*
X14105896Y-14619698D01*
X14105896Y-14619698D02*
X14086848Y-14610174D01*
X14086848Y-14610174D02*
X14048753Y-14610174D01*
X14048753Y-14610174D02*
X14029706Y-14619698D01*
X14029706Y-14619698D02*
X14020182Y-14629222D01*
X14020182Y-14629222D02*
X14010658Y-14648269D01*
X14201134Y-14533984D02*
X14201134Y-14572079D01*
X14277325Y-14533984D02*
X14277325Y-14572079D01*
X14572563Y-14810174D02*
X14563039Y-14800650D01*
X14563039Y-14800650D02*
X14543991Y-14772079D01*
X14543991Y-14772079D02*
X14534468Y-14753031D01*
X14534468Y-14753031D02*
X14524944Y-14724460D01*
X14524944Y-14724460D02*
X14515420Y-14676841D01*
X14515420Y-14676841D02*
X14515420Y-14638746D01*
X14515420Y-14638746D02*
X14524944Y-14591127D01*
X14524944Y-14591127D02*
X14534468Y-14562555D01*
X14534468Y-14562555D02*
X14543991Y-14543508D01*
X14543991Y-14543508D02*
X14563039Y-14514936D01*
X14563039Y-14514936D02*
X14572563Y-14505412D01*
X14639229Y-14553031D02*
X14648753Y-14543508D01*
X14648753Y-14543508D02*
X14667801Y-14533984D01*
X14667801Y-14533984D02*
X14715420Y-14533984D01*
X14715420Y-14533984D02*
X14734468Y-14543508D01*
X14734468Y-14543508D02*
X14743991Y-14553031D01*
X14743991Y-14553031D02*
X14753515Y-14572079D01*
X14753515Y-14572079D02*
X14753515Y-14591127D01*
X14753515Y-14591127D02*
X14743991Y-14619698D01*
X14743991Y-14619698D02*
X14629706Y-14733984D01*
X14629706Y-14733984D02*
X14753515Y-14733984D01*
X14991610Y-14733984D02*
X14991610Y-14533984D01*
X15077325Y-14733984D02*
X15077325Y-14629222D01*
X15077325Y-14629222D02*
X15067801Y-14610174D01*
X15067801Y-14610174D02*
X15048753Y-14600650D01*
X15048753Y-14600650D02*
X15020182Y-14600650D01*
X15020182Y-14600650D02*
X15001134Y-14610174D01*
X15001134Y-14610174D02*
X14991610Y-14619698D01*
X15201134Y-14733984D02*
X15182087Y-14724460D01*
X15182087Y-14724460D02*
X15172563Y-14714936D01*
X15172563Y-14714936D02*
X15163039Y-14695888D01*
X15163039Y-14695888D02*
X15163039Y-14638746D01*
X15163039Y-14638746D02*
X15172563Y-14619698D01*
X15172563Y-14619698D02*
X15182087Y-14610174D01*
X15182087Y-14610174D02*
X15201134Y-14600650D01*
X15201134Y-14600650D02*
X15229706Y-14600650D01*
X15229706Y-14600650D02*
X15248753Y-14610174D01*
X15248753Y-14610174D02*
X15258277Y-14619698D01*
X15258277Y-14619698D02*
X15267801Y-14638746D01*
X15267801Y-14638746D02*
X15267801Y-14695888D01*
X15267801Y-14695888D02*
X15258277Y-14714936D01*
X15258277Y-14714936D02*
X15248753Y-14724460D01*
X15248753Y-14724460D02*
X15229706Y-14733984D01*
X15229706Y-14733984D02*
X15201134Y-14733984D01*
X15382087Y-14733984D02*
X15363039Y-14724460D01*
X15363039Y-14724460D02*
X15353515Y-14705412D01*
X15353515Y-14705412D02*
X15353515Y-14533984D01*
X15534468Y-14724460D02*
X15515420Y-14733984D01*
X15515420Y-14733984D02*
X15477325Y-14733984D01*
X15477325Y-14733984D02*
X15458277Y-14724460D01*
X15458277Y-14724460D02*
X15448753Y-14705412D01*
X15448753Y-14705412D02*
X15448753Y-14629222D01*
X15448753Y-14629222D02*
X15458277Y-14610174D01*
X15458277Y-14610174D02*
X15477325Y-14600650D01*
X15477325Y-14600650D02*
X15515420Y-14600650D01*
X15515420Y-14600650D02*
X15534468Y-14610174D01*
X15534468Y-14610174D02*
X15543991Y-14629222D01*
X15543991Y-14629222D02*
X15543991Y-14648269D01*
X15543991Y-14648269D02*
X15448753Y-14667317D01*
X15620182Y-14724460D02*
X15639230Y-14733984D01*
X15639230Y-14733984D02*
X15677325Y-14733984D01*
X15677325Y-14733984D02*
X15696372Y-14724460D01*
X15696372Y-14724460D02*
X15705896Y-14705412D01*
X15705896Y-14705412D02*
X15705896Y-14695888D01*
X15705896Y-14695888D02*
X15696372Y-14676841D01*
X15696372Y-14676841D02*
X15677325Y-14667317D01*
X15677325Y-14667317D02*
X15648753Y-14667317D01*
X15648753Y-14667317D02*
X15629706Y-14657793D01*
X15629706Y-14657793D02*
X15620182Y-14638746D01*
X15620182Y-14638746D02*
X15620182Y-14629222D01*
X15620182Y-14629222D02*
X15629706Y-14610174D01*
X15629706Y-14610174D02*
X15648753Y-14600650D01*
X15648753Y-14600650D02*
X15677325Y-14600650D01*
X15677325Y-14600650D02*
X15696372Y-14610174D01*
X15772563Y-14810174D02*
X15782087Y-14800650D01*
X15782087Y-14800650D02*
X15801134Y-14772079D01*
X15801134Y-14772079D02*
X15810658Y-14753031D01*
X15810658Y-14753031D02*
X15820182Y-14724460D01*
X15820182Y-14724460D02*
X15829706Y-14676841D01*
X15829706Y-14676841D02*
X15829706Y-14638746D01*
X15829706Y-14638746D02*
X15820182Y-14591127D01*
X15820182Y-14591127D02*
X15810658Y-14562555D01*
X15810658Y-14562555D02*
X15801134Y-14543508D01*
X15801134Y-14543508D02*
X15782087Y-14514936D01*
X15782087Y-14514936D02*
X15772563Y-14505412D01*
X16134468Y-14810174D02*
X16124944Y-14800650D01*
X16124944Y-14800650D02*
X16105896Y-14772079D01*
X16105896Y-14772079D02*
X16096372Y-14753031D01*
X16096372Y-14753031D02*
X16086849Y-14724460D01*
X16086849Y-14724460D02*
X16077325Y-14676841D01*
X16077325Y-14676841D02*
X16077325Y-14638746D01*
X16077325Y-14638746D02*
X16086849Y-14591127D01*
X16086849Y-14591127D02*
X16096372Y-14562555D01*
X16096372Y-14562555D02*
X16105896Y-14543508D01*
X16105896Y-14543508D02*
X16124944Y-14514936D01*
X16124944Y-14514936D02*
X16134468Y-14505412D01*
X16210658Y-14600650D02*
X16210658Y-14733984D01*
X16210658Y-14619698D02*
X16220182Y-14610174D01*
X16220182Y-14610174D02*
X16239230Y-14600650D01*
X16239230Y-14600650D02*
X16267801Y-14600650D01*
X16267801Y-14600650D02*
X16286849Y-14610174D01*
X16286849Y-14610174D02*
X16296372Y-14629222D01*
X16296372Y-14629222D02*
X16296372Y-14733984D01*
X16420182Y-14733984D02*
X16401134Y-14724460D01*
X16401134Y-14724460D02*
X16391611Y-14714936D01*
X16391611Y-14714936D02*
X16382087Y-14695888D01*
X16382087Y-14695888D02*
X16382087Y-14638746D01*
X16382087Y-14638746D02*
X16391611Y-14619698D01*
X16391611Y-14619698D02*
X16401134Y-14610174D01*
X16401134Y-14610174D02*
X16420182Y-14600650D01*
X16420182Y-14600650D02*
X16448753Y-14600650D01*
X16448753Y-14600650D02*
X16467801Y-14610174D01*
X16467801Y-14610174D02*
X16477325Y-14619698D01*
X16477325Y-14619698D02*
X16486849Y-14638746D01*
X16486849Y-14638746D02*
X16486849Y-14695888D01*
X16486849Y-14695888D02*
X16477325Y-14714936D01*
X16477325Y-14714936D02*
X16467801Y-14724460D01*
X16467801Y-14724460D02*
X16448753Y-14733984D01*
X16448753Y-14733984D02*
X16420182Y-14733984D01*
X16543992Y-14600650D02*
X16620182Y-14600650D01*
X16572563Y-14533984D02*
X16572563Y-14705412D01*
X16572563Y-14705412D02*
X16582087Y-14724460D01*
X16582087Y-14724460D02*
X16601134Y-14733984D01*
X16601134Y-14733984D02*
X16620182Y-14733984D01*
X16839230Y-14600650D02*
X16839230Y-14800650D01*
X16839230Y-14610174D02*
X16858277Y-14600650D01*
X16858277Y-14600650D02*
X16896373Y-14600650D01*
X16896373Y-14600650D02*
X16915420Y-14610174D01*
X16915420Y-14610174D02*
X16924944Y-14619698D01*
X16924944Y-14619698D02*
X16934468Y-14638746D01*
X16934468Y-14638746D02*
X16934468Y-14695888D01*
X16934468Y-14695888D02*
X16924944Y-14714936D01*
X16924944Y-14714936D02*
X16915420Y-14724460D01*
X16915420Y-14724460D02*
X16896373Y-14733984D01*
X16896373Y-14733984D02*
X16858277Y-14733984D01*
X16858277Y-14733984D02*
X16839230Y-14724460D01*
X17048754Y-14733984D02*
X17029706Y-14724460D01*
X17029706Y-14724460D02*
X17020182Y-14705412D01*
X17020182Y-14705412D02*
X17020182Y-14533984D01*
X17210658Y-14733984D02*
X17210658Y-14629222D01*
X17210658Y-14629222D02*
X17201135Y-14610174D01*
X17201135Y-14610174D02*
X17182087Y-14600650D01*
X17182087Y-14600650D02*
X17143992Y-14600650D01*
X17143992Y-14600650D02*
X17124944Y-14610174D01*
X17210658Y-14724460D02*
X17191611Y-14733984D01*
X17191611Y-14733984D02*
X17143992Y-14733984D01*
X17143992Y-14733984D02*
X17124944Y-14724460D01*
X17124944Y-14724460D02*
X17115420Y-14705412D01*
X17115420Y-14705412D02*
X17115420Y-14686365D01*
X17115420Y-14686365D02*
X17124944Y-14667317D01*
X17124944Y-14667317D02*
X17143992Y-14657793D01*
X17143992Y-14657793D02*
X17191611Y-14657793D01*
X17191611Y-14657793D02*
X17210658Y-14648269D01*
X17277325Y-14600650D02*
X17353515Y-14600650D01*
X17305896Y-14533984D02*
X17305896Y-14705412D01*
X17305896Y-14705412D02*
X17315420Y-14724460D01*
X17315420Y-14724460D02*
X17334468Y-14733984D01*
X17334468Y-14733984D02*
X17353515Y-14733984D01*
X17496373Y-14724460D02*
X17477325Y-14733984D01*
X17477325Y-14733984D02*
X17439230Y-14733984D01*
X17439230Y-14733984D02*
X17420182Y-14724460D01*
X17420182Y-14724460D02*
X17410658Y-14705412D01*
X17410658Y-14705412D02*
X17410658Y-14629222D01*
X17410658Y-14629222D02*
X17420182Y-14610174D01*
X17420182Y-14610174D02*
X17439230Y-14600650D01*
X17439230Y-14600650D02*
X17477325Y-14600650D01*
X17477325Y-14600650D02*
X17496373Y-14610174D01*
X17496373Y-14610174D02*
X17505896Y-14629222D01*
X17505896Y-14629222D02*
X17505896Y-14648269D01*
X17505896Y-14648269D02*
X17410658Y-14667317D01*
X17677325Y-14733984D02*
X17677325Y-14533984D01*
X17677325Y-14724460D02*
X17658277Y-14733984D01*
X17658277Y-14733984D02*
X17620182Y-14733984D01*
X17620182Y-14733984D02*
X17601135Y-14724460D01*
X17601135Y-14724460D02*
X17591611Y-14714936D01*
X17591611Y-14714936D02*
X17582087Y-14695888D01*
X17582087Y-14695888D02*
X17582087Y-14638746D01*
X17582087Y-14638746D02*
X17591611Y-14619698D01*
X17591611Y-14619698D02*
X17601135Y-14610174D01*
X17601135Y-14610174D02*
X17620182Y-14600650D01*
X17620182Y-14600650D02*
X17658277Y-14600650D01*
X17658277Y-14600650D02*
X17677325Y-14610174D01*
X17753516Y-14810174D02*
X17763039Y-14800650D01*
X17763039Y-14800650D02*
X17782087Y-14772079D01*
X17782087Y-14772079D02*
X17791611Y-14753031D01*
X17791611Y-14753031D02*
X17801135Y-14724460D01*
X17801135Y-14724460D02*
X17810658Y-14676841D01*
X17810658Y-14676841D02*
X17810658Y-14638746D01*
X17810658Y-14638746D02*
X17801135Y-14591127D01*
X17801135Y-14591127D02*
X17791611Y-14562555D01*
X17791611Y-14562555D02*
X17782087Y-14543508D01*
X17782087Y-14543508D02*
X17763039Y-14514936D01*
X17763039Y-14514936D02*
X17753516Y-14505412D01*
M02*
