G04 #@! TF.GenerationSoftware,KiCad,Pcbnew,9.0.4*
G04 #@! TF.CreationDate,2025-09-15T23:50:21+05:30*
G04 #@! TF.ProjectId,IRHub_V3,49524875-625f-4563-932e-6b696361645f,3*
G04 #@! TF.SameCoordinates,Original*
G04 #@! TF.FileFunction,Copper,L2,Bot*
G04 #@! TF.FilePolarity,Positive*
%FSLAX46Y46*%
G04 Gerber Fmt 4.6, Leading zero omitted, Abs format (unit mm)*
G04 Created by KiCad (PCBNEW 9.0.4) date 2025-09-15 23:50:21*
%MOMM*%
%LPD*%
G01*
G04 APERTURE LIST*
G04 Aperture macros list*
%AMRoundRect*
0 Rectangle with rounded corners*
0 $1 Rounding radius*
0 $2 $3 $4 $5 $6 $7 $8 $9 X,Y pos of 4 corners*
0 Add a 4 corners polygon primitive as box body*
4,1,4,$2,$3,$4,$5,$6,$7,$8,$9,$2,$3,0*
0 Add four circle primitives for the rounded corners*
1,1,$1+$1,$2,$3*
1,1,$1+$1,$4,$5*
1,1,$1+$1,$6,$7*
1,1,$1+$1,$8,$9*
0 Add four rect primitives between the rounded corners*
20,1,$1+$1,$2,$3,$4,$5,0*
20,1,$1+$1,$4,$5,$6,$7,0*
20,1,$1+$1,$6,$7,$8,$9,0*
20,1,$1+$1,$8,$9,$2,$3,0*%
%AMRotRect*
0 Rectangle, with rotation*
0 The origin of the aperture is its center*
0 $1 length*
0 $2 width*
0 $3 Rotation angle, in degrees counterclockwise*
0 Add horizontal line*
21,1,$1,$2,0,0,$3*%
G04 Aperture macros list end*
G04 #@! TA.AperFunction,ComponentPad*
%ADD10RotRect,1.800000X1.800000X337.500000*%
G04 #@! TD*
G04 #@! TA.AperFunction,ComponentPad*
%ADD11C,1.800000*%
G04 #@! TD*
G04 #@! TA.AperFunction,ComponentPad*
%ADD12RoundRect,0.250200X0.649800X0.649800X-0.649800X0.649800X-0.649800X-0.649800X0.649800X-0.649800X0*%
G04 #@! TD*
G04 #@! TA.AperFunction,ComponentPad*
%ADD13RotRect,1.800000X1.800000X292.500000*%
G04 #@! TD*
G04 #@! TA.AperFunction,ComponentPad*
%ADD14RotRect,1.800000X1.800000X157.500000*%
G04 #@! TD*
G04 #@! TA.AperFunction,ComponentPad*
%ADD15RotRect,1.800000X1.800000X247.500000*%
G04 #@! TD*
G04 #@! TA.AperFunction,ComponentPad*
%ADD16R,1.350000X1.350000*%
G04 #@! TD*
G04 #@! TA.AperFunction,ComponentPad*
%ADD17C,1.350000*%
G04 #@! TD*
G04 #@! TA.AperFunction,ComponentPad*
%ADD18RotRect,1.800000X1.800000X202.500000*%
G04 #@! TD*
G04 #@! TA.AperFunction,ComponentPad*
%ADD19RotRect,1.800000X1.800000X67.500000*%
G04 #@! TD*
G04 #@! TA.AperFunction,ComponentPad*
%ADD20RotRect,1.800000X1.800000X112.500000*%
G04 #@! TD*
G04 #@! TA.AperFunction,ComponentPad*
%ADD21RotRect,1.800000X1.800000X22.500000*%
G04 #@! TD*
G04 #@! TA.AperFunction,ViaPad*
%ADD22C,0.600000*%
G04 #@! TD*
G04 #@! TA.AperFunction,Conductor*
%ADD23C,0.600000*%
G04 #@! TD*
G04 #@! TA.AperFunction,Conductor*
%ADD24C,0.400000*%
G04 #@! TD*
G04 #@! TA.AperFunction,Conductor*
%ADD25C,0.200000*%
G04 #@! TD*
G04 APERTURE END LIST*
D10*
X161072543Y-69949848D03*
D11*
X163419197Y-70921864D03*
D12*
X152500000Y-66275000D03*
D11*
X149960000Y-66275000D03*
X147420000Y-66275000D03*
D13*
X179085791Y-86599281D03*
D11*
X180057807Y-88945935D03*
D14*
X138958849Y-130059456D03*
D11*
X136612195Y-129087440D03*
D15*
X180050154Y-111072543D03*
D11*
X179078138Y-113419197D03*
D16*
X130500000Y-92000000D03*
D17*
X128500000Y-92000000D03*
D18*
X163419197Y-129078137D03*
D11*
X161072543Y-130050153D03*
D19*
X119940544Y-88958849D03*
D11*
X120912560Y-86612195D03*
D20*
X120921863Y-113419197D03*
D11*
X119949847Y-111072543D03*
D21*
X136562326Y-70929517D03*
D11*
X138908980Y-69957501D03*
D22*
X151200000Y-63600000D03*
X144000000Y-64000000D03*
X157400000Y-64400000D03*
X148800000Y-63600000D03*
X177616210Y-72405256D03*
X117000000Y-91750000D03*
X147000000Y-115000000D03*
X146000000Y-81250000D03*
X129750000Y-82250000D03*
X186452457Y-86023471D03*
X145000000Y-115000000D03*
X155250000Y-107250000D03*
X188561767Y-93907784D03*
X170500000Y-104250000D03*
X132289717Y-65208178D03*
X164750000Y-112500000D03*
X174556897Y-130349362D03*
X175750000Y-110000000D03*
X116500000Y-105250000D03*
X131750000Y-82250000D03*
X140000000Y-122750000D03*
X146000000Y-83250000D03*
X170750000Y-126750000D03*
X184778040Y-117737332D03*
X179085791Y-83250000D03*
X166250000Y-129250000D03*
X160750000Y-125000000D03*
X135995130Y-136441578D03*
X167500000Y-120250000D03*
X123250000Y-79500000D03*
X152000000Y-83250000D03*
X122383790Y-127594744D03*
X175750000Y-78500000D03*
X150000000Y-77250000D03*
X139910356Y-62286288D03*
X168500000Y-120250000D03*
X175750000Y-111250000D03*
X111014257Y-97941644D03*
X167000000Y-109250000D03*
X150000000Y-83250000D03*
X125250000Y-112250000D03*
X150000000Y-79250000D03*
X131750000Y-84250000D03*
X127250000Y-112250000D03*
X116250000Y-98750000D03*
X182750000Y-78750000D03*
X162750000Y-125000000D03*
X127250000Y-114250000D03*
X154000000Y-83250000D03*
X178500000Y-82500000D03*
X145750000Y-131500000D03*
X150000000Y-85250000D03*
X164004870Y-63558422D03*
X154000000Y-77250000D03*
X152000000Y-77250000D03*
X115221960Y-82262668D03*
X157500000Y-66250000D03*
X156122200Y-61442982D03*
X156500000Y-66250000D03*
X174500000Y-110000000D03*
X187705855Y-110118968D03*
X180330258Y-124580490D03*
X127250000Y-75000000D03*
X170000000Y-92500000D03*
X148000000Y-85250000D03*
X153250000Y-107250000D03*
X111438233Y-106092216D03*
X169500000Y-104250000D03*
X171000000Y-73500000D03*
X150000000Y-81250000D03*
X152000000Y-81250000D03*
X160750000Y-123000000D03*
X148000000Y-79250000D03*
X171500000Y-104250000D03*
X160089644Y-137713712D03*
X133000000Y-71000000D03*
X172000000Y-92500000D03*
X150000000Y-138750000D03*
X119669742Y-75419510D03*
X175500000Y-122000000D03*
X154000000Y-81250000D03*
X155250000Y-109250000D03*
X154000000Y-85250000D03*
X147971960Y-61012668D03*
X172000000Y-90500000D03*
X145000000Y-117000000D03*
X149000000Y-138750000D03*
X178000000Y-81750000D03*
X153250000Y-109250000D03*
X146000000Y-77250000D03*
X125443103Y-69650638D03*
X125250000Y-114250000D03*
X170000000Y-90500000D03*
X148000000Y-81250000D03*
X152000000Y-85250000D03*
X147000000Y-117000000D03*
X146000000Y-79250000D03*
X162750000Y-123000000D03*
X155500000Y-66250000D03*
X188985743Y-102058356D03*
X151000000Y-138750000D03*
X146000000Y-85250000D03*
X154000000Y-79250000D03*
X169500000Y-120250000D03*
X113547543Y-113976529D03*
X174500000Y-111250000D03*
X171275460Y-67266534D03*
X167710283Y-134791822D03*
X148000000Y-83250000D03*
X129750000Y-84250000D03*
X112294145Y-89881032D03*
X128724540Y-132733466D03*
X143555560Y-138666639D03*
X128250000Y-98250000D03*
X148000000Y-77250000D03*
X117250000Y-121250000D03*
X152000000Y-79250000D03*
X177000000Y-80400000D03*
X147000000Y-123400000D03*
X153400000Y-114600000D03*
X149200000Y-131600000D03*
X151000000Y-130600000D03*
X153600000Y-117800000D03*
X148200000Y-123400000D03*
X136600000Y-108800000D03*
X136600000Y-111600000D03*
X142400000Y-128400000D03*
X146600000Y-135600000D03*
X160400000Y-100000000D03*
X152600000Y-100000000D03*
X133400000Y-112200000D03*
X166400000Y-98000000D03*
X132400000Y-102000000D03*
X160400000Y-101400000D03*
X149400000Y-102000000D03*
X164000000Y-101400000D03*
X164000000Y-96400000D03*
X146400000Y-100600000D03*
X135500000Y-115900000D03*
X137200000Y-106000000D03*
X167500000Y-102250000D03*
X155000000Y-104050000D03*
D23*
X157400000Y-64400000D02*
X151200000Y-63600000D01*
X148800000Y-63600000D02*
X144000000Y-64000000D01*
D24*
X148600000Y-64600000D02*
X147420000Y-66275000D01*
X150000000Y-62000000D02*
X150000000Y-64000000D01*
X177200000Y-80200000D02*
X177200000Y-73600000D01*
X164000000Y-64800000D02*
X157800000Y-62800000D01*
X172800000Y-69600000D02*
X169000000Y-67000000D01*
X150000000Y-64000000D02*
X148600000Y-64600000D01*
X169000000Y-67000000D02*
X164000000Y-64800000D01*
X177200000Y-73600000D02*
X172800000Y-69600000D01*
X152200000Y-62000000D02*
X150000000Y-62000000D01*
X157800000Y-62800000D02*
X152200000Y-62000000D01*
X177000000Y-80400000D02*
X177200000Y-80200000D01*
D25*
X147000000Y-123400000D02*
X152800000Y-117600000D01*
X152800000Y-117600000D02*
X152800000Y-117400000D01*
X152800000Y-117400000D02*
X152800000Y-115200000D01*
X152800000Y-115200000D02*
X153400000Y-114600000D01*
X149200000Y-131600000D02*
X149800000Y-131000000D01*
X150600000Y-131000000D02*
X151000000Y-130600000D01*
X149800000Y-131000000D02*
X150600000Y-131000000D01*
X153600000Y-118000000D02*
X153600000Y-117800000D01*
X148200000Y-123400000D02*
X153600000Y-118000000D01*
D24*
X136600000Y-111600000D02*
X136600000Y-108800000D01*
X146600000Y-135600000D02*
X142400000Y-131400000D01*
X142400000Y-131400000D02*
X142400000Y-128400000D01*
D25*
X134600000Y-103800000D02*
X150800000Y-103800000D01*
X160400000Y-100000000D02*
X164400000Y-100000000D01*
X151800000Y-102800000D02*
X151800000Y-100800000D01*
X164400000Y-100000000D02*
X166400000Y-98000000D01*
X151800000Y-100800000D02*
X152600000Y-100000000D01*
X133400000Y-112200000D02*
X133400000Y-105000000D01*
X150800000Y-103800000D02*
X151800000Y-102800000D01*
X133400000Y-105000000D02*
X134600000Y-103800000D01*
X164000000Y-101400000D02*
X160400000Y-101400000D01*
X132400000Y-102000000D02*
X149400000Y-102000000D01*
X164000000Y-96400000D02*
X150600000Y-96400000D01*
X150600000Y-96400000D02*
X146400000Y-100600000D01*
X135500000Y-107700000D02*
X137200000Y-106000000D01*
X135500000Y-115900000D02*
X135500000Y-107700000D01*
X155000000Y-104050000D02*
X155800000Y-103250000D01*
X166500000Y-103250000D02*
X167500000Y-102250000D01*
X155800000Y-103250000D02*
X166500000Y-103250000D01*
D24*
X117600000Y-112600000D02*
X116800000Y-109400000D01*
X136200000Y-131600000D02*
X132200000Y-129800000D01*
X118400000Y-86200000D02*
X119800000Y-83200000D01*
X180050154Y-111072543D02*
X181200000Y-114000000D01*
X145000000Y-137400000D02*
X138958849Y-131358849D01*
X182200000Y-88200000D02*
X183200000Y-91200000D01*
X181600000Y-94200000D02*
X182000000Y-98600000D01*
X174000000Y-78800000D02*
X176200000Y-81400000D01*
X138958849Y-131358849D02*
X138958849Y-130059456D01*
X119800000Y-83200000D02*
X123000000Y-82400000D01*
X182000000Y-98600000D02*
X181800000Y-103000000D01*
X120921863Y-113419197D02*
X117600000Y-112600000D01*
X177800000Y-84200000D02*
X179085791Y-86599281D01*
X118000000Y-101400000D02*
X118200000Y-96800000D01*
X138958849Y-130059456D02*
X136200000Y-131600000D01*
X163800000Y-68600000D02*
X166600000Y-69800000D01*
X181200000Y-107400000D02*
X180050154Y-111072543D01*
X167000000Y-127000000D02*
X163419197Y-129078137D01*
X170000000Y-125000000D02*
X167000000Y-127000000D01*
X144800000Y-68400000D02*
X154600000Y-68400000D01*
X116800000Y-109400000D02*
X118600000Y-106400000D01*
X126600000Y-121800000D02*
X123800000Y-118600000D01*
X118600000Y-106400000D02*
X118000000Y-101400000D01*
X132200000Y-129800000D02*
X130600000Y-125800000D01*
X119940544Y-88958849D02*
X118400000Y-86200000D01*
X134000000Y-72200000D02*
X136562326Y-70929517D01*
X172000000Y-123400000D02*
X170000000Y-125000000D01*
X141400000Y-66800000D02*
X144800000Y-68400000D01*
X118200000Y-96800000D02*
X118800000Y-92600000D01*
X163419197Y-132580803D02*
X158600000Y-137400000D01*
X123800000Y-118600000D02*
X120921863Y-113419197D01*
X126800000Y-77800000D02*
X130600000Y-74400000D01*
X179085791Y-86599281D02*
X182200000Y-88200000D01*
X183200000Y-91200000D02*
X181600000Y-94200000D01*
X171400000Y-76200000D02*
X174000000Y-78800000D01*
X163419197Y-129078137D02*
X163419197Y-132580803D01*
X181200000Y-114000000D02*
X179400000Y-117800000D01*
X154600000Y-68400000D02*
X158400000Y-69200000D01*
X130600000Y-125800000D02*
X126600000Y-121800000D01*
X136562326Y-70929517D02*
X136800000Y-68400000D01*
X158600000Y-137400000D02*
X145000000Y-137400000D01*
X176200000Y-81400000D02*
X177800000Y-84200000D01*
X158400000Y-69200000D02*
X161072543Y-69949848D01*
X181800000Y-103000000D02*
X181200000Y-107400000D01*
X161072543Y-69949848D02*
X163800000Y-68600000D01*
X176400000Y-118200000D02*
X173800000Y-121400000D01*
X136800000Y-68400000D02*
X141400000Y-66800000D01*
X179400000Y-117800000D02*
X176400000Y-118200000D01*
X173800000Y-121400000D02*
X172000000Y-123400000D01*
X166600000Y-69800000D02*
X167800000Y-73200000D01*
X123000000Y-82400000D02*
X126800000Y-77800000D01*
X167800000Y-73200000D02*
X171400000Y-76200000D01*
X118800000Y-92600000D02*
X119940544Y-88958849D01*
X130600000Y-74400000D02*
X134000000Y-72200000D01*
G04 #@! TA.AperFunction,Conductor*
G36*
X141406020Y-67577020D02*
G01*
X143184711Y-68414052D01*
X144445969Y-69007586D01*
X144445970Y-69007586D01*
X144454359Y-69011534D01*
X144468189Y-69020775D01*
X144516647Y-69040846D01*
X144519295Y-69042093D01*
X144519294Y-69042093D01*
X144544586Y-69053994D01*
X144564155Y-69063203D01*
X144564158Y-69063203D01*
X144564161Y-69063205D01*
X144571307Y-69064980D01*
X144571308Y-69064980D01*
X144580305Y-69067215D01*
X144595672Y-69073580D01*
X144647139Y-69083817D01*
X144698072Y-69096470D01*
X144705426Y-69096816D01*
X144723789Y-69099063D01*
X144731007Y-69100500D01*
X144731013Y-69100500D01*
X144783489Y-69100500D01*
X144835905Y-69102973D01*
X144852356Y-69100500D01*
X154514152Y-69100500D01*
X154539697Y-69103160D01*
X158229018Y-69879857D01*
X158236966Y-69881806D01*
X159315974Y-70184549D01*
X159375202Y-70221611D01*
X159404991Y-70284812D01*
X159401454Y-70338868D01*
X159399024Y-70347144D01*
X159399024Y-70347145D01*
X159393885Y-70490972D01*
X159393886Y-70490975D01*
X159393886Y-70490976D01*
X159399985Y-70514871D01*
X159429478Y-70630424D01*
X159429480Y-70630427D01*
X159502918Y-70754202D01*
X159608255Y-70852273D01*
X159660874Y-70881006D01*
X161412315Y-71606475D01*
X161469840Y-71623367D01*
X161517783Y-71625079D01*
X161613667Y-71628505D01*
X161613667Y-71628504D01*
X161613671Y-71628505D01*
X161731186Y-71598509D01*
X161753119Y-71592912D01*
X161753119Y-71592911D01*
X161753122Y-71592911D01*
X161876897Y-71519473D01*
X161933839Y-71458311D01*
X161993927Y-71422658D01*
X162063752Y-71425151D01*
X162121145Y-71464998D01*
X162135079Y-71486511D01*
X162221380Y-71655884D01*
X162221381Y-71655885D01*
X162350949Y-71834222D01*
X162350953Y-71834227D01*
X162506833Y-71990107D01*
X162506838Y-71990111D01*
X162662389Y-72103124D01*
X162685175Y-72119679D01*
X162813572Y-72185101D01*
X162881590Y-72219759D01*
X162881593Y-72219760D01*
X162970140Y-72248530D01*
X163091246Y-72287879D01*
X163308975Y-72322364D01*
X163308976Y-72322364D01*
X163529418Y-72322364D01*
X163529419Y-72322364D01*
X163747148Y-72287879D01*
X163956803Y-72219759D01*
X164153219Y-72119679D01*
X164331562Y-71990106D01*
X164487439Y-71834229D01*
X164617012Y-71655886D01*
X164717092Y-71459470D01*
X164785212Y-71249815D01*
X164819697Y-71032086D01*
X164819697Y-70811642D01*
X164785212Y-70593913D01*
X164751152Y-70489085D01*
X164717093Y-70384260D01*
X164717092Y-70384257D01*
X164633708Y-70220610D01*
X164617012Y-70187842D01*
X164529741Y-70067723D01*
X164487444Y-70009505D01*
X164487440Y-70009500D01*
X164328117Y-69850177D01*
X164328854Y-69849439D01*
X164293422Y-69795162D01*
X164292922Y-69725294D01*
X164330275Y-69666248D01*
X164393621Y-69636769D01*
X164460992Y-69645403D01*
X164810430Y-69795162D01*
X165991698Y-70301419D01*
X166045562Y-70345920D01*
X166059782Y-70374123D01*
X167132262Y-73412821D01*
X167133345Y-73415890D01*
X167147685Y-73464472D01*
X167156256Y-73480802D01*
X167159230Y-73489228D01*
X167159231Y-73489231D01*
X167162397Y-73498201D01*
X167186605Y-73538986D01*
X167189768Y-73544647D01*
X167211813Y-73586647D01*
X167211816Y-73586653D01*
X167217786Y-73594041D01*
X167223413Y-73601003D01*
X167232825Y-73616860D01*
X167266689Y-73654550D01*
X167268734Y-73657080D01*
X167298550Y-73693972D01*
X167305847Y-73700053D01*
X167318704Y-73712440D01*
X167325047Y-73719500D01*
X167363031Y-73747926D01*
X167368118Y-73751945D01*
X170922815Y-76714192D01*
X170931113Y-76721770D01*
X173480417Y-79271074D01*
X173487396Y-79278658D01*
X174249326Y-80179121D01*
X175600768Y-81776280D01*
X175616353Y-81794698D01*
X175629355Y-81813274D01*
X177186228Y-84537803D01*
X177187861Y-84540752D01*
X177547424Y-85211695D01*
X177707222Y-85509876D01*
X177721538Y-85578263D01*
X177696609Y-85643534D01*
X177657353Y-85677281D01*
X177621503Y-85696855D01*
X177516165Y-85794927D01*
X177442726Y-85918704D01*
X177407134Y-86058153D01*
X177407133Y-86058156D01*
X177411180Y-86171425D01*
X177412272Y-86201984D01*
X177429162Y-86259509D01*
X177429163Y-86259511D01*
X177429163Y-86259512D01*
X178154634Y-88010948D01*
X178183365Y-88063568D01*
X178281437Y-88168906D01*
X178405214Y-88242345D01*
X178451042Y-88254041D01*
X178544663Y-88277938D01*
X178544664Y-88277937D01*
X178544665Y-88277938D01*
X178551672Y-88277687D01*
X178628176Y-88274954D01*
X178695873Y-88292232D01*
X178743485Y-88343368D01*
X178755892Y-88412128D01*
X178750533Y-88437192D01*
X178691792Y-88617980D01*
X178657307Y-88835713D01*
X178657307Y-89056156D01*
X178691792Y-89273887D01*
X178759910Y-89483538D01*
X178759911Y-89483541D01*
X178859994Y-89679960D01*
X178989559Y-89858293D01*
X178989563Y-89858298D01*
X179145443Y-90014178D01*
X179145448Y-90014182D01*
X179261145Y-90098240D01*
X179323785Y-90143750D01*
X179452182Y-90209172D01*
X179520200Y-90243830D01*
X179520203Y-90243831D01*
X179625028Y-90277890D01*
X179729856Y-90311950D01*
X179947585Y-90346435D01*
X179947586Y-90346435D01*
X180168028Y-90346435D01*
X180168029Y-90346435D01*
X180385758Y-90311950D01*
X180595413Y-90243830D01*
X180791829Y-90143750D01*
X180970172Y-90014177D01*
X181126049Y-89858300D01*
X181255622Y-89679957D01*
X181355702Y-89483541D01*
X181423822Y-89273886D01*
X181458307Y-89056157D01*
X181458307Y-88954220D01*
X181477992Y-88887181D01*
X181530796Y-88841426D01*
X181599954Y-88831482D01*
X181663510Y-88860507D01*
X181699944Y-88915008D01*
X182423408Y-91085401D01*
X182425933Y-91155225D01*
X182415183Y-91182966D01*
X180983488Y-93867392D01*
X180983179Y-93867970D01*
X180951734Y-93925754D01*
X180950848Y-93928594D01*
X180949444Y-93931229D01*
X180949443Y-93931232D01*
X180949441Y-93931236D01*
X180930465Y-93993998D01*
X180930464Y-93993997D01*
X180930238Y-93994744D01*
X180910687Y-94057494D01*
X180910372Y-94060456D01*
X180909512Y-94063302D01*
X180909510Y-94063306D01*
X180903148Y-94128511D01*
X180903042Y-94129548D01*
X180896128Y-94194716D01*
X180896124Y-94195350D01*
X180896125Y-94195351D01*
X180896104Y-94198154D01*
X180896093Y-94199619D01*
X180896110Y-94199988D01*
X180896110Y-94200640D01*
X180902582Y-94265753D01*
X180902681Y-94266791D01*
X181297289Y-98607465D01*
X181297670Y-98624322D01*
X181101910Y-102931051D01*
X181100901Y-102942174D01*
X180515298Y-107236605D01*
X180510771Y-107256901D01*
X179860720Y-109333127D01*
X179821903Y-109391222D01*
X179757841Y-109419110D01*
X179707448Y-109415054D01*
X179674649Y-109405423D01*
X179652857Y-109399024D01*
X179648360Y-109398863D01*
X179509029Y-109393885D01*
X179509026Y-109393886D01*
X179369577Y-109429478D01*
X179245800Y-109502917D01*
X179147729Y-109608254D01*
X179118994Y-109660878D01*
X178393529Y-111412309D01*
X178376634Y-111469842D01*
X178371496Y-111613667D01*
X178371497Y-111613670D01*
X178407089Y-111753119D01*
X178480528Y-111876896D01*
X178541690Y-111933839D01*
X178577343Y-111993928D01*
X178574850Y-112063753D01*
X178535002Y-112121146D01*
X178513491Y-112135079D01*
X178344114Y-112221382D01*
X178165779Y-112350949D01*
X178165774Y-112350953D01*
X178009894Y-112506833D01*
X178009890Y-112506838D01*
X177880325Y-112685171D01*
X177780242Y-112881590D01*
X177780241Y-112881593D01*
X177712123Y-113091244D01*
X177677638Y-113308975D01*
X177677638Y-113529418D01*
X177712123Y-113747149D01*
X177780241Y-113956800D01*
X177780242Y-113956803D01*
X177843980Y-114081893D01*
X177855087Y-114103692D01*
X177880325Y-114153222D01*
X178009890Y-114331555D01*
X178009894Y-114331560D01*
X178165774Y-114487440D01*
X178165779Y-114487444D01*
X178253622Y-114551265D01*
X178344116Y-114617012D01*
X178465463Y-114678842D01*
X178540531Y-114717092D01*
X178540534Y-114717093D01*
X178645359Y-114751152D01*
X178750187Y-114785212D01*
X178967916Y-114819697D01*
X178967917Y-114819697D01*
X179188359Y-114819697D01*
X179188360Y-114819697D01*
X179406089Y-114785212D01*
X179615744Y-114717092D01*
X179812160Y-114617012D01*
X179866901Y-114577240D01*
X179907981Y-114547395D01*
X179973787Y-114523915D01*
X180041841Y-114539741D01*
X180090536Y-114589846D01*
X180104411Y-114658325D01*
X180092929Y-114700796D01*
X178958806Y-117095054D01*
X178912318Y-117147213D01*
X178863131Y-117164883D01*
X176319473Y-117504035D01*
X176319474Y-117504036D01*
X176317620Y-117504283D01*
X176259292Y-117510318D01*
X176249355Y-117513384D01*
X176239095Y-117514753D01*
X176239095Y-117514754D01*
X176239036Y-117514761D01*
X176239035Y-117514762D01*
X176185263Y-117533114D01*
X176181790Y-117534242D01*
X176127447Y-117551019D01*
X176127444Y-117551020D01*
X176127388Y-117551051D01*
X176124853Y-117552421D01*
X176118289Y-117555971D01*
X176108442Y-117559333D01*
X176057701Y-117588739D01*
X176056089Y-117589611D01*
X176056086Y-117589611D01*
X176006076Y-117616660D01*
X176006063Y-117616669D01*
X176006041Y-117616687D01*
X176006042Y-117616688D01*
X175998561Y-117622889D01*
X175998058Y-117623306D01*
X175989056Y-117628524D01*
X175945022Y-117667268D01*
X175943594Y-117668452D01*
X175943590Y-117668453D01*
X175899842Y-117704718D01*
X175899839Y-117704722D01*
X175899798Y-117704773D01*
X175899797Y-117704772D01*
X175893268Y-117712807D01*
X175885463Y-117719676D01*
X175849876Y-117766211D01*
X175848705Y-117767653D01*
X175848673Y-117767695D01*
X173269471Y-120942096D01*
X173265402Y-120946854D01*
X171524437Y-122881261D01*
X171509730Y-122895137D01*
X169590344Y-124430647D01*
X169581665Y-124436993D01*
X166632762Y-126402928D01*
X166626221Y-126407001D01*
X164485165Y-127649573D01*
X164417302Y-127666199D01*
X164351223Y-127643495D01*
X164326984Y-127619453D01*
X164326907Y-127619526D01*
X164325093Y-127617577D01*
X164322342Y-127614849D01*
X164321625Y-127613855D01*
X164321622Y-127613849D01*
X164223551Y-127508512D01*
X164223550Y-127508511D01*
X164099773Y-127435072D01*
X163980455Y-127404618D01*
X163960325Y-127399480D01*
X163960324Y-127399480D01*
X163960321Y-127399479D01*
X163820854Y-127404462D01*
X163816494Y-127404618D01*
X163758969Y-127421508D01*
X163758966Y-127421509D01*
X163758965Y-127421509D01*
X162007529Y-128146980D01*
X161954909Y-128175711D01*
X161849571Y-128273783D01*
X161776132Y-128397560D01*
X161740540Y-128537009D01*
X161740539Y-128537012D01*
X161743523Y-128620521D01*
X161726244Y-128688221D01*
X161675107Y-128735831D01*
X161606348Y-128748238D01*
X161581284Y-128742879D01*
X161400495Y-128684138D01*
X161291629Y-128666895D01*
X161182765Y-128649653D01*
X160962321Y-128649653D01*
X160889744Y-128661148D01*
X160744590Y-128684138D01*
X160534939Y-128752256D01*
X160534936Y-128752257D01*
X160338517Y-128852340D01*
X160160184Y-128981905D01*
X160160179Y-128981909D01*
X160004299Y-129137789D01*
X160004295Y-129137794D01*
X159874730Y-129316127D01*
X159774647Y-129512546D01*
X159774646Y-129512549D01*
X159706528Y-129722200D01*
X159672043Y-129939931D01*
X159672043Y-130160374D01*
X159706528Y-130378105D01*
X159774646Y-130587756D01*
X159774647Y-130587759D01*
X159821855Y-130680407D01*
X159872596Y-130779991D01*
X159874730Y-130784178D01*
X160004295Y-130962511D01*
X160004299Y-130962516D01*
X160160179Y-131118396D01*
X160160184Y-131118400D01*
X160301156Y-131220821D01*
X160338521Y-131247968D01*
X160459067Y-131309390D01*
X160534936Y-131348048D01*
X160534939Y-131348049D01*
X160601690Y-131369737D01*
X160744592Y-131416168D01*
X160962321Y-131450653D01*
X160962322Y-131450653D01*
X161182764Y-131450653D01*
X161182765Y-131450653D01*
X161400494Y-131416168D01*
X161610149Y-131348048D01*
X161806565Y-131247968D01*
X161984908Y-131118395D01*
X162140785Y-130962518D01*
X162270358Y-130784175D01*
X162356660Y-130614798D01*
X162372739Y-130597773D01*
X162385255Y-130577981D01*
X162396282Y-130572846D01*
X162404634Y-130564004D01*
X162427365Y-130558374D01*
X162448596Y-130548490D01*
X162460648Y-130550132D01*
X162472455Y-130547209D01*
X162494620Y-130554762D01*
X162517826Y-130557925D01*
X162530487Y-130566984D01*
X162538590Y-130569746D01*
X162547657Y-130576788D01*
X162553056Y-130581397D01*
X162614843Y-130647762D01*
X162667125Y-130678781D01*
X162675210Y-130685684D01*
X162688730Y-130706387D01*
X162705580Y-130724484D01*
X162708432Y-130736556D01*
X162713414Y-130744184D01*
X162713515Y-130758066D01*
X162718697Y-130779991D01*
X162718697Y-132239284D01*
X162699012Y-132306323D01*
X162682378Y-132326965D01*
X158346162Y-136663181D01*
X158284839Y-136696666D01*
X158258481Y-136699500D01*
X145341519Y-136699500D01*
X145274480Y-136679815D01*
X145253838Y-136663181D01*
X139998904Y-131408247D01*
X139965419Y-131346924D01*
X139970403Y-131277232D01*
X139972001Y-131273170D01*
X140615476Y-129719684D01*
X140632368Y-129662159D01*
X140637506Y-129518328D01*
X140601912Y-129378877D01*
X140528474Y-129255102D01*
X140423137Y-129157031D01*
X140370518Y-129128298D01*
X140005778Y-128977218D01*
X138683774Y-128429627D01*
X138683772Y-128429626D01*
X138619085Y-128402832D01*
X138619082Y-128402831D01*
X138619077Y-128402829D01*
X138561552Y-128385937D01*
X138561549Y-128385936D01*
X138417724Y-128380798D01*
X138417721Y-128380799D01*
X138278272Y-128416391D01*
X138154494Y-128489830D01*
X138097551Y-128550993D01*
X138037462Y-128586645D01*
X137967637Y-128584151D01*
X137910245Y-128544303D01*
X137896311Y-128522792D01*
X137810010Y-128353418D01*
X137786568Y-128321153D01*
X141599500Y-128321153D01*
X141599500Y-128478846D01*
X141630261Y-128633489D01*
X141630264Y-128633501D01*
X141690061Y-128777864D01*
X141699500Y-128825316D01*
X141699500Y-131331006D01*
X141699500Y-131468994D01*
X141699500Y-131468996D01*
X141699499Y-131468996D01*
X141726418Y-131604322D01*
X141726421Y-131604332D01*
X141779222Y-131731807D01*
X141855887Y-131846545D01*
X141855888Y-131846546D01*
X145803928Y-135794585D01*
X145830808Y-135834814D01*
X145890602Y-135979172D01*
X145890609Y-135979185D01*
X145978210Y-136110288D01*
X145978213Y-136110292D01*
X146089707Y-136221786D01*
X146089711Y-136221789D01*
X146220814Y-136309390D01*
X146220827Y-136309397D01*
X146366498Y-136369735D01*
X146366503Y-136369737D01*
X146521153Y-136400499D01*
X146521156Y-136400500D01*
X146521158Y-136400500D01*
X146678844Y-136400500D01*
X146678845Y-136400499D01*
X146833497Y-136369737D01*
X146979179Y-136309394D01*
X147110289Y-136221789D01*
X147221789Y-136110289D01*
X147309394Y-135979179D01*
X147369737Y-135833497D01*
X147400500Y-135678842D01*
X147400500Y-135521158D01*
X147400500Y-135521155D01*
X147400499Y-135521153D01*
X147369738Y-135366510D01*
X147369737Y-135366503D01*
X147369735Y-135366498D01*
X147309397Y-135220827D01*
X147309390Y-135220814D01*
X147221789Y-135089711D01*
X147221786Y-135089707D01*
X147110292Y-134978213D01*
X147110288Y-134978210D01*
X146979185Y-134890609D01*
X146979172Y-134890602D01*
X146973956Y-134888442D01*
X146919552Y-134844601D01*
X146897487Y-134778307D01*
X146914766Y-134710608D01*
X146965903Y-134662997D01*
X147026107Y-134652134D01*
X147026107Y-134650500D01*
X147185764Y-134650500D01*
X147185766Y-134650500D01*
X147332135Y-134611281D01*
X147463365Y-134535515D01*
X147570515Y-134428365D01*
X147646281Y-134297135D01*
X147685500Y-134150766D01*
X147685500Y-133999234D01*
X152314500Y-133999234D01*
X152314500Y-134150765D01*
X152353719Y-134297136D01*
X152361472Y-134310564D01*
X152429485Y-134428365D01*
X152536635Y-134535515D01*
X152667865Y-134611281D01*
X152814234Y-134650500D01*
X152814236Y-134650500D01*
X152965764Y-134650500D01*
X152965766Y-134650500D01*
X153112135Y-134611281D01*
X153243365Y-134535515D01*
X153350515Y-134428365D01*
X153426281Y-134297135D01*
X153465500Y-134150766D01*
X153465500Y-133999234D01*
X153426281Y-133852865D01*
X153350515Y-133721635D01*
X153243365Y-133614485D01*
X153177750Y-133576602D01*
X153112136Y-133538719D01*
X153038950Y-133519109D01*
X152965766Y-133499500D01*
X152814234Y-133499500D01*
X152667863Y-133538719D01*
X152536635Y-133614485D01*
X152536632Y-133614487D01*
X152429487Y-133721632D01*
X152429485Y-133721635D01*
X152353719Y-133852863D01*
X152314500Y-133999234D01*
X147685500Y-133999234D01*
X147646281Y-133852865D01*
X147570515Y-133721635D01*
X147463365Y-133614485D01*
X147397750Y-133576602D01*
X147332136Y-133538719D01*
X147258950Y-133519109D01*
X147185766Y-133499500D01*
X147034234Y-133499500D01*
X146887863Y-133538719D01*
X146756635Y-133614485D01*
X146756632Y-133614487D01*
X146649487Y-133721632D01*
X146649485Y-133721635D01*
X146573719Y-133852863D01*
X146534500Y-133999234D01*
X146534500Y-134150765D01*
X146558601Y-134240714D01*
X146556938Y-134310564D01*
X146517775Y-134368427D01*
X146453546Y-134395930D01*
X146384644Y-134384343D01*
X146351145Y-134360488D01*
X143511810Y-131521153D01*
X148399500Y-131521153D01*
X148399500Y-131678846D01*
X148430261Y-131833489D01*
X148430264Y-131833501D01*
X148490602Y-131979172D01*
X148490609Y-131979185D01*
X148578210Y-132110288D01*
X148578213Y-132110292D01*
X148689707Y-132221786D01*
X148689711Y-132221789D01*
X148820814Y-132309390D01*
X148820827Y-132309397D01*
X148863241Y-132326965D01*
X148966503Y-132369737D01*
X149076541Y-132391625D01*
X149121153Y-132400499D01*
X149121156Y-132400500D01*
X149121158Y-132400500D01*
X149278844Y-132400500D01*
X149278845Y-132400499D01*
X149433497Y-132369737D01*
X149559375Y-132317597D01*
X149579172Y-132309397D01*
X149579172Y-132309396D01*
X149579179Y-132309394D01*
X149710289Y-132221789D01*
X149821789Y-132110289D01*
X149909394Y-131979179D01*
X149969737Y-131833497D01*
X149975327Y-131805394D01*
X149996231Y-131700308D01*
X150028616Y-131638397D01*
X150089332Y-131603823D01*
X150117848Y-131600500D01*
X150513331Y-131600500D01*
X150513347Y-131600501D01*
X150520943Y-131600501D01*
X150679054Y-131600501D01*
X150679057Y-131600501D01*
X150831785Y-131559577D01*
X150898328Y-131521158D01*
X150968716Y-131480520D01*
X151020942Y-131428293D01*
X151028042Y-131422980D01*
X151052796Y-131413749D01*
X151075984Y-131401088D01*
X151078152Y-131400637D01*
X151078841Y-131400500D01*
X151078842Y-131400500D01*
X151233497Y-131369737D01*
X151379179Y-131309394D01*
X151510289Y-131221789D01*
X151621789Y-131110289D01*
X151709394Y-130979179D01*
X151769737Y-130833497D01*
X151800500Y-130678842D01*
X151800500Y-130521158D01*
X151800500Y-130521155D01*
X151800499Y-130521153D01*
X151787033Y-130453455D01*
X151769737Y-130366503D01*
X151750344Y-130319684D01*
X151709397Y-130220827D01*
X151709390Y-130220814D01*
X151621789Y-130089711D01*
X151621786Y-130089707D01*
X151510292Y-129978213D01*
X151510288Y-129978210D01*
X151379185Y-129890609D01*
X151379172Y-129890602D01*
X151233501Y-129830264D01*
X151233489Y-129830261D01*
X151078845Y-129799500D01*
X151078842Y-129799500D01*
X150921158Y-129799500D01*
X150921155Y-129799500D01*
X150766510Y-129830261D01*
X150766498Y-129830264D01*
X150620827Y-129890602D01*
X150620814Y-129890609D01*
X150489711Y-129978210D01*
X150489707Y-129978213D01*
X150378213Y-130089707D01*
X150378210Y-130089711D01*
X150290609Y-130220814D01*
X150290602Y-130220827D01*
X150248302Y-130322952D01*
X150204462Y-130377356D01*
X150138167Y-130399421D01*
X150133741Y-130399500D01*
X149720943Y-130399500D01*
X149568213Y-130440423D01*
X149539931Y-130456753D01*
X149539930Y-130456753D01*
X149431287Y-130519477D01*
X149431282Y-130519481D01*
X149319480Y-130631283D01*
X149319480Y-130631284D01*
X149319478Y-130631286D01*
X149244849Y-130705915D01*
X149185337Y-130765427D01*
X149124014Y-130798911D01*
X149121848Y-130799362D01*
X148966508Y-130830261D01*
X148966498Y-130830264D01*
X148820827Y-130890602D01*
X148820814Y-130890609D01*
X148689711Y-130978210D01*
X148689707Y-130978213D01*
X148578213Y-131089707D01*
X148578210Y-131089711D01*
X148490609Y-131220814D01*
X148490602Y-131220827D01*
X148430264Y-131366498D01*
X148430261Y-131366510D01*
X148399500Y-131521153D01*
X143511810Y-131521153D01*
X143136819Y-131146162D01*
X143103334Y-131084839D01*
X143100500Y-131058481D01*
X143100500Y-128825316D01*
X143109939Y-128777864D01*
X143169735Y-128633501D01*
X143169737Y-128633497D01*
X143200500Y-128478842D01*
X143200500Y-128321158D01*
X143200500Y-128321155D01*
X143200499Y-128321153D01*
X143191076Y-128273783D01*
X143169737Y-128166503D01*
X143169735Y-128166498D01*
X143109397Y-128020827D01*
X143109390Y-128020814D01*
X143021789Y-127889711D01*
X143021786Y-127889707D01*
X142910292Y-127778213D01*
X142910288Y-127778210D01*
X142779185Y-127690609D01*
X142779172Y-127690602D01*
X142633501Y-127630264D01*
X142633489Y-127630261D01*
X142478845Y-127599500D01*
X142478842Y-127599500D01*
X142321158Y-127599500D01*
X142321155Y-127599500D01*
X142166510Y-127630261D01*
X142166498Y-127630264D01*
X142020827Y-127690602D01*
X142020814Y-127690609D01*
X141889711Y-127778210D01*
X141889707Y-127778213D01*
X141778213Y-127889707D01*
X141778210Y-127889711D01*
X141690609Y-128020814D01*
X141690602Y-128020827D01*
X141630264Y-128166498D01*
X141630261Y-128166510D01*
X141599500Y-128321153D01*
X137786568Y-128321153D01*
X137752152Y-128273783D01*
X137680442Y-128175081D01*
X137680438Y-128175076D01*
X137524558Y-128019196D01*
X137524553Y-128019192D01*
X137346220Y-127889627D01*
X137346219Y-127889626D01*
X137346217Y-127889625D01*
X137283291Y-127857562D01*
X137149801Y-127789544D01*
X137149798Y-127789543D01*
X136940147Y-127721425D01*
X136831281Y-127704182D01*
X136722417Y-127686940D01*
X136501973Y-127686940D01*
X136429396Y-127698435D01*
X136284242Y-127721425D01*
X136074591Y-127789543D01*
X136074588Y-127789544D01*
X135878169Y-127889627D01*
X135699836Y-128019192D01*
X135699831Y-128019196D01*
X135543951Y-128175076D01*
X135543947Y-128175081D01*
X135414382Y-128353414D01*
X135314299Y-128549833D01*
X135314298Y-128549836D01*
X135246180Y-128759487D01*
X135211695Y-128977218D01*
X135211695Y-129197661D01*
X135246180Y-129415392D01*
X135314298Y-129625043D01*
X135314299Y-129625046D01*
X135414382Y-129821465D01*
X135543947Y-129999798D01*
X135543951Y-129999803D01*
X135699831Y-130155683D01*
X135699836Y-130155687D01*
X135789495Y-130220827D01*
X135878173Y-130285255D01*
X136006570Y-130350677D01*
X136074588Y-130385335D01*
X136074591Y-130385336D01*
X136284237Y-130453453D01*
X136284238Y-130453453D01*
X136284244Y-130453455D01*
X136344970Y-130463073D01*
X136408101Y-130493000D01*
X136445032Y-130552311D01*
X136444036Y-130622174D01*
X136405426Y-130680407D01*
X136386024Y-130693809D01*
X136220588Y-130786189D01*
X136152459Y-130801687D01*
X136109248Y-130791003D01*
X132791016Y-129297798D01*
X132737959Y-129252337D01*
X132726770Y-129230772D01*
X131996309Y-127404618D01*
X131274420Y-125599895D01*
X131273580Y-125595671D01*
X131248829Y-125535917D01*
X131224775Y-125475782D01*
X131224772Y-125475778D01*
X131224771Y-125475774D01*
X131222995Y-125472350D01*
X131222945Y-125472242D01*
X131222665Y-125471711D01*
X131222584Y-125471574D01*
X131220771Y-125468182D01*
X131185237Y-125415003D01*
X131184472Y-125413843D01*
X131149518Y-125360125D01*
X131149516Y-125360123D01*
X131147113Y-125357121D01*
X131147110Y-125357117D01*
X131146616Y-125356500D01*
X131146547Y-125356423D01*
X131144107Y-125353449D01*
X131098871Y-125308214D01*
X131098334Y-125307677D01*
X131053144Y-125261371D01*
X131049590Y-125258933D01*
X129111810Y-123321153D01*
X146199500Y-123321153D01*
X146199500Y-123478846D01*
X146230261Y-123633489D01*
X146230264Y-123633501D01*
X146290602Y-123779172D01*
X146290609Y-123779185D01*
X146378210Y-123910288D01*
X146378213Y-123910292D01*
X146489707Y-124021786D01*
X146489711Y-124021789D01*
X146620814Y-124109390D01*
X146620827Y-124109397D01*
X146766498Y-124169735D01*
X146766503Y-124169737D01*
X146921153Y-124200499D01*
X146921156Y-124200500D01*
X146921158Y-124200500D01*
X147078844Y-124200500D01*
X147078845Y-124200499D01*
X147233497Y-124169737D01*
X147379179Y-124109394D01*
X147510289Y-124021789D01*
X147512312Y-124019766D01*
X147513634Y-124019043D01*
X147514999Y-124017924D01*
X147515211Y-124018182D01*
X147573632Y-123986276D01*
X147643324Y-123991255D01*
X147684939Y-124017999D01*
X147685001Y-124017924D01*
X147685648Y-124018454D01*
X147687688Y-124019766D01*
X147689711Y-124021789D01*
X147820814Y-124109390D01*
X147820827Y-124109397D01*
X147966498Y-124169735D01*
X147966503Y-124169737D01*
X148121153Y-124200499D01*
X148121156Y-124200500D01*
X148121158Y-124200500D01*
X148278844Y-124200500D01*
X148278845Y-124200499D01*
X148433497Y-124169737D01*
X148579179Y-124109394D01*
X148710289Y-124021789D01*
X148821789Y-123910289D01*
X148909394Y-123779179D01*
X148969737Y-123633497D01*
X148989113Y-123536085D01*
X149000638Y-123478150D01*
X149033023Y-123416239D01*
X149034518Y-123414716D01*
X153894585Y-118554648D01*
X153934809Y-118527771D01*
X153979179Y-118509394D01*
X154110289Y-118421789D01*
X154221789Y-118310289D01*
X154309394Y-118179179D01*
X154369737Y-118033497D01*
X154400500Y-117878842D01*
X154400500Y-117721158D01*
X154400500Y-117721155D01*
X154400499Y-117721153D01*
X154390016Y-117668452D01*
X154369737Y-117566503D01*
X154348306Y-117514763D01*
X154309397Y-117420827D01*
X154309390Y-117420814D01*
X154221789Y-117289711D01*
X154221786Y-117289707D01*
X154110292Y-117178213D01*
X154110288Y-117178210D01*
X153979185Y-117090609D01*
X153979172Y-117090602D01*
X153833501Y-117030264D01*
X153833489Y-117030261D01*
X153678845Y-116999500D01*
X153678842Y-116999500D01*
X153524500Y-116999500D01*
X153457461Y-116979815D01*
X153411706Y-116927011D01*
X153400500Y-116875500D01*
X153400500Y-115517847D01*
X153420185Y-115450808D01*
X153472989Y-115405053D01*
X153500309Y-115396230D01*
X153516291Y-115393050D01*
X153633497Y-115369737D01*
X153779179Y-115309394D01*
X153910289Y-115221789D01*
X154021789Y-115110289D01*
X154109394Y-114979179D01*
X154169737Y-114833497D01*
X154200500Y-114678842D01*
X154200500Y-114521158D01*
X154200500Y-114521155D01*
X154200499Y-114521153D01*
X154193793Y-114487439D01*
X154169737Y-114366503D01*
X154163048Y-114350354D01*
X154109397Y-114220827D01*
X154109390Y-114220814D01*
X154021789Y-114089711D01*
X154021786Y-114089707D01*
X153910292Y-113978213D01*
X153910288Y-113978210D01*
X153779185Y-113890609D01*
X153779172Y-113890602D01*
X153633501Y-113830264D01*
X153633489Y-113830261D01*
X153478845Y-113799500D01*
X153478842Y-113799500D01*
X153321158Y-113799500D01*
X153321155Y-113799500D01*
X153166510Y-113830261D01*
X153166498Y-113830264D01*
X153020827Y-113890602D01*
X153020814Y-113890609D01*
X152889711Y-113978210D01*
X152889707Y-113978213D01*
X152778213Y-114089707D01*
X152778210Y-114089711D01*
X152690609Y-114220814D01*
X152690602Y-114220827D01*
X152630264Y-114366498D01*
X152630261Y-114366508D01*
X152599362Y-114521848D01*
X152590596Y-114538605D01*
X152586577Y-114557082D01*
X152567832Y-114582123D01*
X152566977Y-114583759D01*
X152565427Y-114585337D01*
X152505915Y-114644849D01*
X152431286Y-114719478D01*
X152431285Y-114719478D01*
X152431284Y-114719479D01*
X152319481Y-114831282D01*
X152319480Y-114831284D01*
X152289342Y-114883485D01*
X152240423Y-114968215D01*
X152199499Y-115120943D01*
X152199499Y-115120945D01*
X152199499Y-115289046D01*
X152199500Y-115289059D01*
X152199500Y-117299902D01*
X152179815Y-117366941D01*
X152163181Y-117387583D01*
X146985339Y-122565425D01*
X146924016Y-122598910D01*
X146921850Y-122599361D01*
X146766508Y-122630261D01*
X146766498Y-122630264D01*
X146620827Y-122690602D01*
X146620814Y-122690609D01*
X146489711Y-122778210D01*
X146489707Y-122778213D01*
X146378213Y-122889707D01*
X146378210Y-122889711D01*
X146290609Y-123020814D01*
X146290602Y-123020827D01*
X146230264Y-123166498D01*
X146230261Y-123166510D01*
X146199500Y-123321153D01*
X129111810Y-123321153D01*
X127114747Y-121324090D01*
X127109108Y-121318064D01*
X124384873Y-118204652D01*
X124369797Y-118183215D01*
X124113105Y-117721155D01*
X123057579Y-115821153D01*
X134699500Y-115821153D01*
X134699500Y-115978846D01*
X134730261Y-116133489D01*
X134730264Y-116133501D01*
X134790602Y-116279172D01*
X134790609Y-116279185D01*
X134878210Y-116410288D01*
X134878213Y-116410292D01*
X134989707Y-116521786D01*
X134989711Y-116521789D01*
X135120814Y-116609390D01*
X135120827Y-116609397D01*
X135266498Y-116669735D01*
X135266503Y-116669737D01*
X135421153Y-116700499D01*
X135421156Y-116700500D01*
X135421158Y-116700500D01*
X135578844Y-116700500D01*
X135578845Y-116700499D01*
X135733497Y-116669737D01*
X135879179Y-116609394D01*
X136010289Y-116521789D01*
X136121789Y-116410289D01*
X136209394Y-116279179D01*
X136269737Y-116133497D01*
X136300500Y-115978842D01*
X136300500Y-115821158D01*
X136300500Y-115821155D01*
X136300499Y-115821153D01*
X136269738Y-115666510D01*
X136269737Y-115666503D01*
X136269735Y-115666498D01*
X136209397Y-115520827D01*
X136209390Y-115520814D01*
X136121398Y-115389125D01*
X136100520Y-115322447D01*
X136100500Y-115320234D01*
X136100500Y-112445134D01*
X136120185Y-112378095D01*
X136172989Y-112332340D01*
X136242147Y-112322396D01*
X136271950Y-112330572D01*
X136366503Y-112369737D01*
X136521153Y-112400499D01*
X136521156Y-112400500D01*
X136521158Y-112400500D01*
X136678844Y-112400500D01*
X136678845Y-112400499D01*
X136833497Y-112369737D01*
X136979179Y-112309394D01*
X137110289Y-112221789D01*
X137221789Y-112110289D01*
X137309394Y-111979179D01*
X137369737Y-111833497D01*
X137400500Y-111678842D01*
X137400500Y-111521158D01*
X137400500Y-111521155D01*
X137400499Y-111521153D01*
X137369737Y-111366503D01*
X137309939Y-111222136D01*
X137300500Y-111174684D01*
X137300500Y-109225316D01*
X137309939Y-109177864D01*
X137369735Y-109033501D01*
X137369737Y-109033497D01*
X137400500Y-108878842D01*
X137400500Y-108721158D01*
X137400500Y-108721155D01*
X137400499Y-108721153D01*
X137369738Y-108566510D01*
X137369737Y-108566503D01*
X137369735Y-108566498D01*
X137309397Y-108420827D01*
X137309390Y-108420814D01*
X137221789Y-108289711D01*
X137221786Y-108289707D01*
X137110292Y-108178213D01*
X137110288Y-108178210D01*
X136979185Y-108090609D01*
X136979172Y-108090602D01*
X136833501Y-108030264D01*
X136833489Y-108030261D01*
X136678845Y-107999500D01*
X136678842Y-107999500D01*
X136521158Y-107999500D01*
X136521155Y-107999500D01*
X136366510Y-108030261D01*
X136366499Y-108030264D01*
X136349162Y-108037445D01*
X136279693Y-108044911D01*
X136217215Y-108013634D01*
X136181565Y-107953544D01*
X136184061Y-107883718D01*
X136214031Y-107835203D01*
X137214662Y-106834572D01*
X137275983Y-106801089D01*
X137278150Y-106800638D01*
X137336085Y-106789113D01*
X137433497Y-106769737D01*
X137579179Y-106709394D01*
X137710289Y-106621789D01*
X137821789Y-106510289D01*
X137909394Y-106379179D01*
X137969737Y-106233497D01*
X138000500Y-106078842D01*
X138000500Y-105921158D01*
X138000500Y-105921155D01*
X138000499Y-105921153D01*
X137969738Y-105766510D01*
X137969738Y-105766508D01*
X137969737Y-105766503D01*
X137945204Y-105707274D01*
X137909397Y-105620827D01*
X137909390Y-105620814D01*
X137821789Y-105489711D01*
X137821786Y-105489707D01*
X137710292Y-105378213D01*
X137710288Y-105378210D01*
X137579185Y-105290609D01*
X137579172Y-105290602D01*
X137433501Y-105230264D01*
X137433489Y-105230261D01*
X137278845Y-105199500D01*
X137278842Y-105199500D01*
X137121158Y-105199500D01*
X137121155Y-105199500D01*
X136966510Y-105230261D01*
X136966498Y-105230264D01*
X136820827Y-105290602D01*
X136820814Y-105290609D01*
X136689711Y-105378210D01*
X136689707Y-105378213D01*
X136578213Y-105489707D01*
X136578210Y-105489711D01*
X136490609Y-105620814D01*
X136490602Y-105620827D01*
X136430264Y-105766498D01*
X136430261Y-105766508D01*
X136399361Y-105921850D01*
X136366976Y-105983761D01*
X136365425Y-105985339D01*
X135019481Y-107331282D01*
X135019480Y-107331284D01*
X134976190Y-107406265D01*
X134940423Y-107468215D01*
X134899499Y-107620943D01*
X134899499Y-107620945D01*
X134899499Y-107789046D01*
X134899500Y-107789059D01*
X134899500Y-115320234D01*
X134879815Y-115387273D01*
X134878602Y-115389125D01*
X134790609Y-115520814D01*
X134790602Y-115520827D01*
X134730264Y-115666498D01*
X134730261Y-115666510D01*
X134699500Y-115821153D01*
X123057579Y-115821153D01*
X122322805Y-114498520D01*
X122307457Y-114430358D01*
X122331396Y-114364718D01*
X122371777Y-114329470D01*
X122386151Y-114321622D01*
X122491488Y-114223551D01*
X122564926Y-114099776D01*
X122600520Y-113960325D01*
X122595382Y-113816494D01*
X122578492Y-113758969D01*
X121900084Y-112121153D01*
X132599500Y-112121153D01*
X132599500Y-112278846D01*
X132630261Y-112433489D01*
X132630264Y-112433501D01*
X132690602Y-112579172D01*
X132690609Y-112579185D01*
X132778210Y-112710288D01*
X132778213Y-112710292D01*
X132889707Y-112821786D01*
X132889711Y-112821789D01*
X133020814Y-112909390D01*
X133020827Y-112909397D01*
X133146846Y-112961595D01*
X133166503Y-112969737D01*
X133321153Y-113000499D01*
X133321156Y-113000500D01*
X133321158Y-113000500D01*
X133478844Y-113000500D01*
X133478845Y-113000499D01*
X133633497Y-112969737D01*
X133779179Y-112909394D01*
X133910289Y-112821789D01*
X134021789Y-112710289D01*
X134109394Y-112579179D01*
X134169737Y-112433497D01*
X134200500Y-112278842D01*
X134200500Y-112121158D01*
X134200500Y-112121155D01*
X134200499Y-112121153D01*
X134189081Y-112063753D01*
X134169737Y-111966503D01*
X134156207Y-111933839D01*
X134109397Y-111820827D01*
X134109390Y-111820814D01*
X134021398Y-111689125D01*
X134000520Y-111622447D01*
X134000500Y-111620234D01*
X134000500Y-105300097D01*
X134020185Y-105233058D01*
X134036819Y-105212416D01*
X134812416Y-104436819D01*
X134873739Y-104403334D01*
X134900097Y-104400500D01*
X150713331Y-104400500D01*
X150713347Y-104400501D01*
X150720943Y-104400501D01*
X150879054Y-104400501D01*
X150879057Y-104400501D01*
X151031785Y-104359577D01*
X151081904Y-104330639D01*
X151168716Y-104280520D01*
X151280520Y-104168716D01*
X151280520Y-104168714D01*
X151290728Y-104158507D01*
X151290729Y-104158504D01*
X151478081Y-103971153D01*
X154199500Y-103971153D01*
X154199500Y-104128846D01*
X154230261Y-104283489D01*
X154230264Y-104283501D01*
X154290602Y-104429172D01*
X154290609Y-104429185D01*
X154378210Y-104560288D01*
X154378213Y-104560292D01*
X154489707Y-104671786D01*
X154489711Y-104671789D01*
X154620814Y-104759390D01*
X154620827Y-104759397D01*
X154766498Y-104819735D01*
X154766503Y-104819737D01*
X154921153Y-104850499D01*
X154921156Y-104850500D01*
X154921158Y-104850500D01*
X155078844Y-104850500D01*
X155078845Y-104850499D01*
X155233497Y-104819737D01*
X155379179Y-104759394D01*
X155510289Y-104671789D01*
X155621789Y-104560289D01*
X155709394Y-104429179D01*
X155769737Y-104283497D01*
X155794599Y-104158507D01*
X155800638Y-104128150D01*
X155833023Y-104066239D01*
X155834518Y-104064716D01*
X156012416Y-103886819D01*
X156073739Y-103853334D01*
X156100097Y-103850500D01*
X166413331Y-103850500D01*
X166413347Y-103850501D01*
X166420943Y-103850501D01*
X166579054Y-103850501D01*
X166579057Y-103850501D01*
X166731785Y-103809577D01*
X166781904Y-103780639D01*
X166868716Y-103730520D01*
X166980520Y-103618716D01*
X166980520Y-103618714D01*
X166990728Y-103608507D01*
X166990729Y-103608504D01*
X167514665Y-103084570D01*
X167575984Y-103051088D01*
X167578151Y-103050637D01*
X167578840Y-103050500D01*
X167578842Y-103050500D01*
X167733497Y-103019737D01*
X167879179Y-102959394D01*
X168010289Y-102871789D01*
X168121789Y-102760289D01*
X168209394Y-102629179D01*
X168269737Y-102483497D01*
X168300500Y-102328842D01*
X168300500Y-102171158D01*
X168300500Y-102171155D01*
X168300499Y-102171153D01*
X168270788Y-102021789D01*
X168269737Y-102016503D01*
X168263117Y-102000520D01*
X168209397Y-101870827D01*
X168209390Y-101870814D01*
X168121789Y-101739711D01*
X168121786Y-101739707D01*
X168010292Y-101628213D01*
X168010288Y-101628210D01*
X167879185Y-101540609D01*
X167879172Y-101540602D01*
X167733501Y-101480264D01*
X167733489Y-101480261D01*
X167578845Y-101449500D01*
X167578842Y-101449500D01*
X167421158Y-101449500D01*
X167421155Y-101449500D01*
X167266510Y-101480261D01*
X167266498Y-101480264D01*
X167120827Y-101540602D01*
X167120814Y-101540609D01*
X166989711Y-101628210D01*
X166989707Y-101628213D01*
X166878213Y-101739707D01*
X166878210Y-101739711D01*
X166790609Y-101870814D01*
X166790602Y-101870827D01*
X166730264Y-102016498D01*
X166730261Y-102016508D01*
X166699362Y-102171849D01*
X166666977Y-102233759D01*
X166665426Y-102235338D01*
X166287584Y-102613181D01*
X166226261Y-102646666D01*
X166199903Y-102649500D01*
X155886669Y-102649500D01*
X155886653Y-102649499D01*
X155879057Y-102649499D01*
X155720943Y-102649499D01*
X155568215Y-102690423D01*
X155568213Y-102690424D01*
X155540305Y-102706535D01*
X155540306Y-102706536D01*
X155431287Y-102769477D01*
X155431282Y-102769481D01*
X154985339Y-103215425D01*
X154924016Y-103248910D01*
X154921850Y-103249361D01*
X154766508Y-103280261D01*
X154766498Y-103280264D01*
X154620827Y-103340602D01*
X154620814Y-103340609D01*
X154489711Y-103428210D01*
X154489707Y-103428213D01*
X154378213Y-103539707D01*
X154378210Y-103539711D01*
X154290609Y-103670814D01*
X154290602Y-103670827D01*
X154230264Y-103816498D01*
X154230261Y-103816510D01*
X154199500Y-103971153D01*
X151478081Y-103971153D01*
X152280520Y-103168716D01*
X152359577Y-103031784D01*
X152400501Y-102879057D01*
X152400501Y-102720942D01*
X152400501Y-102713347D01*
X152400500Y-102713329D01*
X152400500Y-101100097D01*
X152420185Y-101033058D01*
X152436819Y-101012416D01*
X152470063Y-100979172D01*
X152614662Y-100834572D01*
X152675983Y-100801089D01*
X152678150Y-100800638D01*
X152743287Y-100787681D01*
X152833497Y-100769737D01*
X152979179Y-100709394D01*
X153110289Y-100621789D01*
X153221789Y-100510289D01*
X153309394Y-100379179D01*
X153369737Y-100233497D01*
X153400500Y-100078842D01*
X153400500Y-99921158D01*
X153400500Y-99921155D01*
X153400499Y-99921153D01*
X159599500Y-99921153D01*
X159599500Y-100078846D01*
X159630261Y-100233489D01*
X159630264Y-100233501D01*
X159690602Y-100379172D01*
X159690609Y-100379185D01*
X159778210Y-100510288D01*
X159778213Y-100510292D01*
X159880240Y-100612319D01*
X159913725Y-100673642D01*
X159908741Y-100743334D01*
X159880240Y-100787681D01*
X159778213Y-100889707D01*
X159778210Y-100889711D01*
X159690609Y-101020814D01*
X159690602Y-101020827D01*
X159630264Y-101166498D01*
X159630261Y-101166510D01*
X159599500Y-101321153D01*
X159599500Y-101478846D01*
X159630261Y-101633489D01*
X159630264Y-101633501D01*
X159690602Y-101779172D01*
X159690609Y-101779185D01*
X159778210Y-101910288D01*
X159778213Y-101910292D01*
X159889707Y-102021786D01*
X159889711Y-102021789D01*
X160020814Y-102109390D01*
X160020827Y-102109397D01*
X160166498Y-102169735D01*
X160166503Y-102169737D01*
X160321153Y-102200499D01*
X160321156Y-102200500D01*
X160321158Y-102200500D01*
X160478844Y-102200500D01*
X160478845Y-102200499D01*
X160633497Y-102169737D01*
X160779179Y-102109394D01*
X160779185Y-102109390D01*
X160910875Y-102021398D01*
X160977553Y-102000520D01*
X160979766Y-102000500D01*
X163420234Y-102000500D01*
X163487273Y-102020185D01*
X163489125Y-102021398D01*
X163620814Y-102109390D01*
X163620827Y-102109397D01*
X163766498Y-102169735D01*
X163766503Y-102169737D01*
X163921153Y-102200499D01*
X163921156Y-102200500D01*
X163921158Y-102200500D01*
X164078844Y-102200500D01*
X164078845Y-102200499D01*
X164233497Y-102169737D01*
X164379179Y-102109394D01*
X164510289Y-102021789D01*
X164621789Y-101910289D01*
X164709394Y-101779179D01*
X164769737Y-101633497D01*
X164800500Y-101478842D01*
X164800500Y-101321158D01*
X164800500Y-101321155D01*
X164800499Y-101321153D01*
X164780734Y-101221789D01*
X164769737Y-101166503D01*
X164742231Y-101100097D01*
X164709397Y-101020827D01*
X164709390Y-101020814D01*
X164621789Y-100889711D01*
X164621786Y-100889707D01*
X164515401Y-100783322D01*
X164499979Y-100755080D01*
X164483266Y-100727580D01*
X164483340Y-100724607D01*
X164481916Y-100721999D01*
X164484211Y-100689897D01*
X164485019Y-100657732D01*
X164486687Y-100655273D01*
X164486900Y-100652307D01*
X164506184Y-100626546D01*
X164524256Y-100599920D01*
X164527284Y-100598361D01*
X164528772Y-100596374D01*
X164554416Y-100581590D01*
X164562489Y-100578144D01*
X164631785Y-100559577D01*
X164698328Y-100521158D01*
X164768716Y-100480520D01*
X164880520Y-100368716D01*
X164880520Y-100368714D01*
X164890724Y-100358511D01*
X164890727Y-100358506D01*
X166414662Y-98834572D01*
X166475983Y-98801089D01*
X166478150Y-98800638D01*
X166536085Y-98789113D01*
X166633497Y-98769737D01*
X166779179Y-98709394D01*
X166910289Y-98621789D01*
X167021789Y-98510289D01*
X167109394Y-98379179D01*
X167169737Y-98233497D01*
X167200500Y-98078842D01*
X167200500Y-97921158D01*
X167200500Y-97921155D01*
X167200499Y-97921153D01*
X167169738Y-97766510D01*
X167169738Y-97766508D01*
X167169737Y-97766503D01*
X167169735Y-97766498D01*
X167109397Y-97620827D01*
X167109390Y-97620814D01*
X167021789Y-97489711D01*
X167021786Y-97489707D01*
X166910292Y-97378213D01*
X166910288Y-97378210D01*
X166779185Y-97290609D01*
X166779172Y-97290602D01*
X166633501Y-97230264D01*
X166633489Y-97230261D01*
X166478845Y-97199500D01*
X166478842Y-97199500D01*
X166321158Y-97199500D01*
X166321155Y-97199500D01*
X166166510Y-97230261D01*
X166166498Y-97230264D01*
X166020827Y-97290602D01*
X166020814Y-97290609D01*
X165889711Y-97378210D01*
X165889707Y-97378213D01*
X165778213Y-97489707D01*
X165778210Y-97489711D01*
X165690609Y-97620814D01*
X165690602Y-97620827D01*
X165630264Y-97766498D01*
X165630261Y-97766508D01*
X165599361Y-97921850D01*
X165566976Y-97983761D01*
X165565425Y-97985339D01*
X164187584Y-99363181D01*
X164126261Y-99396666D01*
X164099903Y-99399500D01*
X160979766Y-99399500D01*
X160912727Y-99379815D01*
X160910875Y-99378602D01*
X160779185Y-99290609D01*
X160779172Y-99290602D01*
X160633501Y-99230264D01*
X160633489Y-99230261D01*
X160478845Y-99199500D01*
X160478842Y-99199500D01*
X160321158Y-99199500D01*
X160321155Y-99199500D01*
X160166510Y-99230261D01*
X160166498Y-99230264D01*
X160020827Y-99290602D01*
X160020814Y-99290609D01*
X159889711Y-99378210D01*
X159889707Y-99378213D01*
X159778213Y-99489707D01*
X159778210Y-99489711D01*
X159690609Y-99620814D01*
X159690602Y-99620827D01*
X159630264Y-99766498D01*
X159630261Y-99766510D01*
X159599500Y-99921153D01*
X153400499Y-99921153D01*
X153382419Y-99830261D01*
X153369737Y-99766503D01*
X153369735Y-99766498D01*
X153309397Y-99620827D01*
X153309390Y-99620814D01*
X153221789Y-99489711D01*
X153221786Y-99489707D01*
X153110292Y-99378213D01*
X153110288Y-99378210D01*
X152979185Y-99290609D01*
X152979172Y-99290602D01*
X152833501Y-99230264D01*
X152833489Y-99230261D01*
X152678845Y-99199500D01*
X152678842Y-99199500D01*
X152521158Y-99199500D01*
X152521155Y-99199500D01*
X152366510Y-99230261D01*
X152366498Y-99230264D01*
X152220827Y-99290602D01*
X152220814Y-99290609D01*
X152089711Y-99378210D01*
X152089707Y-99378213D01*
X151978213Y-99489707D01*
X151978210Y-99489711D01*
X151890609Y-99620814D01*
X151890602Y-99620827D01*
X151830264Y-99766498D01*
X151830261Y-99766508D01*
X151799361Y-99921850D01*
X151766976Y-99983761D01*
X151765425Y-99985339D01*
X151319481Y-100431282D01*
X151319479Y-100431284D01*
X151299499Y-100465891D01*
X151291054Y-100480520D01*
X151240423Y-100568215D01*
X151199499Y-100720943D01*
X151199499Y-100720945D01*
X151199499Y-100889046D01*
X151199500Y-100889059D01*
X151199500Y-102499902D01*
X151179815Y-102566941D01*
X151163181Y-102587583D01*
X150587584Y-103163181D01*
X150526261Y-103196666D01*
X150499903Y-103199500D01*
X134679057Y-103199500D01*
X134520942Y-103199500D01*
X134368215Y-103240423D01*
X134368214Y-103240423D01*
X134368212Y-103240424D01*
X134368209Y-103240425D01*
X134318096Y-103269359D01*
X134318095Y-103269360D01*
X134299209Y-103280264D01*
X134231285Y-103319479D01*
X134231282Y-103319481D01*
X132919481Y-104631282D01*
X132919479Y-104631285D01*
X132869361Y-104718094D01*
X132869359Y-104718096D01*
X132840425Y-104768209D01*
X132840424Y-104768210D01*
X132826617Y-104819738D01*
X132799499Y-104920943D01*
X132799499Y-104920945D01*
X132799499Y-105089046D01*
X132799500Y-105089059D01*
X132799500Y-111620234D01*
X132779815Y-111687273D01*
X132778602Y-111689125D01*
X132690609Y-111820814D01*
X132690602Y-111820827D01*
X132630264Y-111966498D01*
X132630261Y-111966510D01*
X132599500Y-112121153D01*
X121900084Y-112121153D01*
X121853020Y-112007530D01*
X121824288Y-111954909D01*
X121726217Y-111849572D01*
X121726216Y-111849571D01*
X121602439Y-111776132D01*
X121483121Y-111745678D01*
X121462991Y-111740540D01*
X121462990Y-111740540D01*
X121462987Y-111740539D01*
X121379478Y-111743523D01*
X121311778Y-111726244D01*
X121264168Y-111675107D01*
X121251761Y-111606348D01*
X121257118Y-111581289D01*
X121315862Y-111400494D01*
X121350347Y-111182765D01*
X121350347Y-110962321D01*
X121315862Y-110744592D01*
X121247742Y-110534937D01*
X121247742Y-110534936D01*
X121190632Y-110422854D01*
X121147662Y-110338521D01*
X121025311Y-110170118D01*
X121018094Y-110160184D01*
X121018090Y-110160179D01*
X120862210Y-110004299D01*
X120862205Y-110004295D01*
X120683872Y-109874730D01*
X120683871Y-109874729D01*
X120683869Y-109874728D01*
X120620943Y-109842665D01*
X120487453Y-109774647D01*
X120487450Y-109774646D01*
X120277799Y-109706528D01*
X120168933Y-109689285D01*
X120060069Y-109672043D01*
X119839625Y-109672043D01*
X119767048Y-109683538D01*
X119621894Y-109706528D01*
X119412243Y-109774646D01*
X119412240Y-109774647D01*
X119215821Y-109874730D01*
X119037488Y-110004295D01*
X119037483Y-110004299D01*
X118881603Y-110160179D01*
X118881599Y-110160184D01*
X118752034Y-110338517D01*
X118651951Y-110534936D01*
X118651950Y-110534939D01*
X118583832Y-110744590D01*
X118583832Y-110744592D01*
X118549347Y-110962321D01*
X118549347Y-111182765D01*
X118555583Y-111222136D01*
X118583832Y-111400495D01*
X118651950Y-111610146D01*
X118651951Y-111610149D01*
X118752031Y-111806564D01*
X118867725Y-111965805D01*
X118891204Y-112031612D01*
X118875378Y-112099666D01*
X118825272Y-112148360D01*
X118756794Y-112162235D01*
X118737718Y-112159083D01*
X118496780Y-112099666D01*
X118249774Y-112038752D01*
X118189398Y-112003588D01*
X118159167Y-111948435D01*
X117562414Y-109561420D01*
X117565252Y-109491611D01*
X117576378Y-109467562D01*
X119178021Y-106798156D01*
X119193441Y-106778532D01*
X119213435Y-106739134D01*
X119236170Y-106701243D01*
X119241962Y-106685077D01*
X119248115Y-106670798D01*
X119255887Y-106655485D01*
X119260703Y-106638297D01*
X119266628Y-106617160D01*
X119266628Y-106617157D01*
X119267812Y-106612934D01*
X119282716Y-106571344D01*
X119286389Y-106546655D01*
X119293127Y-106522618D01*
X119294601Y-106503481D01*
X119296186Y-106482927D01*
X119296523Y-106478550D01*
X119303025Y-106434861D01*
X119301811Y-106409929D01*
X119303730Y-106385040D01*
X119303729Y-106385036D01*
X119303730Y-106385032D01*
X119298989Y-106345530D01*
X119298988Y-106345529D01*
X119298465Y-106341170D01*
X119296318Y-106297038D01*
X119290263Y-106272820D01*
X118768063Y-101921153D01*
X131599500Y-101921153D01*
X131599500Y-102078846D01*
X131630261Y-102233489D01*
X131630264Y-102233501D01*
X131690602Y-102379172D01*
X131690609Y-102379185D01*
X131778210Y-102510288D01*
X131778213Y-102510292D01*
X131889707Y-102621786D01*
X131889711Y-102621789D01*
X132020814Y-102709390D01*
X132020827Y-102709397D01*
X132165885Y-102769481D01*
X132166503Y-102769737D01*
X132321153Y-102800499D01*
X132321156Y-102800500D01*
X132321158Y-102800500D01*
X132478844Y-102800500D01*
X132478845Y-102800499D01*
X132633497Y-102769737D01*
X132779179Y-102709394D01*
X132868817Y-102649500D01*
X132910875Y-102621398D01*
X132977553Y-102600520D01*
X132979766Y-102600500D01*
X148820234Y-102600500D01*
X148887273Y-102620185D01*
X148889125Y-102621398D01*
X149020814Y-102709390D01*
X149020827Y-102709397D01*
X149165885Y-102769481D01*
X149166503Y-102769737D01*
X149321153Y-102800499D01*
X149321156Y-102800500D01*
X149321158Y-102800500D01*
X149478844Y-102800500D01*
X149478845Y-102800499D01*
X149633497Y-102769737D01*
X149779179Y-102709394D01*
X149910289Y-102621789D01*
X150021789Y-102510289D01*
X150109394Y-102379179D01*
X150169737Y-102233497D01*
X150200500Y-102078842D01*
X150200500Y-101921158D01*
X150200500Y-101921155D01*
X150200499Y-101921153D01*
X150188086Y-101858750D01*
X150169737Y-101766503D01*
X150169735Y-101766498D01*
X150109397Y-101620827D01*
X150109390Y-101620814D01*
X150021789Y-101489711D01*
X150021786Y-101489707D01*
X149910292Y-101378213D01*
X149910288Y-101378210D01*
X149779185Y-101290609D01*
X149779172Y-101290602D01*
X149633501Y-101230264D01*
X149633489Y-101230261D01*
X149478845Y-101199500D01*
X149478842Y-101199500D01*
X149321158Y-101199500D01*
X149321155Y-101199500D01*
X149166510Y-101230261D01*
X149166498Y-101230264D01*
X149020827Y-101290602D01*
X149020814Y-101290609D01*
X148889125Y-101378602D01*
X148822447Y-101399480D01*
X148820234Y-101399500D01*
X147031941Y-101399500D01*
X146964902Y-101379815D01*
X146919147Y-101327011D01*
X146909203Y-101257853D01*
X146938228Y-101194297D01*
X146944260Y-101187819D01*
X147021786Y-101110292D01*
X147021789Y-101110289D01*
X147109394Y-100979179D01*
X147169737Y-100833497D01*
X147191397Y-100724607D01*
X147200638Y-100678150D01*
X147233023Y-100616239D01*
X147234518Y-100614716D01*
X150812416Y-97036819D01*
X150873739Y-97003334D01*
X150900097Y-97000500D01*
X163420234Y-97000500D01*
X163487273Y-97020185D01*
X163489125Y-97021398D01*
X163620814Y-97109390D01*
X163620827Y-97109397D01*
X163766498Y-97169735D01*
X163766503Y-97169737D01*
X163916131Y-97199500D01*
X163921153Y-97200499D01*
X163921156Y-97200500D01*
X163921158Y-97200500D01*
X164078844Y-97200500D01*
X164078845Y-97200499D01*
X164233497Y-97169737D01*
X164379179Y-97109394D01*
X164510289Y-97021789D01*
X164621789Y-96910289D01*
X164709394Y-96779179D01*
X164713513Y-96769236D01*
X164769735Y-96633501D01*
X164769737Y-96633497D01*
X164800500Y-96478842D01*
X164800500Y-96321158D01*
X164800500Y-96321155D01*
X164800499Y-96321153D01*
X164769738Y-96166510D01*
X164769737Y-96166503D01*
X164713728Y-96031284D01*
X164709397Y-96020827D01*
X164709390Y-96020814D01*
X164621789Y-95889711D01*
X164621786Y-95889707D01*
X164510292Y-95778213D01*
X164510288Y-95778210D01*
X164379185Y-95690609D01*
X164379172Y-95690602D01*
X164233501Y-95630264D01*
X164233489Y-95630261D01*
X164078845Y-95599500D01*
X164078842Y-95599500D01*
X163921158Y-95599500D01*
X163921155Y-95599500D01*
X163766510Y-95630261D01*
X163766498Y-95630264D01*
X163620827Y-95690602D01*
X163620814Y-95690609D01*
X163489125Y-95778602D01*
X163422447Y-95799480D01*
X163420234Y-95799500D01*
X150686669Y-95799500D01*
X150686653Y-95799499D01*
X150679057Y-95799499D01*
X150520943Y-95799499D01*
X150413587Y-95828265D01*
X150368210Y-95840424D01*
X150368209Y-95840425D01*
X150318096Y-95869359D01*
X150318095Y-95869360D01*
X150282853Y-95889707D01*
X150231285Y-95919479D01*
X150231282Y-95919481D01*
X146385339Y-99765425D01*
X146324016Y-99798910D01*
X146321850Y-99799361D01*
X146166508Y-99830261D01*
X146166498Y-99830264D01*
X146020827Y-99890602D01*
X146020814Y-99890609D01*
X145889711Y-99978210D01*
X145889707Y-99978213D01*
X145778213Y-100089707D01*
X145778210Y-100089711D01*
X145690609Y-100220814D01*
X145690602Y-100220827D01*
X145630264Y-100366498D01*
X145630261Y-100366510D01*
X145599500Y-100521153D01*
X145599500Y-100678846D01*
X145630261Y-100833489D01*
X145630264Y-100833501D01*
X145690602Y-100979172D01*
X145690609Y-100979185D01*
X145778210Y-101110288D01*
X145778213Y-101110292D01*
X145855740Y-101187819D01*
X145889225Y-101249142D01*
X145884241Y-101318834D01*
X145842369Y-101374767D01*
X145776905Y-101399184D01*
X145768059Y-101399500D01*
X132979766Y-101399500D01*
X132912727Y-101379815D01*
X132910875Y-101378602D01*
X132779185Y-101290609D01*
X132779172Y-101290602D01*
X132633501Y-101230264D01*
X132633489Y-101230261D01*
X132478845Y-101199500D01*
X132478842Y-101199500D01*
X132321158Y-101199500D01*
X132321155Y-101199500D01*
X132166510Y-101230261D01*
X132166498Y-101230264D01*
X132020827Y-101290602D01*
X132020814Y-101290609D01*
X131889711Y-101378210D01*
X131889707Y-101378213D01*
X131778213Y-101489707D01*
X131778210Y-101489711D01*
X131690609Y-101620814D01*
X131690602Y-101620827D01*
X131630264Y-101766498D01*
X131630261Y-101766510D01*
X131599500Y-101921153D01*
X118768063Y-101921153D01*
X118703526Y-101383346D01*
X118702761Y-101363202D01*
X118898075Y-96870998D01*
X118899201Y-96858871D01*
X119200468Y-94750000D01*
X141880000Y-94750000D01*
X158120000Y-94750000D01*
X158120000Y-87430000D01*
X141880000Y-87430000D01*
X141880000Y-94750000D01*
X119200468Y-94750000D01*
X119484013Y-92765181D01*
X119488436Y-92745655D01*
X119495569Y-92722883D01*
X119750982Y-91907486D01*
X127324500Y-91907486D01*
X127324500Y-92092513D01*
X127353445Y-92275265D01*
X127410619Y-92451232D01*
X127410620Y-92451235D01*
X127494622Y-92616096D01*
X127603379Y-92765787D01*
X127734213Y-92896621D01*
X127883904Y-93005378D01*
X127937224Y-93032546D01*
X128048764Y-93089379D01*
X128048767Y-93089380D01*
X128136750Y-93117967D01*
X128224736Y-93146555D01*
X128407486Y-93175500D01*
X128407487Y-93175500D01*
X128592513Y-93175500D01*
X128592514Y-93175500D01*
X128775264Y-93146555D01*
X128951235Y-93089379D01*
X129116096Y-93005378D01*
X129231608Y-92921453D01*
X129297412Y-92897974D01*
X129365466Y-92913799D01*
X129403758Y-92947460D01*
X129467455Y-93032547D01*
X129582664Y-93118793D01*
X129582671Y-93118797D01*
X129717517Y-93169091D01*
X129717516Y-93169091D01*
X129724444Y-93169835D01*
X129777127Y-93175500D01*
X131222872Y-93175499D01*
X131282483Y-93169091D01*
X131417331Y-93118796D01*
X131532546Y-93032546D01*
X131618796Y-92917331D01*
X131669091Y-92782483D01*
X131675500Y-92722873D01*
X131675499Y-91277128D01*
X131669091Y-91217517D01*
X131656204Y-91182966D01*
X131618797Y-91082671D01*
X131618793Y-91082664D01*
X131532547Y-90967455D01*
X131532544Y-90967452D01*
X131417335Y-90881206D01*
X131417328Y-90881202D01*
X131282482Y-90830908D01*
X131282483Y-90830908D01*
X131222883Y-90824501D01*
X131222881Y-90824500D01*
X131222873Y-90824500D01*
X131222864Y-90824500D01*
X129777129Y-90824500D01*
X129777123Y-90824501D01*
X129717516Y-90830908D01*
X129582671Y-90881202D01*
X129582664Y-90881206D01*
X129467455Y-90967452D01*
X129403758Y-91052539D01*
X129347823Y-91094410D01*
X129278132Y-91099393D01*
X129231607Y-91078545D01*
X129116099Y-90994624D01*
X129116098Y-90994623D01*
X129116096Y-90994622D01*
X129062772Y-90967452D01*
X128951235Y-90910620D01*
X128951232Y-90910619D01*
X128775265Y-90853445D01*
X128632972Y-90830908D01*
X128592514Y-90824500D01*
X128407486Y-90824500D01*
X128367028Y-90830908D01*
X128224734Y-90853445D01*
X128048767Y-90910619D01*
X128048764Y-90910620D01*
X127883903Y-90994622D01*
X127807871Y-91049863D01*
X127734213Y-91103379D01*
X127734211Y-91103381D01*
X127734210Y-91103381D01*
X127603381Y-91234210D01*
X127603381Y-91234211D01*
X127603379Y-91234213D01*
X127572199Y-91277129D01*
X127494622Y-91383903D01*
X127410620Y-91548764D01*
X127410619Y-91548767D01*
X127353445Y-91724734D01*
X127324500Y-91907486D01*
X119750982Y-91907486D01*
X120129779Y-90698186D01*
X120168603Y-90640098D01*
X120232670Y-90612219D01*
X120283046Y-90616277D01*
X120337841Y-90632368D01*
X120463105Y-90636842D01*
X120481668Y-90637506D01*
X120481668Y-90637505D01*
X120481672Y-90637506D01*
X120599187Y-90607510D01*
X120621120Y-90601913D01*
X120621120Y-90601912D01*
X120621123Y-90601912D01*
X120744898Y-90528474D01*
X120842969Y-90423137D01*
X120871702Y-90370518D01*
X121597171Y-88619077D01*
X121614063Y-88561552D01*
X121616632Y-88489636D01*
X121619201Y-88417724D01*
X121619200Y-88417723D01*
X121619201Y-88417721D01*
X121583607Y-88278270D01*
X121510169Y-88154495D01*
X121449006Y-88097551D01*
X121413354Y-88037463D01*
X121415847Y-87967638D01*
X121455695Y-87910245D01*
X121477201Y-87896314D01*
X121646582Y-87810010D01*
X121824925Y-87680437D01*
X121980802Y-87524560D01*
X122110375Y-87346217D01*
X122181170Y-87207276D01*
X122210453Y-87149806D01*
X122210456Y-87149798D01*
X122212912Y-87142237D01*
X122278575Y-86940146D01*
X122313060Y-86722417D01*
X122313060Y-86501973D01*
X122278575Y-86284244D01*
X122218813Y-86100312D01*
X122210456Y-86074591D01*
X122210455Y-86074588D01*
X122155273Y-85966289D01*
X122110375Y-85878173D01*
X122049894Y-85794927D01*
X121980807Y-85699836D01*
X121980803Y-85699831D01*
X121824923Y-85543951D01*
X121824918Y-85543947D01*
X121646585Y-85414382D01*
X121646584Y-85414381D01*
X121646582Y-85414380D01*
X121583656Y-85382317D01*
X121450166Y-85314299D01*
X121450163Y-85314298D01*
X121240512Y-85246180D01*
X121131646Y-85228937D01*
X121022782Y-85211695D01*
X120802338Y-85211695D01*
X120729761Y-85223190D01*
X120584607Y-85246180D01*
X120374956Y-85314298D01*
X120374953Y-85314299D01*
X120178534Y-85414382D01*
X120000201Y-85543947D01*
X120000196Y-85543951D01*
X119844316Y-85699831D01*
X119844312Y-85699836D01*
X119714747Y-85878169D01*
X119614664Y-86074588D01*
X119614663Y-86074591D01*
X119546545Y-86284242D01*
X119536927Y-86344968D01*
X119506998Y-86408103D01*
X119447686Y-86445034D01*
X119377824Y-86444036D01*
X119319591Y-86405426D01*
X119306190Y-86386025D01*
X119217291Y-86226822D01*
X119201793Y-86158693D01*
X119213188Y-86113929D01*
X119219544Y-86100311D01*
X120268672Y-83852176D01*
X120314860Y-83799751D01*
X120350963Y-83784317D01*
X123118822Y-83092352D01*
X123135097Y-83090803D01*
X123185647Y-83075646D01*
X123236830Y-83062851D01*
X123243175Y-83059852D01*
X123260544Y-83053190D01*
X123267270Y-83051174D01*
X123313889Y-83026447D01*
X123361595Y-83003912D01*
X123374729Y-82994179D01*
X123389172Y-82986520D01*
X123430067Y-82953177D01*
X123472464Y-82921764D01*
X123483449Y-82909655D01*
X123496118Y-82899326D01*
X123527919Y-82860828D01*
X123531601Y-82856575D01*
X123565177Y-82819566D01*
X123568796Y-82813533D01*
X123579523Y-82798360D01*
X127300487Y-78294035D01*
X127313380Y-78280621D01*
X131019205Y-74964885D01*
X131034500Y-74953207D01*
X134341058Y-72813670D01*
X134353325Y-72806690D01*
X135454538Y-72260673D01*
X135523343Y-72248530D01*
X135587793Y-72275512D01*
X135624180Y-72324311D01*
X135631169Y-72341184D01*
X135631171Y-72341187D01*
X135659900Y-72393804D01*
X135757972Y-72499142D01*
X135881749Y-72572581D01*
X135927577Y-72584277D01*
X136021198Y-72608174D01*
X136021200Y-72608173D01*
X136021201Y-72608174D01*
X136034278Y-72607706D01*
X136165029Y-72603036D01*
X136222554Y-72586146D01*
X137973993Y-71860674D01*
X138026614Y-71831942D01*
X138131951Y-71733871D01*
X138205389Y-71610096D01*
X138240983Y-71470645D01*
X138237999Y-71387130D01*
X138255277Y-71319434D01*
X138306413Y-71271822D01*
X138375173Y-71259415D01*
X138400234Y-71264773D01*
X138581029Y-71323516D01*
X138798758Y-71358001D01*
X138798759Y-71358001D01*
X139019201Y-71358001D01*
X139019202Y-71358001D01*
X139236931Y-71323516D01*
X139446586Y-71255396D01*
X139643002Y-71155316D01*
X139821345Y-71025743D01*
X139977222Y-70869866D01*
X140106795Y-70691523D01*
X140206875Y-70495107D01*
X140274995Y-70285452D01*
X140309480Y-70067723D01*
X140309480Y-69847279D01*
X140274995Y-69629550D01*
X140232115Y-69497578D01*
X140206876Y-69419897D01*
X140206875Y-69419894D01*
X140172217Y-69351876D01*
X140106795Y-69223479D01*
X140061994Y-69161815D01*
X139977227Y-69045142D01*
X139977223Y-69045137D01*
X139821343Y-68889257D01*
X139821338Y-68889253D01*
X139643005Y-68759688D01*
X139643004Y-68759687D01*
X139643002Y-68759686D01*
X139580076Y-68727623D01*
X139446586Y-68659605D01*
X139446583Y-68659604D01*
X139236932Y-68591486D01*
X139137295Y-68575705D01*
X139074160Y-68545776D01*
X139037229Y-68486464D01*
X139038227Y-68416602D01*
X139076837Y-68358369D01*
X139115955Y-68336114D01*
X141312492Y-67572100D01*
X141382275Y-67568670D01*
X141406020Y-67577020D01*
G37*
G04 #@! TD.AperFunction*
G04 #@! TA.AperFunction,Conductor*
G36*
X158073595Y-63630630D02*
G01*
X158100407Y-63632949D01*
X163744712Y-65453693D01*
X163756571Y-65458201D01*
X165863434Y-66385221D01*
X168647666Y-67610283D01*
X168667747Y-67621444D01*
X172357491Y-70146005D01*
X172370881Y-70156590D01*
X173091439Y-70811642D01*
X176458912Y-73872981D01*
X176495275Y-73932640D01*
X176499500Y-73964732D01*
X176499500Y-79717059D01*
X176479815Y-79784098D01*
X176463181Y-79804740D01*
X176378213Y-79889707D01*
X176378210Y-79889711D01*
X176290609Y-80020814D01*
X176290604Y-80020823D01*
X176256710Y-80102653D01*
X176212869Y-80157056D01*
X176146575Y-80179121D01*
X176078876Y-80161842D01*
X176047489Y-80135297D01*
X174564928Y-78383179D01*
X174564928Y-78383178D01*
X174560388Y-78377812D01*
X174544114Y-78353457D01*
X174515937Y-78325280D01*
X174512615Y-78321354D01*
X174512603Y-78321341D01*
X174490186Y-78294848D01*
X174472756Y-78280977D01*
X174462290Y-78271633D01*
X171926166Y-75735509D01*
X171921526Y-75730869D01*
X171901451Y-75706029D01*
X171872866Y-75682208D01*
X171868882Y-75678224D01*
X171846545Y-75655887D01*
X171825433Y-75641781D01*
X171814946Y-75633942D01*
X168422644Y-72807024D01*
X168385097Y-72753036D01*
X168380247Y-72739294D01*
X167278684Y-69618201D01*
X167276021Y-69603900D01*
X167255758Y-69553244D01*
X167237602Y-69501800D01*
X167235095Y-69497576D01*
X167226599Y-69480346D01*
X167224774Y-69475782D01*
X167195018Y-69430052D01*
X167167175Y-69383140D01*
X167157451Y-69372318D01*
X167149517Y-69360124D01*
X167113185Y-69322895D01*
X167111401Y-69321067D01*
X167074951Y-69280499D01*
X167063306Y-69271784D01*
X167056575Y-69264887D01*
X167056568Y-69264881D01*
X167053140Y-69261368D01*
X167010252Y-69231948D01*
X167008139Y-69230498D01*
X166964476Y-69197823D01*
X166951361Y-69191550D01*
X166943406Y-69186094D01*
X166939357Y-69183317D01*
X166939355Y-69183316D01*
X166891518Y-69162814D01*
X166891518Y-69162813D01*
X166889168Y-69161805D01*
X166839993Y-69138288D01*
X166825903Y-69134694D01*
X166817044Y-69130897D01*
X166817043Y-69130897D01*
X166752323Y-69103160D01*
X165971488Y-68768516D01*
X164120424Y-67975202D01*
X164107425Y-67968704D01*
X164089596Y-67958444D01*
X164087743Y-67957817D01*
X164055123Y-67946795D01*
X164045986Y-67943300D01*
X164012532Y-67928963D01*
X164012528Y-67928961D01*
X164012526Y-67928961D01*
X164000202Y-67926353D01*
X163992377Y-67924697D01*
X163992377Y-67924696D01*
X163985245Y-67923186D01*
X163958863Y-67914273D01*
X163917946Y-67908944D01*
X163913133Y-67907926D01*
X163913130Y-67907926D01*
X163877532Y-67900394D01*
X163877536Y-67900394D01*
X163856934Y-67900142D01*
X163856934Y-67900141D01*
X163849650Y-67900052D01*
X163822032Y-67896456D01*
X163780842Y-67899213D01*
X163775937Y-67899154D01*
X163775936Y-67899153D01*
X163740571Y-67898723D01*
X163739553Y-67898711D01*
X163739552Y-67898711D01*
X163739550Y-67898711D01*
X163719317Y-67902480D01*
X163719316Y-67902480D01*
X163712156Y-67903814D01*
X163684354Y-67905676D01*
X163644491Y-67916417D01*
X163639672Y-67917315D01*
X163639671Y-67917314D01*
X163603903Y-67923978D01*
X163603900Y-67923978D01*
X163584777Y-67931627D01*
X163578021Y-67934329D01*
X163551120Y-67941579D01*
X163514120Y-67959889D01*
X163509560Y-67961714D01*
X163509558Y-67961714D01*
X163475792Y-67975220D01*
X163475780Y-67975227D01*
X163458523Y-67986455D01*
X163445903Y-67993650D01*
X161930687Y-68743547D01*
X161861872Y-68755641D01*
X161828232Y-68746974D01*
X160732776Y-68293223D01*
X160732775Y-68293222D01*
X160732771Y-68293221D01*
X160675246Y-68276329D01*
X160675243Y-68276328D01*
X160531418Y-68271190D01*
X160531415Y-68271191D01*
X160391966Y-68306783D01*
X160268189Y-68380222D01*
X160170118Y-68485559D01*
X160141383Y-68538183D01*
X160026577Y-68815347D01*
X159982736Y-68869750D01*
X159916441Y-68891815D01*
X159878518Y-68887284D01*
X158641025Y-68540074D01*
X158641025Y-68540073D01*
X158633229Y-68537885D01*
X158611824Y-68528739D01*
X158566960Y-68519294D01*
X158563015Y-68518187D01*
X158522803Y-68506905D01*
X158522801Y-68506904D01*
X158507644Y-68505732D01*
X158491666Y-68503442D01*
X154817599Y-67729955D01*
X154817598Y-67729955D01*
X154807965Y-67727927D01*
X154804328Y-67726420D01*
X154740522Y-67713727D01*
X154739864Y-67713589D01*
X154739798Y-67713575D01*
X154676797Y-67700313D01*
X154676793Y-67700312D01*
X154676789Y-67700312D01*
X154673866Y-67699991D01*
X154673658Y-67699959D01*
X154673483Y-67699942D01*
X154673480Y-67699941D01*
X154671901Y-67699785D01*
X154671900Y-67699784D01*
X154669005Y-67699500D01*
X154668993Y-67699500D01*
X154604525Y-67699500D01*
X154603143Y-67699492D01*
X154538825Y-67698774D01*
X154535891Y-67699031D01*
X154525113Y-67699500D01*
X153736113Y-67699500D01*
X153669074Y-67679815D01*
X153623319Y-67627011D01*
X153613375Y-67557853D01*
X153642400Y-67494297D01*
X153648432Y-67487819D01*
X153663436Y-67472815D01*
X153742670Y-67393581D01*
X153834797Y-67244220D01*
X153889996Y-67077638D01*
X153900500Y-66974826D01*
X153900500Y-65575174D01*
X153889996Y-65472362D01*
X153884456Y-65455644D01*
X153871596Y-65416834D01*
X153834797Y-65305780D01*
X153742670Y-65156419D01*
X153618581Y-65032330D01*
X153618577Y-65032327D01*
X153466558Y-64938560D01*
X153419833Y-64886612D01*
X153408612Y-64817650D01*
X153436455Y-64753568D01*
X153494524Y-64714712D01*
X153547519Y-64710042D01*
X157270550Y-65190433D01*
X157321158Y-65200500D01*
X157348566Y-65200500D01*
X157375753Y-65204008D01*
X157423027Y-65200787D01*
X157431456Y-65200500D01*
X157478845Y-65200500D01*
X157497910Y-65196707D01*
X157497914Y-65196706D01*
X157505726Y-65195152D01*
X157533073Y-65193289D01*
X157582883Y-65179804D01*
X157633497Y-65169737D01*
X157658821Y-65159247D01*
X157685279Y-65152085D01*
X157731500Y-65129142D01*
X157779179Y-65109394D01*
X157795348Y-65098589D01*
X157809095Y-65090628D01*
X157826522Y-65081979D01*
X157864043Y-65053032D01*
X157870886Y-65048116D01*
X157910289Y-65021789D01*
X157924037Y-65008039D01*
X157935982Y-64997538D01*
X157951374Y-64985665D01*
X157985299Y-64946778D01*
X158021789Y-64910289D01*
X158037018Y-64887496D01*
X158055037Y-64866843D01*
X158078630Y-64825730D01*
X158083042Y-64818614D01*
X158109394Y-64779179D01*
X158119885Y-64753850D01*
X158133527Y-64730081D01*
X158149988Y-64681175D01*
X158169737Y-64633497D01*
X158173531Y-64614418D01*
X158177623Y-64599069D01*
X158183829Y-64580635D01*
X158190433Y-64529448D01*
X158200500Y-64478842D01*
X158200500Y-64451434D01*
X158204008Y-64424247D01*
X158200787Y-64376972D01*
X158200500Y-64368543D01*
X158200500Y-64321159D01*
X158199639Y-64316832D01*
X158195152Y-64294273D01*
X158193289Y-64266927D01*
X158179804Y-64217116D01*
X158169737Y-64166503D01*
X158159247Y-64141178D01*
X158152085Y-64114721D01*
X158129142Y-64068499D01*
X158127528Y-64064602D01*
X158109396Y-64020825D01*
X158109395Y-64020823D01*
X158109394Y-64020821D01*
X158094165Y-63998029D01*
X158081979Y-63973478D01*
X158050458Y-63932618D01*
X158042801Y-63921158D01*
X158021790Y-63889712D01*
X158021789Y-63889711D01*
X158008024Y-63875946D01*
X158003299Y-63870950D01*
X158000298Y-63867596D01*
X157985665Y-63848626D01*
X157975036Y-63839353D01*
X157969918Y-63833631D01*
X157958072Y-63808738D01*
X157943247Y-63785499D01*
X157943273Y-63777639D01*
X157939895Y-63770541D01*
X157943388Y-63743194D01*
X157943480Y-63715630D01*
X157947752Y-63709031D01*
X157948748Y-63701234D01*
X157966469Y-63680118D01*
X157981451Y-63656978D01*
X157988611Y-63653736D01*
X157993665Y-63647716D01*
X158019990Y-63639533D01*
X158045103Y-63628166D01*
X158054066Y-63628941D01*
X158060386Y-63626977D01*
X158073595Y-63630630D01*
G37*
G04 #@! TD.AperFunction*
G04 #@! TA.AperFunction,Conductor*
G36*
X149540667Y-66448694D02*
G01*
X149599910Y-66551306D01*
X149683694Y-66635090D01*
X149786306Y-66694333D01*
X149871414Y-66717137D01*
X149162485Y-67426065D01*
X149162485Y-67426066D01*
X149230087Y-67475181D01*
X149272753Y-67530511D01*
X149278732Y-67600124D01*
X149246127Y-67661920D01*
X149185288Y-67696277D01*
X149157202Y-67699500D01*
X148223650Y-67699500D01*
X148156611Y-67679815D01*
X148110856Y-67627011D01*
X148100912Y-67557853D01*
X148129937Y-67494297D01*
X148150765Y-67475182D01*
X148332358Y-67343247D01*
X148332356Y-67343247D01*
X148332365Y-67343242D01*
X148488242Y-67187365D01*
X148589991Y-67047317D01*
X148645320Y-67004653D01*
X148714933Y-66998674D01*
X148776729Y-67031279D01*
X148790628Y-67047319D01*
X148808932Y-67072513D01*
X149517861Y-66363583D01*
X149540667Y-66448694D01*
G37*
G04 #@! TD.AperFunction*
G04 #@! TA.AperFunction,Conductor*
G36*
X151086156Y-67047603D02*
G01*
X151116181Y-67096280D01*
X151165202Y-67244217D01*
X151165204Y-67244222D01*
X151257331Y-67393582D01*
X151351568Y-67487819D01*
X151385053Y-67549142D01*
X151380069Y-67618834D01*
X151338197Y-67674767D01*
X151272733Y-67699184D01*
X151263887Y-67699500D01*
X150762799Y-67699500D01*
X150695760Y-67679815D01*
X150650005Y-67627011D01*
X150640061Y-67557853D01*
X150669086Y-67494297D01*
X150689913Y-67475182D01*
X150757513Y-67426066D01*
X150757514Y-67426066D01*
X150048585Y-66717138D01*
X150133694Y-66694333D01*
X150236306Y-66635090D01*
X150320090Y-66551306D01*
X150379333Y-66448694D01*
X150402138Y-66363585D01*
X151086156Y-67047603D01*
G37*
G04 #@! TD.AperFunction*
G04 #@! TA.AperFunction,Conductor*
G36*
X150756938Y-64277433D02*
G01*
X150764143Y-64277562D01*
X150795975Y-64292792D01*
X150820821Y-64309394D01*
X150838789Y-64316836D01*
X150853049Y-64323845D01*
X150869919Y-64333527D01*
X150914850Y-64348650D01*
X150922713Y-64351599D01*
X150942752Y-64359899D01*
X150966497Y-64369735D01*
X150966500Y-64369735D01*
X150966503Y-64369737D01*
X150966507Y-64369737D01*
X150966508Y-64369738D01*
X150985568Y-64373529D01*
X151000938Y-64377626D01*
X151019365Y-64383829D01*
X151066370Y-64389893D01*
X151066372Y-64389894D01*
X151070557Y-64390434D01*
X151121158Y-64400500D01*
X151148565Y-64400500D01*
X152543721Y-64580520D01*
X152907971Y-64627520D01*
X152971941Y-64655621D01*
X153010562Y-64713847D01*
X153011573Y-64783709D01*
X152974654Y-64843028D01*
X152911525Y-64872970D01*
X152892103Y-64874500D01*
X151800166Y-64874500D01*
X151697361Y-64885003D01*
X151530782Y-64940202D01*
X151530777Y-64940204D01*
X151381417Y-65032331D01*
X151257331Y-65156417D01*
X151165204Y-65305777D01*
X151165202Y-65305782D01*
X151116182Y-65453717D01*
X151086157Y-65502394D01*
X150402137Y-66186414D01*
X150379333Y-66101306D01*
X150320090Y-65998694D01*
X150236306Y-65914910D01*
X150133694Y-65855667D01*
X150048583Y-65832861D01*
X150757513Y-65123932D01*
X150693756Y-65077611D01*
X150497410Y-64977567D01*
X150287836Y-64909473D01*
X150250958Y-64903632D01*
X150250420Y-64903377D01*
X150249829Y-64903448D01*
X150218921Y-64888444D01*
X150187824Y-64873702D01*
X150187508Y-64873195D01*
X150186974Y-64872936D01*
X150169078Y-64843596D01*
X150150894Y-64814390D01*
X150150902Y-64813795D01*
X150150592Y-64813286D01*
X150151401Y-64778883D01*
X150151892Y-64744527D01*
X150152221Y-64744030D01*
X150152235Y-64743436D01*
X150171489Y-64714970D01*
X150190503Y-64686295D01*
X150191160Y-64685890D01*
X150191382Y-64685562D01*
X150221506Y-64667188D01*
X150271352Y-64645825D01*
X150272647Y-64645280D01*
X150331811Y-64620775D01*
X150331820Y-64620768D01*
X150335174Y-64618976D01*
X150335313Y-64618909D01*
X150335901Y-64618590D01*
X150336023Y-64618516D01*
X150339353Y-64616684D01*
X150339353Y-64616683D01*
X150339355Y-64616683D01*
X150392247Y-64580400D01*
X150393172Y-64579773D01*
X150446542Y-64544114D01*
X150446546Y-64544109D01*
X150449489Y-64541694D01*
X150449530Y-64541660D01*
X150450153Y-64541148D01*
X150450216Y-64541091D01*
X150453132Y-64538637D01*
X150453144Y-64538629D01*
X150498374Y-64492281D01*
X150544114Y-64446542D01*
X150546504Y-64442962D01*
X150549511Y-64439882D01*
X150549518Y-64439875D01*
X150584431Y-64386217D01*
X150585219Y-64385023D01*
X150586017Y-64383829D01*
X150620775Y-64331811D01*
X150620775Y-64331809D01*
X150623986Y-64327005D01*
X150630933Y-64321198D01*
X150634841Y-64313032D01*
X150657322Y-64299145D01*
X150677599Y-64282200D01*
X150686582Y-64281071D01*
X150694285Y-64276314D01*
X150720705Y-64276785D01*
X150746924Y-64273493D01*
X150756938Y-64277433D01*
G37*
G04 #@! TD.AperFunction*
G04 #@! TA.AperFunction,Conductor*
G36*
X150622372Y-60505434D02*
G01*
X151858769Y-60544288D01*
X151862620Y-60544471D01*
X153097163Y-60622142D01*
X153100984Y-60622442D01*
X154332540Y-60738858D01*
X154336385Y-60739283D01*
X155563597Y-60894317D01*
X155567454Y-60894866D01*
X156789168Y-61088366D01*
X156793009Y-61089035D01*
X158008111Y-61320829D01*
X158011867Y-61321607D01*
X159219143Y-61591464D01*
X159222826Y-61592349D01*
X160420973Y-61899981D01*
X160424728Y-61901008D01*
X161612595Y-62246116D01*
X161616259Y-62247243D01*
X162792775Y-62629516D01*
X162796356Y-62630742D01*
X163960281Y-63049781D01*
X163963880Y-63051141D01*
X165114008Y-63506509D01*
X165117536Y-63507969D01*
X166072346Y-63921153D01*
X166252813Y-63999248D01*
X166256364Y-64000851D01*
X166298807Y-64020823D01*
X167375655Y-64527549D01*
X167379089Y-64529232D01*
X168481301Y-65090836D01*
X168484685Y-65092628D01*
X169568697Y-65688569D01*
X169572003Y-65690454D01*
X170636773Y-66320158D01*
X170640026Y-66322151D01*
X171488232Y-66860439D01*
X171684487Y-66984986D01*
X171687742Y-66987125D01*
X172710811Y-67682402D01*
X172713998Y-67684642D01*
X173039206Y-67920919D01*
X173714763Y-68411740D01*
X173717777Y-68414002D01*
X174695241Y-69172201D01*
X174698245Y-69174608D01*
X175651397Y-69963124D01*
X175654317Y-69965618D01*
X176362253Y-70589747D01*
X176582205Y-70783661D01*
X176585086Y-70786283D01*
X177486796Y-71633044D01*
X177489593Y-71635755D01*
X178364244Y-72510406D01*
X178366955Y-72513203D01*
X179213716Y-73414913D01*
X179216338Y-73417794D01*
X179287226Y-73498201D01*
X179617637Y-73872979D01*
X180034363Y-74345661D01*
X180036880Y-74348608D01*
X180645198Y-75083938D01*
X180825389Y-75301751D01*
X180827804Y-75304766D01*
X181585989Y-76282212D01*
X181588267Y-76285247D01*
X181896233Y-76709126D01*
X182315357Y-77286001D01*
X182317597Y-77289188D01*
X183012874Y-78312257D01*
X183015013Y-78315512D01*
X183021209Y-78325275D01*
X183677836Y-79359955D01*
X183679851Y-79363245D01*
X184295547Y-80404328D01*
X184309522Y-80427957D01*
X184311441Y-80431323D01*
X184907355Y-81515285D01*
X184909175Y-81518721D01*
X185467464Y-82614428D01*
X185470751Y-82620878D01*
X185472465Y-82624376D01*
X185999148Y-83743635D01*
X186000751Y-83747186D01*
X186492015Y-84882428D01*
X186493503Y-84886023D01*
X186534835Y-84990414D01*
X186948849Y-86036097D01*
X186950226Y-86039740D01*
X187082845Y-86408103D01*
X187349875Y-87149806D01*
X187369239Y-87203590D01*
X187370496Y-87207261D01*
X187561642Y-87795548D01*
X187752747Y-88383711D01*
X187753892Y-88387434D01*
X188098990Y-89575269D01*
X188100018Y-89579026D01*
X188407637Y-90777120D01*
X188408545Y-90780901D01*
X188424761Y-90853445D01*
X188678386Y-91988103D01*
X188679176Y-91991918D01*
X188910964Y-93206994D01*
X188911633Y-93210831D01*
X189105133Y-94432545D01*
X189105682Y-94436402D01*
X189260714Y-95663600D01*
X189261142Y-95667472D01*
X189377554Y-96898984D01*
X189377859Y-96902867D01*
X189455527Y-98137358D01*
X189455711Y-98141249D01*
X189494566Y-99377627D01*
X189494627Y-99381522D01*
X189494627Y-100618477D01*
X189494566Y-100622372D01*
X189455711Y-101858750D01*
X189455527Y-101862641D01*
X189377859Y-103097132D01*
X189377554Y-103101015D01*
X189261142Y-104332527D01*
X189260714Y-104336399D01*
X189105682Y-105563597D01*
X189105133Y-105567454D01*
X188911633Y-106789168D01*
X188910964Y-106793005D01*
X188679176Y-108008081D01*
X188678386Y-108011896D01*
X188408547Y-109219091D01*
X188407637Y-109222879D01*
X188100018Y-110420973D01*
X188098990Y-110424730D01*
X187753892Y-111612565D01*
X187752747Y-111616288D01*
X187370501Y-112792723D01*
X187369239Y-112796409D01*
X186950226Y-113960259D01*
X186948849Y-113963902D01*
X186493505Y-115113972D01*
X186492015Y-115117571D01*
X186000751Y-116252813D01*
X185999148Y-116256364D01*
X185472465Y-117375623D01*
X185470751Y-117379121D01*
X184909178Y-118481272D01*
X184907355Y-118484714D01*
X184311452Y-119568658D01*
X184309522Y-119572042D01*
X183679853Y-120636752D01*
X183677818Y-120640074D01*
X183015013Y-121684487D01*
X183012874Y-121687742D01*
X182317597Y-122710811D01*
X182315357Y-122713998D01*
X181588286Y-123714727D01*
X181585966Y-123717817D01*
X181028116Y-124436993D01*
X180827824Y-124695208D01*
X180825389Y-124698248D01*
X180036893Y-125651376D01*
X180034363Y-125654338D01*
X179216338Y-126582205D01*
X179213716Y-126585086D01*
X178366955Y-127486796D01*
X178364244Y-127489593D01*
X177489593Y-128364244D01*
X177486796Y-128366955D01*
X176585086Y-129213716D01*
X176582205Y-129216338D01*
X175654338Y-130034363D01*
X175651376Y-130036893D01*
X174698248Y-130825389D01*
X174695208Y-130827824D01*
X174687889Y-130833501D01*
X173717817Y-131585966D01*
X173714727Y-131588286D01*
X172713998Y-132315357D01*
X172710811Y-132317597D01*
X171687742Y-133012874D01*
X171684487Y-133015013D01*
X170640074Y-133677818D01*
X170636752Y-133679853D01*
X169572042Y-134309522D01*
X169568658Y-134311452D01*
X168484714Y-134907355D01*
X168481272Y-134909178D01*
X167379121Y-135470751D01*
X167375623Y-135472465D01*
X166256364Y-135999148D01*
X166252813Y-136000751D01*
X165117571Y-136492015D01*
X165113972Y-136493505D01*
X163963902Y-136948849D01*
X163960259Y-136950226D01*
X162796409Y-137369239D01*
X162792723Y-137370501D01*
X161616288Y-137752747D01*
X161612565Y-137753892D01*
X160424730Y-138098990D01*
X160420973Y-138100018D01*
X159222879Y-138407637D01*
X159219091Y-138408547D01*
X158011896Y-138678386D01*
X158008081Y-138679176D01*
X156793005Y-138910964D01*
X156789168Y-138911633D01*
X155567454Y-139105133D01*
X155563597Y-139105682D01*
X154336399Y-139260714D01*
X154332527Y-139261142D01*
X153101015Y-139377554D01*
X153097132Y-139377859D01*
X151862641Y-139455527D01*
X151858750Y-139455711D01*
X150622372Y-139494566D01*
X150618477Y-139494627D01*
X149381523Y-139494627D01*
X149377628Y-139494566D01*
X148141249Y-139455711D01*
X148137358Y-139455527D01*
X146902867Y-139377859D01*
X146898984Y-139377554D01*
X145667472Y-139261142D01*
X145663600Y-139260714D01*
X144436402Y-139105682D01*
X144432545Y-139105133D01*
X143210831Y-138911633D01*
X143206994Y-138910964D01*
X141991918Y-138679176D01*
X141988103Y-138678386D01*
X140780908Y-138408547D01*
X140777120Y-138407637D01*
X139579026Y-138100018D01*
X139575269Y-138098990D01*
X138387434Y-137753892D01*
X138383711Y-137752747D01*
X137366390Y-137422200D01*
X137207261Y-137370496D01*
X137203605Y-137369244D01*
X136576814Y-137143585D01*
X136039740Y-136950226D01*
X136036097Y-136948849D01*
X134886027Y-136493505D01*
X134882428Y-136492015D01*
X133747186Y-136000751D01*
X133743635Y-135999148D01*
X132624376Y-135472465D01*
X132620878Y-135470751D01*
X132416279Y-135366503D01*
X131518721Y-134909175D01*
X131515285Y-134907355D01*
X131484819Y-134890606D01*
X130431323Y-134311441D01*
X130427976Y-134309533D01*
X129363245Y-133679851D01*
X129359955Y-133677836D01*
X128334949Y-133027348D01*
X128315512Y-133015013D01*
X128312257Y-133012874D01*
X127289188Y-132317597D01*
X127286001Y-132315357D01*
X126584096Y-131805394D01*
X126285247Y-131588267D01*
X126282212Y-131585989D01*
X125304766Y-130827804D01*
X125301751Y-130825389D01*
X124899962Y-130493000D01*
X124348608Y-130036880D01*
X124345677Y-130034377D01*
X123417794Y-129216338D01*
X123414913Y-129213716D01*
X122513203Y-128366955D01*
X122510406Y-128364244D01*
X121635755Y-127489593D01*
X121633044Y-127486796D01*
X120786283Y-126585086D01*
X120783661Y-126582205D01*
X120425244Y-126175661D01*
X119965618Y-125654317D01*
X119963124Y-125651397D01*
X119174608Y-124698245D01*
X119172201Y-124695241D01*
X118414002Y-123717777D01*
X118411740Y-123714763D01*
X117907562Y-123020821D01*
X117684642Y-122713998D01*
X117682402Y-122710811D01*
X116987125Y-121687742D01*
X116984986Y-121684487D01*
X116752447Y-121318064D01*
X116322151Y-120640026D01*
X116320146Y-120636752D01*
X115690454Y-119572003D01*
X115688569Y-119568697D01*
X115092628Y-118484685D01*
X115090836Y-118481301D01*
X114529232Y-117379089D01*
X114527549Y-117375655D01*
X114000851Y-116256364D01*
X113999248Y-116252813D01*
X113745529Y-115666503D01*
X113507969Y-115117536D01*
X113506509Y-115114008D01*
X113051141Y-113963880D01*
X113049773Y-113960259D01*
X113048528Y-113956800D01*
X112630742Y-112796356D01*
X112629516Y-112792775D01*
X112247243Y-111616259D01*
X112246116Y-111612595D01*
X111901008Y-110424728D01*
X111899981Y-110420973D01*
X111835572Y-110170118D01*
X111628891Y-109365148D01*
X116096973Y-109365148D01*
X116099912Y-109425499D01*
X116099912Y-109425501D01*
X116103681Y-109502955D01*
X116103681Y-109502959D01*
X116103682Y-109502963D01*
X116912419Y-112737912D01*
X116917835Y-112773524D01*
X116929110Y-112804677D01*
X116930649Y-112810832D01*
X116937149Y-112836831D01*
X116950042Y-112864123D01*
X116954521Y-112874888D01*
X116964793Y-112903271D01*
X116978652Y-112926204D01*
X116981937Y-112931640D01*
X116996088Y-112961595D01*
X117017528Y-112990532D01*
X117020542Y-112995519D01*
X117020547Y-112995526D01*
X117036168Y-113021371D01*
X117036170Y-113021374D01*
X117054229Y-113041154D01*
X117058515Y-113045848D01*
X117078236Y-113072464D01*
X117104914Y-113096667D01*
X117108849Y-113100976D01*
X117129202Y-113123268D01*
X117129207Y-113123272D01*
X117150774Y-113139145D01*
X117160588Y-113147173D01*
X117180434Y-113165177D01*
X117211328Y-113183713D01*
X117240337Y-113205064D01*
X117270341Y-113219121D01*
X117298758Y-113236171D01*
X117327174Y-113246353D01*
X117337948Y-113250796D01*
X117365283Y-113263602D01*
X117365285Y-113263603D01*
X117365290Y-113263605D01*
X117391302Y-113270019D01*
X117403436Y-113273679D01*
X117414702Y-113277716D01*
X117428649Y-113282715D01*
X117428651Y-113282715D01*
X117428656Y-113282717D01*
X117458524Y-113287160D01*
X117469960Y-113289416D01*
X119505483Y-113791392D01*
X119565859Y-113826555D01*
X119590354Y-113864332D01*
X119990706Y-114830864D01*
X120019437Y-114883484D01*
X120117509Y-114988822D01*
X120241286Y-115062261D01*
X120287114Y-115073957D01*
X120380735Y-115097854D01*
X120380737Y-115097853D01*
X120380738Y-115097854D01*
X120393815Y-115097386D01*
X120524566Y-115092716D01*
X120582091Y-115075826D01*
X120852877Y-114963661D01*
X120922345Y-114956193D01*
X120984825Y-114987468D01*
X121008725Y-115018005D01*
X122939609Y-118493702D01*
X123156784Y-118884629D01*
X123158528Y-118889783D01*
X123190232Y-118944838D01*
X123190683Y-118945650D01*
X123190714Y-118945704D01*
X123221154Y-119000497D01*
X123224673Y-119004647D01*
X123227388Y-119009360D01*
X123269262Y-119057216D01*
X123310409Y-119105728D01*
X123310415Y-119105733D01*
X123314783Y-119109961D01*
X123314450Y-119110303D01*
X123322072Y-119117571D01*
X126037542Y-122220966D01*
X126037541Y-122220966D01*
X126042848Y-122227031D01*
X126055886Y-122246543D01*
X126088170Y-122278827D01*
X126090887Y-122281932D01*
X126118251Y-122313204D01*
X126118255Y-122313208D01*
X126130472Y-122322604D01*
X126142558Y-122333215D01*
X129985004Y-126175661D01*
X130012454Y-126217290D01*
X131546880Y-130053357D01*
X131547293Y-130054389D01*
X131569504Y-130112944D01*
X131572864Y-130118316D01*
X131575224Y-130124216D01*
X131608813Y-130175838D01*
X131610010Y-130177714D01*
X131642672Y-130229938D01*
X131647025Y-130234561D01*
X131650482Y-130239875D01*
X131694252Y-130284725D01*
X131694982Y-130285501D01*
X131695039Y-130285561D01*
X131737257Y-130330405D01*
X131742425Y-130334088D01*
X131746856Y-130338629D01*
X131798562Y-130374097D01*
X131799418Y-130374707D01*
X131799449Y-130374729D01*
X131834204Y-130399500D01*
X131849623Y-130410489D01*
X131855411Y-130413094D01*
X131860644Y-130416683D01*
X131918253Y-130441372D01*
X134201857Y-131468994D01*
X135893870Y-132230400D01*
X135899416Y-132233063D01*
X135942637Y-132255152D01*
X135942641Y-132255154D01*
X135959487Y-132259927D01*
X135975455Y-132267113D01*
X136025751Y-132278704D01*
X136075401Y-132292773D01*
X136083775Y-132293442D01*
X136101728Y-132296213D01*
X136109917Y-132298101D01*
X136161502Y-132299656D01*
X136212948Y-132303770D01*
X136230341Y-132301733D01*
X136247841Y-132302261D01*
X136295690Y-132294234D01*
X136301772Y-132293369D01*
X136349991Y-132287722D01*
X136349991Y-132287721D01*
X136349998Y-132287721D01*
X136366659Y-132282330D01*
X136383926Y-132279434D01*
X136432167Y-132261135D01*
X136481284Y-132245244D01*
X136496578Y-132236703D01*
X136512944Y-132230496D01*
X136556688Y-132203138D01*
X138078217Y-131353514D01*
X138146343Y-131338017D01*
X138212036Y-131361813D01*
X138254435Y-131417347D01*
X138260286Y-131437587D01*
X138285267Y-131563171D01*
X138285270Y-131563181D01*
X138338071Y-131690656D01*
X138414736Y-131805394D01*
X144553454Y-137944112D01*
X144668192Y-138020777D01*
X144795667Y-138073578D01*
X144795672Y-138073580D01*
X144795676Y-138073580D01*
X144795677Y-138073581D01*
X144931003Y-138100500D01*
X144931006Y-138100500D01*
X158668996Y-138100500D01*
X158760040Y-138082389D01*
X158804328Y-138073580D01*
X158868069Y-138047177D01*
X158931807Y-138020777D01*
X158931808Y-138020776D01*
X158931811Y-138020775D01*
X159046543Y-137944114D01*
X163963311Y-133027346D01*
X164039972Y-132912614D01*
X164092777Y-132785131D01*
X164119697Y-132649797D01*
X164119697Y-132511809D01*
X164119697Y-130386723D01*
X164139382Y-130319684D01*
X164192186Y-130273929D01*
X164196244Y-130272162D01*
X164830864Y-130009294D01*
X164883485Y-129980562D01*
X164988822Y-129882491D01*
X165062260Y-129758716D01*
X165097854Y-129619265D01*
X165092716Y-129475434D01*
X165075826Y-129417909D01*
X164953286Y-129122075D01*
X164945818Y-129052608D01*
X164977093Y-128990128D01*
X165005601Y-128967380D01*
X167310898Y-127629490D01*
X167331162Y-127621122D01*
X167370457Y-127594925D01*
X167411286Y-127571230D01*
X167421479Y-127562248D01*
X167434656Y-127552124D01*
X170356595Y-125604165D01*
X170383724Y-125590098D01*
X170413856Y-125565991D01*
X170445973Y-125544581D01*
X170462797Y-125527790D01*
X170472907Y-125518750D01*
X172428550Y-123954238D01*
X172474524Y-123919892D01*
X172482344Y-123911202D01*
X172491474Y-123903899D01*
X172527140Y-123861527D01*
X172529790Y-123858484D01*
X174286446Y-121906645D01*
X174300161Y-121895277D01*
X174332504Y-121855470D01*
X174366832Y-121817328D01*
X174371310Y-121809796D01*
X174381654Y-121794977D01*
X176737231Y-118895804D01*
X176794780Y-118856189D01*
X176817066Y-118851090D01*
X179429139Y-118502814D01*
X179434125Y-118503062D01*
X179497473Y-118493702D01*
X179560968Y-118485237D01*
X179560981Y-118485232D01*
X179565829Y-118484094D01*
X179570621Y-118482896D01*
X179570629Y-118482895D01*
X179630925Y-118461360D01*
X179691558Y-118440667D01*
X179695871Y-118438165D01*
X179699735Y-118436785D01*
X179700578Y-118436485D01*
X179754835Y-118404006D01*
X179756232Y-118403183D01*
X179810944Y-118371476D01*
X179810957Y-118371464D01*
X179814994Y-118368561D01*
X179818963Y-118365621D01*
X179818974Y-118365615D01*
X179865860Y-118323167D01*
X179867049Y-118322106D01*
X179914537Y-118280324D01*
X179914542Y-118280316D01*
X179918014Y-118276597D01*
X179921263Y-118273015D01*
X179921270Y-118273009D01*
X179959469Y-118221565D01*
X179998357Y-118170713D01*
X180000556Y-118166234D01*
X180003533Y-118162226D01*
X180030604Y-118105072D01*
X180031304Y-118103622D01*
X180059183Y-118046856D01*
X180059186Y-118046844D01*
X180061127Y-118041660D01*
X180065186Y-118032066D01*
X181808256Y-114352254D01*
X181814553Y-114343197D01*
X181837751Y-114289986D01*
X181862603Y-114237523D01*
X181863627Y-114233441D01*
X181865290Y-114226820D01*
X181869700Y-114216708D01*
X181882072Y-114159991D01*
X181896210Y-114103692D01*
X181896757Y-114092670D01*
X181899109Y-114081893D01*
X181900178Y-114023872D01*
X181903062Y-113965875D01*
X181902949Y-113965109D01*
X181901448Y-113954950D01*
X181901652Y-113943930D01*
X181891380Y-113886804D01*
X181882895Y-113829371D01*
X181882637Y-113828648D01*
X181877368Y-113808879D01*
X181877232Y-113808121D01*
X181856003Y-113754074D01*
X181836485Y-113699422D01*
X181830819Y-113689957D01*
X181222336Y-112140785D01*
X181192551Y-112064954D01*
X181186364Y-111995359D01*
X181193406Y-111972168D01*
X181200555Y-111954909D01*
X181706781Y-110732771D01*
X181723673Y-110675246D01*
X181728811Y-110531415D01*
X181701580Y-110424730D01*
X181693218Y-110391966D01*
X181619779Y-110268189D01*
X181514442Y-110170118D01*
X181461823Y-110141385D01*
X181436402Y-110130855D01*
X181224811Y-110043211D01*
X181170408Y-109999370D01*
X181148343Y-109933076D01*
X181153927Y-109891605D01*
X181865523Y-107618809D01*
X181884755Y-107563007D01*
X181886112Y-107553049D01*
X181889115Y-107543461D01*
X181895232Y-107486539D01*
X181895659Y-107483040D01*
X181906128Y-107406265D01*
X182489042Y-103131558D01*
X182496645Y-103100730D01*
X182498344Y-103063347D01*
X182503398Y-103026286D01*
X182501869Y-103001184D01*
X182501767Y-102988024D01*
X182698818Y-98652898D01*
X182703869Y-98605289D01*
X182701944Y-98584122D01*
X182702910Y-98562886D01*
X182696267Y-98519216D01*
X182695374Y-98511856D01*
X182319923Y-94381882D01*
X182333458Y-94313339D01*
X182333918Y-94312464D01*
X183789995Y-91582321D01*
X183795691Y-91574983D01*
X183822412Y-91521540D01*
X183850556Y-91468771D01*
X183853246Y-91459871D01*
X183857401Y-91451563D01*
X183873188Y-91393913D01*
X183890490Y-91336689D01*
X183890491Y-91336681D01*
X183891673Y-91330714D01*
X183891702Y-91330719D01*
X183892850Y-91324493D01*
X183892821Y-91324489D01*
X183893846Y-91318481D01*
X183893845Y-91318481D01*
X183893847Y-91318478D01*
X183897972Y-91260418D01*
X183898233Y-91257323D01*
X183903889Y-91199355D01*
X183902969Y-91190105D01*
X183903628Y-91180838D01*
X183896152Y-91121535D01*
X183890238Y-91062046D01*
X183890234Y-91062034D01*
X183889043Y-91056068D01*
X183889072Y-91056062D01*
X183887748Y-91049863D01*
X183887719Y-91049870D01*
X183886371Y-91043944D01*
X183886370Y-91043935D01*
X183867461Y-90987208D01*
X183850061Y-90930037D01*
X183845674Y-90921848D01*
X182865966Y-87982725D01*
X182865607Y-87981629D01*
X182845892Y-87920208D01*
X182845888Y-87920200D01*
X182844719Y-87917502D01*
X182844719Y-87917501D01*
X182844087Y-87916042D01*
X182844049Y-87915956D01*
X182844020Y-87915889D01*
X182843932Y-87915713D01*
X182842738Y-87913039D01*
X182842735Y-87913030D01*
X182810824Y-87857050D01*
X182810170Y-87855887D01*
X182784691Y-87810010D01*
X182778897Y-87799577D01*
X182778895Y-87799575D01*
X182777232Y-87797169D01*
X182777232Y-87797170D01*
X182776331Y-87795868D01*
X182776330Y-87795866D01*
X182776305Y-87795830D01*
X182776224Y-87795713D01*
X182776096Y-87795548D01*
X182774399Y-87793152D01*
X182732230Y-87744531D01*
X182731330Y-87743482D01*
X182689655Y-87694334D01*
X182689648Y-87694329D01*
X182687547Y-87692294D01*
X182687526Y-87692273D01*
X182686311Y-87691096D01*
X182686280Y-87691067D01*
X182686130Y-87690936D01*
X182683992Y-87688911D01*
X182673080Y-87680442D01*
X182633065Y-87649387D01*
X182632055Y-87648593D01*
X182581597Y-87608524D01*
X182581598Y-87608524D01*
X182581596Y-87608523D01*
X182581593Y-87608521D01*
X182579099Y-87606912D01*
X182579091Y-87606907D01*
X182577729Y-87606028D01*
X182577727Y-87606026D01*
X182577674Y-87605991D01*
X182577494Y-87605889D01*
X182574981Y-87604307D01*
X182517384Y-87575508D01*
X182516153Y-87574884D01*
X180637700Y-86609351D01*
X180587075Y-86561197D01*
X180579826Y-86546520D01*
X180016948Y-85187614D01*
X179988216Y-85134993D01*
X179890145Y-85029656D01*
X179890144Y-85029655D01*
X179766367Y-84956216D01*
X179647049Y-84925762D01*
X179626919Y-84920624D01*
X179626918Y-84920624D01*
X179626915Y-84920623D01*
X179487448Y-84925606D01*
X179483088Y-84925762D01*
X179425563Y-84942652D01*
X179425560Y-84942653D01*
X179425559Y-84942653D01*
X179175085Y-85046403D01*
X179105615Y-85053872D01*
X179043136Y-85022597D01*
X179018338Y-84990416D01*
X178445479Y-83921461D01*
X178442434Y-83912357D01*
X178412933Y-83860731D01*
X178384838Y-83808305D01*
X178381742Y-83803681D01*
X178373520Y-83791757D01*
X177975151Y-83094612D01*
X176997237Y-81383264D01*
X176981068Y-81315294D01*
X177004214Y-81249370D01*
X177059327Y-81206424D01*
X177080709Y-81200129D01*
X177139697Y-81188394D01*
X177233497Y-81169737D01*
X177379179Y-81109394D01*
X177510289Y-81021789D01*
X177621789Y-80910289D01*
X177709394Y-80779179D01*
X177769737Y-80633497D01*
X177772090Y-80621662D01*
X177790605Y-80576963D01*
X177820775Y-80531811D01*
X177873580Y-80404328D01*
X177900500Y-80268994D01*
X177900500Y-80131006D01*
X177900500Y-73652196D01*
X177902988Y-73635596D01*
X177900500Y-73583344D01*
X177900500Y-73531007D01*
X177897223Y-73514535D01*
X177896425Y-73497765D01*
X177883789Y-73446997D01*
X177873580Y-73395672D01*
X177867152Y-73380155D01*
X177863098Y-73363864D01*
X177840802Y-73316540D01*
X177820775Y-73268189D01*
X177811444Y-73254224D01*
X177804289Y-73239037D01*
X177773182Y-73196962D01*
X177744114Y-73153458D01*
X177738774Y-73148118D01*
X177726747Y-73134153D01*
X177722259Y-73128083D01*
X177722258Y-73128081D01*
X177683527Y-73092871D01*
X177646542Y-73055886D01*
X177632587Y-73046561D01*
X177625748Y-73040344D01*
X174930098Y-70589754D01*
X173289068Y-69097909D01*
X173283855Y-69092883D01*
X173252502Y-69060832D01*
X173242508Y-69053994D01*
X173229117Y-69043407D01*
X173220159Y-69035263D01*
X173195776Y-69020599D01*
X173181730Y-69012151D01*
X173175626Y-69008232D01*
X169399240Y-66424389D01*
X169398619Y-66423964D01*
X169345269Y-66386608D01*
X169341773Y-66385069D01*
X169338621Y-66382913D01*
X169338620Y-66382912D01*
X169338618Y-66382911D01*
X169279316Y-66357580D01*
X169278086Y-66357047D01*
X165769537Y-64813286D01*
X164312244Y-64172077D01*
X164280717Y-64154509D01*
X164249237Y-64144353D01*
X164243429Y-64141798D01*
X164243424Y-64141796D01*
X164218968Y-64131036D01*
X164218967Y-64131035D01*
X164218963Y-64131034D01*
X164218964Y-64131034D01*
X164189431Y-64124487D01*
X164178203Y-64121439D01*
X158025340Y-62136645D01*
X158025339Y-62136645D01*
X158023792Y-62136146D01*
X157967365Y-62116297D01*
X157958200Y-62114987D01*
X157957809Y-62114861D01*
X157949396Y-62112147D01*
X157949397Y-62112147D01*
X157891625Y-62105433D01*
X157888404Y-62105016D01*
X152321284Y-61309713D01*
X152321284Y-61309712D01*
X152317921Y-61309231D01*
X152268993Y-61299500D01*
X152249788Y-61299500D01*
X152241064Y-61298254D01*
X152230762Y-61296782D01*
X152184295Y-61299316D01*
X152177545Y-61299500D01*
X149931005Y-61299500D01*
X149795677Y-61326418D01*
X149795667Y-61326421D01*
X149668195Y-61379221D01*
X149668182Y-61379228D01*
X149553458Y-61455885D01*
X149553454Y-61455888D01*
X149455888Y-61553454D01*
X149455885Y-61553458D01*
X149379228Y-61668182D01*
X149379221Y-61668195D01*
X149326421Y-61795667D01*
X149326418Y-61795677D01*
X149299500Y-61931004D01*
X149299500Y-62751134D01*
X149279815Y-62818173D01*
X149227011Y-62863928D01*
X149157853Y-62873872D01*
X149134639Y-62868208D01*
X149124653Y-62864722D01*
X149118957Y-62861567D01*
X149078942Y-62848768D01*
X149077401Y-62848231D01*
X149077119Y-62848029D01*
X149070810Y-62845718D01*
X149033501Y-62830264D01*
X149033493Y-62830262D01*
X149007547Y-62825100D01*
X149000658Y-62823730D01*
X148968767Y-62813531D01*
X148923515Y-62808386D01*
X148918453Y-62807379D01*
X148918451Y-62807378D01*
X148878846Y-62799500D01*
X148878842Y-62799500D01*
X148845357Y-62799500D01*
X148812092Y-62795718D01*
X148766708Y-62799500D01*
X148721158Y-62799500D01*
X148721155Y-62799500D01*
X148695206Y-62804661D01*
X148681317Y-62806615D01*
X143971844Y-63199072D01*
X143971843Y-63199072D01*
X143966706Y-63199500D01*
X143921158Y-63199500D01*
X143888318Y-63206031D01*
X143881316Y-63206615D01*
X143881313Y-63206615D01*
X143862890Y-63208151D01*
X143854951Y-63208813D01*
X143816132Y-63219954D01*
X143806120Y-63222382D01*
X143766502Y-63230263D01*
X143742055Y-63240387D01*
X143742056Y-63240388D01*
X143735567Y-63243076D01*
X143703386Y-63252313D01*
X143662904Y-63273174D01*
X143658139Y-63275148D01*
X143658138Y-63275148D01*
X143620822Y-63290605D01*
X143598819Y-63305304D01*
X143598820Y-63305305D01*
X143592970Y-63309213D01*
X143563219Y-63324546D01*
X143527597Y-63352893D01*
X143523298Y-63355766D01*
X143523298Y-63355767D01*
X143489712Y-63378209D01*
X143489704Y-63378216D01*
X143471005Y-63396914D01*
X143471006Y-63396915D01*
X143466034Y-63401887D01*
X143439837Y-63422736D01*
X143410427Y-63457491D01*
X143406774Y-63461145D01*
X143406775Y-63461145D01*
X143378213Y-63489708D01*
X143378209Y-63489713D01*
X143363505Y-63511717D01*
X143359608Y-63517550D01*
X143337982Y-63543110D01*
X143315915Y-63582939D01*
X143313047Y-63587233D01*
X143313045Y-63587234D01*
X143290607Y-63620816D01*
X143290607Y-63620817D01*
X143280483Y-63645259D01*
X143274391Y-63657892D01*
X143261572Y-63681031D01*
X143261565Y-63681048D01*
X143249260Y-63719518D01*
X143247691Y-63724427D01*
X143230263Y-63766503D01*
X143223731Y-63799335D01*
X143221592Y-63806023D01*
X143213532Y-63831227D01*
X143213530Y-63831235D01*
X143208968Y-63871362D01*
X143207379Y-63881544D01*
X143199500Y-63921153D01*
X143199500Y-63921158D01*
X143199500Y-63954643D01*
X143195718Y-63987908D01*
X143199500Y-64033292D01*
X143199500Y-64078844D01*
X143204661Y-64104794D01*
X143206032Y-64111689D01*
X143208813Y-64145048D01*
X143221372Y-64188807D01*
X143222381Y-64193879D01*
X143222383Y-64193884D01*
X143230262Y-64233496D01*
X143240386Y-64257939D01*
X143242942Y-64264109D01*
X143243076Y-64264432D01*
X143252313Y-64296614D01*
X143273174Y-64337095D01*
X143290606Y-64379179D01*
X143309210Y-64407022D01*
X143324546Y-64436781D01*
X143352904Y-64472415D01*
X143378211Y-64510289D01*
X143378213Y-64510291D01*
X143378216Y-64510295D01*
X143396915Y-64528993D01*
X143406259Y-64539459D01*
X143422736Y-64560163D01*
X143457504Y-64589582D01*
X143489711Y-64621789D01*
X143517550Y-64640391D01*
X143523645Y-64645548D01*
X143543110Y-64662018D01*
X143578432Y-64681586D01*
X143587231Y-64686950D01*
X143620821Y-64709394D01*
X143645269Y-64719520D01*
X143657896Y-64725610D01*
X143681037Y-64738430D01*
X143681039Y-64738430D01*
X143681043Y-64738433D01*
X143724427Y-64752308D01*
X143766503Y-64769737D01*
X143799341Y-64776269D01*
X143831233Y-64786469D01*
X143871378Y-64791032D01*
X143881521Y-64792615D01*
X143921158Y-64800500D01*
X143954643Y-64800500D01*
X143987908Y-64804282D01*
X144033292Y-64800500D01*
X144078842Y-64800500D01*
X144078844Y-64800500D01*
X144091691Y-64797943D01*
X144104790Y-64795338D01*
X144118671Y-64793384D01*
X147559880Y-64506617D01*
X147628323Y-64520667D01*
X147678305Y-64569488D01*
X147693957Y-64637582D01*
X147671550Y-64701602D01*
X147636937Y-64750736D01*
X147586793Y-64821914D01*
X147532094Y-64865382D01*
X147485423Y-64874500D01*
X147309778Y-64874500D01*
X147265620Y-64881494D01*
X147092047Y-64908985D01*
X146882396Y-64977103D01*
X146882393Y-64977104D01*
X146685974Y-65077187D01*
X146507641Y-65206752D01*
X146507636Y-65206756D01*
X146351756Y-65362636D01*
X146351752Y-65362641D01*
X146222187Y-65540974D01*
X146122104Y-65737393D01*
X146122103Y-65737396D01*
X146053985Y-65947047D01*
X146030231Y-66097026D01*
X146019500Y-66164778D01*
X146019500Y-66385222D01*
X146029553Y-66448694D01*
X146053985Y-66602952D01*
X146122103Y-66812603D01*
X146122104Y-66812606D01*
X146146477Y-66860439D01*
X146216912Y-66998674D01*
X146222187Y-67009025D01*
X146351752Y-67187358D01*
X146351756Y-67187363D01*
X146507636Y-67343243D01*
X146507641Y-67343247D01*
X146689235Y-67475182D01*
X146731901Y-67530511D01*
X146737880Y-67600125D01*
X146705275Y-67661920D01*
X146644436Y-67696277D01*
X146616350Y-67699500D01*
X144984305Y-67699500D01*
X144931506Y-67687697D01*
X141702235Y-66168038D01*
X141701596Y-66167738D01*
X141643005Y-66139388D01*
X141639311Y-66138427D01*
X141635842Y-66136795D01*
X141573242Y-66121245D01*
X141571943Y-66120915D01*
X141509453Y-66104672D01*
X141506793Y-66104253D01*
X141506793Y-66104252D01*
X141505086Y-66103984D01*
X141504817Y-66103941D01*
X141504584Y-66103918D01*
X141501932Y-66103530D01*
X141437504Y-66100490D01*
X141436166Y-66100420D01*
X141371701Y-66096679D01*
X141369031Y-66096787D01*
X141369011Y-66096788D01*
X141367163Y-66096862D01*
X141367160Y-66096861D01*
X141367006Y-66096867D01*
X141366778Y-66096889D01*
X141364095Y-66097026D01*
X141300353Y-66106608D01*
X141299026Y-66106800D01*
X141235040Y-66115712D01*
X141232432Y-66116341D01*
X141232407Y-66116347D01*
X141230776Y-66116739D01*
X141230775Y-66116740D01*
X141230483Y-66116810D01*
X141230250Y-66116880D01*
X141227649Y-66117537D01*
X141166976Y-66139377D01*
X141165716Y-66139823D01*
X136583759Y-67733548D01*
X136583758Y-67733547D01*
X136581633Y-67734286D01*
X136527716Y-67750907D01*
X136516620Y-67756901D01*
X136507203Y-67760177D01*
X136507205Y-67760177D01*
X136504708Y-67761045D01*
X136457915Y-67788529D01*
X136454062Y-67790700D01*
X136406321Y-67816495D01*
X136406309Y-67816503D01*
X136404284Y-67818181D01*
X136388004Y-67829594D01*
X136385732Y-67830928D01*
X136385728Y-67830931D01*
X136345190Y-67867022D01*
X136343537Y-67868494D01*
X136300045Y-67904516D01*
X136292089Y-67914297D01*
X136284652Y-67920919D01*
X136284648Y-67920924D01*
X136282669Y-67922686D01*
X136282665Y-67922689D01*
X136249936Y-67966009D01*
X136249935Y-67966008D01*
X136248566Y-67967819D01*
X136212988Y-68011572D01*
X136207097Y-68022710D01*
X136201091Y-68030661D01*
X136201087Y-68030669D01*
X136199491Y-68032781D01*
X136199487Y-68032788D01*
X136175862Y-68081613D01*
X136173863Y-68085564D01*
X136148487Y-68133556D01*
X136147733Y-68136081D01*
X136147734Y-68136082D01*
X136144880Y-68145644D01*
X136139388Y-68156995D01*
X136125185Y-68211629D01*
X136124553Y-68213749D01*
X136124548Y-68213770D01*
X136109025Y-68265781D01*
X136109025Y-68265785D01*
X136108778Y-68268412D01*
X136105340Y-68287971D01*
X136104674Y-68290534D01*
X136104673Y-68290539D01*
X136101528Y-68344727D01*
X136101192Y-68349142D01*
X135985437Y-69581102D01*
X135959568Y-69646006D01*
X135909434Y-69684063D01*
X135150662Y-69998358D01*
X135150660Y-69998359D01*
X135098038Y-70027091D01*
X134992700Y-70125163D01*
X134919261Y-70248940D01*
X134883669Y-70388389D01*
X134883668Y-70388392D01*
X134887481Y-70495104D01*
X134888807Y-70532220D01*
X134905697Y-70589745D01*
X134905698Y-70589747D01*
X134905700Y-70589754D01*
X134991689Y-70797350D01*
X134999158Y-70866819D01*
X134967883Y-70929298D01*
X134932212Y-70955896D01*
X133719242Y-71557326D01*
X133714662Y-71559596D01*
X133677377Y-71574401D01*
X133653019Y-71590160D01*
X133646682Y-71593303D01*
X133646683Y-71593303D01*
X133627007Y-71603060D01*
X133599258Y-71624447D01*
X133590926Y-71630338D01*
X130233563Y-73802750D01*
X130233562Y-73802749D01*
X130231414Y-73804138D01*
X130184327Y-73831954D01*
X130173607Y-73841543D01*
X130165503Y-73846788D01*
X130165499Y-73846792D01*
X130161524Y-73849364D01*
X130124083Y-73885715D01*
X130120390Y-73889158D01*
X126347013Y-77265339D01*
X126344893Y-77267235D01*
X126303882Y-77300673D01*
X126293563Y-77313163D01*
X126286598Y-77319396D01*
X126286595Y-77319397D01*
X126281496Y-77323959D01*
X126251411Y-77363985D01*
X126247889Y-77368453D01*
X122632609Y-81744844D01*
X122574737Y-81783992D01*
X122567084Y-81786169D01*
X119667135Y-82511156D01*
X119667134Y-82511155D01*
X119661549Y-82512551D01*
X119625449Y-82518097D01*
X119594824Y-82529233D01*
X119588577Y-82530795D01*
X119588569Y-82530798D01*
X119563167Y-82537148D01*
X119535304Y-82550311D01*
X119535303Y-82550310D01*
X119530098Y-82552768D01*
X119495769Y-82565253D01*
X119467898Y-82582153D01*
X119462069Y-82584907D01*
X119462063Y-82584911D01*
X119438407Y-82596087D01*
X119413653Y-82614428D01*
X119404134Y-82620820D01*
X119377782Y-82636801D01*
X119377780Y-82636802D01*
X119358475Y-82654481D01*
X119353724Y-82658831D01*
X119327536Y-82678236D01*
X119302993Y-82705289D01*
X119298760Y-82709166D01*
X119298752Y-82709175D01*
X119276022Y-82729991D01*
X119260532Y-82751102D01*
X119260531Y-82751101D01*
X119256715Y-82756302D01*
X119234824Y-82780434D01*
X119216024Y-82811765D01*
X119212628Y-82816395D01*
X119212626Y-82816399D01*
X119194392Y-82841252D01*
X119183325Y-82864963D01*
X119183326Y-82864964D01*
X119180598Y-82870808D01*
X119163830Y-82898758D01*
X119151505Y-82933149D01*
X119149078Y-82938352D01*
X119149075Y-82938361D01*
X117771466Y-85890380D01*
X117769515Y-85894372D01*
X117744847Y-85942638D01*
X117744845Y-85942644D01*
X117744108Y-85945244D01*
X117737184Y-85963843D01*
X117736046Y-85966281D01*
X117736040Y-85966297D01*
X117723139Y-86018948D01*
X117722612Y-86021103D01*
X117707227Y-86075401D01*
X117706218Y-86088013D01*
X117703849Y-86097683D01*
X117703849Y-86097684D01*
X117703205Y-86100312D01*
X117700825Y-86154456D01*
X117700551Y-86158890D01*
X117696230Y-86212946D01*
X117696543Y-86215620D01*
X117697264Y-86235462D01*
X117697145Y-86238164D01*
X117697145Y-86238166D01*
X117705378Y-86291758D01*
X117705718Y-86293972D01*
X117712279Y-86349998D01*
X117716173Y-86362033D01*
X117717688Y-86371894D01*
X117717688Y-86371895D01*
X117718095Y-86374545D01*
X117718095Y-86374548D01*
X117722269Y-86386025D01*
X117737381Y-86427584D01*
X117754756Y-86481284D01*
X117760925Y-86492334D01*
X117764328Y-86501690D01*
X117764329Y-86501692D01*
X117765251Y-86504228D01*
X117765252Y-86504229D01*
X117793367Y-86550592D01*
X117795603Y-86554434D01*
X118699272Y-88172750D01*
X118714770Y-88240879D01*
X118705569Y-88280658D01*
X118283919Y-89298615D01*
X118267024Y-89356148D01*
X118261886Y-89499973D01*
X118261887Y-89499976D01*
X118297479Y-89639425D01*
X118321527Y-89679957D01*
X118370919Y-89763203D01*
X118476256Y-89861274D01*
X118528875Y-89890007D01*
X118765706Y-89988105D01*
X118820109Y-90031946D01*
X118842174Y-90098240D01*
X118836584Y-90139732D01*
X118135791Y-92376993D01*
X118135790Y-92376992D01*
X118135136Y-92379078D01*
X118116298Y-92432634D01*
X118114566Y-92444749D01*
X118111567Y-92454327D01*
X118111567Y-92454330D01*
X118110906Y-92456440D01*
X118110904Y-92456449D01*
X118105051Y-92510825D01*
X118104517Y-92515090D01*
X117512251Y-96660951D01*
X117511391Y-96666971D01*
X117503158Y-96700644D01*
X117501660Y-96735089D01*
X117500796Y-96741139D01*
X117500795Y-96741140D01*
X117496782Y-96769234D01*
X117496782Y-96769236D01*
X117498339Y-96797792D01*
X117498406Y-96809926D01*
X117302011Y-101327011D01*
X117300669Y-101357875D01*
X117296270Y-101414960D01*
X117297677Y-101426689D01*
X117297238Y-101436793D01*
X117297163Y-101438498D01*
X117305572Y-101493069D01*
X117306135Y-101497178D01*
X117870849Y-106203130D01*
X117859292Y-106272037D01*
X117854061Y-106281701D01*
X116163830Y-109098756D01*
X116117284Y-109228655D01*
X116117282Y-109228663D01*
X116096974Y-109365131D01*
X116096973Y-109365148D01*
X111628891Y-109365148D01*
X111592353Y-109222841D01*
X111591464Y-109219143D01*
X111321607Y-108011867D01*
X111320829Y-108008111D01*
X111089035Y-106793005D01*
X111088366Y-106789168D01*
X110903319Y-105620827D01*
X110894865Y-105567451D01*
X110894317Y-105563597D01*
X110884983Y-105489711D01*
X110739283Y-104336385D01*
X110738857Y-104332527D01*
X110734223Y-104283501D01*
X110622442Y-103100984D01*
X110622140Y-103097132D01*
X110620014Y-103063347D01*
X110544471Y-101862620D01*
X110544288Y-101858750D01*
X110541787Y-101779179D01*
X110505434Y-100622372D01*
X110505373Y-100618477D01*
X110505373Y-99381522D01*
X110505434Y-99377627D01*
X110523571Y-98800500D01*
X110544289Y-98141227D01*
X110544472Y-98137358D01*
X110547330Y-98091930D01*
X110622142Y-96902831D01*
X110622442Y-96899020D01*
X110738859Y-95667452D01*
X110739285Y-95663600D01*
X110743497Y-95630264D01*
X110894318Y-94436390D01*
X110894866Y-94432545D01*
X110913747Y-94313339D01*
X111088367Y-93210824D01*
X111089035Y-93206994D01*
X111095043Y-93175498D01*
X111320831Y-91991875D01*
X111321604Y-91988145D01*
X111591467Y-90780842D01*
X111592345Y-90777187D01*
X111899985Y-89579008D01*
X111901009Y-89575269D01*
X112246121Y-88387386D01*
X112247237Y-88383758D01*
X112629522Y-87207204D01*
X112630735Y-87203662D01*
X113049788Y-86039697D01*
X113051133Y-86036140D01*
X113506518Y-84885968D01*
X113507960Y-84882485D01*
X113999256Y-83747166D01*
X114000851Y-83743635D01*
X114527561Y-82624319D01*
X114529219Y-82620935D01*
X115090850Y-81518671D01*
X115092614Y-81515341D01*
X115688584Y-80431274D01*
X115690438Y-80428023D01*
X116320176Y-79363197D01*
X116322134Y-79360001D01*
X116985011Y-78315473D01*
X116987125Y-78312257D01*
X116998956Y-78294849D01*
X117682408Y-77289179D01*
X117684642Y-77286001D01*
X117699654Y-77265339D01*
X118411762Y-76285205D01*
X118413979Y-76282252D01*
X119172226Y-75304727D01*
X119174583Y-75301784D01*
X119963150Y-74348570D01*
X119965590Y-74345713D01*
X120783689Y-73417762D01*
X120786254Y-73414944D01*
X121633075Y-72513170D01*
X121635723Y-72510438D01*
X122510438Y-71635723D01*
X122513170Y-71633075D01*
X123414944Y-70786254D01*
X123417762Y-70783689D01*
X124345713Y-69965590D01*
X124348570Y-69963150D01*
X125301784Y-69174583D01*
X125304727Y-69172226D01*
X126282252Y-68413979D01*
X126285205Y-68411762D01*
X127286009Y-67684635D01*
X127289188Y-67682402D01*
X127314800Y-67664996D01*
X128312267Y-66987118D01*
X128315473Y-66985011D01*
X129360001Y-66322134D01*
X129363197Y-66320176D01*
X130428023Y-65690438D01*
X130431274Y-65688584D01*
X131515341Y-65092614D01*
X131518671Y-65090850D01*
X132620935Y-64529219D01*
X132624319Y-64527561D01*
X133743654Y-64000842D01*
X133747166Y-63999256D01*
X134882485Y-63507960D01*
X134885968Y-63506518D01*
X136036140Y-63051133D01*
X136039697Y-63049788D01*
X137203662Y-62630735D01*
X137207204Y-62629522D01*
X138383758Y-62247237D01*
X138387386Y-62246121D01*
X139575287Y-61901003D01*
X139579008Y-61899985D01*
X140777187Y-61592345D01*
X140780842Y-61591467D01*
X141988145Y-61321604D01*
X141991875Y-61320831D01*
X143207000Y-61089033D01*
X143210824Y-61088367D01*
X144432557Y-60894864D01*
X144436390Y-60894318D01*
X145663621Y-60739282D01*
X145667452Y-60738859D01*
X146899020Y-60622442D01*
X146902831Y-60622142D01*
X148137382Y-60544470D01*
X148141227Y-60544289D01*
X149377628Y-60505434D01*
X149381523Y-60505373D01*
X150618477Y-60505373D01*
X150622372Y-60505434D01*
G37*
G04 #@! TD.AperFunction*
M02*
