G04 #@! TF.GenerationSoftware,KiCad,Pcbnew,9.0.4*
G04 #@! TF.CreationDate,2025-09-15T23:50:21+05:30*
G04 #@! TF.ProjectId,IRHub_V3,49524875-625f-4563-932e-6b696361645f,3*
G04 #@! TF.SameCoordinates,Original*
G04 #@! TF.FileFunction,Paste,Top*
G04 #@! TF.FilePolarity,Positive*
%FSLAX46Y46*%
G04 Gerber Fmt 4.6, Leading zero omitted, Abs format (unit mm)*
G04 Created by KiCad (PCBNEW 9.0.4) date 2025-09-15 23:50:21*
%MOMM*%
%LPD*%
G01*
G04 APERTURE LIST*
G04 Aperture macros list*
%AMRoundRect*
0 Rectangle with rounded corners*
0 $1 Rounding radius*
0 $2 $3 $4 $5 $6 $7 $8 $9 X,Y pos of 4 corners*
0 Add a 4 corners polygon primitive as box body*
4,1,4,$2,$3,$4,$5,$6,$7,$8,$9,$2,$3,0*
0 Add four circle primitives for the rounded corners*
1,1,$1+$1,$2,$3*
1,1,$1+$1,$4,$5*
1,1,$1+$1,$6,$7*
1,1,$1+$1,$8,$9*
0 Add four rect primitives between the rounded corners*
20,1,$1+$1,$2,$3,$4,$5,0*
20,1,$1+$1,$4,$5,$6,$7,0*
20,1,$1+$1,$6,$7,$8,$9,0*
20,1,$1+$1,$8,$9,$2,$3,0*%
%AMRotRect*
0 Rectangle, with rotation*
0 The origin of the aperture is its center*
0 $1 length*
0 $2 width*
0 $3 Rotation angle, in degrees counterclockwise*
0 Add horizontal line*
21,1,$1,$2,0,0,$3*%
G04 Aperture macros list end*
%ADD10RoundRect,0.250000X0.840097X-0.780937X1.146244X-0.041833X-0.840097X0.780937X-1.146244X0.041833X0*%
%ADD11RoundRect,0.250000X-0.041833X1.146244X-0.780937X0.840097X0.041833X-1.146244X0.780937X-0.840097X0*%
%ADD12RotRect,0.700000X0.700000X342.900000*%
%ADD13RotRect,0.700000X0.700000X51.900000*%
%ADD14RoundRect,0.250000X-0.412500X-0.650000X0.412500X-0.650000X0.412500X0.650000X-0.412500X0.650000X0*%
%ADD15RotRect,0.700000X0.700000X5.900000*%
%ADD16RoundRect,0.250000X-0.400000X-0.625000X0.400000X-0.625000X0.400000X0.625000X-0.400000X0.625000X0*%
%ADD17RotRect,0.700000X0.700000X86.400000*%
%ADD18R,1.800000X1.800000*%
%ADD19RotRect,0.700000X0.700000X40.400000*%
%ADD20RoundRect,0.375000X-0.625000X-0.375000X0.625000X-0.375000X0.625000X0.375000X-0.625000X0.375000X0*%
%ADD21RoundRect,0.500000X-0.500000X-1.400000X0.500000X-1.400000X0.500000X1.400000X-0.500000X1.400000X0*%
%ADD22RotRect,0.700000X0.700000X155.400000*%
%ADD23RotRect,0.700000X0.700000X308.400000*%
%ADD24RotRect,0.700000X0.700000X193.400000*%
%ADD25RoundRect,0.250000X0.350000X0.450000X-0.350000X0.450000X-0.350000X-0.450000X0.350000X-0.450000X0*%
%ADD26RotRect,0.700000X0.700000X239.400000*%
%ADD27RotRect,0.700000X0.700000X262.400000*%
%ADD28RotRect,0.700000X0.700000X273.900000*%
%ADD29RotRect,0.700000X0.700000X285.400000*%
%ADD30RotRect,0.700000X0.700000X166.900000*%
%ADD31RoundRect,0.150000X0.625000X-0.150000X0.625000X0.150000X-0.625000X0.150000X-0.625000X-0.150000X0*%
%ADD32RoundRect,0.250000X0.650000X-0.350000X0.650000X0.350000X-0.650000X0.350000X-0.650000X-0.350000X0*%
%ADD33RotRect,0.700000X0.700000X143.900000*%
%ADD34RotRect,0.700000X0.700000X97.900000*%
%ADD35RoundRect,0.250000X-0.625000X0.400000X-0.625000X-0.400000X0.625000X-0.400000X0.625000X0.400000X0*%
%ADD36R,2.500000X1.000000*%
%ADD37R,1.000000X1.800000*%
%ADD38RoundRect,0.250000X0.400000X0.625000X-0.400000X0.625000X-0.400000X-0.625000X0.400000X-0.625000X0*%
%ADD39RoundRect,0.250000X0.780937X0.840097X0.041833X1.146244X-0.780937X-0.840097X-0.041833X-1.146244X0*%
%ADD40RotRect,0.700000X0.700000X74.900000*%
%ADD41RotRect,0.700000X0.700000X132.400000*%
%ADD42RotRect,0.700000X0.700000X250.900000*%
%ADD43RoundRect,0.250000X1.146244X0.041833X0.840097X0.780937X-1.146244X-0.041833X-0.840097X-0.780937X0*%
%ADD44RotRect,0.700000X0.700000X63.400000*%
%ADD45RoundRect,0.150000X-0.150000X-0.425000X0.150000X-0.425000X0.150000X0.425000X-0.150000X0.425000X0*%
%ADD46RoundRect,0.075000X-0.075000X-0.500000X0.075000X-0.500000X0.075000X0.500000X-0.075000X0.500000X0*%
%ADD47RoundRect,0.250000X-0.840000X-0.750000X0.840000X-0.750000X0.840000X0.750000X-0.840000X0.750000X0*%
%ADD48RoundRect,0.100000X0.100000X-0.225000X0.100000X0.225000X-0.100000X0.225000X-0.100000X-0.225000X0*%
%ADD49RoundRect,0.150000X-0.587500X-0.150000X0.587500X-0.150000X0.587500X0.150000X-0.587500X0.150000X0*%
%ADD50RotRect,0.700000X0.700000X319.900000*%
%ADD51RoundRect,0.250000X-1.146244X-0.041833X-0.840097X-0.780937X1.146244X0.041833X0.840097X0.780937X0*%
%ADD52RotRect,0.700000X0.700000X296.900000*%
%ADD53RoundRect,0.250000X0.041833X-1.146244X0.780937X-0.840097X-0.041833X1.146244X-0.780937X0.840097X0*%
%ADD54RotRect,0.700000X0.700000X216.400000*%
%ADD55RoundRect,0.250000X-0.780937X-0.840097X-0.041833X-1.146244X0.780937X0.840097X0.041833X1.146244X0*%
%ADD56RoundRect,0.250000X-0.750000X0.275000X-0.750000X-0.275000X0.750000X-0.275000X0.750000X0.275000X0*%
%ADD57RoundRect,0.150000X0.587500X0.150000X-0.587500X0.150000X-0.587500X-0.150000X0.587500X-0.150000X0*%
%ADD58RoundRect,0.250000X0.475000X-0.337500X0.475000X0.337500X-0.475000X0.337500X-0.475000X-0.337500X0*%
%ADD59RoundRect,0.250000X0.412500X0.650000X-0.412500X0.650000X-0.412500X-0.650000X0.412500X-0.650000X0*%
%ADD60RotRect,0.700000X0.700000X17.400000*%
%ADD61RoundRect,0.250000X0.625000X-0.312500X0.625000X0.312500X-0.625000X0.312500X-0.625000X-0.312500X0*%
%ADD62RoundRect,0.250000X-0.840097X0.780937X-1.146244X0.041833X0.840097X-0.780937X1.146244X-0.041833X0*%
%ADD63RoundRect,0.250000X-0.312500X-0.625000X0.312500X-0.625000X0.312500X0.625000X-0.312500X0.625000X0*%
%ADD64RotRect,0.700000X0.700000X227.900000*%
%ADD65RotRect,0.700000X0.700000X120.900000*%
%ADD66RotRect,0.700000X0.700000X354.400000*%
%ADD67RotRect,0.700000X0.700000X204.900000*%
%ADD68RoundRect,0.075000X0.075000X-0.650000X0.075000X0.650000X-0.075000X0.650000X-0.075000X-0.650000X0*%
%ADD69RoundRect,0.150000X0.150000X-0.825000X0.150000X0.825000X-0.150000X0.825000X-0.150000X-0.825000X0*%
%ADD70RotRect,0.700000X0.700000X28.900000*%
%ADD71RotRect,0.700000X0.700000X331.400000*%
%ADD72RotRect,0.700000X0.700000X109.400000*%
G04 APERTURE END LIST*
D10*
X165500000Y-73250000D03*
X166686318Y-70385974D03*
D11*
X120000000Y-107906841D03*
X117135974Y-109093159D03*
D12*
X160059063Y-63841552D03*
X159735618Y-64892925D03*
X161484721Y-65431020D03*
X161808166Y-64379647D03*
D13*
X119778402Y-77550976D03*
X120644032Y-78229716D03*
X121773206Y-76789622D03*
X120907576Y-76110882D03*
D14*
X167187500Y-123000000D03*
X170312500Y-123000000D03*
D15*
X145122386Y-62743593D03*
X145235460Y-63837765D03*
X147055766Y-63649653D03*
X146942692Y-62555481D03*
D16*
X160750000Y-108750000D03*
X163850000Y-108750000D03*
X160750000Y-106000000D03*
X163850000Y-106000000D03*
D17*
X112359042Y-98556040D03*
X113456871Y-98625109D03*
X113571778Y-96798718D03*
X112473949Y-96729649D03*
D18*
X181500000Y-103900000D03*
X175350000Y-103900000D03*
X175350000Y-97750000D03*
X181500000Y-97750000D03*
D19*
X124858691Y-71997892D03*
X125571621Y-72835585D03*
X126965237Y-71649526D03*
X126252307Y-70811833D03*
D20*
X165262500Y-115700000D03*
X165262500Y-118000000D03*
D21*
X171562500Y-118000000D03*
D20*
X165262500Y-120300000D03*
D22*
X135093008Y-134523338D03*
X135550916Y-133523178D03*
X133887014Y-132761384D03*
X133429106Y-133761544D03*
D23*
X178751740Y-75959451D03*
X177889675Y-76642713D03*
X179026376Y-78076869D03*
X179888441Y-77393607D03*
D24*
X159484623Y-136316311D03*
X159229701Y-135246259D03*
X157449521Y-135670357D03*
X157704443Y-136740409D03*
D25*
X130850000Y-108550000D03*
X128850000Y-108550000D03*
D26*
X182679034Y-118327552D03*
X181732218Y-117767606D03*
X180800674Y-119342764D03*
X181747490Y-119902710D03*
D27*
X187233559Y-104059891D03*
X186143222Y-103914410D03*
X185901193Y-105728333D03*
X186991530Y-105873814D03*
D28*
X187293211Y-96533771D03*
X186195758Y-96608588D03*
X186320227Y-98434351D03*
X187417680Y-98359534D03*
D29*
X185851199Y-89146845D03*
X184790695Y-89438958D03*
X185276663Y-91203253D03*
X186337167Y-90911140D03*
D30*
X142272830Y-136780811D03*
X142522147Y-135709437D03*
X140739772Y-135294665D03*
X140490455Y-136366039D03*
D31*
X173250000Y-83250000D03*
X173250000Y-82250000D03*
X173250000Y-81250000D03*
X173250001Y-80250001D03*
X173250000Y-79250000D03*
X173250000Y-78250000D03*
D32*
X170725000Y-84550000D03*
X170725000Y-76950000D03*
D33*
X128507386Y-130879764D03*
X129155504Y-129990972D03*
X127676884Y-128912740D03*
X127028766Y-129801532D03*
D34*
X112824533Y-106067986D03*
X113914094Y-105916795D03*
X113662569Y-104104164D03*
X112573008Y-104255355D03*
D35*
X135500000Y-117500000D03*
X135500000Y-120600000D03*
D36*
X142400000Y-96050000D03*
X142400000Y-98050000D03*
X142400000Y-100050000D03*
X142400000Y-102050000D03*
X142400000Y-104050000D03*
X142400000Y-106050000D03*
X142400000Y-108050000D03*
X142400000Y-110050000D03*
D37*
X145000000Y-111550000D03*
X147000000Y-111550000D03*
X149000000Y-111550000D03*
X151000000Y-111550000D03*
X153000000Y-111550000D03*
X155000000Y-111550000D03*
D36*
X157600000Y-110050000D03*
X157600000Y-108050000D03*
X157600000Y-106050000D03*
X157600000Y-104050000D03*
X157600000Y-102050000D03*
X157600000Y-100050000D03*
X157600000Y-98050000D03*
X157600000Y-96050000D03*
D38*
X139250000Y-96000000D03*
X136150000Y-96000000D03*
D39*
X123250000Y-84500000D03*
X120385974Y-83313682D03*
D40*
X113400541Y-91102090D03*
X114462561Y-91388646D03*
X114939285Y-89621830D03*
X113877265Y-89335274D03*
D41*
X122780392Y-125996368D03*
X123592693Y-125254636D03*
X122358718Y-123903260D03*
X121546417Y-124644992D03*
D42*
X185674637Y-111423030D03*
X184635192Y-111063092D03*
X184036383Y-112792348D03*
X185075828Y-113152286D03*
D16*
X136150000Y-100000000D03*
X139250000Y-100000000D03*
D43*
X142000000Y-70000000D03*
X140813682Y-67135974D03*
D44*
X115907206Y-84005427D03*
X116890777Y-84497961D03*
X117710176Y-82861657D03*
X116726605Y-82369123D03*
D25*
X130850000Y-106050000D03*
X128850000Y-106050000D03*
D45*
X146800000Y-133000000D03*
X147600000Y-133000000D03*
D46*
X148750000Y-133000000D03*
X149750000Y-133000000D03*
X150250000Y-133000000D03*
X151250000Y-133000000D03*
D45*
X152400000Y-133000000D03*
X153200000Y-133000000D03*
X153200000Y-133000000D03*
X152400000Y-133000000D03*
D46*
X151750000Y-133000000D03*
X150750000Y-133000000D03*
X149250000Y-133000000D03*
X148250000Y-133000000D03*
D45*
X147600000Y-133000000D03*
X146800000Y-133000000D03*
D47*
X144890000Y-133575000D03*
X144890000Y-137505000D03*
X155110000Y-133575000D03*
X155110000Y-137505000D03*
D48*
X149350000Y-116650000D03*
X150000000Y-116650000D03*
X150650000Y-116650000D03*
X150650000Y-114750000D03*
X150000000Y-114750000D03*
X149350000Y-114750000D03*
D49*
X169750000Y-99750000D03*
X169750000Y-101650000D03*
X171625000Y-100700000D03*
D50*
X173379340Y-70688457D03*
X172670805Y-71529868D03*
X174070610Y-72708613D03*
X174779145Y-71867202D03*
D51*
X157906841Y-129817987D03*
X159093159Y-132682013D03*
D16*
X160700000Y-103250000D03*
X163800000Y-103250000D03*
D52*
X182965418Y-82195708D03*
X181984442Y-82693387D03*
X182812398Y-84325376D03*
X183793374Y-83827697D03*
D53*
X180000000Y-92000000D03*
X182864026Y-90813682D03*
D54*
X172911757Y-129681411D03*
X172258995Y-128796028D03*
X170786039Y-129881981D03*
X171438801Y-130767364D03*
D55*
X176750000Y-115500000D03*
X179614026Y-116686318D03*
D56*
X142750000Y-113750000D03*
X142750000Y-118200000D03*
D57*
X129250000Y-119400000D03*
X129250000Y-117500000D03*
X127375000Y-118450000D03*
D58*
X122600000Y-100075000D03*
X122600000Y-98000000D03*
D59*
X170312500Y-113000000D03*
X167187500Y-113000000D03*
D60*
X137790290Y-64442526D03*
X138119234Y-65492189D03*
X139865494Y-64944944D03*
X139536550Y-63895281D03*
D61*
X157250000Y-125675000D03*
X157250000Y-122750000D03*
D58*
X124950000Y-100075000D03*
X124950000Y-98000000D03*
D62*
X134500000Y-126750000D03*
X133313682Y-129614026D03*
D63*
X155400000Y-114400000D03*
X158325000Y-114400000D03*
D61*
X142750000Y-125675000D03*
X142750000Y-122750000D03*
D64*
X178367034Y-124496236D03*
X177550860Y-123758767D03*
X176323980Y-125116582D03*
X177140154Y-125854051D03*
D65*
X118141953Y-120069230D03*
X119085825Y-119504336D03*
X118146043Y-117934076D03*
X117202171Y-118498970D03*
D66*
X152646003Y-62540551D03*
X152538663Y-63635299D03*
X154359929Y-63813875D03*
X154467269Y-62719127D03*
D67*
X166532240Y-133674882D03*
X166069103Y-132677133D03*
X164409212Y-133447626D03*
X164872349Y-134445375D03*
D68*
X127200000Y-101200000D03*
X127700000Y-101200000D03*
X128200000Y-101200000D03*
X128700000Y-101200000D03*
X129200000Y-101200000D03*
X129200000Y-96800000D03*
X128700000Y-96800000D03*
X128200000Y-96800000D03*
X127700000Y-96800000D03*
X127200000Y-96800000D03*
D38*
X172050000Y-96250000D03*
X168950000Y-96250000D03*
D69*
X145630000Y-125000000D03*
X146900000Y-125000000D03*
X148170000Y-125000000D03*
X149440000Y-125000000D03*
X150710000Y-125000000D03*
X151980000Y-125000000D03*
X153250000Y-125000000D03*
X154520000Y-125000000D03*
X154520000Y-120050000D03*
X153250000Y-120050000D03*
X151980000Y-120050000D03*
X150710000Y-120050000D03*
X149440000Y-120050000D03*
X148170000Y-120050000D03*
X146900000Y-120050000D03*
X145630000Y-120050000D03*
D63*
X155387500Y-117100000D03*
X158312500Y-117100000D03*
D70*
X130944098Y-67569138D03*
X131475709Y-68532149D03*
X133077808Y-67647744D03*
X132546197Y-66684733D03*
D71*
X167063923Y-66594362D03*
X166537362Y-67560146D03*
X168144073Y-68436154D03*
X168670634Y-67470370D03*
D72*
X114778319Y-113336326D03*
X115815862Y-112970947D03*
X115208007Y-111244848D03*
X114170464Y-111610227D03*
M02*
