M48
; DRILL file {KiCad 9.0.4} date 2025-08-24T22:02:49+0530
; FORMAT={-:-/ absolute / metric / decimal}
; #@! TF.CreationDate,2025-08-24T22:02:49+05:30
; #@! TF.GenerationSoftware,Kicad,Pcbnew,9.0.4
; #@! TF.FileFunction,Plated,1,2,PTH
FMAT,2
METRIC
; #@! TA.AperFunction,Plated,PTH,ViaDrill
T1C0.300
; #@! TA.AperFunction,Plated,PTH,ComponentDrill
T2C0.750
; #@! TA.AperFunction,Plated,PTH,ComponentDrill
T3C0.800
; #@! TA.AperFunction,Plated,PTH,ComponentDrill
T4C0.900
; #@! TA.AperFunction,Plated,PTH,ComponentDrill
T5C0.950
; #@! TA.AperFunction,Plated,PTH,ComponentDrill
T6C1.000
%
G90
G05
T1
X125.5Y-96.5
X129.5Y-110.5
X145.0Y-112.0
X162.0Y-111.25
X170.4Y-113.9
T2
X171.25Y-98.75
X171.25Y-100.02
X171.25Y-101.29
T3
X127.5Y-105.5
X127.5Y-113.12
X162.5Y-105.5
X162.5Y-113.12
T4
X124.46Y-80.75
X124.46Y-119.25
X127.0Y-80.75
X127.0Y-119.25
X133.5Y-102.97
X133.5Y-105.51
X133.5Y-108.05
X133.5Y-110.59
X133.5Y-113.13
X133.5Y-115.67
X133.5Y-118.21
X133.5Y-120.75
X142.46Y-72.565
X145.0Y-72.565
X147.54Y-72.565
X156.36Y-102.97
X156.36Y-105.51
X156.36Y-108.05
X156.36Y-110.59
X156.36Y-113.13
X156.36Y-115.67
X156.36Y-118.21
X156.36Y-120.75
X162.96Y-80.75
X162.96Y-119.25
X165.5Y-80.75
X165.5Y-119.25
T5
X118.25Y-90.5
X118.25Y-93.0
X118.25Y-95.5
X133.25Y-77.5
X135.75Y-77.5
X138.25Y-77.5
X140.75Y-77.5
X143.25Y-77.5
T6
X154.25Y-77.5
X156.75Y-77.5
X171.75Y-90.5
X171.75Y-93.0
M30
