%TF.GenerationSoftware,KiCad,Pcbnew,9.0.4*%
%TF.CreationDate,2025-08-24T22:02:49+05:30*%
%TF.ProjectId,IRHub_PCB,49524875-625f-4504-9342-2e6b69636164,rev?*%
%TF.SameCoordinates,Original*%
%TF.FileFunction,Drillmap*%
%TF.FilePolarity,Positive*%
%FSLAX45Y45*%
G04 Gerber Fmt 4.5, Leading zero omitted, Abs format (unit mm)*
G04 Created by KiCad (PCBNEW 9.0.4) date 2025-08-24 22:02:49*
%MOMM*%
%LPD*%
G01*
G04 APERTURE LIST*
%ADD10C,0.050000*%
%ADD11C,0.200000*%
%ADD12C,0.220000*%
G04 APERTURE END LIST*
D10*
X13190000Y-12920000D02*
X15801659Y-12923727D01*
X13190000Y-12920000D02*
G75*
G02*
X15801659Y-12923727I1310000J2920000D01*
G01*
D11*
D12*
X14380000Y-8220000D02*
X14600000Y-8440000D01*
X14600000Y-8220000D02*
X14380000Y-8440000D01*
D11*
X11557886Y-13237711D02*
X11557886Y-13037711D01*
X11557886Y-13037711D02*
X11605505Y-13037711D01*
X11605505Y-13037711D02*
X11634077Y-13047235D01*
X11634077Y-13047235D02*
X11653124Y-13066283D01*
X11653124Y-13066283D02*
X11662648Y-13085330D01*
X11662648Y-13085330D02*
X11672172Y-13123425D01*
X11672172Y-13123425D02*
X11672172Y-13151997D01*
X11672172Y-13151997D02*
X11662648Y-13190092D01*
X11662648Y-13190092D02*
X11653124Y-13209140D01*
X11653124Y-13209140D02*
X11634077Y-13228187D01*
X11634077Y-13228187D02*
X11605505Y-13237711D01*
X11605505Y-13237711D02*
X11557886Y-13237711D01*
X11757886Y-13237711D02*
X11757886Y-13104378D01*
X11757886Y-13142473D02*
X11767410Y-13123425D01*
X11767410Y-13123425D02*
X11776934Y-13113902D01*
X11776934Y-13113902D02*
X11795981Y-13104378D01*
X11795981Y-13104378D02*
X11815029Y-13104378D01*
X11881696Y-13237711D02*
X11881696Y-13104378D01*
X11881696Y-13037711D02*
X11872172Y-13047235D01*
X11872172Y-13047235D02*
X11881696Y-13056759D01*
X11881696Y-13056759D02*
X11891219Y-13047235D01*
X11891219Y-13047235D02*
X11881696Y-13037711D01*
X11881696Y-13037711D02*
X11881696Y-13056759D01*
X12005505Y-13237711D02*
X11986458Y-13228187D01*
X11986458Y-13228187D02*
X11976934Y-13209140D01*
X11976934Y-13209140D02*
X11976934Y-13037711D01*
X12110267Y-13237711D02*
X12091219Y-13228187D01*
X12091219Y-13228187D02*
X12081696Y-13209140D01*
X12081696Y-13209140D02*
X12081696Y-13037711D01*
X12338839Y-13237711D02*
X12338839Y-13037711D01*
X12338839Y-13037711D02*
X12405505Y-13180568D01*
X12405505Y-13180568D02*
X12472172Y-13037711D01*
X12472172Y-13037711D02*
X12472172Y-13237711D01*
X12653124Y-13237711D02*
X12653124Y-13132949D01*
X12653124Y-13132949D02*
X12643600Y-13113902D01*
X12643600Y-13113902D02*
X12624553Y-13104378D01*
X12624553Y-13104378D02*
X12586458Y-13104378D01*
X12586458Y-13104378D02*
X12567410Y-13113902D01*
X12653124Y-13228187D02*
X12634077Y-13237711D01*
X12634077Y-13237711D02*
X12586458Y-13237711D01*
X12586458Y-13237711D02*
X12567410Y-13228187D01*
X12567410Y-13228187D02*
X12557886Y-13209140D01*
X12557886Y-13209140D02*
X12557886Y-13190092D01*
X12557886Y-13190092D02*
X12567410Y-13171045D01*
X12567410Y-13171045D02*
X12586458Y-13161521D01*
X12586458Y-13161521D02*
X12634077Y-13161521D01*
X12634077Y-13161521D02*
X12653124Y-13151997D01*
X12748362Y-13104378D02*
X12748362Y-13304378D01*
X12748362Y-13113902D02*
X12767410Y-13104378D01*
X12767410Y-13104378D02*
X12805505Y-13104378D01*
X12805505Y-13104378D02*
X12824553Y-13113902D01*
X12824553Y-13113902D02*
X12834077Y-13123425D01*
X12834077Y-13123425D02*
X12843600Y-13142473D01*
X12843600Y-13142473D02*
X12843600Y-13199616D01*
X12843600Y-13199616D02*
X12834077Y-13218664D01*
X12834077Y-13218664D02*
X12824553Y-13228187D01*
X12824553Y-13228187D02*
X12805505Y-13237711D01*
X12805505Y-13237711D02*
X12767410Y-13237711D01*
X12767410Y-13237711D02*
X12748362Y-13228187D01*
X12929315Y-13218664D02*
X12938839Y-13228187D01*
X12938839Y-13228187D02*
X12929315Y-13237711D01*
X12929315Y-13237711D02*
X12919791Y-13228187D01*
X12919791Y-13228187D02*
X12929315Y-13218664D01*
X12929315Y-13218664D02*
X12929315Y-13237711D01*
X12929315Y-13113902D02*
X12938839Y-13123425D01*
X12938839Y-13123425D02*
X12929315Y-13132949D01*
X12929315Y-13132949D02*
X12919791Y-13123425D01*
X12919791Y-13123425D02*
X12929315Y-13113902D01*
X12929315Y-13113902D02*
X12929315Y-13132949D01*
X11097109Y-13466227D02*
X11297109Y-13666227D01*
X11297109Y-13466227D02*
X11097109Y-13666227D01*
X11548362Y-13476759D02*
X11557886Y-13467235D01*
X11557886Y-13467235D02*
X11576934Y-13457711D01*
X11576934Y-13457711D02*
X11624553Y-13457711D01*
X11624553Y-13457711D02*
X11643600Y-13467235D01*
X11643600Y-13467235D02*
X11653124Y-13476759D01*
X11653124Y-13476759D02*
X11662648Y-13495806D01*
X11662648Y-13495806D02*
X11662648Y-13514854D01*
X11662648Y-13514854D02*
X11653124Y-13543425D01*
X11653124Y-13543425D02*
X11538839Y-13657711D01*
X11538839Y-13657711D02*
X11662648Y-13657711D01*
X11748362Y-13638664D02*
X11757886Y-13648187D01*
X11757886Y-13648187D02*
X11748362Y-13657711D01*
X11748362Y-13657711D02*
X11738839Y-13648187D01*
X11738839Y-13648187D02*
X11748362Y-13638664D01*
X11748362Y-13638664D02*
X11748362Y-13657711D01*
X11834077Y-13476759D02*
X11843600Y-13467235D01*
X11843600Y-13467235D02*
X11862648Y-13457711D01*
X11862648Y-13457711D02*
X11910267Y-13457711D01*
X11910267Y-13457711D02*
X11929315Y-13467235D01*
X11929315Y-13467235D02*
X11938839Y-13476759D01*
X11938839Y-13476759D02*
X11948362Y-13495806D01*
X11948362Y-13495806D02*
X11948362Y-13514854D01*
X11948362Y-13514854D02*
X11938839Y-13543425D01*
X11938839Y-13543425D02*
X11824553Y-13657711D01*
X11824553Y-13657711D02*
X11948362Y-13657711D01*
X12072172Y-13457711D02*
X12091220Y-13457711D01*
X12091220Y-13457711D02*
X12110267Y-13467235D01*
X12110267Y-13467235D02*
X12119791Y-13476759D01*
X12119791Y-13476759D02*
X12129315Y-13495806D01*
X12129315Y-13495806D02*
X12138839Y-13533902D01*
X12138839Y-13533902D02*
X12138839Y-13581521D01*
X12138839Y-13581521D02*
X12129315Y-13619616D01*
X12129315Y-13619616D02*
X12119791Y-13638664D01*
X12119791Y-13638664D02*
X12110267Y-13648187D01*
X12110267Y-13648187D02*
X12091220Y-13657711D01*
X12091220Y-13657711D02*
X12072172Y-13657711D01*
X12072172Y-13657711D02*
X12053124Y-13648187D01*
X12053124Y-13648187D02*
X12043600Y-13638664D01*
X12043600Y-13638664D02*
X12034077Y-13619616D01*
X12034077Y-13619616D02*
X12024553Y-13581521D01*
X12024553Y-13581521D02*
X12024553Y-13533902D01*
X12024553Y-13533902D02*
X12034077Y-13495806D01*
X12034077Y-13495806D02*
X12043600Y-13476759D01*
X12043600Y-13476759D02*
X12053124Y-13467235D01*
X12053124Y-13467235D02*
X12072172Y-13457711D01*
X12262648Y-13457711D02*
X12281696Y-13457711D01*
X12281696Y-13457711D02*
X12300743Y-13467235D01*
X12300743Y-13467235D02*
X12310267Y-13476759D01*
X12310267Y-13476759D02*
X12319791Y-13495806D01*
X12319791Y-13495806D02*
X12329315Y-13533902D01*
X12329315Y-13533902D02*
X12329315Y-13581521D01*
X12329315Y-13581521D02*
X12319791Y-13619616D01*
X12319791Y-13619616D02*
X12310267Y-13638664D01*
X12310267Y-13638664D02*
X12300743Y-13648187D01*
X12300743Y-13648187D02*
X12281696Y-13657711D01*
X12281696Y-13657711D02*
X12262648Y-13657711D01*
X12262648Y-13657711D02*
X12243600Y-13648187D01*
X12243600Y-13648187D02*
X12234077Y-13638664D01*
X12234077Y-13638664D02*
X12224553Y-13619616D01*
X12224553Y-13619616D02*
X12215029Y-13581521D01*
X12215029Y-13581521D02*
X12215029Y-13533902D01*
X12215029Y-13533902D02*
X12224553Y-13495806D01*
X12224553Y-13495806D02*
X12234077Y-13476759D01*
X12234077Y-13476759D02*
X12243600Y-13467235D01*
X12243600Y-13467235D02*
X12262648Y-13457711D01*
X12415029Y-13657711D02*
X12415029Y-13524378D01*
X12415029Y-13543425D02*
X12424553Y-13533902D01*
X12424553Y-13533902D02*
X12443600Y-13524378D01*
X12443600Y-13524378D02*
X12472172Y-13524378D01*
X12472172Y-13524378D02*
X12491220Y-13533902D01*
X12491220Y-13533902D02*
X12500743Y-13552949D01*
X12500743Y-13552949D02*
X12500743Y-13657711D01*
X12500743Y-13552949D02*
X12510267Y-13533902D01*
X12510267Y-13533902D02*
X12529315Y-13524378D01*
X12529315Y-13524378D02*
X12557886Y-13524378D01*
X12557886Y-13524378D02*
X12576934Y-13533902D01*
X12576934Y-13533902D02*
X12586458Y-13552949D01*
X12586458Y-13552949D02*
X12586458Y-13657711D01*
X12681696Y-13657711D02*
X12681696Y-13524378D01*
X12681696Y-13543425D02*
X12691220Y-13533902D01*
X12691220Y-13533902D02*
X12710267Y-13524378D01*
X12710267Y-13524378D02*
X12738839Y-13524378D01*
X12738839Y-13524378D02*
X12757886Y-13533902D01*
X12757886Y-13533902D02*
X12767410Y-13552949D01*
X12767410Y-13552949D02*
X12767410Y-13657711D01*
X12767410Y-13552949D02*
X12776934Y-13533902D01*
X12776934Y-13533902D02*
X12795981Y-13524378D01*
X12795981Y-13524378D02*
X12824553Y-13524378D01*
X12824553Y-13524378D02*
X12843601Y-13533902D01*
X12843601Y-13533902D02*
X12853124Y-13552949D01*
X12853124Y-13552949D02*
X12853124Y-13657711D01*
X13243601Y-13448187D02*
X13072172Y-13705330D01*
X13500743Y-13457711D02*
X13519791Y-13457711D01*
X13519791Y-13457711D02*
X13538839Y-13467235D01*
X13538839Y-13467235D02*
X13548363Y-13476759D01*
X13548363Y-13476759D02*
X13557886Y-13495806D01*
X13557886Y-13495806D02*
X13567410Y-13533902D01*
X13567410Y-13533902D02*
X13567410Y-13581521D01*
X13567410Y-13581521D02*
X13557886Y-13619616D01*
X13557886Y-13619616D02*
X13548363Y-13638664D01*
X13548363Y-13638664D02*
X13538839Y-13648187D01*
X13538839Y-13648187D02*
X13519791Y-13657711D01*
X13519791Y-13657711D02*
X13500743Y-13657711D01*
X13500743Y-13657711D02*
X13481696Y-13648187D01*
X13481696Y-13648187D02*
X13472172Y-13638664D01*
X13472172Y-13638664D02*
X13462648Y-13619616D01*
X13462648Y-13619616D02*
X13453124Y-13581521D01*
X13453124Y-13581521D02*
X13453124Y-13533902D01*
X13453124Y-13533902D02*
X13462648Y-13495806D01*
X13462648Y-13495806D02*
X13472172Y-13476759D01*
X13472172Y-13476759D02*
X13481696Y-13467235D01*
X13481696Y-13467235D02*
X13500743Y-13457711D01*
X13653124Y-13638664D02*
X13662648Y-13648187D01*
X13662648Y-13648187D02*
X13653124Y-13657711D01*
X13653124Y-13657711D02*
X13643601Y-13648187D01*
X13643601Y-13648187D02*
X13653124Y-13638664D01*
X13653124Y-13638664D02*
X13653124Y-13657711D01*
X13786458Y-13457711D02*
X13805505Y-13457711D01*
X13805505Y-13457711D02*
X13824553Y-13467235D01*
X13824553Y-13467235D02*
X13834077Y-13476759D01*
X13834077Y-13476759D02*
X13843601Y-13495806D01*
X13843601Y-13495806D02*
X13853124Y-13533902D01*
X13853124Y-13533902D02*
X13853124Y-13581521D01*
X13853124Y-13581521D02*
X13843601Y-13619616D01*
X13843601Y-13619616D02*
X13834077Y-13638664D01*
X13834077Y-13638664D02*
X13824553Y-13648187D01*
X13824553Y-13648187D02*
X13805505Y-13657711D01*
X13805505Y-13657711D02*
X13786458Y-13657711D01*
X13786458Y-13657711D02*
X13767410Y-13648187D01*
X13767410Y-13648187D02*
X13757886Y-13638664D01*
X13757886Y-13638664D02*
X13748363Y-13619616D01*
X13748363Y-13619616D02*
X13738839Y-13581521D01*
X13738839Y-13581521D02*
X13738839Y-13533902D01*
X13738839Y-13533902D02*
X13748363Y-13495806D01*
X13748363Y-13495806D02*
X13757886Y-13476759D01*
X13757886Y-13476759D02*
X13767410Y-13467235D01*
X13767410Y-13467235D02*
X13786458Y-13457711D01*
X13967410Y-13543425D02*
X13948363Y-13533902D01*
X13948363Y-13533902D02*
X13938839Y-13524378D01*
X13938839Y-13524378D02*
X13929315Y-13505330D01*
X13929315Y-13505330D02*
X13929315Y-13495806D01*
X13929315Y-13495806D02*
X13938839Y-13476759D01*
X13938839Y-13476759D02*
X13948363Y-13467235D01*
X13948363Y-13467235D02*
X13967410Y-13457711D01*
X13967410Y-13457711D02*
X14005505Y-13457711D01*
X14005505Y-13457711D02*
X14024553Y-13467235D01*
X14024553Y-13467235D02*
X14034077Y-13476759D01*
X14034077Y-13476759D02*
X14043601Y-13495806D01*
X14043601Y-13495806D02*
X14043601Y-13505330D01*
X14043601Y-13505330D02*
X14034077Y-13524378D01*
X14034077Y-13524378D02*
X14024553Y-13533902D01*
X14024553Y-13533902D02*
X14005505Y-13543425D01*
X14005505Y-13543425D02*
X13967410Y-13543425D01*
X13967410Y-13543425D02*
X13948363Y-13552949D01*
X13948363Y-13552949D02*
X13938839Y-13562473D01*
X13938839Y-13562473D02*
X13929315Y-13581521D01*
X13929315Y-13581521D02*
X13929315Y-13619616D01*
X13929315Y-13619616D02*
X13938839Y-13638664D01*
X13938839Y-13638664D02*
X13948363Y-13648187D01*
X13948363Y-13648187D02*
X13967410Y-13657711D01*
X13967410Y-13657711D02*
X14005505Y-13657711D01*
X14005505Y-13657711D02*
X14024553Y-13648187D01*
X14024553Y-13648187D02*
X14034077Y-13638664D01*
X14034077Y-13638664D02*
X14043601Y-13619616D01*
X14043601Y-13619616D02*
X14043601Y-13581521D01*
X14043601Y-13581521D02*
X14034077Y-13562473D01*
X14034077Y-13562473D02*
X14024553Y-13552949D01*
X14024553Y-13552949D02*
X14005505Y-13543425D01*
X14215029Y-13457711D02*
X14176934Y-13457711D01*
X14176934Y-13457711D02*
X14157886Y-13467235D01*
X14157886Y-13467235D02*
X14148363Y-13476759D01*
X14148363Y-13476759D02*
X14129315Y-13505330D01*
X14129315Y-13505330D02*
X14119791Y-13543425D01*
X14119791Y-13543425D02*
X14119791Y-13619616D01*
X14119791Y-13619616D02*
X14129315Y-13638664D01*
X14129315Y-13638664D02*
X14138839Y-13648187D01*
X14138839Y-13648187D02*
X14157886Y-13657711D01*
X14157886Y-13657711D02*
X14195982Y-13657711D01*
X14195982Y-13657711D02*
X14215029Y-13648187D01*
X14215029Y-13648187D02*
X14224553Y-13638664D01*
X14224553Y-13638664D02*
X14234077Y-13619616D01*
X14234077Y-13619616D02*
X14234077Y-13571997D01*
X14234077Y-13571997D02*
X14224553Y-13552949D01*
X14224553Y-13552949D02*
X14215029Y-13543425D01*
X14215029Y-13543425D02*
X14195982Y-13533902D01*
X14195982Y-13533902D02*
X14157886Y-13533902D01*
X14157886Y-13533902D02*
X14138839Y-13543425D01*
X14138839Y-13543425D02*
X14129315Y-13552949D01*
X14129315Y-13552949D02*
X14119791Y-13571997D01*
X14405505Y-13457711D02*
X14367410Y-13457711D01*
X14367410Y-13457711D02*
X14348363Y-13467235D01*
X14348363Y-13467235D02*
X14338839Y-13476759D01*
X14338839Y-13476759D02*
X14319791Y-13505330D01*
X14319791Y-13505330D02*
X14310267Y-13543425D01*
X14310267Y-13543425D02*
X14310267Y-13619616D01*
X14310267Y-13619616D02*
X14319791Y-13638664D01*
X14319791Y-13638664D02*
X14329315Y-13648187D01*
X14329315Y-13648187D02*
X14348363Y-13657711D01*
X14348363Y-13657711D02*
X14386458Y-13657711D01*
X14386458Y-13657711D02*
X14405505Y-13648187D01*
X14405505Y-13648187D02*
X14415029Y-13638664D01*
X14415029Y-13638664D02*
X14424553Y-13619616D01*
X14424553Y-13619616D02*
X14424553Y-13571997D01*
X14424553Y-13571997D02*
X14415029Y-13552949D01*
X14415029Y-13552949D02*
X14405505Y-13543425D01*
X14405505Y-13543425D02*
X14386458Y-13533902D01*
X14386458Y-13533902D02*
X14348363Y-13533902D01*
X14348363Y-13533902D02*
X14329315Y-13543425D01*
X14329315Y-13543425D02*
X14319791Y-13552949D01*
X14319791Y-13552949D02*
X14310267Y-13571997D01*
X14500744Y-13457711D02*
X14500744Y-13495806D01*
X14576934Y-13457711D02*
X14576934Y-13495806D01*
X14872172Y-13733902D02*
X14862648Y-13724378D01*
X14862648Y-13724378D02*
X14843601Y-13695806D01*
X14843601Y-13695806D02*
X14834077Y-13676759D01*
X14834077Y-13676759D02*
X14824553Y-13648187D01*
X14824553Y-13648187D02*
X14815029Y-13600568D01*
X14815029Y-13600568D02*
X14815029Y-13562473D01*
X14815029Y-13562473D02*
X14824553Y-13514854D01*
X14824553Y-13514854D02*
X14834077Y-13486283D01*
X14834077Y-13486283D02*
X14843601Y-13467235D01*
X14843601Y-13467235D02*
X14862648Y-13438664D01*
X14862648Y-13438664D02*
X14872172Y-13429140D01*
X15053125Y-13657711D02*
X14938839Y-13657711D01*
X14995982Y-13657711D02*
X14995982Y-13457711D01*
X14995982Y-13457711D02*
X14976934Y-13486283D01*
X14976934Y-13486283D02*
X14957886Y-13505330D01*
X14957886Y-13505330D02*
X14938839Y-13514854D01*
X15291220Y-13657711D02*
X15291220Y-13457711D01*
X15376934Y-13657711D02*
X15376934Y-13552949D01*
X15376934Y-13552949D02*
X15367410Y-13533902D01*
X15367410Y-13533902D02*
X15348363Y-13524378D01*
X15348363Y-13524378D02*
X15319791Y-13524378D01*
X15319791Y-13524378D02*
X15300744Y-13533902D01*
X15300744Y-13533902D02*
X15291220Y-13543425D01*
X15500744Y-13657711D02*
X15481696Y-13648187D01*
X15481696Y-13648187D02*
X15472172Y-13638664D01*
X15472172Y-13638664D02*
X15462648Y-13619616D01*
X15462648Y-13619616D02*
X15462648Y-13562473D01*
X15462648Y-13562473D02*
X15472172Y-13543425D01*
X15472172Y-13543425D02*
X15481696Y-13533902D01*
X15481696Y-13533902D02*
X15500744Y-13524378D01*
X15500744Y-13524378D02*
X15529315Y-13524378D01*
X15529315Y-13524378D02*
X15548363Y-13533902D01*
X15548363Y-13533902D02*
X15557887Y-13543425D01*
X15557887Y-13543425D02*
X15567410Y-13562473D01*
X15567410Y-13562473D02*
X15567410Y-13619616D01*
X15567410Y-13619616D02*
X15557887Y-13638664D01*
X15557887Y-13638664D02*
X15548363Y-13648187D01*
X15548363Y-13648187D02*
X15529315Y-13657711D01*
X15529315Y-13657711D02*
X15500744Y-13657711D01*
X15681696Y-13657711D02*
X15662648Y-13648187D01*
X15662648Y-13648187D02*
X15653125Y-13629140D01*
X15653125Y-13629140D02*
X15653125Y-13457711D01*
X15834077Y-13648187D02*
X15815029Y-13657711D01*
X15815029Y-13657711D02*
X15776934Y-13657711D01*
X15776934Y-13657711D02*
X15757887Y-13648187D01*
X15757887Y-13648187D02*
X15748363Y-13629140D01*
X15748363Y-13629140D02*
X15748363Y-13552949D01*
X15748363Y-13552949D02*
X15757887Y-13533902D01*
X15757887Y-13533902D02*
X15776934Y-13524378D01*
X15776934Y-13524378D02*
X15815029Y-13524378D01*
X15815029Y-13524378D02*
X15834077Y-13533902D01*
X15834077Y-13533902D02*
X15843601Y-13552949D01*
X15843601Y-13552949D02*
X15843601Y-13571997D01*
X15843601Y-13571997D02*
X15748363Y-13591045D01*
X15910268Y-13733902D02*
X15919791Y-13724378D01*
X15919791Y-13724378D02*
X15938839Y-13695806D01*
X15938839Y-13695806D02*
X15948363Y-13676759D01*
X15948363Y-13676759D02*
X15957887Y-13648187D01*
X15957887Y-13648187D02*
X15967410Y-13600568D01*
X15967410Y-13600568D02*
X15967410Y-13562473D01*
X15967410Y-13562473D02*
X15957887Y-13514854D01*
X15957887Y-13514854D02*
X15948363Y-13486283D01*
X15948363Y-13486283D02*
X15938839Y-13467235D01*
X15938839Y-13467235D02*
X15919791Y-13438664D01*
X15919791Y-13438664D02*
X15910268Y-13429140D01*
X16272172Y-13733902D02*
X16262648Y-13724378D01*
X16262648Y-13724378D02*
X16243601Y-13695806D01*
X16243601Y-13695806D02*
X16234077Y-13676759D01*
X16234077Y-13676759D02*
X16224553Y-13648187D01*
X16224553Y-13648187D02*
X16215029Y-13600568D01*
X16215029Y-13600568D02*
X16215029Y-13562473D01*
X16215029Y-13562473D02*
X16224553Y-13514854D01*
X16224553Y-13514854D02*
X16234077Y-13486283D01*
X16234077Y-13486283D02*
X16243601Y-13467235D01*
X16243601Y-13467235D02*
X16262648Y-13438664D01*
X16262648Y-13438664D02*
X16272172Y-13429140D01*
X16348363Y-13524378D02*
X16348363Y-13657711D01*
X16348363Y-13543425D02*
X16357887Y-13533902D01*
X16357887Y-13533902D02*
X16376934Y-13524378D01*
X16376934Y-13524378D02*
X16405506Y-13524378D01*
X16405506Y-13524378D02*
X16424553Y-13533902D01*
X16424553Y-13533902D02*
X16434077Y-13552949D01*
X16434077Y-13552949D02*
X16434077Y-13657711D01*
X16557887Y-13657711D02*
X16538839Y-13648187D01*
X16538839Y-13648187D02*
X16529315Y-13638664D01*
X16529315Y-13638664D02*
X16519791Y-13619616D01*
X16519791Y-13619616D02*
X16519791Y-13562473D01*
X16519791Y-13562473D02*
X16529315Y-13543425D01*
X16529315Y-13543425D02*
X16538839Y-13533902D01*
X16538839Y-13533902D02*
X16557887Y-13524378D01*
X16557887Y-13524378D02*
X16586458Y-13524378D01*
X16586458Y-13524378D02*
X16605506Y-13533902D01*
X16605506Y-13533902D02*
X16615029Y-13543425D01*
X16615029Y-13543425D02*
X16624553Y-13562473D01*
X16624553Y-13562473D02*
X16624553Y-13619616D01*
X16624553Y-13619616D02*
X16615029Y-13638664D01*
X16615029Y-13638664D02*
X16605506Y-13648187D01*
X16605506Y-13648187D02*
X16586458Y-13657711D01*
X16586458Y-13657711D02*
X16557887Y-13657711D01*
X16681696Y-13524378D02*
X16757887Y-13524378D01*
X16710268Y-13457711D02*
X16710268Y-13629140D01*
X16710268Y-13629140D02*
X16719791Y-13648187D01*
X16719791Y-13648187D02*
X16738839Y-13657711D01*
X16738839Y-13657711D02*
X16757887Y-13657711D01*
X16976934Y-13524378D02*
X16976934Y-13724378D01*
X16976934Y-13533902D02*
X16995982Y-13524378D01*
X16995982Y-13524378D02*
X17034077Y-13524378D01*
X17034077Y-13524378D02*
X17053125Y-13533902D01*
X17053125Y-13533902D02*
X17062649Y-13543425D01*
X17062649Y-13543425D02*
X17072172Y-13562473D01*
X17072172Y-13562473D02*
X17072172Y-13619616D01*
X17072172Y-13619616D02*
X17062649Y-13638664D01*
X17062649Y-13638664D02*
X17053125Y-13648187D01*
X17053125Y-13648187D02*
X17034077Y-13657711D01*
X17034077Y-13657711D02*
X16995982Y-13657711D01*
X16995982Y-13657711D02*
X16976934Y-13648187D01*
X17186458Y-13657711D02*
X17167411Y-13648187D01*
X17167411Y-13648187D02*
X17157887Y-13629140D01*
X17157887Y-13629140D02*
X17157887Y-13457711D01*
X17348363Y-13657711D02*
X17348363Y-13552949D01*
X17348363Y-13552949D02*
X17338839Y-13533902D01*
X17338839Y-13533902D02*
X17319792Y-13524378D01*
X17319792Y-13524378D02*
X17281696Y-13524378D01*
X17281696Y-13524378D02*
X17262649Y-13533902D01*
X17348363Y-13648187D02*
X17329315Y-13657711D01*
X17329315Y-13657711D02*
X17281696Y-13657711D01*
X17281696Y-13657711D02*
X17262649Y-13648187D01*
X17262649Y-13648187D02*
X17253125Y-13629140D01*
X17253125Y-13629140D02*
X17253125Y-13610092D01*
X17253125Y-13610092D02*
X17262649Y-13591045D01*
X17262649Y-13591045D02*
X17281696Y-13581521D01*
X17281696Y-13581521D02*
X17329315Y-13581521D01*
X17329315Y-13581521D02*
X17348363Y-13571997D01*
X17415030Y-13524378D02*
X17491220Y-13524378D01*
X17443601Y-13457711D02*
X17443601Y-13629140D01*
X17443601Y-13629140D02*
X17453125Y-13648187D01*
X17453125Y-13648187D02*
X17472172Y-13657711D01*
X17472172Y-13657711D02*
X17491220Y-13657711D01*
X17634077Y-13648187D02*
X17615030Y-13657711D01*
X17615030Y-13657711D02*
X17576934Y-13657711D01*
X17576934Y-13657711D02*
X17557887Y-13648187D01*
X17557887Y-13648187D02*
X17548363Y-13629140D01*
X17548363Y-13629140D02*
X17548363Y-13552949D01*
X17548363Y-13552949D02*
X17557887Y-13533902D01*
X17557887Y-13533902D02*
X17576934Y-13524378D01*
X17576934Y-13524378D02*
X17615030Y-13524378D01*
X17615030Y-13524378D02*
X17634077Y-13533902D01*
X17634077Y-13533902D02*
X17643601Y-13552949D01*
X17643601Y-13552949D02*
X17643601Y-13571997D01*
X17643601Y-13571997D02*
X17548363Y-13591045D01*
X17815030Y-13657711D02*
X17815030Y-13457711D01*
X17815030Y-13648187D02*
X17795982Y-13657711D01*
X17795982Y-13657711D02*
X17757887Y-13657711D01*
X17757887Y-13657711D02*
X17738839Y-13648187D01*
X17738839Y-13648187D02*
X17729315Y-13638664D01*
X17729315Y-13638664D02*
X17719792Y-13619616D01*
X17719792Y-13619616D02*
X17719792Y-13562473D01*
X17719792Y-13562473D02*
X17729315Y-13543425D01*
X17729315Y-13543425D02*
X17738839Y-13533902D01*
X17738839Y-13533902D02*
X17757887Y-13524378D01*
X17757887Y-13524378D02*
X17795982Y-13524378D01*
X17795982Y-13524378D02*
X17815030Y-13533902D01*
X17891220Y-13733902D02*
X17900744Y-13724378D01*
X17900744Y-13724378D02*
X17919792Y-13695806D01*
X17919792Y-13695806D02*
X17929315Y-13676759D01*
X17929315Y-13676759D02*
X17938839Y-13648187D01*
X17938839Y-13648187D02*
X17948363Y-13600568D01*
X17948363Y-13600568D02*
X17948363Y-13562473D01*
X17948363Y-13562473D02*
X17938839Y-13514854D01*
X17938839Y-13514854D02*
X17929315Y-13486283D01*
X17929315Y-13486283D02*
X17919792Y-13467235D01*
X17919792Y-13467235D02*
X17900744Y-13438664D01*
X17900744Y-13438664D02*
X17891220Y-13429140D01*
M02*
