%TF.GenerationSoftware,KiCad,Pcbnew,9.0.4*%
%TF.CreationDate,2025-08-24T21:56:06+05:30*%
%TF.ProjectId,IRHub_PCB,49524875-625f-4504-9342-2e6b69636164,rev?*%
%TF.SameCoordinates,Original*%
%TF.FileFunction,Legend,Top*%
%TF.FilePolarity,Positive*%
%FSLAX46Y46*%
G04 Gerber Fmt 4.6, Leading zero omitted, Abs format (unit mm)*
G04 Created by KiCad (PCBNEW 9.0.4) date 2025-08-24 21:56:06*
%MOMM*%
%LPD*%
G01*
G04 APERTURE LIST*
%ADD10C,0.200000*%
%ADD11C,0.100000*%
%ADD12C,0.150000*%
%ADD13C,0.120000*%
G04 APERTURE END LIST*
D10*
G36*
X140958898Y-88500000D02*
G01*
X139863224Y-88500000D01*
X139863224Y-88148290D01*
X140155583Y-88148290D01*
X140155583Y-86819609D01*
X139863224Y-86819609D01*
X139863224Y-86467899D01*
X140958898Y-86467899D01*
X140958898Y-86819609D01*
X140666539Y-86819609D01*
X140666539Y-88148290D01*
X140958898Y-88148290D01*
X140958898Y-88500000D01*
G37*
G36*
X142279608Y-86473618D02*
G01*
X142410677Y-86489148D01*
X142531828Y-86521827D01*
X142642952Y-86577320D01*
X142741364Y-86656842D01*
X142816487Y-86754396D01*
X142850877Y-86828626D01*
X142872846Y-86918401D01*
X142880722Y-87027093D01*
X142867856Y-87179834D01*
X142831984Y-87304527D01*
X142775454Y-87406646D01*
X142698514Y-87496052D01*
X142605363Y-87573126D01*
X142494086Y-87638311D01*
X143178577Y-88500000D01*
X142555635Y-88500000D01*
X141988625Y-87757501D01*
X141805565Y-87757501D01*
X141805565Y-88500000D01*
X141297296Y-88500000D01*
X141297296Y-87382344D01*
X141805565Y-87382344D01*
X141951745Y-87382344D01*
X142054281Y-87378878D01*
X142132729Y-87369644D01*
X142202566Y-87349155D01*
X142259124Y-87315055D01*
X142302247Y-87273354D01*
X142332153Y-87225052D01*
X142349485Y-87167929D01*
X142356089Y-87087787D01*
X142348365Y-87016162D01*
X142326658Y-86958094D01*
X142288758Y-86910825D01*
X142229083Y-86873953D01*
X142179333Y-86857699D01*
X142122471Y-86848429D01*
X141976291Y-86843056D01*
X141805565Y-86843056D01*
X141805565Y-87382344D01*
X141297296Y-87382344D01*
X141297296Y-86467899D01*
X142115632Y-86467899D01*
X142279608Y-86473618D01*
G37*
G36*
X145865492Y-88500000D02*
G01*
X145354414Y-88500000D01*
X145354414Y-87593370D01*
X144659055Y-87593370D01*
X144659055Y-88500000D01*
X144148099Y-88500000D01*
X144148099Y-86467899D01*
X144659055Y-86467899D01*
X144659055Y-87210397D01*
X145354414Y-87210397D01*
X145354414Y-86467899D01*
X145865492Y-86467899D01*
X145865492Y-88500000D01*
G37*
G36*
X147110154Y-88546894D02*
G01*
X146942171Y-88537669D01*
X146798306Y-88511669D01*
X146675136Y-88470855D01*
X146569709Y-88416386D01*
X146479641Y-88348569D01*
X146402904Y-88265481D01*
X146342296Y-88168420D01*
X146297417Y-88055274D01*
X146269020Y-87923168D01*
X146258967Y-87768614D01*
X146258967Y-86467899D01*
X146769923Y-86467899D01*
X146769923Y-87742602D01*
X146780458Y-87882821D01*
X146808354Y-87985559D01*
X146849791Y-88059630D01*
X146910625Y-88115292D01*
X146994751Y-88150781D01*
X147110154Y-88163921D01*
X147223178Y-88151377D01*
X147307068Y-88117308D01*
X147369051Y-88063782D01*
X147411604Y-87991900D01*
X147440624Y-87888375D01*
X147451727Y-87742602D01*
X147451727Y-86467899D01*
X147962683Y-86467899D01*
X147962683Y-87767271D01*
X147952932Y-87919510D01*
X147925316Y-88050475D01*
X147881573Y-88163398D01*
X147822418Y-88260958D01*
X147747505Y-88345150D01*
X147659602Y-88413669D01*
X147554971Y-88468963D01*
X147430879Y-88510642D01*
X147283924Y-88537360D01*
X147110154Y-88546894D01*
G37*
G36*
X149284039Y-86472890D02*
G01*
X149413120Y-86484996D01*
X149525137Y-86511588D01*
X149629641Y-86556926D01*
X149697535Y-86601527D01*
X149751429Y-86653864D01*
X149792917Y-86714462D01*
X149832937Y-86818652D01*
X149846895Y-86941852D01*
X149838358Y-87039138D01*
X149813466Y-87127103D01*
X149772401Y-87207588D01*
X149716540Y-87278278D01*
X149648503Y-87335159D01*
X149566748Y-87379169D01*
X149566748Y-87390038D01*
X149687156Y-87426743D01*
X149786669Y-87480547D01*
X149868632Y-87551238D01*
X149930028Y-87638649D01*
X149968376Y-87746283D01*
X149982083Y-87879745D01*
X149975323Y-87979035D01*
X149955918Y-88066869D01*
X149924686Y-88144993D01*
X149856984Y-88249912D01*
X149770325Y-88334036D01*
X149649567Y-88411057D01*
X149518266Y-88461898D01*
X149371492Y-88489447D01*
X149169243Y-88500000D01*
X148354937Y-88500000D01*
X148354937Y-88124842D01*
X148863207Y-88124842D01*
X148890562Y-88124842D01*
X149166434Y-88122156D01*
X149242565Y-88112032D01*
X149322261Y-88086008D01*
X149383437Y-88048812D01*
X149423988Y-87999546D01*
X149447874Y-87939478D01*
X149456106Y-87870097D01*
X149445637Y-87784244D01*
X149417882Y-87725261D01*
X149371701Y-87680416D01*
X149303088Y-87646127D01*
X149252105Y-87633194D01*
X149175349Y-87626709D01*
X148957485Y-87624633D01*
X148863207Y-87624633D01*
X148863207Y-88124842D01*
X148354937Y-88124842D01*
X148354937Y-87272923D01*
X148863207Y-87272923D01*
X148927443Y-87272923D01*
X149111113Y-87270237D01*
X149163514Y-87261935D01*
X149219679Y-87241538D01*
X149272734Y-87206376D01*
X149304431Y-87162404D01*
X149321564Y-87109130D01*
X149327635Y-87045045D01*
X149321568Y-86996271D01*
X149302355Y-86944050D01*
X149270115Y-86899352D01*
X149223831Y-86868946D01*
X149170387Y-86852472D01*
X149104274Y-86845132D01*
X148898744Y-86843056D01*
X148863207Y-86843056D01*
X148863207Y-87272923D01*
X148354937Y-87272923D01*
X148354937Y-86467899D01*
X149073622Y-86467899D01*
X149284039Y-86472890D01*
G37*
G36*
X134989969Y-91860000D02*
G01*
X134481699Y-91860000D01*
X134481699Y-90513367D01*
X134111427Y-91383237D01*
X133763137Y-91383237D01*
X133392865Y-90513367D01*
X133392865Y-91860000D01*
X132911951Y-91860000D01*
X132911951Y-89827899D01*
X133500820Y-89827899D01*
X133951693Y-90831615D01*
X134401099Y-89827899D01*
X134989969Y-89827899D01*
X134989969Y-91860000D01*
G37*
G36*
X136151630Y-90291565D02*
G01*
X136310627Y-90319412D01*
X136432179Y-90360799D01*
X136523692Y-90413105D01*
X136601333Y-90485780D01*
X136657191Y-90574588D01*
X136692269Y-90682856D01*
X136704798Y-90815617D01*
X136704798Y-91860000D01*
X136229379Y-91860000D01*
X136229379Y-91697456D01*
X136141208Y-91771217D01*
X136098210Y-91802382D01*
X136036794Y-91836796D01*
X135911741Y-91888087D01*
X135844792Y-91901500D01*
X135741626Y-91906894D01*
X135642204Y-91897944D01*
X135554056Y-91872040D01*
X135474997Y-91829562D01*
X135403472Y-91769508D01*
X135344917Y-91696845D01*
X135303257Y-91616097D01*
X135277736Y-91525651D01*
X135268894Y-91423293D01*
X135272003Y-91381894D01*
X135752617Y-91381894D01*
X135760227Y-91451383D01*
X135780192Y-91498875D01*
X135810625Y-91530516D01*
X135877249Y-91559442D01*
X135982083Y-91570816D01*
X136044619Y-91563869D01*
X136110555Y-91542117D01*
X136172774Y-91507684D01*
X136229379Y-91461273D01*
X136229379Y-91140949D01*
X136032642Y-91162198D01*
X135958361Y-91175351D01*
X135885119Y-91197124D01*
X135828247Y-91225348D01*
X135787422Y-91263558D01*
X135761934Y-91313321D01*
X135752617Y-91381894D01*
X135272003Y-91381894D01*
X135277363Y-91310520D01*
X135300778Y-91219405D01*
X135337160Y-91145833D01*
X135388388Y-91081222D01*
X135453373Y-91025442D01*
X135534020Y-90978161D01*
X135671844Y-90925865D01*
X135844086Y-90890233D01*
X136232188Y-90851765D01*
X136232188Y-90843461D01*
X136220769Y-90763580D01*
X136189551Y-90706512D01*
X136138521Y-90666263D01*
X136073904Y-90641271D01*
X135982861Y-90623923D01*
X135857764Y-90617292D01*
X135770222Y-90624331D01*
X135659683Y-90648066D01*
X135547771Y-90683089D01*
X135438399Y-90726713D01*
X135397366Y-90726713D01*
X135397366Y-90357540D01*
X135626832Y-90309180D01*
X135785989Y-90288208D01*
X135946546Y-90281214D01*
X136151630Y-90291565D01*
G37*
G36*
X138453210Y-91860000D02*
G01*
X137974983Y-91860000D01*
X137974983Y-91700143D01*
X137869104Y-91782086D01*
X137764568Y-91847665D01*
X137651117Y-91891751D01*
X137592296Y-91902807D01*
X137517272Y-91906894D01*
X137391569Y-91892941D01*
X137282714Y-91852595D01*
X137186896Y-91785670D01*
X137101937Y-91688785D01*
X137038166Y-91577507D01*
X136990360Y-91445790D01*
X136959809Y-91289957D01*
X136948919Y-91105655D01*
X136949183Y-91100038D01*
X137438015Y-91100038D01*
X137447526Y-91252079D01*
X137472041Y-91358212D01*
X137507014Y-91430010D01*
X137560439Y-91485074D01*
X137632754Y-91519269D01*
X137730374Y-91531737D01*
X137792903Y-91525705D01*
X137857502Y-91507069D01*
X137919057Y-91477782D01*
X137974983Y-91439658D01*
X137974983Y-90682016D01*
X137882048Y-90652463D01*
X137783741Y-90640739D01*
X137699711Y-90648975D01*
X137630374Y-90672186D01*
X137572693Y-90709469D01*
X137524721Y-90761762D01*
X137478981Y-90846839D01*
X137449039Y-90957340D01*
X137438015Y-91100038D01*
X136949183Y-91100038D01*
X136955207Y-90971777D01*
X136972963Y-90855970D01*
X137000820Y-90755900D01*
X137063465Y-90615882D01*
X137144313Y-90497979D01*
X137236289Y-90408465D01*
X137346424Y-90339588D01*
X137468759Y-90295807D01*
X137597872Y-90281214D01*
X137712495Y-90288209D01*
X137795342Y-90306493D01*
X137874736Y-90336977D01*
X137974983Y-90385017D01*
X137974983Y-89734110D01*
X138453210Y-89734110D01*
X138453210Y-91860000D01*
G37*
G36*
X140255967Y-91860000D02*
G01*
X139775053Y-91860000D01*
X139775053Y-91098328D01*
X139767481Y-90912948D01*
X139755545Y-90827044D01*
X139739515Y-90776905D01*
X139709002Y-90731839D01*
X139668441Y-90702411D01*
X139617524Y-90686094D01*
X139544243Y-90679818D01*
X139485765Y-90685168D01*
X139425297Y-90701678D01*
X139365402Y-90728833D01*
X139296947Y-90771409D01*
X139296947Y-91860000D01*
X138818720Y-91860000D01*
X138818720Y-89734110D01*
X139296947Y-89734110D01*
X139296947Y-90493217D01*
X139416048Y-90402123D01*
X139525681Y-90337267D01*
X139641800Y-90295510D01*
X139772366Y-90281214D01*
X139888134Y-90291453D01*
X139984251Y-90320265D01*
X140064529Y-90366188D01*
X140131647Y-90429713D01*
X140182939Y-90506308D01*
X140221736Y-90600902D01*
X140246874Y-90717256D01*
X140255967Y-90859947D01*
X140255967Y-91860000D01*
G37*
G36*
X142035520Y-91860000D02*
G01*
X141557293Y-91860000D01*
X141557293Y-91694891D01*
X141433182Y-91789729D01*
X141329048Y-91852916D01*
X141257938Y-91882131D01*
X141176206Y-91900453D01*
X141081874Y-91906894D01*
X140969523Y-91897051D01*
X140874810Y-91869185D01*
X140794391Y-91824524D01*
X140725890Y-91762547D01*
X140673494Y-91687727D01*
X140633637Y-91593429D01*
X140607626Y-91475336D01*
X140598151Y-91328161D01*
X140598151Y-90328108D01*
X141079065Y-90328108D01*
X141079065Y-91089780D01*
X141085171Y-91284075D01*
X141096185Y-91355717D01*
X141114602Y-91411203D01*
X141142496Y-91453327D01*
X141182258Y-91483743D01*
X141233271Y-91501391D01*
X141309997Y-91508290D01*
X141362249Y-91502739D01*
X141429554Y-91483743D01*
X141496077Y-91454601D01*
X141557293Y-91416699D01*
X141557293Y-90328108D01*
X142035520Y-90328108D01*
X142035520Y-91860000D01*
G37*
G36*
X143937928Y-91860000D02*
G01*
X143369575Y-91860000D01*
X142954240Y-91192972D01*
X142880478Y-91292501D01*
X142880478Y-91860000D01*
X142402251Y-91860000D01*
X142402251Y-89734110D01*
X142880478Y-89734110D01*
X142880478Y-90926992D01*
X143334037Y-90328108D01*
X143898238Y-90328108D01*
X143361392Y-90988297D01*
X143937928Y-91860000D01*
G37*
G36*
X144856445Y-90291565D02*
G01*
X145015443Y-90319412D01*
X145136994Y-90360799D01*
X145228507Y-90413105D01*
X145306148Y-90485780D01*
X145362007Y-90574588D01*
X145397084Y-90682856D01*
X145409613Y-90815617D01*
X145409613Y-91860000D01*
X144934194Y-91860000D01*
X144934194Y-91697456D01*
X144846023Y-91771217D01*
X144803025Y-91802382D01*
X144741609Y-91836796D01*
X144616556Y-91888087D01*
X144549607Y-91901500D01*
X144446441Y-91906894D01*
X144347019Y-91897944D01*
X144258871Y-91872040D01*
X144179812Y-91829562D01*
X144108287Y-91769508D01*
X144049732Y-91696845D01*
X144008072Y-91616097D01*
X143982551Y-91525651D01*
X143973709Y-91423293D01*
X143976818Y-91381894D01*
X144457432Y-91381894D01*
X144465042Y-91451383D01*
X144485007Y-91498875D01*
X144515440Y-91530516D01*
X144582064Y-91559442D01*
X144686898Y-91570816D01*
X144749434Y-91563869D01*
X144815370Y-91542117D01*
X144877589Y-91507684D01*
X144934194Y-91461273D01*
X144934194Y-91140949D01*
X144737457Y-91162198D01*
X144663176Y-91175351D01*
X144589934Y-91197124D01*
X144533062Y-91225348D01*
X144492237Y-91263558D01*
X144466749Y-91313321D01*
X144457432Y-91381894D01*
X143976818Y-91381894D01*
X143982178Y-91310520D01*
X144005593Y-91219405D01*
X144041975Y-91145833D01*
X144093203Y-91081222D01*
X144158188Y-91025442D01*
X144238835Y-90978161D01*
X144376659Y-90925865D01*
X144548901Y-90890233D01*
X144937003Y-90851765D01*
X144937003Y-90843461D01*
X144925584Y-90763580D01*
X144894366Y-90706512D01*
X144843336Y-90666263D01*
X144778719Y-90641271D01*
X144687676Y-90623923D01*
X144562579Y-90617292D01*
X144475038Y-90624331D01*
X144364498Y-90648066D01*
X144252586Y-90683089D01*
X144143214Y-90726713D01*
X144102181Y-90726713D01*
X144102181Y-90357540D01*
X144331647Y-90309180D01*
X144490804Y-90288208D01*
X144651361Y-90281214D01*
X144856445Y-90291565D01*
G37*
G36*
X146793249Y-90781423D02*
G01*
X146753681Y-90781423D01*
X146674302Y-90769699D01*
X146559630Y-90765792D01*
X146483800Y-90771054D01*
X146401727Y-90787529D01*
X146241260Y-90839064D01*
X146241260Y-91860000D01*
X145763032Y-91860000D01*
X145763032Y-90328108D01*
X146241260Y-90328108D01*
X146241260Y-90552445D01*
X146332118Y-90476974D01*
X146437997Y-90404190D01*
X146492774Y-90375778D01*
X146558898Y-90350579D01*
X146627384Y-90333496D01*
X146689445Y-90328108D01*
X146741347Y-90329452D01*
X146793249Y-90333482D01*
X146793249Y-90781423D01*
G37*
G36*
X148213277Y-91860000D02*
G01*
X148213277Y-90210872D01*
X147612073Y-90210872D01*
X147612073Y-89827899D01*
X149325314Y-89827899D01*
X149325314Y-90210872D01*
X148724233Y-90210872D01*
X148724233Y-91860000D01*
X148213277Y-91860000D01*
G37*
G36*
X150392597Y-90294840D02*
G01*
X150535746Y-90332651D01*
X150652118Y-90391687D01*
X150746441Y-90471357D01*
X150820743Y-90570745D01*
X150876037Y-90691462D01*
X150911425Y-90837879D01*
X150924128Y-91015530D01*
X150924128Y-91187843D01*
X149876326Y-91187843D01*
X149891804Y-91287678D01*
X149921389Y-91364187D01*
X149966173Y-91428218D01*
X150022505Y-91476905D01*
X150087979Y-91512353D01*
X150165876Y-91536988D01*
X150250044Y-91550469D01*
X150344906Y-91555184D01*
X150427689Y-91550474D01*
X150508915Y-91536378D01*
X150587183Y-91514244D01*
X150656438Y-91486919D01*
X150765004Y-91429766D01*
X150846337Y-91375422D01*
X150896895Y-91375422D01*
X150896895Y-91771584D01*
X150789672Y-91814815D01*
X150656438Y-91855237D01*
X150495848Y-91887355D01*
X150294348Y-91899078D01*
X150116008Y-91889404D01*
X149963670Y-91862176D01*
X149833637Y-91819510D01*
X149722710Y-91762685D01*
X149628298Y-91692083D01*
X149547101Y-91605061D01*
X149483405Y-91504856D01*
X149436567Y-91389546D01*
X149407124Y-91256470D01*
X149396755Y-91102358D01*
X149406280Y-90951701D01*
X149417169Y-90898660D01*
X149874861Y-90898660D01*
X150452861Y-90898660D01*
X150441954Y-90798700D01*
X150417742Y-90722879D01*
X150382397Y-90665896D01*
X150332905Y-90623011D01*
X150267052Y-90595931D01*
X150179554Y-90586029D01*
X150090265Y-90596119D01*
X150018970Y-90624384D01*
X149961567Y-90670048D01*
X149918327Y-90730370D01*
X149889077Y-90805348D01*
X149874861Y-90898660D01*
X149417169Y-90898660D01*
X149433534Y-90818951D01*
X149477164Y-90701529D01*
X149536693Y-90597281D01*
X149612544Y-90504574D01*
X149702503Y-90426526D01*
X149805635Y-90365046D01*
X149923864Y-90319735D01*
X150059764Y-90291239D01*
X150216434Y-90281214D01*
X150392597Y-90294840D01*
G37*
G36*
X153003123Y-91860000D02*
G01*
X153003123Y-91092833D01*
X152998971Y-90901346D01*
X152990191Y-90827426D01*
X152974425Y-90774218D01*
X152947891Y-90731243D01*
X152910799Y-90702411D01*
X152862850Y-90686194D01*
X152790021Y-90679818D01*
X152736105Y-90685708D01*
X152682066Y-90703754D01*
X152565928Y-90771409D01*
X152565928Y-91860000D01*
X152085014Y-91860000D01*
X152085014Y-91092833D01*
X152080251Y-90902079D01*
X152070886Y-90827504D01*
X152054972Y-90774218D01*
X152028438Y-90731243D01*
X151991347Y-90702411D01*
X151943552Y-90686165D01*
X151871912Y-90679818D01*
X151814265Y-90686557D01*
X151757118Y-90707173D01*
X151647820Y-90771409D01*
X151647820Y-91860000D01*
X151169592Y-91860000D01*
X151169592Y-90328108D01*
X151647820Y-90328108D01*
X151647820Y-90493217D01*
X151765798Y-90401532D01*
X151869104Y-90337267D01*
X151978030Y-90295560D01*
X152102722Y-90281214D01*
X152194556Y-90288986D01*
X152276330Y-90311479D01*
X152349896Y-90348258D01*
X152414206Y-90399124D01*
X152468307Y-90464935D01*
X152512561Y-90548049D01*
X152651694Y-90430487D01*
X152772802Y-90350334D01*
X152856467Y-90311295D01*
X152938756Y-90288649D01*
X153020831Y-90281214D01*
X153123795Y-90290096D01*
X153212073Y-90315408D01*
X153290442Y-90358236D01*
X153355566Y-90417990D01*
X153411252Y-90497948D01*
X153451919Y-90593845D01*
X153475065Y-90703751D01*
X153484037Y-90859947D01*
X153484037Y-91860000D01*
X153003123Y-91860000D01*
G37*
G36*
X154316905Y-90483325D02*
G01*
X154424702Y-90400652D01*
X154531351Y-90337267D01*
X154606108Y-90306721D01*
X154689824Y-90287795D01*
X154784142Y-90281214D01*
X154913328Y-90294967D01*
X155022715Y-90334292D01*
X155116565Y-90398677D01*
X155197401Y-90490774D01*
X155257383Y-90597254D01*
X155302919Y-90726463D01*
X155332369Y-90882751D01*
X155342970Y-91071217D01*
X155330147Y-91254256D01*
X155293780Y-91411563D01*
X155235925Y-91547279D01*
X155157101Y-91664727D01*
X155056056Y-91765961D01*
X154947167Y-91835589D01*
X154828446Y-91877110D01*
X154696703Y-91891263D01*
X154586102Y-91884156D01*
X154497157Y-91864640D01*
X154412339Y-91832236D01*
X154316905Y-91783429D01*
X154296389Y-91860000D01*
X153838678Y-91860000D01*
X153838678Y-90738925D01*
X154316905Y-90738925D01*
X154316905Y-91514396D01*
X154413259Y-91540530D01*
X154509491Y-91547369D01*
X154619412Y-91533429D01*
X154703612Y-91494716D01*
X154768388Y-91431842D01*
X154812723Y-91350115D01*
X154842525Y-91237696D01*
X154853751Y-91085383D01*
X154844047Y-90931387D01*
X154819204Y-90825583D01*
X154784020Y-90755411D01*
X154730719Y-90701419D01*
X154661032Y-90668296D01*
X154569575Y-90656371D01*
X154505909Y-90661478D01*
X154441836Y-90677009D01*
X154379642Y-90702417D01*
X154316905Y-90738925D01*
X153838678Y-90738925D01*
X153838678Y-89734110D01*
X154316905Y-89734110D01*
X154316905Y-90483325D01*
G37*
G36*
X156374938Y-90291565D02*
G01*
X156533935Y-90319412D01*
X156655487Y-90360799D01*
X156747000Y-90413105D01*
X156824641Y-90485780D01*
X156880499Y-90574588D01*
X156915577Y-90682856D01*
X156928106Y-90815617D01*
X156928106Y-91860000D01*
X156452687Y-91860000D01*
X156452687Y-91697456D01*
X156364515Y-91771217D01*
X156321518Y-91802382D01*
X156260101Y-91836796D01*
X156135049Y-91888087D01*
X156068099Y-91901500D01*
X155964934Y-91906894D01*
X155865511Y-91897944D01*
X155777364Y-91872040D01*
X155698304Y-91829562D01*
X155626780Y-91769508D01*
X155568225Y-91696845D01*
X155526565Y-91616097D01*
X155501043Y-91525651D01*
X155492202Y-91423293D01*
X155495311Y-91381894D01*
X155975925Y-91381894D01*
X155983535Y-91451383D01*
X156003499Y-91498875D01*
X156033933Y-91530516D01*
X156100557Y-91559442D01*
X156205391Y-91570816D01*
X156267927Y-91563869D01*
X156333863Y-91542117D01*
X156396082Y-91507684D01*
X156452687Y-91461273D01*
X156452687Y-91140949D01*
X156255949Y-91162198D01*
X156181668Y-91175351D01*
X156108427Y-91197124D01*
X156051555Y-91225348D01*
X156010729Y-91263558D01*
X155985242Y-91313321D01*
X155975925Y-91381894D01*
X155495311Y-91381894D01*
X155500671Y-91310520D01*
X155524086Y-91219405D01*
X155560468Y-91145833D01*
X155611696Y-91081222D01*
X155676680Y-91025442D01*
X155757328Y-90978161D01*
X155895152Y-90925865D01*
X156067394Y-90890233D01*
X156455496Y-90851765D01*
X156455496Y-90843461D01*
X156444077Y-90763580D01*
X156412858Y-90706512D01*
X156361829Y-90666263D01*
X156297211Y-90641271D01*
X156206169Y-90623923D01*
X156081071Y-90617292D01*
X155993530Y-90624331D01*
X155882990Y-90648066D01*
X155771079Y-90683089D01*
X155661706Y-90726713D01*
X155620674Y-90726713D01*
X155620674Y-90357540D01*
X155850140Y-90309180D01*
X156009297Y-90288208D01*
X156169854Y-90281214D01*
X156374938Y-90291565D01*
G37*
D11*
G36*
X137872723Y-93330000D02*
G01*
X137872723Y-93192918D01*
X138036427Y-93055776D01*
X138108676Y-92991522D01*
X138166547Y-92934754D01*
X138216741Y-92877518D01*
X138251910Y-92827042D01*
X138275548Y-92775804D01*
X138282684Y-92731238D01*
X138278329Y-92692684D01*
X138266453Y-92663870D01*
X138247697Y-92642395D01*
X138222883Y-92626972D01*
X138192157Y-92617208D01*
X138153968Y-92613696D01*
X138107109Y-92620216D01*
X138065125Y-92639586D01*
X137988860Y-92697655D01*
X137861549Y-92568939D01*
X137933600Y-92505314D01*
X137970340Y-92480351D01*
X138008400Y-92460556D01*
X138048501Y-92445365D01*
X138090954Y-92434666D01*
X138135648Y-92428449D01*
X138187552Y-92426240D01*
X138256901Y-92431652D01*
X138318344Y-92447245D01*
X138374239Y-92472768D01*
X138420437Y-92505985D01*
X138458251Y-92547579D01*
X138486871Y-92597637D01*
X138504569Y-92653657D01*
X138510685Y-92717255D01*
X138504588Y-92770013D01*
X138485467Y-92825638D01*
X138456640Y-92879864D01*
X138418361Y-92935486D01*
X138374179Y-92988867D01*
X138323900Y-93041793D01*
X138216922Y-93139734D01*
X138298743Y-93132041D01*
X138376413Y-93128560D01*
X138555443Y-93128560D01*
X138555443Y-93330000D01*
X137872723Y-93330000D01*
G37*
G36*
X139324747Y-92949469D02*
G01*
X139426840Y-92949469D01*
X139426840Y-93131308D01*
X139324747Y-93131308D01*
X139324747Y-93330000D01*
X139100898Y-93330000D01*
X139100898Y-93131308D01*
X138685380Y-93131308D01*
X138685380Y-92963452D01*
X138694590Y-92949469D01*
X138912037Y-92949469D01*
X139100898Y-92949469D01*
X139100898Y-92848719D01*
X139101570Y-92799077D01*
X139103707Y-92743817D01*
X139106516Y-92688557D01*
X139109263Y-92638853D01*
X139103707Y-92638853D01*
X139054736Y-92718660D01*
X139004361Y-92798344D01*
X138912037Y-92949469D01*
X138694590Y-92949469D01*
X139028175Y-92443032D01*
X139324747Y-92443032D01*
X139324747Y-92949469D01*
G37*
G36*
X139567951Y-92952278D02*
G01*
X139567951Y-92784361D01*
X140228323Y-92784361D01*
X140228323Y-92952278D01*
X139567951Y-92952278D01*
G37*
G36*
X140768774Y-92773963D02*
G01*
X140795209Y-92784231D01*
X140817803Y-92801153D01*
X140835065Y-92823419D01*
X140845602Y-92850046D01*
X140849310Y-92882302D01*
X140845602Y-92914559D01*
X140835065Y-92941186D01*
X140817803Y-92963452D01*
X140795209Y-92980374D01*
X140768774Y-92990641D01*
X140737386Y-92994227D01*
X140705996Y-92990643D01*
X140679540Y-92980376D01*
X140656908Y-92963452D01*
X140639682Y-92941190D01*
X140629164Y-92914563D01*
X140625462Y-92882302D01*
X140629164Y-92850042D01*
X140639682Y-92823415D01*
X140656908Y-92801153D01*
X140679540Y-92784229D01*
X140705996Y-92773962D01*
X140737386Y-92770378D01*
X140768774Y-92773963D01*
G37*
G36*
X140813160Y-92433603D02*
G01*
X140880085Y-92454938D01*
X140920812Y-92477042D01*
X140957530Y-92505327D01*
X140990605Y-92540240D01*
X141018186Y-92579829D01*
X141042046Y-92627025D01*
X141061924Y-92682939D01*
X141080448Y-92772774D01*
X141087142Y-92882302D01*
X141080462Y-92991918D01*
X141061924Y-93082398D01*
X141042107Y-93138805D01*
X141018254Y-93186975D01*
X140990605Y-93227906D01*
X140957455Y-93264217D01*
X140920727Y-93293663D01*
X140880085Y-93316749D01*
X140836284Y-93333247D01*
X140788933Y-93343333D01*
X140737386Y-93346791D01*
X140685839Y-93343333D01*
X140638488Y-93333247D01*
X140594687Y-93316749D01*
X140554042Y-93293665D01*
X140517293Y-93264220D01*
X140484106Y-93227906D01*
X140456457Y-93186975D01*
X140432604Y-93138805D01*
X140412787Y-93082398D01*
X140394294Y-92991921D01*
X140387630Y-92882302D01*
X140600244Y-92882302D01*
X140603333Y-92961381D01*
X140611418Y-93019445D01*
X140625397Y-93070573D01*
X140641521Y-93105479D01*
X140662592Y-93133028D01*
X140684874Y-93149565D01*
X140710187Y-93158985D01*
X140737386Y-93162144D01*
X140764532Y-93158987D01*
X140789837Y-93149565D01*
X140812119Y-93133028D01*
X140833190Y-93105479D01*
X140849301Y-93070571D01*
X140863232Y-93019445D01*
X140871362Y-92961381D01*
X140874467Y-92882302D01*
X140871342Y-92803409D01*
X140863232Y-92746625D01*
X140849279Y-92696892D01*
X140833190Y-92663400D01*
X140812142Y-92637298D01*
X140789837Y-92622123D01*
X140764601Y-92613722D01*
X140737386Y-92610887D01*
X140710118Y-92613723D01*
X140684874Y-92622123D01*
X140662569Y-92637298D01*
X140641521Y-92663400D01*
X140625419Y-92696891D01*
X140611418Y-92746625D01*
X140603352Y-92803408D01*
X140600244Y-92882302D01*
X140387630Y-92882302D01*
X140394308Y-92772771D01*
X140412787Y-92682939D01*
X140432666Y-92627025D01*
X140456525Y-92579829D01*
X140484106Y-92540240D01*
X140517218Y-92505324D01*
X140553957Y-92477040D01*
X140594687Y-92454938D01*
X140661612Y-92433603D01*
X140737386Y-92426240D01*
X140813160Y-92433603D01*
G37*
G36*
X141647383Y-92430798D02*
G01*
X141703855Y-92443764D01*
X141755232Y-92465171D01*
X141796912Y-92492735D01*
X141831086Y-92527737D01*
X141857056Y-92570343D01*
X141873236Y-92618372D01*
X141878794Y-92672437D01*
X141874595Y-92712178D01*
X141862283Y-92748013D01*
X141841669Y-92780881D01*
X141801212Y-92823804D01*
X141754230Y-92858550D01*
X141754230Y-92864106D01*
X141818969Y-92904587D01*
X141871039Y-92954354D01*
X141896486Y-92993580D01*
X141912318Y-93040702D01*
X141917934Y-93097786D01*
X141912268Y-93149280D01*
X141895525Y-93196399D01*
X141868106Y-93238477D01*
X141829091Y-93275472D01*
X141781246Y-93304710D01*
X141720647Y-93327923D01*
X141653752Y-93341818D01*
X141573796Y-93346791D01*
X141497828Y-93342196D01*
X141433845Y-93329328D01*
X141375613Y-93307644D01*
X141328210Y-93279624D01*
X141289093Y-93243924D01*
X141261104Y-93202688D01*
X141243908Y-93155965D01*
X141238023Y-93103342D01*
X141241035Y-93075376D01*
X141445080Y-93075376D01*
X141449762Y-93108702D01*
X141462969Y-93134679D01*
X141484952Y-93155122D01*
X141527724Y-93174825D01*
X141579352Y-93181683D01*
X141625481Y-93176138D01*
X141661174Y-93160739D01*
X141678919Y-93144217D01*
X141690007Y-93121187D01*
X141694085Y-93089359D01*
X141690714Y-93066859D01*
X141680774Y-93047411D01*
X141665284Y-93030598D01*
X141643039Y-93014560D01*
X141583565Y-92985861D01*
X141505225Y-92955087D01*
X141480124Y-92980899D01*
X141461139Y-93010347D01*
X141449045Y-93042527D01*
X141445080Y-93075376D01*
X141241035Y-93075376D01*
X141243357Y-93053819D01*
X141258574Y-93012196D01*
X141283452Y-92976763D01*
X141333612Y-92931645D01*
X141396109Y-92893476D01*
X141396109Y-92887920D01*
X141344501Y-92844365D01*
X141304457Y-92797672D01*
X141284950Y-92763036D01*
X141272971Y-92723552D01*
X141268797Y-92678054D01*
X141478663Y-92678054D01*
X141483184Y-92705694D01*
X141496528Y-92729095D01*
X141519940Y-92749434D01*
X141565554Y-92774174D01*
X141632536Y-92801153D01*
X141661625Y-92762636D01*
X141677745Y-92725697D01*
X141682911Y-92689228D01*
X141679545Y-92659668D01*
X141670119Y-92636109D01*
X141654884Y-92617177D01*
X141634766Y-92603293D01*
X141609189Y-92594480D01*
X141576605Y-92591287D01*
X141538349Y-92596556D01*
X141507301Y-92611620D01*
X141491912Y-92627236D01*
X141482227Y-92648709D01*
X141478663Y-92678054D01*
X141268797Y-92678054D01*
X141274737Y-92621523D01*
X141291878Y-92572480D01*
X141319631Y-92529320D01*
X141356908Y-92493407D01*
X141401987Y-92465289D01*
X141456254Y-92443764D01*
X141515394Y-92430766D01*
X141582161Y-92426240D01*
X141647383Y-92430798D01*
G37*
G36*
X142085607Y-92952278D02*
G01*
X142085607Y-92784361D01*
X142745978Y-92784361D01*
X142745978Y-92952278D01*
X142085607Y-92952278D01*
G37*
G36*
X142908033Y-93330000D02*
G01*
X142908033Y-93192918D01*
X143071737Y-93055776D01*
X143143986Y-92991522D01*
X143201857Y-92934754D01*
X143252052Y-92877518D01*
X143287220Y-92827042D01*
X143310858Y-92775804D01*
X143317995Y-92731238D01*
X143313640Y-92692684D01*
X143301764Y-92663870D01*
X143283007Y-92642395D01*
X143258194Y-92626972D01*
X143227467Y-92617208D01*
X143189279Y-92613696D01*
X143142419Y-92620216D01*
X143100436Y-92639586D01*
X143024171Y-92697655D01*
X142896859Y-92568939D01*
X142968911Y-92505314D01*
X143005651Y-92480351D01*
X143043710Y-92460556D01*
X143083812Y-92445365D01*
X143126264Y-92434666D01*
X143170959Y-92428449D01*
X143222862Y-92426240D01*
X143292211Y-92431652D01*
X143353654Y-92447245D01*
X143409550Y-92472768D01*
X143455748Y-92505985D01*
X143493561Y-92547579D01*
X143522182Y-92597637D01*
X143539879Y-92653657D01*
X143545996Y-92717255D01*
X143539899Y-92770013D01*
X143520778Y-92825638D01*
X143491950Y-92879864D01*
X143453672Y-92935486D01*
X143409490Y-92988867D01*
X143359211Y-93041793D01*
X143252233Y-93139734D01*
X143334054Y-93132041D01*
X143411723Y-93128560D01*
X143590753Y-93128560D01*
X143590753Y-93330000D01*
X142908033Y-93330000D01*
G37*
G36*
X144125648Y-92773963D02*
G01*
X144152082Y-92784231D01*
X144174677Y-92801153D01*
X144191939Y-92823419D01*
X144202476Y-92850046D01*
X144206184Y-92882302D01*
X144202476Y-92914559D01*
X144191939Y-92941186D01*
X144174677Y-92963452D01*
X144152082Y-92980374D01*
X144125648Y-92990641D01*
X144094260Y-92994227D01*
X144062870Y-92990643D01*
X144036414Y-92980376D01*
X144013782Y-92963452D01*
X143996556Y-92941190D01*
X143986037Y-92914563D01*
X143982336Y-92882302D01*
X143986037Y-92850042D01*
X143996556Y-92823415D01*
X144013782Y-92801153D01*
X144036414Y-92784229D01*
X144062870Y-92773962D01*
X144094260Y-92770378D01*
X144125648Y-92773963D01*
G37*
G36*
X144170034Y-92433603D02*
G01*
X144236959Y-92454938D01*
X144277685Y-92477042D01*
X144314404Y-92505327D01*
X144347479Y-92540240D01*
X144375060Y-92579829D01*
X144398919Y-92627025D01*
X144418797Y-92682939D01*
X144437322Y-92772774D01*
X144444016Y-92882302D01*
X144437336Y-92991918D01*
X144418797Y-93082398D01*
X144398981Y-93138805D01*
X144375127Y-93186975D01*
X144347479Y-93227906D01*
X144314328Y-93264217D01*
X144277600Y-93293663D01*
X144236959Y-93316749D01*
X144193158Y-93333247D01*
X144145807Y-93343333D01*
X144094260Y-93346791D01*
X144042713Y-93343333D01*
X143995361Y-93333247D01*
X143951561Y-93316749D01*
X143910916Y-93293665D01*
X143874167Y-93264220D01*
X143840980Y-93227906D01*
X143813331Y-93186975D01*
X143789478Y-93138805D01*
X143769661Y-93082398D01*
X143751168Y-92991921D01*
X143744504Y-92882302D01*
X143957117Y-92882302D01*
X143960206Y-92961381D01*
X143968292Y-93019445D01*
X143982271Y-93070573D01*
X143998394Y-93105479D01*
X144019466Y-93133028D01*
X144041748Y-93149565D01*
X144067061Y-93158985D01*
X144094260Y-93162144D01*
X144121406Y-93158987D01*
X144146711Y-93149565D01*
X144168993Y-93133028D01*
X144190064Y-93105479D01*
X144206174Y-93070571D01*
X144220106Y-93019445D01*
X144228235Y-92961381D01*
X144231341Y-92882302D01*
X144228216Y-92803409D01*
X144220106Y-92746625D01*
X144206153Y-92696892D01*
X144190064Y-92663400D01*
X144169016Y-92637298D01*
X144146711Y-92622123D01*
X144121475Y-92613722D01*
X144094260Y-92610887D01*
X144066992Y-92613723D01*
X144041748Y-92622123D01*
X144019442Y-92637298D01*
X143998394Y-92663400D01*
X143982293Y-92696891D01*
X143968292Y-92746625D01*
X143960226Y-92803408D01*
X143957117Y-92882302D01*
X143744504Y-92882302D01*
X143751182Y-92772771D01*
X143769661Y-92682939D01*
X143789539Y-92627025D01*
X143813399Y-92579829D01*
X143840980Y-92540240D01*
X143874091Y-92505324D01*
X143910831Y-92477040D01*
X143951561Y-92454938D01*
X144018486Y-92433603D01*
X144094260Y-92426240D01*
X144170034Y-92433603D01*
G37*
G36*
X144586470Y-93330000D02*
G01*
X144586470Y-93192918D01*
X144750174Y-93055776D01*
X144822423Y-92991522D01*
X144880294Y-92934754D01*
X144930488Y-92877518D01*
X144965657Y-92827042D01*
X144989295Y-92775804D01*
X144996432Y-92731238D01*
X144992076Y-92692684D01*
X144980201Y-92663870D01*
X144961444Y-92642395D01*
X144936631Y-92626972D01*
X144905904Y-92617208D01*
X144867716Y-92613696D01*
X144820856Y-92620216D01*
X144778872Y-92639586D01*
X144702608Y-92697655D01*
X144575296Y-92568939D01*
X144647348Y-92505314D01*
X144684088Y-92480351D01*
X144722147Y-92460556D01*
X144762248Y-92445365D01*
X144804701Y-92434666D01*
X144849395Y-92428449D01*
X144901299Y-92426240D01*
X144970648Y-92431652D01*
X145032091Y-92447245D01*
X145087986Y-92472768D01*
X145134185Y-92505985D01*
X145171998Y-92547579D01*
X145200619Y-92597637D01*
X145218316Y-92653657D01*
X145224433Y-92717255D01*
X145218336Y-92770013D01*
X145199214Y-92825638D01*
X145170387Y-92879864D01*
X145132109Y-92935486D01*
X145087927Y-92988867D01*
X145037648Y-93041793D01*
X144930669Y-93139734D01*
X145012491Y-93132041D01*
X145090160Y-93128560D01*
X145269190Y-93128560D01*
X145269190Y-93330000D01*
X144586470Y-93330000D01*
G37*
G36*
X145747479Y-93346791D02*
G01*
X145671576Y-93342469D01*
X145606588Y-93330283D01*
X145550924Y-93311132D01*
X145474179Y-93270040D01*
X145411706Y-93220884D01*
X145518073Y-93069759D01*
X145562929Y-93103191D01*
X145609665Y-93129965D01*
X145659251Y-93147798D01*
X145711086Y-93153717D01*
X145757041Y-93150196D01*
X145793221Y-93140565D01*
X145821606Y-93125751D01*
X145843755Y-93104255D01*
X145857326Y-93076069D01*
X145862212Y-93038984D01*
X145857384Y-93002857D01*
X145843861Y-92974864D01*
X145821606Y-92953011D01*
X145793321Y-92937384D01*
X145760574Y-92927707D01*
X145722322Y-92924312D01*
X145686601Y-92926388D01*
X145655826Y-92932677D01*
X145624380Y-92945317D01*
X145585179Y-92966261D01*
X145481681Y-92899094D01*
X145504030Y-92443032D01*
X146063651Y-92443032D01*
X146063651Y-92644471D01*
X145711086Y-92644471D01*
X145699912Y-92773187D01*
X145749555Y-92762013D01*
X145797854Y-92759204D01*
X145857059Y-92763443D01*
X145913258Y-92775996D01*
X145965617Y-92797207D01*
X146010467Y-92826371D01*
X146047984Y-92864148D01*
X146077634Y-92911734D01*
X146096233Y-92966520D01*
X146102852Y-93033428D01*
X146099445Y-93082145D01*
X146089565Y-93126213D01*
X146073482Y-93166357D01*
X146039024Y-93220615D01*
X145995141Y-93264970D01*
X145942803Y-93299868D01*
X145881812Y-93325847D01*
X145816320Y-93341513D01*
X145747479Y-93346791D01*
G37*
G36*
X147522868Y-92424177D02*
G01*
X147590291Y-92434605D01*
X147653472Y-92453858D01*
X147706428Y-92482172D01*
X147750697Y-92521176D01*
X147785441Y-92572419D01*
X147801162Y-92611292D01*
X147811253Y-92658104D01*
X147814872Y-92714446D01*
X147810017Y-92778708D01*
X147796419Y-92832163D01*
X147775000Y-92876746D01*
X147745358Y-92916541D01*
X147709861Y-92949951D01*
X147667960Y-92977435D01*
X147865247Y-93330000D01*
X147596580Y-93330000D01*
X147439898Y-93025001D01*
X147353192Y-93025001D01*
X147353192Y-93330000D01*
X147112552Y-93330000D01*
X147112552Y-92834736D01*
X147353192Y-92834736D01*
X147434342Y-92834736D01*
X147491583Y-92828853D01*
X147531045Y-92813431D01*
X147557598Y-92790130D01*
X147573907Y-92758152D01*
X147579849Y-92714446D01*
X147575159Y-92677250D01*
X147562590Y-92651207D01*
X147542725Y-92633297D01*
X147516936Y-92621714D01*
X147481691Y-92613852D01*
X147434342Y-92610887D01*
X147353192Y-92610887D01*
X147353192Y-92834736D01*
X147112552Y-92834736D01*
X147112552Y-92420622D01*
X147451133Y-92420622D01*
X147522868Y-92424177D01*
G37*
G36*
X148386380Y-92620687D02*
G01*
X148451919Y-92640319D01*
X148509641Y-92672146D01*
X148556149Y-92713042D01*
X148592702Y-92762777D01*
X148619103Y-92820753D01*
X148634763Y-92883824D01*
X148640108Y-92952278D01*
X148636566Y-93012423D01*
X148630277Y-93052967D01*
X148181175Y-93052967D01*
X148195346Y-93089502D01*
X148215775Y-93117459D01*
X148242725Y-93138330D01*
X148274666Y-93152354D01*
X148315063Y-93161534D01*
X148365884Y-93164891D01*
X148407400Y-93162270D01*
X148447705Y-93154450D01*
X148487975Y-93141751D01*
X148533740Y-93122943D01*
X148612081Y-93265642D01*
X148546347Y-93300973D01*
X148473595Y-93326519D01*
X148398947Y-93341944D01*
X148332301Y-93346791D01*
X148251605Y-93340548D01*
X148177695Y-93322306D01*
X148109943Y-93291889D01*
X148053192Y-93250987D01*
X148006639Y-93199122D01*
X147970638Y-93135582D01*
X147954255Y-93088982D01*
X147944110Y-93037465D01*
X147940596Y-92980244D01*
X147944173Y-92924000D01*
X147949802Y-92896285D01*
X148182580Y-92896285D01*
X148427433Y-92896285D01*
X148413799Y-92850433D01*
X148391292Y-92820351D01*
X148359608Y-92802192D01*
X148315509Y-92795596D01*
X148267304Y-92802216D01*
X148230660Y-92820668D01*
X148202684Y-92851052D01*
X148182580Y-92896285D01*
X147949802Y-92896285D01*
X147954541Y-92872956D01*
X147971371Y-92826371D01*
X148007622Y-92762659D01*
X148053192Y-92710966D01*
X148107911Y-92669613D01*
X148170673Y-92638914D01*
X148238171Y-92619976D01*
X148307144Y-92613696D01*
X148386380Y-92620687D01*
G37*
G36*
X148995237Y-93330000D02*
G01*
X148743422Y-92630488D01*
X148984063Y-92630488D01*
X149074982Y-92935486D01*
X149103620Y-93042526D01*
X149132318Y-93153717D01*
X149137936Y-93153717D01*
X149166573Y-93042526D01*
X149195272Y-92935486D01*
X149286252Y-92630488D01*
X149515657Y-92630488D01*
X149272269Y-93330000D01*
X148995237Y-93330000D01*
G37*
G36*
X149968789Y-93346791D02*
G01*
X149929438Y-93343200D01*
X149894600Y-93332808D01*
X149863288Y-93315915D01*
X149837203Y-93293668D01*
X149816112Y-93266622D01*
X149800139Y-93235600D01*
X149790253Y-93201739D01*
X149786889Y-93164891D01*
X149790253Y-93128105D01*
X149800139Y-93094305D01*
X149816150Y-93063361D01*
X149837203Y-93036908D01*
X149863214Y-93015048D01*
X149894600Y-92997768D01*
X149929474Y-92986824D01*
X149968789Y-92983053D01*
X150008050Y-92986823D01*
X150042916Y-92997768D01*
X150074292Y-93015051D01*
X150100252Y-93036908D01*
X150121340Y-93063368D01*
X150137316Y-93094305D01*
X150147249Y-93128108D01*
X150150628Y-93164891D01*
X150147249Y-93201736D01*
X150137316Y-93235600D01*
X150121378Y-93266616D01*
X150100252Y-93293668D01*
X150074217Y-93315912D01*
X150042916Y-93332808D01*
X150008087Y-93343202D01*
X149968789Y-93346791D01*
G37*
G36*
X151328244Y-93330000D02*
G01*
X151328244Y-93136926D01*
X151560458Y-93136926D01*
X151560458Y-92678054D01*
X151364576Y-92678054D01*
X151364576Y-92529738D01*
X151448534Y-92514412D01*
X151514968Y-92495483D01*
X151570961Y-92472402D01*
X151624816Y-92443032D01*
X151801099Y-92443032D01*
X151801099Y-93136926D01*
X151991364Y-93136926D01*
X151991364Y-93330000D01*
X151328244Y-93330000D01*
G37*
X115256265Y-93324800D02*
X115399122Y-93372419D01*
X115399122Y-93372419D02*
X115637217Y-93372419D01*
X115637217Y-93372419D02*
X115732455Y-93324800D01*
X115732455Y-93324800D02*
X115780074Y-93277180D01*
X115780074Y-93277180D02*
X115827693Y-93181942D01*
X115827693Y-93181942D02*
X115827693Y-93086704D01*
X115827693Y-93086704D02*
X115780074Y-92991466D01*
X115780074Y-92991466D02*
X115732455Y-92943847D01*
X115732455Y-92943847D02*
X115637217Y-92896228D01*
X115637217Y-92896228D02*
X115446741Y-92848609D01*
X115446741Y-92848609D02*
X115351503Y-92800990D01*
X115351503Y-92800990D02*
X115303884Y-92753371D01*
X115303884Y-92753371D02*
X115256265Y-92658133D01*
X115256265Y-92658133D02*
X115256265Y-92562895D01*
X115256265Y-92562895D02*
X115303884Y-92467657D01*
X115303884Y-92467657D02*
X115351503Y-92420038D01*
X115351503Y-92420038D02*
X115446741Y-92372419D01*
X115446741Y-92372419D02*
X115684836Y-92372419D01*
X115684836Y-92372419D02*
X115827693Y-92420038D01*
X149256265Y-73024800D02*
X149399122Y-73072419D01*
X149399122Y-73072419D02*
X149637217Y-73072419D01*
X149637217Y-73072419D02*
X149732455Y-73024800D01*
X149732455Y-73024800D02*
X149780074Y-72977180D01*
X149780074Y-72977180D02*
X149827693Y-72881942D01*
X149827693Y-72881942D02*
X149827693Y-72786704D01*
X149827693Y-72786704D02*
X149780074Y-72691466D01*
X149780074Y-72691466D02*
X149732455Y-72643847D01*
X149732455Y-72643847D02*
X149637217Y-72596228D01*
X149637217Y-72596228D02*
X149446741Y-72548609D01*
X149446741Y-72548609D02*
X149351503Y-72500990D01*
X149351503Y-72500990D02*
X149303884Y-72453371D01*
X149303884Y-72453371D02*
X149256265Y-72358133D01*
X149256265Y-72358133D02*
X149256265Y-72262895D01*
X149256265Y-72262895D02*
X149303884Y-72167657D01*
X149303884Y-72167657D02*
X149351503Y-72120038D01*
X149351503Y-72120038D02*
X149446741Y-72072419D01*
X149446741Y-72072419D02*
X149684836Y-72072419D01*
X149684836Y-72072419D02*
X149827693Y-72120038D01*
X140339598Y-108622419D02*
X140339598Y-109336704D01*
X140339598Y-109336704D02*
X140291979Y-109479561D01*
X140291979Y-109479561D02*
X140196741Y-109574800D01*
X140196741Y-109574800D02*
X140053884Y-109622419D01*
X140053884Y-109622419D02*
X139958646Y-109622419D01*
X141291979Y-109622419D02*
X140815789Y-109622419D01*
X140815789Y-109622419D02*
X140815789Y-108622419D01*
X142196741Y-109527180D02*
X142149122Y-109574800D01*
X142149122Y-109574800D02*
X142006265Y-109622419D01*
X142006265Y-109622419D02*
X141911027Y-109622419D01*
X141911027Y-109622419D02*
X141768170Y-109574800D01*
X141768170Y-109574800D02*
X141672932Y-109479561D01*
X141672932Y-109479561D02*
X141625313Y-109384323D01*
X141625313Y-109384323D02*
X141577694Y-109193847D01*
X141577694Y-109193847D02*
X141577694Y-109050990D01*
X141577694Y-109050990D02*
X141625313Y-108860514D01*
X141625313Y-108860514D02*
X141672932Y-108765276D01*
X141672932Y-108765276D02*
X141768170Y-108670038D01*
X141768170Y-108670038D02*
X141911027Y-108622419D01*
X141911027Y-108622419D02*
X142006265Y-108622419D01*
X142006265Y-108622419D02*
X142149122Y-108670038D01*
X142149122Y-108670038D02*
X142196741Y-108717657D01*
X142911027Y-108622419D02*
X142911027Y-109336704D01*
X142911027Y-109336704D02*
X142863408Y-109479561D01*
X142863408Y-109479561D02*
X142768170Y-109574800D01*
X142768170Y-109574800D02*
X142625313Y-109622419D01*
X142625313Y-109622419D02*
X142530075Y-109622419D01*
X143863408Y-109622419D02*
X143387218Y-109622419D01*
X143387218Y-109622419D02*
X143387218Y-108622419D01*
X144768170Y-109527180D02*
X144720551Y-109574800D01*
X144720551Y-109574800D02*
X144577694Y-109622419D01*
X144577694Y-109622419D02*
X144482456Y-109622419D01*
X144482456Y-109622419D02*
X144339599Y-109574800D01*
X144339599Y-109574800D02*
X144244361Y-109479561D01*
X144244361Y-109479561D02*
X144196742Y-109384323D01*
X144196742Y-109384323D02*
X144149123Y-109193847D01*
X144149123Y-109193847D02*
X144149123Y-109050990D01*
X144149123Y-109050990D02*
X144196742Y-108860514D01*
X144196742Y-108860514D02*
X144244361Y-108765276D01*
X144244361Y-108765276D02*
X144339599Y-108670038D01*
X144339599Y-108670038D02*
X144482456Y-108622419D01*
X144482456Y-108622419D02*
X144577694Y-108622419D01*
X144577694Y-108622419D02*
X144720551Y-108670038D01*
X144720551Y-108670038D02*
X144768170Y-108717657D01*
X145482456Y-108622419D02*
X145482456Y-109336704D01*
X145482456Y-109336704D02*
X145434837Y-109479561D01*
X145434837Y-109479561D02*
X145339599Y-109574800D01*
X145339599Y-109574800D02*
X145196742Y-109622419D01*
X145196742Y-109622419D02*
X145101504Y-109622419D01*
X146434837Y-109622419D02*
X145958647Y-109622419D01*
X145958647Y-109622419D02*
X145958647Y-108622419D01*
X147339599Y-109527180D02*
X147291980Y-109574800D01*
X147291980Y-109574800D02*
X147149123Y-109622419D01*
X147149123Y-109622419D02*
X147053885Y-109622419D01*
X147053885Y-109622419D02*
X146911028Y-109574800D01*
X146911028Y-109574800D02*
X146815790Y-109479561D01*
X146815790Y-109479561D02*
X146768171Y-109384323D01*
X146768171Y-109384323D02*
X146720552Y-109193847D01*
X146720552Y-109193847D02*
X146720552Y-109050990D01*
X146720552Y-109050990D02*
X146768171Y-108860514D01*
X146768171Y-108860514D02*
X146815790Y-108765276D01*
X146815790Y-108765276D02*
X146911028Y-108670038D01*
X146911028Y-108670038D02*
X147053885Y-108622419D01*
X147053885Y-108622419D02*
X147149123Y-108622419D01*
X147149123Y-108622419D02*
X147291980Y-108670038D01*
X147291980Y-108670038D02*
X147339599Y-108717657D01*
X148053885Y-108622419D02*
X148053885Y-109336704D01*
X148053885Y-109336704D02*
X148006266Y-109479561D01*
X148006266Y-109479561D02*
X147911028Y-109574800D01*
X147911028Y-109574800D02*
X147768171Y-109622419D01*
X147768171Y-109622419D02*
X147672933Y-109622419D01*
X149006266Y-109622419D02*
X148530076Y-109622419D01*
X148530076Y-109622419D02*
X148530076Y-108622419D01*
X149911028Y-109527180D02*
X149863409Y-109574800D01*
X149863409Y-109574800D02*
X149720552Y-109622419D01*
X149720552Y-109622419D02*
X149625314Y-109622419D01*
X149625314Y-109622419D02*
X149482457Y-109574800D01*
X149482457Y-109574800D02*
X149387219Y-109479561D01*
X149387219Y-109479561D02*
X149339600Y-109384323D01*
X149339600Y-109384323D02*
X149291981Y-109193847D01*
X149291981Y-109193847D02*
X149291981Y-109050990D01*
X149291981Y-109050990D02*
X149339600Y-108860514D01*
X149339600Y-108860514D02*
X149387219Y-108765276D01*
X149387219Y-108765276D02*
X149482457Y-108670038D01*
X149482457Y-108670038D02*
X149625314Y-108622419D01*
X149625314Y-108622419D02*
X149720552Y-108622419D01*
X149720552Y-108622419D02*
X149863409Y-108670038D01*
X149863409Y-108670038D02*
X149911028Y-108717657D01*
X115053884Y-95491466D02*
X115815789Y-95491466D01*
X115434836Y-95872419D02*
X115434836Y-95110514D01*
X115896115Y-90508533D02*
X115134211Y-90508533D01*
X174391466Y-93446115D02*
X174391466Y-92684211D01*
X144703884Y-74241466D02*
X145465789Y-74241466D01*
X153803884Y-74991466D02*
X154565789Y-74991466D01*
X140303884Y-72491466D02*
X141065789Y-72491466D01*
X140684836Y-72872419D02*
X140684836Y-72110514D01*
X156553884Y-74991466D02*
X157315789Y-74991466D01*
X156934836Y-75372419D02*
X156934836Y-74610514D01*
X132803884Y-74741466D02*
X133565789Y-74741466D01*
X133184836Y-75122419D02*
X133184836Y-74360514D01*
X143053884Y-74741466D02*
X143815789Y-74741466D01*
X140661027Y-74122419D02*
X141232455Y-74122419D01*
X140946741Y-75122419D02*
X140946741Y-74122419D01*
X141565789Y-75122419D02*
X141565789Y-74122419D01*
X141565789Y-74122419D02*
X141946741Y-74122419D01*
X141946741Y-74122419D02*
X142041979Y-74170038D01*
X142041979Y-74170038D02*
X142089598Y-74217657D01*
X142089598Y-74217657D02*
X142137217Y-74312895D01*
X142137217Y-74312895D02*
X142137217Y-74455752D01*
X142137217Y-74455752D02*
X142089598Y-74550990D01*
X142089598Y-74550990D02*
X142041979Y-74598609D01*
X142041979Y-74598609D02*
X141946741Y-74646228D01*
X141946741Y-74646228D02*
X141565789Y-74646228D01*
X137506265Y-75074800D02*
X137649122Y-75122419D01*
X137649122Y-75122419D02*
X137887217Y-75122419D01*
X137887217Y-75122419D02*
X137982455Y-75074800D01*
X137982455Y-75074800D02*
X138030074Y-75027180D01*
X138030074Y-75027180D02*
X138077693Y-74931942D01*
X138077693Y-74931942D02*
X138077693Y-74836704D01*
X138077693Y-74836704D02*
X138030074Y-74741466D01*
X138030074Y-74741466D02*
X137982455Y-74693847D01*
X137982455Y-74693847D02*
X137887217Y-74646228D01*
X137887217Y-74646228D02*
X137696741Y-74598609D01*
X137696741Y-74598609D02*
X137601503Y-74550990D01*
X137601503Y-74550990D02*
X137553884Y-74503371D01*
X137553884Y-74503371D02*
X137506265Y-74408133D01*
X137506265Y-74408133D02*
X137506265Y-74312895D01*
X137506265Y-74312895D02*
X137553884Y-74217657D01*
X137553884Y-74217657D02*
X137601503Y-74170038D01*
X137601503Y-74170038D02*
X137696741Y-74122419D01*
X137696741Y-74122419D02*
X137934836Y-74122419D01*
X137934836Y-74122419D02*
X138077693Y-74170038D01*
X138506265Y-75122419D02*
X138506265Y-74122419D01*
X138506265Y-74122419D02*
X138744360Y-74122419D01*
X138744360Y-74122419D02*
X138887217Y-74170038D01*
X138887217Y-74170038D02*
X138982455Y-74265276D01*
X138982455Y-74265276D02*
X139030074Y-74360514D01*
X139030074Y-74360514D02*
X139077693Y-74550990D01*
X139077693Y-74550990D02*
X139077693Y-74693847D01*
X139077693Y-74693847D02*
X139030074Y-74884323D01*
X139030074Y-74884323D02*
X138982455Y-74979561D01*
X138982455Y-74979561D02*
X138887217Y-75074800D01*
X138887217Y-75074800D02*
X138744360Y-75122419D01*
X138744360Y-75122419D02*
X138506265Y-75122419D01*
X139458646Y-74836704D02*
X139934836Y-74836704D01*
X139363408Y-75122419D02*
X139696741Y-74122419D01*
X139696741Y-74122419D02*
X140030074Y-75122419D01*
X134506265Y-75074800D02*
X134649122Y-75122419D01*
X134649122Y-75122419D02*
X134887217Y-75122419D01*
X134887217Y-75122419D02*
X134982455Y-75074800D01*
X134982455Y-75074800D02*
X135030074Y-75027180D01*
X135030074Y-75027180D02*
X135077693Y-74931942D01*
X135077693Y-74931942D02*
X135077693Y-74836704D01*
X135077693Y-74836704D02*
X135030074Y-74741466D01*
X135030074Y-74741466D02*
X134982455Y-74693847D01*
X134982455Y-74693847D02*
X134887217Y-74646228D01*
X134887217Y-74646228D02*
X134696741Y-74598609D01*
X134696741Y-74598609D02*
X134601503Y-74550990D01*
X134601503Y-74550990D02*
X134553884Y-74503371D01*
X134553884Y-74503371D02*
X134506265Y-74408133D01*
X134506265Y-74408133D02*
X134506265Y-74312895D01*
X134506265Y-74312895D02*
X134553884Y-74217657D01*
X134553884Y-74217657D02*
X134601503Y-74170038D01*
X134601503Y-74170038D02*
X134696741Y-74122419D01*
X134696741Y-74122419D02*
X134934836Y-74122419D01*
X134934836Y-74122419D02*
X135077693Y-74170038D01*
X136077693Y-75027180D02*
X136030074Y-75074800D01*
X136030074Y-75074800D02*
X135887217Y-75122419D01*
X135887217Y-75122419D02*
X135791979Y-75122419D01*
X135791979Y-75122419D02*
X135649122Y-75074800D01*
X135649122Y-75074800D02*
X135553884Y-74979561D01*
X135553884Y-74979561D02*
X135506265Y-74884323D01*
X135506265Y-74884323D02*
X135458646Y-74693847D01*
X135458646Y-74693847D02*
X135458646Y-74550990D01*
X135458646Y-74550990D02*
X135506265Y-74360514D01*
X135506265Y-74360514D02*
X135553884Y-74265276D01*
X135553884Y-74265276D02*
X135649122Y-74170038D01*
X135649122Y-74170038D02*
X135791979Y-74122419D01*
X135791979Y-74122419D02*
X135887217Y-74122419D01*
X135887217Y-74122419D02*
X136030074Y-74170038D01*
X136030074Y-74170038D02*
X136077693Y-74217657D01*
X136982455Y-75122419D02*
X136506265Y-75122419D01*
X136506265Y-75122419D02*
X136506265Y-74122419D01*
X174053884Y-90491466D02*
X174815789Y-90491466D01*
X174434836Y-90872419D02*
X174434836Y-90110514D01*
D12*
X127288152Y-110095714D02*
X127954819Y-110095714D01*
X126907200Y-110333809D02*
X127621485Y-110571904D01*
X127621485Y-110571904D02*
X127621485Y-109952857D01*
X126954819Y-109667142D02*
X126954819Y-109000476D01*
X126954819Y-109000476D02*
X127954819Y-109429047D01*
X127954819Y-108048095D02*
X127478628Y-108381428D01*
X127954819Y-108619523D02*
X126954819Y-108619523D01*
X126954819Y-108619523D02*
X126954819Y-108238571D01*
X126954819Y-108238571D02*
X127002438Y-108143333D01*
X127002438Y-108143333D02*
X127050057Y-108095714D01*
X127050057Y-108095714D02*
X127145295Y-108048095D01*
X127145295Y-108048095D02*
X127288152Y-108048095D01*
X127288152Y-108048095D02*
X127383390Y-108095714D01*
X127383390Y-108095714D02*
X127431009Y-108143333D01*
X127431009Y-108143333D02*
X127478628Y-108238571D01*
X127478628Y-108238571D02*
X127478628Y-108619523D01*
X166209524Y-104769104D02*
X166685714Y-104769104D01*
X166114286Y-105054819D02*
X166447619Y-104054819D01*
X166447619Y-104054819D02*
X166780952Y-105054819D01*
X167114286Y-105054819D02*
X167114286Y-104054819D01*
X167114286Y-104054819D02*
X167447619Y-104769104D01*
X167447619Y-104769104D02*
X167780952Y-104054819D01*
X167780952Y-104054819D02*
X167780952Y-105054819D01*
X168209524Y-105007200D02*
X168352381Y-105054819D01*
X168352381Y-105054819D02*
X168590476Y-105054819D01*
X168590476Y-105054819D02*
X168685714Y-105007200D01*
X168685714Y-105007200D02*
X168733333Y-104959580D01*
X168733333Y-104959580D02*
X168780952Y-104864342D01*
X168780952Y-104864342D02*
X168780952Y-104769104D01*
X168780952Y-104769104D02*
X168733333Y-104673866D01*
X168733333Y-104673866D02*
X168685714Y-104626247D01*
X168685714Y-104626247D02*
X168590476Y-104578628D01*
X168590476Y-104578628D02*
X168400000Y-104531009D01*
X168400000Y-104531009D02*
X168304762Y-104483390D01*
X168304762Y-104483390D02*
X168257143Y-104435771D01*
X168257143Y-104435771D02*
X168209524Y-104340533D01*
X168209524Y-104340533D02*
X168209524Y-104245295D01*
X168209524Y-104245295D02*
X168257143Y-104150057D01*
X168257143Y-104150057D02*
X168304762Y-104102438D01*
X168304762Y-104102438D02*
X168400000Y-104054819D01*
X168400000Y-104054819D02*
X168638095Y-104054819D01*
X168638095Y-104054819D02*
X168780952Y-104102438D01*
X169733333Y-105054819D02*
X169161905Y-105054819D01*
X169447619Y-105054819D02*
X169447619Y-104054819D01*
X169447619Y-104054819D02*
X169352381Y-104197676D01*
X169352381Y-104197676D02*
X169257143Y-104292914D01*
X169257143Y-104292914D02*
X169161905Y-104340533D01*
X170685714Y-105054819D02*
X170114286Y-105054819D01*
X170400000Y-105054819D02*
X170400000Y-104054819D01*
X170400000Y-104054819D02*
X170304762Y-104197676D01*
X170304762Y-104197676D02*
X170209524Y-104292914D01*
X170209524Y-104292914D02*
X170114286Y-104340533D01*
X171638095Y-105054819D02*
X171066667Y-105054819D01*
X171352381Y-105054819D02*
X171352381Y-104054819D01*
X171352381Y-104054819D02*
X171257143Y-104197676D01*
X171257143Y-104197676D02*
X171161905Y-104292914D01*
X171161905Y-104292914D02*
X171066667Y-104340533D01*
X171971429Y-104054819D02*
X172638095Y-104054819D01*
X172638095Y-104054819D02*
X172209524Y-105054819D01*
X153261905Y-81454819D02*
X153261905Y-80454819D01*
X154309523Y-81454819D02*
X153976190Y-80978628D01*
X153738095Y-81454819D02*
X153738095Y-80454819D01*
X153738095Y-80454819D02*
X154119047Y-80454819D01*
X154119047Y-80454819D02*
X154214285Y-80502438D01*
X154214285Y-80502438D02*
X154261904Y-80550057D01*
X154261904Y-80550057D02*
X154309523Y-80645295D01*
X154309523Y-80645295D02*
X154309523Y-80788152D01*
X154309523Y-80788152D02*
X154261904Y-80883390D01*
X154261904Y-80883390D02*
X154214285Y-80931009D01*
X154214285Y-80931009D02*
X154119047Y-80978628D01*
X154119047Y-80978628D02*
X153738095Y-80978628D01*
X154928571Y-80454819D02*
X155119047Y-80454819D01*
X155119047Y-80454819D02*
X155214285Y-80502438D01*
X155214285Y-80502438D02*
X155309523Y-80597676D01*
X155309523Y-80597676D02*
X155357142Y-80788152D01*
X155357142Y-80788152D02*
X155357142Y-81121485D01*
X155357142Y-81121485D02*
X155309523Y-81311961D01*
X155309523Y-81311961D02*
X155214285Y-81407200D01*
X155214285Y-81407200D02*
X155119047Y-81454819D01*
X155119047Y-81454819D02*
X154928571Y-81454819D01*
X154928571Y-81454819D02*
X154833333Y-81407200D01*
X154833333Y-81407200D02*
X154738095Y-81311961D01*
X154738095Y-81311961D02*
X154690476Y-81121485D01*
X154690476Y-81121485D02*
X154690476Y-80788152D01*
X154690476Y-80788152D02*
X154738095Y-80597676D01*
X154738095Y-80597676D02*
X154833333Y-80502438D01*
X154833333Y-80502438D02*
X154928571Y-80454819D01*
X156214285Y-80788152D02*
X156214285Y-81454819D01*
X155785714Y-80788152D02*
X155785714Y-81311961D01*
X155785714Y-81311961D02*
X155833333Y-81407200D01*
X155833333Y-81407200D02*
X155928571Y-81454819D01*
X155928571Y-81454819D02*
X156071428Y-81454819D01*
X156071428Y-81454819D02*
X156166666Y-81407200D01*
X156166666Y-81407200D02*
X156214285Y-81359580D01*
X156547619Y-80788152D02*
X156928571Y-80788152D01*
X156690476Y-80454819D02*
X156690476Y-81311961D01*
X156690476Y-81311961D02*
X156738095Y-81407200D01*
X156738095Y-81407200D02*
X156833333Y-81454819D01*
X156833333Y-81454819D02*
X156928571Y-81454819D01*
X157785714Y-81454819D02*
X157214286Y-81454819D01*
X157500000Y-81454819D02*
X157500000Y-80454819D01*
X157500000Y-80454819D02*
X157404762Y-80597676D01*
X157404762Y-80597676D02*
X157309524Y-80692914D01*
X157309524Y-80692914D02*
X157214286Y-80740533D01*
X168157200Y-94988095D02*
X168204819Y-94845238D01*
X168204819Y-94845238D02*
X168204819Y-94607143D01*
X168204819Y-94607143D02*
X168157200Y-94511905D01*
X168157200Y-94511905D02*
X168109580Y-94464286D01*
X168109580Y-94464286D02*
X168014342Y-94416667D01*
X168014342Y-94416667D02*
X167919104Y-94416667D01*
X167919104Y-94416667D02*
X167823866Y-94464286D01*
X167823866Y-94464286D02*
X167776247Y-94511905D01*
X167776247Y-94511905D02*
X167728628Y-94607143D01*
X167728628Y-94607143D02*
X167681009Y-94797619D01*
X167681009Y-94797619D02*
X167633390Y-94892857D01*
X167633390Y-94892857D02*
X167585771Y-94940476D01*
X167585771Y-94940476D02*
X167490533Y-94988095D01*
X167490533Y-94988095D02*
X167395295Y-94988095D01*
X167395295Y-94988095D02*
X167300057Y-94940476D01*
X167300057Y-94940476D02*
X167252438Y-94892857D01*
X167252438Y-94892857D02*
X167204819Y-94797619D01*
X167204819Y-94797619D02*
X167204819Y-94559524D01*
X167204819Y-94559524D02*
X167252438Y-94416667D01*
X167538152Y-93988095D02*
X168538152Y-93988095D01*
X167585771Y-93988095D02*
X167538152Y-93892857D01*
X167538152Y-93892857D02*
X167538152Y-93702381D01*
X167538152Y-93702381D02*
X167585771Y-93607143D01*
X167585771Y-93607143D02*
X167633390Y-93559524D01*
X167633390Y-93559524D02*
X167728628Y-93511905D01*
X167728628Y-93511905D02*
X168014342Y-93511905D01*
X168014342Y-93511905D02*
X168109580Y-93559524D01*
X168109580Y-93559524D02*
X168157200Y-93607143D01*
X168157200Y-93607143D02*
X168204819Y-93702381D01*
X168204819Y-93702381D02*
X168204819Y-93892857D01*
X168204819Y-93892857D02*
X168157200Y-93988095D01*
X168157200Y-92702381D02*
X168204819Y-92797619D01*
X168204819Y-92797619D02*
X168204819Y-92988095D01*
X168204819Y-92988095D02*
X168157200Y-93083333D01*
X168157200Y-93083333D02*
X168061961Y-93130952D01*
X168061961Y-93130952D02*
X167681009Y-93130952D01*
X167681009Y-93130952D02*
X167585771Y-93083333D01*
X167585771Y-93083333D02*
X167538152Y-92988095D01*
X167538152Y-92988095D02*
X167538152Y-92797619D01*
X167538152Y-92797619D02*
X167585771Y-92702381D01*
X167585771Y-92702381D02*
X167681009Y-92654762D01*
X167681009Y-92654762D02*
X167776247Y-92654762D01*
X167776247Y-92654762D02*
X167871485Y-93130952D01*
X168204819Y-91797619D02*
X167681009Y-91797619D01*
X167681009Y-91797619D02*
X167585771Y-91845238D01*
X167585771Y-91845238D02*
X167538152Y-91940476D01*
X167538152Y-91940476D02*
X167538152Y-92130952D01*
X167538152Y-92130952D02*
X167585771Y-92226190D01*
X168157200Y-91797619D02*
X168204819Y-91892857D01*
X168204819Y-91892857D02*
X168204819Y-92130952D01*
X168204819Y-92130952D02*
X168157200Y-92226190D01*
X168157200Y-92226190D02*
X168061961Y-92273809D01*
X168061961Y-92273809D02*
X167966723Y-92273809D01*
X167966723Y-92273809D02*
X167871485Y-92226190D01*
X167871485Y-92226190D02*
X167823866Y-92130952D01*
X167823866Y-92130952D02*
X167823866Y-91892857D01*
X167823866Y-91892857D02*
X167776247Y-91797619D01*
X168204819Y-91321428D02*
X167204819Y-91321428D01*
X167823866Y-91226190D02*
X168204819Y-90940476D01*
X167538152Y-90940476D02*
X167919104Y-91321428D01*
X168157200Y-90130952D02*
X168204819Y-90226190D01*
X168204819Y-90226190D02*
X168204819Y-90416666D01*
X168204819Y-90416666D02*
X168157200Y-90511904D01*
X168157200Y-90511904D02*
X168061961Y-90559523D01*
X168061961Y-90559523D02*
X167681009Y-90559523D01*
X167681009Y-90559523D02*
X167585771Y-90511904D01*
X167585771Y-90511904D02*
X167538152Y-90416666D01*
X167538152Y-90416666D02*
X167538152Y-90226190D01*
X167538152Y-90226190D02*
X167585771Y-90130952D01*
X167585771Y-90130952D02*
X167681009Y-90083333D01*
X167681009Y-90083333D02*
X167776247Y-90083333D01*
X167776247Y-90083333D02*
X167871485Y-90559523D01*
X168204819Y-89654761D02*
X167538152Y-89654761D01*
X167728628Y-89654761D02*
X167633390Y-89607142D01*
X167633390Y-89607142D02*
X167585771Y-89559523D01*
X167585771Y-89559523D02*
X167538152Y-89464285D01*
X167538152Y-89464285D02*
X167538152Y-89369047D01*
X168204819Y-88511904D02*
X168204819Y-89083332D01*
X168204819Y-88797618D02*
X167204819Y-88797618D01*
X167204819Y-88797618D02*
X167347676Y-88892856D01*
X167347676Y-88892856D02*
X167442914Y-88988094D01*
X167442914Y-88988094D02*
X167490533Y-89083332D01*
X124991905Y-115704819D02*
X124991905Y-114704819D01*
X124991905Y-114704819D02*
X125230000Y-114704819D01*
X125230000Y-114704819D02*
X125372857Y-114752438D01*
X125372857Y-114752438D02*
X125468095Y-114847676D01*
X125468095Y-114847676D02*
X125515714Y-114942914D01*
X125515714Y-114942914D02*
X125563333Y-115133390D01*
X125563333Y-115133390D02*
X125563333Y-115276247D01*
X125563333Y-115276247D02*
X125515714Y-115466723D01*
X125515714Y-115466723D02*
X125468095Y-115561961D01*
X125468095Y-115561961D02*
X125372857Y-115657200D01*
X125372857Y-115657200D02*
X125230000Y-115704819D01*
X125230000Y-115704819D02*
X124991905Y-115704819D01*
X125896667Y-114704819D02*
X126515714Y-114704819D01*
X126515714Y-114704819D02*
X126182381Y-115085771D01*
X126182381Y-115085771D02*
X126325238Y-115085771D01*
X126325238Y-115085771D02*
X126420476Y-115133390D01*
X126420476Y-115133390D02*
X126468095Y-115181009D01*
X126468095Y-115181009D02*
X126515714Y-115276247D01*
X126515714Y-115276247D02*
X126515714Y-115514342D01*
X126515714Y-115514342D02*
X126468095Y-115609580D01*
X126468095Y-115609580D02*
X126420476Y-115657200D01*
X126420476Y-115657200D02*
X126325238Y-115704819D01*
X126325238Y-115704819D02*
X126039524Y-115704819D01*
X126039524Y-115704819D02*
X125944286Y-115657200D01*
X125944286Y-115657200D02*
X125896667Y-115609580D01*
X163491905Y-115744819D02*
X163491905Y-114744819D01*
X163491905Y-114744819D02*
X163730000Y-114744819D01*
X163730000Y-114744819D02*
X163872857Y-114792438D01*
X163872857Y-114792438D02*
X163968095Y-114887676D01*
X163968095Y-114887676D02*
X164015714Y-114982914D01*
X164015714Y-114982914D02*
X164063333Y-115173390D01*
X164063333Y-115173390D02*
X164063333Y-115316247D01*
X164063333Y-115316247D02*
X164015714Y-115506723D01*
X164015714Y-115506723D02*
X163968095Y-115601961D01*
X163968095Y-115601961D02*
X163872857Y-115697200D01*
X163872857Y-115697200D02*
X163730000Y-115744819D01*
X163730000Y-115744819D02*
X163491905Y-115744819D01*
X164444286Y-114840057D02*
X164491905Y-114792438D01*
X164491905Y-114792438D02*
X164587143Y-114744819D01*
X164587143Y-114744819D02*
X164825238Y-114744819D01*
X164825238Y-114744819D02*
X164920476Y-114792438D01*
X164920476Y-114792438D02*
X164968095Y-114840057D01*
X164968095Y-114840057D02*
X165015714Y-114935295D01*
X165015714Y-114935295D02*
X165015714Y-115030533D01*
X165015714Y-115030533D02*
X164968095Y-115173390D01*
X164968095Y-115173390D02*
X164396667Y-115744819D01*
X164396667Y-115744819D02*
X165015714Y-115744819D01*
X124991905Y-86204819D02*
X124991905Y-85204819D01*
X124991905Y-85204819D02*
X125230000Y-85204819D01*
X125230000Y-85204819D02*
X125372857Y-85252438D01*
X125372857Y-85252438D02*
X125468095Y-85347676D01*
X125468095Y-85347676D02*
X125515714Y-85442914D01*
X125515714Y-85442914D02*
X125563333Y-85633390D01*
X125563333Y-85633390D02*
X125563333Y-85776247D01*
X125563333Y-85776247D02*
X125515714Y-85966723D01*
X125515714Y-85966723D02*
X125468095Y-86061961D01*
X125468095Y-86061961D02*
X125372857Y-86157200D01*
X125372857Y-86157200D02*
X125230000Y-86204819D01*
X125230000Y-86204819D02*
X124991905Y-86204819D01*
X126420476Y-85538152D02*
X126420476Y-86204819D01*
X126182381Y-85157200D02*
X125944286Y-85871485D01*
X125944286Y-85871485D02*
X126563333Y-85871485D01*
X163491905Y-85164819D02*
X163491905Y-84164819D01*
X163491905Y-84164819D02*
X163730000Y-84164819D01*
X163730000Y-84164819D02*
X163872857Y-84212438D01*
X163872857Y-84212438D02*
X163968095Y-84307676D01*
X163968095Y-84307676D02*
X164015714Y-84402914D01*
X164015714Y-84402914D02*
X164063333Y-84593390D01*
X164063333Y-84593390D02*
X164063333Y-84736247D01*
X164063333Y-84736247D02*
X164015714Y-84926723D01*
X164015714Y-84926723D02*
X163968095Y-85021961D01*
X163968095Y-85021961D02*
X163872857Y-85117200D01*
X163872857Y-85117200D02*
X163730000Y-85164819D01*
X163730000Y-85164819D02*
X163491905Y-85164819D01*
X165015714Y-85164819D02*
X164444286Y-85164819D01*
X164730000Y-85164819D02*
X164730000Y-84164819D01*
X164730000Y-84164819D02*
X164634762Y-84307676D01*
X164634762Y-84307676D02*
X164539524Y-84402914D01*
X164539524Y-84402914D02*
X164444286Y-84450533D01*
X116654762Y-110419104D02*
X117130952Y-110419104D01*
X116559524Y-110704819D02*
X116892857Y-109704819D01*
X116892857Y-109704819D02*
X117226190Y-110704819D01*
X117750000Y-109704819D02*
X117940476Y-109704819D01*
X117940476Y-109704819D02*
X118035714Y-109752438D01*
X118035714Y-109752438D02*
X118130952Y-109847676D01*
X118130952Y-109847676D02*
X118178571Y-110038152D01*
X118178571Y-110038152D02*
X118178571Y-110371485D01*
X118178571Y-110371485D02*
X118130952Y-110561961D01*
X118130952Y-110561961D02*
X118035714Y-110657200D01*
X118035714Y-110657200D02*
X117940476Y-110704819D01*
X117940476Y-110704819D02*
X117750000Y-110704819D01*
X117750000Y-110704819D02*
X117654762Y-110657200D01*
X117654762Y-110657200D02*
X117559524Y-110561961D01*
X117559524Y-110561961D02*
X117511905Y-110371485D01*
X117511905Y-110371485D02*
X117511905Y-110038152D01*
X117511905Y-110038152D02*
X117559524Y-109847676D01*
X117559524Y-109847676D02*
X117654762Y-109752438D01*
X117654762Y-109752438D02*
X117750000Y-109704819D01*
X118511905Y-109704819D02*
X119130952Y-109704819D01*
X119130952Y-109704819D02*
X118797619Y-110085771D01*
X118797619Y-110085771D02*
X118940476Y-110085771D01*
X118940476Y-110085771D02*
X119035714Y-110133390D01*
X119035714Y-110133390D02*
X119083333Y-110181009D01*
X119083333Y-110181009D02*
X119130952Y-110276247D01*
X119130952Y-110276247D02*
X119130952Y-110514342D01*
X119130952Y-110514342D02*
X119083333Y-110609580D01*
X119083333Y-110609580D02*
X119035714Y-110657200D01*
X119035714Y-110657200D02*
X118940476Y-110704819D01*
X118940476Y-110704819D02*
X118654762Y-110704819D01*
X118654762Y-110704819D02*
X118559524Y-110657200D01*
X118559524Y-110657200D02*
X118511905Y-110609580D01*
X119988095Y-110038152D02*
X119988095Y-110704819D01*
X119750000Y-109657200D02*
X119511905Y-110371485D01*
X119511905Y-110371485D02*
X120130952Y-110371485D01*
X120702381Y-109704819D02*
X120797619Y-109704819D01*
X120797619Y-109704819D02*
X120892857Y-109752438D01*
X120892857Y-109752438D02*
X120940476Y-109800057D01*
X120940476Y-109800057D02*
X120988095Y-109895295D01*
X120988095Y-109895295D02*
X121035714Y-110085771D01*
X121035714Y-110085771D02*
X121035714Y-110323866D01*
X121035714Y-110323866D02*
X120988095Y-110514342D01*
X120988095Y-110514342D02*
X120940476Y-110609580D01*
X120940476Y-110609580D02*
X120892857Y-110657200D01*
X120892857Y-110657200D02*
X120797619Y-110704819D01*
X120797619Y-110704819D02*
X120702381Y-110704819D01*
X120702381Y-110704819D02*
X120607143Y-110657200D01*
X120607143Y-110657200D02*
X120559524Y-110609580D01*
X120559524Y-110609580D02*
X120511905Y-110514342D01*
X120511905Y-110514342D02*
X120464286Y-110323866D01*
X120464286Y-110323866D02*
X120464286Y-110085771D01*
X120464286Y-110085771D02*
X120511905Y-109895295D01*
X120511905Y-109895295D02*
X120559524Y-109800057D01*
X120559524Y-109800057D02*
X120607143Y-109752438D01*
X120607143Y-109752438D02*
X120702381Y-109704819D01*
X121654762Y-109704819D02*
X121750000Y-109704819D01*
X121750000Y-109704819D02*
X121845238Y-109752438D01*
X121845238Y-109752438D02*
X121892857Y-109800057D01*
X121892857Y-109800057D02*
X121940476Y-109895295D01*
X121940476Y-109895295D02*
X121988095Y-110085771D01*
X121988095Y-110085771D02*
X121988095Y-110323866D01*
X121988095Y-110323866D02*
X121940476Y-110514342D01*
X121940476Y-110514342D02*
X121892857Y-110609580D01*
X121892857Y-110609580D02*
X121845238Y-110657200D01*
X121845238Y-110657200D02*
X121750000Y-110704819D01*
X121750000Y-110704819D02*
X121654762Y-110704819D01*
X121654762Y-110704819D02*
X121559524Y-110657200D01*
X121559524Y-110657200D02*
X121511905Y-110609580D01*
X121511905Y-110609580D02*
X121464286Y-110514342D01*
X121464286Y-110514342D02*
X121416667Y-110323866D01*
X121416667Y-110323866D02*
X121416667Y-110085771D01*
X121416667Y-110085771D02*
X121464286Y-109895295D01*
X121464286Y-109895295D02*
X121511905Y-109800057D01*
X121511905Y-109800057D02*
X121559524Y-109752438D01*
X121559524Y-109752438D02*
X121654762Y-109704819D01*
X122369048Y-110419104D02*
X122845238Y-110419104D01*
X122273810Y-110704819D02*
X122607143Y-109704819D01*
X122607143Y-109704819D02*
X122940476Y-110704819D01*
X162954819Y-110952857D02*
X162954819Y-111524285D01*
X162954819Y-111238571D02*
X161954819Y-111238571D01*
X161954819Y-111238571D02*
X162097676Y-111333809D01*
X162097676Y-111333809D02*
X162192914Y-111429047D01*
X162192914Y-111429047D02*
X162240533Y-111524285D01*
X161954819Y-110333809D02*
X161954819Y-110238571D01*
X161954819Y-110238571D02*
X162002438Y-110143333D01*
X162002438Y-110143333D02*
X162050057Y-110095714D01*
X162050057Y-110095714D02*
X162145295Y-110048095D01*
X162145295Y-110048095D02*
X162335771Y-110000476D01*
X162335771Y-110000476D02*
X162573866Y-110000476D01*
X162573866Y-110000476D02*
X162764342Y-110048095D01*
X162764342Y-110048095D02*
X162859580Y-110095714D01*
X162859580Y-110095714D02*
X162907200Y-110143333D01*
X162907200Y-110143333D02*
X162954819Y-110238571D01*
X162954819Y-110238571D02*
X162954819Y-110333809D01*
X162954819Y-110333809D02*
X162907200Y-110429047D01*
X162907200Y-110429047D02*
X162859580Y-110476666D01*
X162859580Y-110476666D02*
X162764342Y-110524285D01*
X162764342Y-110524285D02*
X162573866Y-110571904D01*
X162573866Y-110571904D02*
X162335771Y-110571904D01*
X162335771Y-110571904D02*
X162145295Y-110524285D01*
X162145295Y-110524285D02*
X162050057Y-110476666D01*
X162050057Y-110476666D02*
X162002438Y-110429047D01*
X162002438Y-110429047D02*
X161954819Y-110333809D01*
X161954819Y-109381428D02*
X161954819Y-109286190D01*
X161954819Y-109286190D02*
X162002438Y-109190952D01*
X162002438Y-109190952D02*
X162050057Y-109143333D01*
X162050057Y-109143333D02*
X162145295Y-109095714D01*
X162145295Y-109095714D02*
X162335771Y-109048095D01*
X162335771Y-109048095D02*
X162573866Y-109048095D01*
X162573866Y-109048095D02*
X162764342Y-109095714D01*
X162764342Y-109095714D02*
X162859580Y-109143333D01*
X162859580Y-109143333D02*
X162907200Y-109190952D01*
X162907200Y-109190952D02*
X162954819Y-109286190D01*
X162954819Y-109286190D02*
X162954819Y-109381428D01*
X162954819Y-109381428D02*
X162907200Y-109476666D01*
X162907200Y-109476666D02*
X162859580Y-109524285D01*
X162859580Y-109524285D02*
X162764342Y-109571904D01*
X162764342Y-109571904D02*
X162573866Y-109619523D01*
X162573866Y-109619523D02*
X162335771Y-109619523D01*
X162335771Y-109619523D02*
X162145295Y-109571904D01*
X162145295Y-109571904D02*
X162050057Y-109524285D01*
X162050057Y-109524285D02*
X162002438Y-109476666D01*
X162002438Y-109476666D02*
X161954819Y-109381428D01*
X161954819Y-108429047D02*
X161954819Y-108333809D01*
X161954819Y-108333809D02*
X162002438Y-108238571D01*
X162002438Y-108238571D02*
X162050057Y-108190952D01*
X162050057Y-108190952D02*
X162145295Y-108143333D01*
X162145295Y-108143333D02*
X162335771Y-108095714D01*
X162335771Y-108095714D02*
X162573866Y-108095714D01*
X162573866Y-108095714D02*
X162764342Y-108143333D01*
X162764342Y-108143333D02*
X162859580Y-108190952D01*
X162859580Y-108190952D02*
X162907200Y-108238571D01*
X162907200Y-108238571D02*
X162954819Y-108333809D01*
X162954819Y-108333809D02*
X162954819Y-108429047D01*
X162954819Y-108429047D02*
X162907200Y-108524285D01*
X162907200Y-108524285D02*
X162859580Y-108571904D01*
X162859580Y-108571904D02*
X162764342Y-108619523D01*
X162764342Y-108619523D02*
X162573866Y-108667142D01*
X162573866Y-108667142D02*
X162335771Y-108667142D01*
X162335771Y-108667142D02*
X162145295Y-108619523D01*
X162145295Y-108619523D02*
X162050057Y-108571904D01*
X162050057Y-108571904D02*
X162002438Y-108524285D01*
X162002438Y-108524285D02*
X161954819Y-108429047D01*
X162954819Y-107095714D02*
X162478628Y-107429047D01*
X162954819Y-107667142D02*
X161954819Y-107667142D01*
X161954819Y-107667142D02*
X161954819Y-107286190D01*
X161954819Y-107286190D02*
X162002438Y-107190952D01*
X162002438Y-107190952D02*
X162050057Y-107143333D01*
X162050057Y-107143333D02*
X162145295Y-107095714D01*
X162145295Y-107095714D02*
X162288152Y-107095714D01*
X162288152Y-107095714D02*
X162383390Y-107143333D01*
X162383390Y-107143333D02*
X162431009Y-107190952D01*
X162431009Y-107190952D02*
X162478628Y-107286190D01*
X162478628Y-107286190D02*
X162478628Y-107667142D01*
X122204819Y-96428571D02*
X121204819Y-96428571D01*
X121204819Y-96428571D02*
X122204819Y-95857143D01*
X122204819Y-95857143D02*
X121204819Y-95857143D01*
X122157200Y-95000000D02*
X122204819Y-95095238D01*
X122204819Y-95095238D02*
X122204819Y-95285714D01*
X122204819Y-95285714D02*
X122157200Y-95380952D01*
X122157200Y-95380952D02*
X122061961Y-95428571D01*
X122061961Y-95428571D02*
X121681009Y-95428571D01*
X121681009Y-95428571D02*
X121585771Y-95380952D01*
X121585771Y-95380952D02*
X121538152Y-95285714D01*
X121538152Y-95285714D02*
X121538152Y-95095238D01*
X121538152Y-95095238D02*
X121585771Y-95000000D01*
X121585771Y-95000000D02*
X121681009Y-94952381D01*
X121681009Y-94952381D02*
X121776247Y-94952381D01*
X121776247Y-94952381D02*
X121871485Y-95428571D01*
X122204819Y-94380952D02*
X122157200Y-94476190D01*
X122157200Y-94476190D02*
X122109580Y-94523809D01*
X122109580Y-94523809D02*
X122014342Y-94571428D01*
X122014342Y-94571428D02*
X121728628Y-94571428D01*
X121728628Y-94571428D02*
X121633390Y-94523809D01*
X121633390Y-94523809D02*
X121585771Y-94476190D01*
X121585771Y-94476190D02*
X121538152Y-94380952D01*
X121538152Y-94380952D02*
X121538152Y-94238095D01*
X121538152Y-94238095D02*
X121585771Y-94142857D01*
X121585771Y-94142857D02*
X121633390Y-94095238D01*
X121633390Y-94095238D02*
X121728628Y-94047619D01*
X121728628Y-94047619D02*
X122014342Y-94047619D01*
X122014342Y-94047619D02*
X122109580Y-94095238D01*
X122109580Y-94095238D02*
X122157200Y-94142857D01*
X122157200Y-94142857D02*
X122204819Y-94238095D01*
X122204819Y-94238095D02*
X122204819Y-94380952D01*
X121538152Y-93619047D02*
X122538152Y-93619047D01*
X121585771Y-93619047D02*
X121538152Y-93523809D01*
X121538152Y-93523809D02*
X121538152Y-93333333D01*
X121538152Y-93333333D02*
X121585771Y-93238095D01*
X121585771Y-93238095D02*
X121633390Y-93190476D01*
X121633390Y-93190476D02*
X121728628Y-93142857D01*
X121728628Y-93142857D02*
X122014342Y-93142857D01*
X122014342Y-93142857D02*
X122109580Y-93190476D01*
X122109580Y-93190476D02*
X122157200Y-93238095D01*
X122157200Y-93238095D02*
X122204819Y-93333333D01*
X122204819Y-93333333D02*
X122204819Y-93523809D01*
X122204819Y-93523809D02*
X122157200Y-93619047D01*
X122204819Y-92714285D02*
X121538152Y-92714285D01*
X121204819Y-92714285D02*
X121252438Y-92761904D01*
X121252438Y-92761904D02*
X121300057Y-92714285D01*
X121300057Y-92714285D02*
X121252438Y-92666666D01*
X121252438Y-92666666D02*
X121204819Y-92714285D01*
X121204819Y-92714285D02*
X121300057Y-92714285D01*
X122204819Y-92333333D02*
X121538152Y-91809524D01*
X121538152Y-92333333D02*
X122204819Y-91809524D01*
X122157200Y-91047619D02*
X122204819Y-91142857D01*
X122204819Y-91142857D02*
X122204819Y-91333333D01*
X122204819Y-91333333D02*
X122157200Y-91428571D01*
X122157200Y-91428571D02*
X122061961Y-91476190D01*
X122061961Y-91476190D02*
X121681009Y-91476190D01*
X121681009Y-91476190D02*
X121585771Y-91428571D01*
X121585771Y-91428571D02*
X121538152Y-91333333D01*
X121538152Y-91333333D02*
X121538152Y-91142857D01*
X121538152Y-91142857D02*
X121585771Y-91047619D01*
X121585771Y-91047619D02*
X121681009Y-91000000D01*
X121681009Y-91000000D02*
X121776247Y-91000000D01*
X121776247Y-91000000D02*
X121871485Y-91476190D01*
X122204819Y-90428571D02*
X122157200Y-90523809D01*
X122157200Y-90523809D02*
X122061961Y-90571428D01*
X122061961Y-90571428D02*
X121204819Y-90571428D01*
X122204819Y-89523809D02*
X122204819Y-90095237D01*
X122204819Y-89809523D02*
X121204819Y-89809523D01*
X121204819Y-89809523D02*
X121347676Y-89904761D01*
X121347676Y-89904761D02*
X121442914Y-89999999D01*
X121442914Y-89999999D02*
X121490533Y-90095237D01*
X143214286Y-69954819D02*
X143785714Y-69954819D01*
X143500000Y-70954819D02*
X143500000Y-69954819D01*
X144071429Y-70907200D02*
X144214286Y-70954819D01*
X144214286Y-70954819D02*
X144452381Y-70954819D01*
X144452381Y-70954819D02*
X144547619Y-70907200D01*
X144547619Y-70907200D02*
X144595238Y-70859580D01*
X144595238Y-70859580D02*
X144642857Y-70764342D01*
X144642857Y-70764342D02*
X144642857Y-70669104D01*
X144642857Y-70669104D02*
X144595238Y-70573866D01*
X144595238Y-70573866D02*
X144547619Y-70526247D01*
X144547619Y-70526247D02*
X144452381Y-70478628D01*
X144452381Y-70478628D02*
X144261905Y-70431009D01*
X144261905Y-70431009D02*
X144166667Y-70383390D01*
X144166667Y-70383390D02*
X144119048Y-70335771D01*
X144119048Y-70335771D02*
X144071429Y-70240533D01*
X144071429Y-70240533D02*
X144071429Y-70145295D01*
X144071429Y-70145295D02*
X144119048Y-70050057D01*
X144119048Y-70050057D02*
X144166667Y-70002438D01*
X144166667Y-70002438D02*
X144261905Y-69954819D01*
X144261905Y-69954819D02*
X144500000Y-69954819D01*
X144500000Y-69954819D02*
X144642857Y-70002438D01*
X145261905Y-69954819D02*
X145452381Y-69954819D01*
X145452381Y-69954819D02*
X145547619Y-70002438D01*
X145547619Y-70002438D02*
X145642857Y-70097676D01*
X145642857Y-70097676D02*
X145690476Y-70288152D01*
X145690476Y-70288152D02*
X145690476Y-70621485D01*
X145690476Y-70621485D02*
X145642857Y-70811961D01*
X145642857Y-70811961D02*
X145547619Y-70907200D01*
X145547619Y-70907200D02*
X145452381Y-70954819D01*
X145452381Y-70954819D02*
X145261905Y-70954819D01*
X145261905Y-70954819D02*
X145166667Y-70907200D01*
X145166667Y-70907200D02*
X145071429Y-70811961D01*
X145071429Y-70811961D02*
X145023810Y-70621485D01*
X145023810Y-70621485D02*
X145023810Y-70288152D01*
X145023810Y-70288152D02*
X145071429Y-70097676D01*
X145071429Y-70097676D02*
X145166667Y-70002438D01*
X145166667Y-70002438D02*
X145261905Y-69954819D01*
X146119048Y-70954819D02*
X146119048Y-69954819D01*
X146119048Y-69954819D02*
X146500000Y-69954819D01*
X146500000Y-69954819D02*
X146595238Y-70002438D01*
X146595238Y-70002438D02*
X146642857Y-70050057D01*
X146642857Y-70050057D02*
X146690476Y-70145295D01*
X146690476Y-70145295D02*
X146690476Y-70288152D01*
X146690476Y-70288152D02*
X146642857Y-70383390D01*
X146642857Y-70383390D02*
X146595238Y-70431009D01*
X146595238Y-70431009D02*
X146500000Y-70478628D01*
X146500000Y-70478628D02*
X146119048Y-70478628D01*
X134250000Y-81454819D02*
X134250000Y-80454819D01*
X134250000Y-80454819D02*
X134488095Y-80454819D01*
X134488095Y-80454819D02*
X134630952Y-80502438D01*
X134630952Y-80502438D02*
X134726190Y-80597676D01*
X134726190Y-80597676D02*
X134773809Y-80692914D01*
X134773809Y-80692914D02*
X134821428Y-80883390D01*
X134821428Y-80883390D02*
X134821428Y-81026247D01*
X134821428Y-81026247D02*
X134773809Y-81216723D01*
X134773809Y-81216723D02*
X134726190Y-81311961D01*
X134726190Y-81311961D02*
X134630952Y-81407200D01*
X134630952Y-81407200D02*
X134488095Y-81454819D01*
X134488095Y-81454819D02*
X134250000Y-81454819D01*
X135250000Y-81454819D02*
X135250000Y-80788152D01*
X135250000Y-80454819D02*
X135202381Y-80502438D01*
X135202381Y-80502438D02*
X135250000Y-80550057D01*
X135250000Y-80550057D02*
X135297619Y-80502438D01*
X135297619Y-80502438D02*
X135250000Y-80454819D01*
X135250000Y-80454819D02*
X135250000Y-80550057D01*
X135678571Y-81407200D02*
X135773809Y-81454819D01*
X135773809Y-81454819D02*
X135964285Y-81454819D01*
X135964285Y-81454819D02*
X136059523Y-81407200D01*
X136059523Y-81407200D02*
X136107142Y-81311961D01*
X136107142Y-81311961D02*
X136107142Y-81264342D01*
X136107142Y-81264342D02*
X136059523Y-81169104D01*
X136059523Y-81169104D02*
X135964285Y-81121485D01*
X135964285Y-81121485D02*
X135821428Y-81121485D01*
X135821428Y-81121485D02*
X135726190Y-81073866D01*
X135726190Y-81073866D02*
X135678571Y-80978628D01*
X135678571Y-80978628D02*
X135678571Y-80931009D01*
X135678571Y-80931009D02*
X135726190Y-80835771D01*
X135726190Y-80835771D02*
X135821428Y-80788152D01*
X135821428Y-80788152D02*
X135964285Y-80788152D01*
X135964285Y-80788152D02*
X136059523Y-80835771D01*
X136535714Y-80788152D02*
X136535714Y-81788152D01*
X136535714Y-80835771D02*
X136630952Y-80788152D01*
X136630952Y-80788152D02*
X136821428Y-80788152D01*
X136821428Y-80788152D02*
X136916666Y-80835771D01*
X136916666Y-80835771D02*
X136964285Y-80883390D01*
X136964285Y-80883390D02*
X137011904Y-80978628D01*
X137011904Y-80978628D02*
X137011904Y-81264342D01*
X137011904Y-81264342D02*
X136964285Y-81359580D01*
X136964285Y-81359580D02*
X136916666Y-81407200D01*
X136916666Y-81407200D02*
X136821428Y-81454819D01*
X136821428Y-81454819D02*
X136630952Y-81454819D01*
X136630952Y-81454819D02*
X136535714Y-81407200D01*
X137297619Y-80454819D02*
X137869047Y-80454819D01*
X137583333Y-81454819D02*
X137583333Y-80454819D01*
X138345238Y-81454819D02*
X138250000Y-81407200D01*
X138250000Y-81407200D02*
X138202381Y-81359580D01*
X138202381Y-81359580D02*
X138154762Y-81264342D01*
X138154762Y-81264342D02*
X138154762Y-80978628D01*
X138154762Y-80978628D02*
X138202381Y-80883390D01*
X138202381Y-80883390D02*
X138250000Y-80835771D01*
X138250000Y-80835771D02*
X138345238Y-80788152D01*
X138345238Y-80788152D02*
X138488095Y-80788152D01*
X138488095Y-80788152D02*
X138583333Y-80835771D01*
X138583333Y-80835771D02*
X138630952Y-80883390D01*
X138630952Y-80883390D02*
X138678571Y-80978628D01*
X138678571Y-80978628D02*
X138678571Y-81264342D01*
X138678571Y-81264342D02*
X138630952Y-81359580D01*
X138630952Y-81359580D02*
X138583333Y-81407200D01*
X138583333Y-81407200D02*
X138488095Y-81454819D01*
X138488095Y-81454819D02*
X138345238Y-81454819D01*
X139535714Y-80788152D02*
X139535714Y-81454819D01*
X139107143Y-80788152D02*
X139107143Y-81311961D01*
X139107143Y-81311961D02*
X139154762Y-81407200D01*
X139154762Y-81407200D02*
X139250000Y-81454819D01*
X139250000Y-81454819D02*
X139392857Y-81454819D01*
X139392857Y-81454819D02*
X139488095Y-81407200D01*
X139488095Y-81407200D02*
X139535714Y-81359580D01*
X140440476Y-81407200D02*
X140345238Y-81454819D01*
X140345238Y-81454819D02*
X140154762Y-81454819D01*
X140154762Y-81454819D02*
X140059524Y-81407200D01*
X140059524Y-81407200D02*
X140011905Y-81359580D01*
X140011905Y-81359580D02*
X139964286Y-81264342D01*
X139964286Y-81264342D02*
X139964286Y-80978628D01*
X139964286Y-80978628D02*
X140011905Y-80883390D01*
X140011905Y-80883390D02*
X140059524Y-80835771D01*
X140059524Y-80835771D02*
X140154762Y-80788152D01*
X140154762Y-80788152D02*
X140345238Y-80788152D01*
X140345238Y-80788152D02*
X140440476Y-80835771D01*
X140869048Y-81454819D02*
X140869048Y-80454819D01*
X141297619Y-81454819D02*
X141297619Y-80931009D01*
X141297619Y-80931009D02*
X141250000Y-80835771D01*
X141250000Y-80835771D02*
X141154762Y-80788152D01*
X141154762Y-80788152D02*
X141011905Y-80788152D01*
X141011905Y-80788152D02*
X140916667Y-80835771D01*
X140916667Y-80835771D02*
X140869048Y-80883390D01*
X142297619Y-81454819D02*
X141726191Y-81454819D01*
X142011905Y-81454819D02*
X142011905Y-80454819D01*
X142011905Y-80454819D02*
X141916667Y-80597676D01*
X141916667Y-80597676D02*
X141821429Y-80692914D01*
X141821429Y-80692914D02*
X141726191Y-80740533D01*
X175454819Y-103119047D02*
X174454819Y-103119047D01*
X174454819Y-103119047D02*
X174454819Y-102738095D01*
X174454819Y-102738095D02*
X174502438Y-102642857D01*
X174502438Y-102642857D02*
X174550057Y-102595238D01*
X174550057Y-102595238D02*
X174645295Y-102547619D01*
X174645295Y-102547619D02*
X174788152Y-102547619D01*
X174788152Y-102547619D02*
X174883390Y-102595238D01*
X174883390Y-102595238D02*
X174931009Y-102642857D01*
X174931009Y-102642857D02*
X174978628Y-102738095D01*
X174978628Y-102738095D02*
X174978628Y-103119047D01*
X175454819Y-102119047D02*
X174454819Y-102119047D01*
X174454819Y-102119047D02*
X175454819Y-101547619D01*
X175454819Y-101547619D02*
X174454819Y-101547619D01*
X174550057Y-101119047D02*
X174502438Y-101071428D01*
X174502438Y-101071428D02*
X174454819Y-100976190D01*
X174454819Y-100976190D02*
X174454819Y-100738095D01*
X174454819Y-100738095D02*
X174502438Y-100642857D01*
X174502438Y-100642857D02*
X174550057Y-100595238D01*
X174550057Y-100595238D02*
X174645295Y-100547619D01*
X174645295Y-100547619D02*
X174740533Y-100547619D01*
X174740533Y-100547619D02*
X174883390Y-100595238D01*
X174883390Y-100595238D02*
X175454819Y-101166666D01*
X175454819Y-101166666D02*
X175454819Y-100547619D01*
X174550057Y-100166666D02*
X174502438Y-100119047D01*
X174502438Y-100119047D02*
X174454819Y-100023809D01*
X174454819Y-100023809D02*
X174454819Y-99785714D01*
X174454819Y-99785714D02*
X174502438Y-99690476D01*
X174502438Y-99690476D02*
X174550057Y-99642857D01*
X174550057Y-99642857D02*
X174645295Y-99595238D01*
X174645295Y-99595238D02*
X174740533Y-99595238D01*
X174740533Y-99595238D02*
X174883390Y-99642857D01*
X174883390Y-99642857D02*
X175454819Y-100214285D01*
X175454819Y-100214285D02*
X175454819Y-99595238D01*
X174550057Y-99214285D02*
X174502438Y-99166666D01*
X174502438Y-99166666D02*
X174454819Y-99071428D01*
X174454819Y-99071428D02*
X174454819Y-98833333D01*
X174454819Y-98833333D02*
X174502438Y-98738095D01*
X174502438Y-98738095D02*
X174550057Y-98690476D01*
X174550057Y-98690476D02*
X174645295Y-98642857D01*
X174645295Y-98642857D02*
X174740533Y-98642857D01*
X174740533Y-98642857D02*
X174883390Y-98690476D01*
X174883390Y-98690476D02*
X175454819Y-99261904D01*
X175454819Y-99261904D02*
X175454819Y-98642857D01*
X174550057Y-98261904D02*
X174502438Y-98214285D01*
X174502438Y-98214285D02*
X174454819Y-98119047D01*
X174454819Y-98119047D02*
X174454819Y-97880952D01*
X174454819Y-97880952D02*
X174502438Y-97785714D01*
X174502438Y-97785714D02*
X174550057Y-97738095D01*
X174550057Y-97738095D02*
X174645295Y-97690476D01*
X174645295Y-97690476D02*
X174740533Y-97690476D01*
X174740533Y-97690476D02*
X174883390Y-97738095D01*
X174883390Y-97738095D02*
X175454819Y-98309523D01*
X175454819Y-98309523D02*
X175454819Y-97690476D01*
X175169104Y-97309523D02*
X175169104Y-96833333D01*
X175454819Y-97404761D02*
X174454819Y-97071428D01*
X174454819Y-97071428D02*
X175454819Y-96738095D01*
X140142858Y-126454819D02*
X140380953Y-127454819D01*
X140380953Y-127454819D02*
X140571429Y-126740533D01*
X140571429Y-126740533D02*
X140761905Y-127454819D01*
X140761905Y-127454819D02*
X141000001Y-126454819D01*
X141761905Y-127407200D02*
X141666667Y-127454819D01*
X141666667Y-127454819D02*
X141476191Y-127454819D01*
X141476191Y-127454819D02*
X141380953Y-127407200D01*
X141380953Y-127407200D02*
X141333334Y-127311961D01*
X141333334Y-127311961D02*
X141333334Y-126931009D01*
X141333334Y-126931009D02*
X141380953Y-126835771D01*
X141380953Y-126835771D02*
X141476191Y-126788152D01*
X141476191Y-126788152D02*
X141666667Y-126788152D01*
X141666667Y-126788152D02*
X141761905Y-126835771D01*
X141761905Y-126835771D02*
X141809524Y-126931009D01*
X141809524Y-126931009D02*
X141809524Y-127026247D01*
X141809524Y-127026247D02*
X141333334Y-127121485D01*
X142238096Y-127454819D02*
X142238096Y-126788152D01*
X142238096Y-126883390D02*
X142285715Y-126835771D01*
X142285715Y-126835771D02*
X142380953Y-126788152D01*
X142380953Y-126788152D02*
X142523810Y-126788152D01*
X142523810Y-126788152D02*
X142619048Y-126835771D01*
X142619048Y-126835771D02*
X142666667Y-126931009D01*
X142666667Y-126931009D02*
X142666667Y-127454819D01*
X142666667Y-126931009D02*
X142714286Y-126835771D01*
X142714286Y-126835771D02*
X142809524Y-126788152D01*
X142809524Y-126788152D02*
X142952381Y-126788152D01*
X142952381Y-126788152D02*
X143047620Y-126835771D01*
X143047620Y-126835771D02*
X143095239Y-126931009D01*
X143095239Y-126931009D02*
X143095239Y-127454819D01*
X143714286Y-127454819D02*
X143619048Y-127407200D01*
X143619048Y-127407200D02*
X143571429Y-127359580D01*
X143571429Y-127359580D02*
X143523810Y-127264342D01*
X143523810Y-127264342D02*
X143523810Y-126978628D01*
X143523810Y-126978628D02*
X143571429Y-126883390D01*
X143571429Y-126883390D02*
X143619048Y-126835771D01*
X143619048Y-126835771D02*
X143714286Y-126788152D01*
X143714286Y-126788152D02*
X143857143Y-126788152D01*
X143857143Y-126788152D02*
X143952381Y-126835771D01*
X143952381Y-126835771D02*
X144000000Y-126883390D01*
X144000000Y-126883390D02*
X144047619Y-126978628D01*
X144047619Y-126978628D02*
X144047619Y-127264342D01*
X144047619Y-127264342D02*
X144000000Y-127359580D01*
X144000000Y-127359580D02*
X143952381Y-127407200D01*
X143952381Y-127407200D02*
X143857143Y-127454819D01*
X143857143Y-127454819D02*
X143714286Y-127454819D01*
X144428572Y-127407200D02*
X144523810Y-127454819D01*
X144523810Y-127454819D02*
X144714286Y-127454819D01*
X144714286Y-127454819D02*
X144809524Y-127407200D01*
X144809524Y-127407200D02*
X144857143Y-127311961D01*
X144857143Y-127311961D02*
X144857143Y-127264342D01*
X144857143Y-127264342D02*
X144809524Y-127169104D01*
X144809524Y-127169104D02*
X144714286Y-127121485D01*
X144714286Y-127121485D02*
X144571429Y-127121485D01*
X144571429Y-127121485D02*
X144476191Y-127073866D01*
X144476191Y-127073866D02*
X144428572Y-126978628D01*
X144428572Y-126978628D02*
X144428572Y-126931009D01*
X144428572Y-126931009D02*
X144476191Y-126835771D01*
X144476191Y-126835771D02*
X144571429Y-126788152D01*
X144571429Y-126788152D02*
X144714286Y-126788152D01*
X144714286Y-126788152D02*
X144809524Y-126835771D01*
X145285715Y-127454819D02*
X145285715Y-126454819D01*
X145285715Y-126454819D02*
X145523810Y-126454819D01*
X145523810Y-126454819D02*
X145666667Y-126502438D01*
X145666667Y-126502438D02*
X145761905Y-126597676D01*
X145761905Y-126597676D02*
X145809524Y-126692914D01*
X145809524Y-126692914D02*
X145857143Y-126883390D01*
X145857143Y-126883390D02*
X145857143Y-127026247D01*
X145857143Y-127026247D02*
X145809524Y-127216723D01*
X145809524Y-127216723D02*
X145761905Y-127311961D01*
X145761905Y-127311961D02*
X145666667Y-127407200D01*
X145666667Y-127407200D02*
X145523810Y-127454819D01*
X145523810Y-127454819D02*
X145285715Y-127454819D01*
X146809524Y-127454819D02*
X146238096Y-127454819D01*
X146523810Y-127454819D02*
X146523810Y-126454819D01*
X146523810Y-126454819D02*
X146428572Y-126597676D01*
X146428572Y-126597676D02*
X146333334Y-126692914D01*
X146333334Y-126692914D02*
X146238096Y-126740533D01*
X147238096Y-127454819D02*
X147238096Y-126454819D01*
X147238096Y-126454819D02*
X147571429Y-127169104D01*
X147571429Y-127169104D02*
X147904762Y-126454819D01*
X147904762Y-126454819D02*
X147904762Y-127454819D01*
X148380953Y-127454819D02*
X148380953Y-126788152D01*
X148380953Y-126454819D02*
X148333334Y-126502438D01*
X148333334Y-126502438D02*
X148380953Y-126550057D01*
X148380953Y-126550057D02*
X148428572Y-126502438D01*
X148428572Y-126502438D02*
X148380953Y-126454819D01*
X148380953Y-126454819D02*
X148380953Y-126550057D01*
X148857143Y-126788152D02*
X148857143Y-127454819D01*
X148857143Y-126883390D02*
X148904762Y-126835771D01*
X148904762Y-126835771D02*
X149000000Y-126788152D01*
X149000000Y-126788152D02*
X149142857Y-126788152D01*
X149142857Y-126788152D02*
X149238095Y-126835771D01*
X149238095Y-126835771D02*
X149285714Y-126931009D01*
X149285714Y-126931009D02*
X149285714Y-127454819D01*
X149761905Y-127454819D02*
X149761905Y-126788152D01*
X149761905Y-126454819D02*
X149714286Y-126502438D01*
X149714286Y-126502438D02*
X149761905Y-126550057D01*
X149761905Y-126550057D02*
X149809524Y-126502438D01*
X149809524Y-126502438D02*
X149761905Y-126454819D01*
X149761905Y-126454819D02*
X149761905Y-126550057D01*
D13*
%TO.C,47R*%
X126130000Y-112580000D02*
X126130000Y-106040000D01*
X126460000Y-112580000D02*
X126130000Y-112580000D01*
X128540000Y-112580000D02*
X128870000Y-112580000D01*
X128870000Y-112580000D02*
X128870000Y-106040000D01*
X126130000Y-106040000D02*
X126460000Y-106040000D01*
X128870000Y-106040000D02*
X128540000Y-106040000D01*
%TO.C,AMS1117*%
X166270000Y-105790000D02*
X166030000Y-105460000D01*
X166510000Y-105460000D01*
X166270000Y-105790000D01*
G36*
X166270000Y-105790000D02*
G01*
X166030000Y-105460000D01*
X166510000Y-105460000D01*
X166270000Y-105790000D01*
G37*
X171310000Y-112510000D02*
X171310000Y-111250000D01*
X171310000Y-105690000D02*
X171310000Y-106950000D01*
X167550000Y-112510000D02*
X171310000Y-112510000D01*
X167550000Y-105690000D02*
X171310000Y-105690000D01*
%TO.C,IROut1*%
X151340000Y-77610000D02*
X151340000Y-80110000D01*
X151340000Y-80110000D02*
X153840000Y-80110000D01*
X151640000Y-75790000D02*
X151640000Y-79810000D01*
X151640000Y-77500000D02*
X152140000Y-77500000D01*
X151640000Y-78310000D02*
X152640000Y-78310000D01*
X151640000Y-79810000D02*
X159360000Y-79810000D01*
X152140000Y-76290000D02*
X158860000Y-76290000D01*
X152140000Y-77500000D02*
X152140000Y-76290000D01*
X152640000Y-78310000D02*
X152640000Y-79810000D01*
X158360000Y-78310000D02*
X158360000Y-79810000D01*
X158860000Y-76290000D02*
X158860000Y-77500000D01*
X158860000Y-77500000D02*
X159360000Y-77500000D01*
X159360000Y-75790000D02*
X151640000Y-75790000D01*
X159360000Y-78310000D02*
X158360000Y-78310000D01*
X159360000Y-79810000D02*
X159360000Y-75790000D01*
%TO.C,Speaker1*%
X169440000Y-95610000D02*
X173460000Y-95610000D01*
X170940000Y-95610000D02*
X170940000Y-94610000D01*
X173460000Y-95610000D02*
X173460000Y-87890000D01*
X171750000Y-95110000D02*
X171750000Y-95610000D01*
X172960000Y-95110000D02*
X171750000Y-95110000D01*
X170940000Y-94610000D02*
X169440000Y-94610000D01*
X170940000Y-88890000D02*
X169440000Y-88890000D01*
X171750000Y-88390000D02*
X172960000Y-88390000D01*
X172960000Y-88390000D02*
X172960000Y-95110000D01*
X169440000Y-87890000D02*
X169440000Y-95610000D01*
X170940000Y-87890000D02*
X170940000Y-88890000D01*
X171750000Y-87890000D02*
X171750000Y-88390000D01*
X173460000Y-87890000D02*
X169440000Y-87890000D01*
X169140000Y-87590000D02*
X169140000Y-90090000D01*
X171640000Y-87590000D02*
X169140000Y-87590000D01*
%TO.C,D3*%
X128290000Y-120795000D02*
X128290000Y-117705000D01*
X128290000Y-120794830D02*
G75*
G02*
X122740000Y-119250000I-2560000J1544830D01*
G01*
X122740000Y-119250000D02*
G75*
G02*
X128290000Y-117705170I2990000J0D01*
G01*
X128230000Y-119250000D02*
G75*
G02*
X123230000Y-119250000I-2500000J0D01*
G01*
X123230000Y-119250000D02*
G75*
G02*
X128230000Y-119250000I2500000J0D01*
G01*
%TO.C,D2*%
X161670000Y-117705000D02*
X161670000Y-120795000D01*
X161670000Y-117705170D02*
G75*
G02*
X167220000Y-119250000I2560000J-1544830D01*
G01*
X167220000Y-119250000D02*
G75*
G02*
X161670000Y-120794830I-2990000J0D01*
G01*
X166730000Y-119250000D02*
G75*
G02*
X161730000Y-119250000I-2500000J0D01*
G01*
X161730000Y-119250000D02*
G75*
G02*
X166730000Y-119250000I2500000J0D01*
G01*
%TO.C,D4*%
X123170000Y-79205000D02*
X123170000Y-82295000D01*
X123170000Y-79205170D02*
G75*
G02*
X128720000Y-80750000I2560000J-1544830D01*
G01*
X128720000Y-80750000D02*
G75*
G02*
X123170000Y-82294830I-2990000J0D01*
G01*
X128230000Y-80750000D02*
G75*
G02*
X123230000Y-80750000I-2500000J0D01*
G01*
X123230000Y-80750000D02*
G75*
G02*
X128230000Y-80750000I2500000J0D01*
G01*
%TO.C,D1*%
X166790000Y-82295000D02*
X166790000Y-79205000D01*
X166790000Y-82294830D02*
G75*
G02*
X161240000Y-80750000I-2560000J1544830D01*
G01*
X161240000Y-80750000D02*
G75*
G02*
X166790000Y-79205170I2990000J0D01*
G01*
X166730000Y-80750000D02*
G75*
G02*
X161730000Y-80750000I-2500000J0D01*
G01*
X161730000Y-80750000D02*
G75*
G02*
X166730000Y-80750000I2500000J0D01*
G01*
%TO.C,AO3400A*%
X120715000Y-108790000D02*
X120235000Y-108790000D01*
X120475000Y-108460000D01*
X120715000Y-108790000D01*
G36*
X120715000Y-108790000D02*
G01*
X120235000Y-108790000D01*
X120475000Y-108460000D01*
X120715000Y-108790000D01*
G37*
X119312500Y-108510000D02*
X118662500Y-108510000D01*
X119312500Y-108510000D02*
X119962500Y-108510000D01*
X119312500Y-105390000D02*
X118662500Y-105390000D01*
X119312500Y-105390000D02*
X119962500Y-105390000D01*
%TO.C,1000R*%
X161130000Y-112580000D02*
X161130000Y-106040000D01*
X161460000Y-112580000D02*
X161130000Y-112580000D01*
X163540000Y-112580000D02*
X163870000Y-112580000D01*
X163870000Y-112580000D02*
X163870000Y-106040000D01*
X161130000Y-106040000D02*
X161460000Y-106040000D01*
X163870000Y-106040000D02*
X163540000Y-106040000D01*
%TO.C,Neopixel1*%
X118360000Y-98410000D02*
X120860000Y-98410000D01*
X120860000Y-98410000D02*
X120860000Y-95910000D01*
X116540000Y-98110000D02*
X120560000Y-98110000D01*
X118250000Y-98110000D02*
X118250000Y-97610000D01*
X119060000Y-98110000D02*
X119060000Y-97110000D01*
X120560000Y-98110000D02*
X120560000Y-87890000D01*
X117040000Y-97610000D02*
X117040000Y-88390000D01*
X118250000Y-97610000D02*
X117040000Y-97610000D01*
X119060000Y-97110000D02*
X120560000Y-97110000D01*
X119060000Y-88890000D02*
X120560000Y-88890000D01*
X117040000Y-88390000D02*
X118250000Y-88390000D01*
X118250000Y-88390000D02*
X118250000Y-87890000D01*
X116540000Y-87890000D02*
X116540000Y-98110000D01*
X119060000Y-87890000D02*
X119060000Y-88890000D01*
X120560000Y-87890000D02*
X116540000Y-87890000D01*
%TO.C,TSOP*%
X147500000Y-70265000D02*
X147720000Y-70265000D01*
X141920000Y-73925000D02*
X145000000Y-73925000D01*
X141840000Y-70265000D02*
X142300000Y-70265000D01*
X141840000Y-70265000D02*
X141840000Y-71465000D01*
X142300000Y-70265000D02*
G75*
G02*
X147500000Y-70265000I2600000J-1100000D01*
G01*
%TO.C,DispTouch1*%
X130340000Y-77610000D02*
X130340000Y-80110000D01*
X130340000Y-80110000D02*
X132840000Y-80110000D01*
X130640000Y-75790000D02*
X130640000Y-79810000D01*
X130640000Y-77500000D02*
X131140000Y-77500000D01*
X130640000Y-78310000D02*
X131640000Y-78310000D01*
X130640000Y-79810000D02*
X145860000Y-79810000D01*
X131140000Y-76290000D02*
X145360000Y-76290000D01*
X131140000Y-77500000D02*
X131140000Y-76290000D01*
X131640000Y-78310000D02*
X131640000Y-79810000D01*
X144860000Y-78310000D02*
X144860000Y-79810000D01*
X145360000Y-76290000D02*
X145360000Y-77500000D01*
X145360000Y-77500000D02*
X145860000Y-77500000D01*
X145860000Y-75790000D02*
X130640000Y-75790000D01*
X145860000Y-78310000D02*
X144860000Y-78310000D01*
X145860000Y-79810000D02*
X145860000Y-75790000D01*
%TO.C,PN2222A*%
X169400000Y-98220000D02*
X169400000Y-101820000D01*
X169411522Y-98181522D02*
G75*
G02*
X173850001Y-100020000I1838478J-1838478D01*
G01*
X173850000Y-100020000D02*
G75*
G02*
X169411522Y-101858478I-2600000J0D01*
G01*
D12*
%TO.C,WemosD1Mini*%
X131595000Y-102970000D02*
X130960000Y-103605000D01*
X130960000Y-102335000D01*
X131595000Y-102970000D01*
G36*
X131595000Y-102970000D02*
G01*
X130960000Y-103605000D01*
X130960000Y-102335000D01*
X131595000Y-102970000D01*
G37*
D13*
X155730000Y-94630000D02*
G75*
G02*
X157860000Y-96760000I0J-2130000D01*
G01*
X132000000Y-96760000D02*
G75*
G02*
X134130000Y-94630000I2130002J-2D01*
G01*
X157860000Y-129090000D02*
X157860000Y-96760000D01*
X155740000Y-94630000D02*
X134130000Y-94630000D01*
X134540000Y-129090000D02*
X157860000Y-129090000D01*
X134540000Y-122190000D02*
X134540000Y-129090000D01*
X132000000Y-122190000D02*
X134540000Y-122190000D01*
X132000000Y-122190000D02*
X132000000Y-96760000D01*
%TD*%
M02*
