%TF.GenerationSoftware,KiCad,Pcbnew,9.0.4*%
%TF.CreationDate,2025-08-24T22:01:34+05:30*%
%TF.ProjectId,IRHub_PCB,49524875-625f-4504-9342-2e6b69636164,rev?*%
%TF.SameCoordinates,Original*%
%TF.FileFunction,Soldermask,Top*%
%TF.FilePolarity,Negative*%
%FSLAX46Y46*%
G04 Gerber Fmt 4.6, Leading zero omitted, Abs format (unit mm)*
G04 Created by KiCad (PCBNEW 9.0.4) date 2025-08-24 22:01:34*
%MOMM*%
%LPD*%
G01*
G04 APERTURE LIST*
G04 Aperture macros list*
%AMRoundRect*
0 Rectangle with rounded corners*
0 $1 Rounding radius*
0 $2 $3 $4 $5 $6 $7 $8 $9 X,Y pos of 4 corners*
0 Add a 4 corners polygon primitive as box body*
4,1,4,$2,$3,$4,$5,$6,$7,$8,$9,$2,$3,0*
0 Add four circle primitives for the rounded corners*
1,1,$1+$1,$2,$3*
1,1,$1+$1,$4,$5*
1,1,$1+$1,$6,$7*
1,1,$1+$1,$8,$9*
0 Add four rect primitives between the rounded corners*
20,1,$1+$1,$2,$3,$4,$5,0*
20,1,$1+$1,$4,$5,$6,$7,0*
20,1,$1+$1,$6,$7,$8,$9,0*
20,1,$1+$1,$8,$9,$2,$3,0*%
G04 Aperture macros list end*
%ADD10C,1.600000*%
%ADD11RoundRect,0.375000X-0.625000X-0.375000X0.625000X-0.375000X0.625000X0.375000X-0.625000X0.375000X0*%
%ADD12RoundRect,0.500000X-0.500000X-1.400000X0.500000X-1.400000X0.500000X1.400000X-0.500000X1.400000X0*%
%ADD13RoundRect,0.250000X-0.600000X-0.750000X0.600000X-0.750000X0.600000X0.750000X-0.600000X0.750000X0*%
%ADD14O,1.700000X2.000000*%
%ADD15O,2.000000X1.700000*%
%ADD16RoundRect,0.250000X-0.750000X0.600000X-0.750000X-0.600000X0.750000X-0.600000X0.750000X0.600000X0*%
%ADD17R,1.800000X1.800000*%
%ADD18C,1.800000*%
%ADD19RoundRect,0.150000X0.587500X0.150000X-0.587500X0.150000X-0.587500X-0.150000X0.587500X-0.150000X0*%
%ADD20RoundRect,0.250000X0.725000X-0.600000X0.725000X0.600000X-0.725000X0.600000X-0.725000X-0.600000X0*%
%ADD21O,1.950000X1.700000*%
%ADD22RoundRect,0.248400X0.651600X0.651600X-0.651600X0.651600X-0.651600X-0.651600X0.651600X-0.651600X0*%
%ADD23RoundRect,0.250000X-0.600000X-0.725000X0.600000X-0.725000X0.600000X0.725000X-0.600000X0.725000X0*%
%ADD24O,1.700000X1.950000*%
%ADD25R,1.500000X1.050000*%
%ADD26O,1.500000X1.050000*%
%ADD27O,2.000000X1.600000*%
%ADD28R,2.000000X2.000000*%
%ADD29C,2.200000*%
G04 APERTURE END LIST*
D10*
%TO.C,47R*%
X127500000Y-113120000D03*
X127500000Y-105500000D03*
%TD*%
D11*
%TO.C,AMS1117*%
X166250000Y-111400000D03*
D12*
X172550000Y-109100000D03*
D11*
X166250000Y-109100000D03*
X166250000Y-106800000D03*
%TD*%
D13*
%TO.C,IROut1*%
X154250000Y-77500000D03*
D14*
X156750000Y-77500000D03*
%TD*%
D15*
%TO.C,Speaker1*%
X171750000Y-93000000D03*
D16*
X171750000Y-90500000D03*
%TD*%
D17*
%TO.C,D3*%
X127000000Y-119250000D03*
D18*
X124460000Y-119250000D03*
%TD*%
D17*
%TO.C,D2*%
X162960000Y-119250000D03*
D18*
X165500000Y-119250000D03*
%TD*%
D17*
%TO.C,D4*%
X124460000Y-80750000D03*
D18*
X127000000Y-80750000D03*
%TD*%
D17*
%TO.C,D1*%
X165500000Y-80750000D03*
D18*
X162960000Y-80750000D03*
%TD*%
D19*
%TO.C,AO3400A*%
X118375000Y-106950000D03*
X120250000Y-106000000D03*
X120250000Y-107900000D03*
%TD*%
D10*
%TO.C,1000R*%
X162500000Y-113120000D03*
X162500000Y-105500000D03*
%TD*%
D20*
%TO.C,Neopixel1*%
X118250000Y-95500000D03*
D21*
X118250000Y-93000000D03*
X118250000Y-90500000D03*
%TD*%
D22*
%TO.C,TSOP*%
X147540000Y-72565000D03*
D18*
X145000000Y-72565000D03*
X142460000Y-72565000D03*
%TD*%
D23*
%TO.C,DispTouch1*%
X133250000Y-77500000D03*
D24*
X135750000Y-77500000D03*
X138250000Y-77500000D03*
X140750000Y-77500000D03*
X143250000Y-77500000D03*
%TD*%
D25*
%TO.C,PN2222A*%
X171250000Y-98750000D03*
D26*
X171250000Y-100020000D03*
X171250000Y-101290000D03*
%TD*%
D27*
%TO.C,WemosD1Mini*%
X156360000Y-102970000D03*
X156360000Y-105510000D03*
X156360000Y-108050000D03*
X156360000Y-110590000D03*
X156360000Y-113130000D03*
X156360000Y-115670000D03*
X156360000Y-118210000D03*
X156360000Y-120750000D03*
X133500000Y-120750000D03*
X133500000Y-118210000D03*
X133500000Y-115670000D03*
X133500000Y-113130000D03*
X133500000Y-110590000D03*
X133500000Y-108050000D03*
X133500000Y-105510000D03*
D28*
X133500000Y-102970000D03*
%TD*%
D29*
%TO.C,REF\u002A\u002A*%
X144900000Y-83300000D03*
%TD*%
M02*
