%TF.GenerationSoftware,KiCad,Pcbnew,9.0.4*%
%TF.CreationDate,2025-08-24T22:01:34+05:30*%
%TF.ProjectId,IRHub_PCB,49524875-625f-4504-9342-2e6b69636164,rev?*%
%TF.SameCoordinates,Original*%
%TF.FileFunction,Copper,L2,Bot*%
%TF.FilePolarity,Positive*%
%FSLAX46Y46*%
G04 Gerber Fmt 4.6, Leading zero omitted, Abs format (unit mm)*
G04 Created by KiCad (PCBNEW 9.0.4) date 2025-08-24 22:01:34*
%MOMM*%
%LPD*%
G01*
G04 APERTURE LIST*
G04 Aperture macros list*
%AMRoundRect*
0 Rectangle with rounded corners*
0 $1 Rounding radius*
0 $2 $3 $4 $5 $6 $7 $8 $9 X,Y pos of 4 corners*
0 Add a 4 corners polygon primitive as box body*
4,1,4,$2,$3,$4,$5,$6,$7,$8,$9,$2,$3,0*
0 Add four circle primitives for the rounded corners*
1,1,$1+$1,$2,$3*
1,1,$1+$1,$4,$5*
1,1,$1+$1,$6,$7*
1,1,$1+$1,$8,$9*
0 Add four rect primitives between the rounded corners*
20,1,$1+$1,$2,$3,$4,$5,0*
20,1,$1+$1,$4,$5,$6,$7,0*
20,1,$1+$1,$6,$7,$8,$9,0*
20,1,$1+$1,$8,$9,$2,$3,0*%
G04 Aperture macros list end*
%TA.AperFunction,ComponentPad*%
%ADD10C,1.600000*%
%TD*%
%TA.AperFunction,ComponentPad*%
%ADD11RoundRect,0.250000X-0.600000X-0.750000X0.600000X-0.750000X0.600000X0.750000X-0.600000X0.750000X0*%
%TD*%
%TA.AperFunction,ComponentPad*%
%ADD12O,1.700000X2.000000*%
%TD*%
%TA.AperFunction,ComponentPad*%
%ADD13O,2.000000X1.700000*%
%TD*%
%TA.AperFunction,ComponentPad*%
%ADD14RoundRect,0.250000X-0.750000X0.600000X-0.750000X-0.600000X0.750000X-0.600000X0.750000X0.600000X0*%
%TD*%
%TA.AperFunction,ComponentPad*%
%ADD15R,1.800000X1.800000*%
%TD*%
%TA.AperFunction,ComponentPad*%
%ADD16C,1.800000*%
%TD*%
%TA.AperFunction,ComponentPad*%
%ADD17RoundRect,0.250000X0.725000X-0.600000X0.725000X0.600000X-0.725000X0.600000X-0.725000X-0.600000X0*%
%TD*%
%TA.AperFunction,ComponentPad*%
%ADD18O,1.950000X1.700000*%
%TD*%
%TA.AperFunction,ComponentPad*%
%ADD19RoundRect,0.248400X0.651600X0.651600X-0.651600X0.651600X-0.651600X-0.651600X0.651600X-0.651600X0*%
%TD*%
%TA.AperFunction,ComponentPad*%
%ADD20RoundRect,0.250000X-0.600000X-0.725000X0.600000X-0.725000X0.600000X0.725000X-0.600000X0.725000X0*%
%TD*%
%TA.AperFunction,ComponentPad*%
%ADD21O,1.700000X1.950000*%
%TD*%
%TA.AperFunction,ComponentPad*%
%ADD22R,1.500000X1.050000*%
%TD*%
%TA.AperFunction,ComponentPad*%
%ADD23O,1.500000X1.050000*%
%TD*%
%TA.AperFunction,ComponentPad*%
%ADD24O,2.000000X1.600000*%
%TD*%
%TA.AperFunction,ComponentPad*%
%ADD25R,2.000000X2.000000*%
%TD*%
%TA.AperFunction,ViaPad*%
%ADD26C,0.600000*%
%TD*%
%TA.AperFunction,Conductor*%
%ADD27C,0.200000*%
%TD*%
%TA.AperFunction,Conductor*%
%ADD28C,0.600000*%
%TD*%
G04 APERTURE END LIST*
D10*
%TO.P,47R,1*%
%TO.N,Net-(U1-MISO{slash}D6)*%
X127500000Y-113120000D03*
%TO.P,47R,2*%
%TO.N,Net-(Q3-G)*%
X127500000Y-105500000D03*
%TD*%
D11*
%TO.P,IROut1,1,Pin_1*%
%TO.N,Net-(D2-K)*%
X154250000Y-77500000D03*
D12*
%TO.P,IROut1,2,Pin_2*%
%TO.N,+3.3V*%
X156750000Y-77500000D03*
%TD*%
D13*
%TO.P,Speaker1,2,Pin_2*%
%TO.N,GND*%
X171750000Y-93000000D03*
D14*
%TO.P,Speaker1,1,Pin_1*%
%TO.N,Net-(Q2-E)*%
X171750000Y-90500000D03*
%TD*%
D15*
%TO.P,D3,1,K*%
%TO.N,Net-(D2-K)*%
X127000000Y-119250000D03*
D16*
%TO.P,D3,2,A*%
%TO.N,Net-(D3-A)*%
X124460000Y-119250000D03*
%TD*%
D15*
%TO.P,D2,1,K*%
%TO.N,Net-(D2-K)*%
X162960000Y-119250000D03*
D16*
%TO.P,D2,2,A*%
%TO.N,Net-(D1-K)*%
X165500000Y-119250000D03*
%TD*%
D15*
%TO.P,D4,1,K*%
%TO.N,Net-(D3-A)*%
X124460000Y-80750000D03*
D16*
%TO.P,D4,2,A*%
%TO.N,+3.3V*%
X127000000Y-80750000D03*
%TD*%
D15*
%TO.P,D1,1,K*%
%TO.N,Net-(D1-K)*%
X165500000Y-80750000D03*
D16*
%TO.P,D1,2,A*%
%TO.N,+3.3V*%
X162960000Y-80750000D03*
%TD*%
D10*
%TO.P,1000R,1*%
%TO.N,Net-(U1-D3)*%
X162500000Y-113120000D03*
%TO.P,1000R,2*%
%TO.N,Net-(Q2-B)*%
X162500000Y-105500000D03*
%TD*%
D17*
%TO.P,Neopixel1,1,Pin_1*%
%TO.N,+5V*%
X118250000Y-95500000D03*
D18*
%TO.P,Neopixel1,2,Pin_2*%
%TO.N,Net-(Neopixel1-Pin_2)*%
X118250000Y-93000000D03*
%TO.P,Neopixel1,3,Pin_3*%
%TO.N,GND*%
X118250000Y-90500000D03*
%TD*%
D19*
%TO.P,TSOP,1,OUT*%
%TO.N,Net-(U1-SCK{slash}D5)*%
X147540000Y-72565000D03*
D16*
%TO.P,TSOP,2,GND*%
%TO.N,GND*%
X145000000Y-72565000D03*
%TO.P,TSOP,3,Vs*%
%TO.N,+3.3V*%
X142460000Y-72565000D03*
%TD*%
D20*
%TO.P,DispTouch1,1,Pin_1*%
%TO.N,+3.3V*%
X133250000Y-77500000D03*
D21*
%TO.P,DispTouch1,2,Pin_2*%
%TO.N,Net-(DispTouch1-Pin_2)*%
X135750000Y-77500000D03*
%TO.P,DispTouch1,3,Pin_3*%
%TO.N,Net-(DispTouch1-Pin_3)*%
X138250000Y-77500000D03*
%TO.P,DispTouch1,4,Pin_4*%
%TO.N,Net-(DispTouch1-Pin_4)*%
X140750000Y-77500000D03*
%TO.P,DispTouch1,5,Pin_5*%
%TO.N,GND*%
X143250000Y-77500000D03*
%TD*%
D22*
%TO.P,PN2222A,1,E*%
%TO.N,Net-(Q2-E)*%
X171250000Y-98750000D03*
D23*
%TO.P,PN2222A,2,B*%
%TO.N,Net-(Q2-B)*%
X171250000Y-100020000D03*
%TO.P,PN2222A,3,C*%
%TO.N,+5V*%
X171250000Y-101290000D03*
%TD*%
D24*
%TO.P,WemosD1Mini,16,TX*%
%TO.N,unconnected-(U1-TX-Pad16)*%
X156360000Y-102970000D03*
%TO.P,WemosD1Mini,15,RX*%
%TO.N,unconnected-(U1-RX-Pad15)*%
X156360000Y-105510000D03*
%TO.P,WemosD1Mini,14,SCL/D1*%
%TO.N,Net-(DispTouch1-Pin_2)*%
X156360000Y-108050000D03*
%TO.P,WemosD1Mini,13,SDA/D2*%
%TO.N,Net-(DispTouch1-Pin_3)*%
X156360000Y-110590000D03*
%TO.P,WemosD1Mini,12,D3*%
%TO.N,Net-(U1-D3)*%
X156360000Y-113130000D03*
%TO.P,WemosD1Mini,11,D4*%
%TO.N,unconnected-(U1-D4-Pad11)*%
X156360000Y-115670000D03*
%TO.P,WemosD1Mini,10,GND*%
%TO.N,GND*%
X156360000Y-118210000D03*
%TO.P,WemosD1Mini,9,5V*%
%TO.N,+5V*%
X156360000Y-120750000D03*
%TO.P,WemosD1Mini,8,3V3*%
%TO.N,unconnected-(U1-3V3-Pad8)*%
X133500000Y-120750000D03*
%TO.P,WemosD1Mini,7,CS/D8*%
%TO.N,unconnected-(U1-CS{slash}D8-Pad7)*%
X133500000Y-118210000D03*
%TO.P,WemosD1Mini,6,MOSI/D7*%
%TO.N,Net-(Neopixel1-Pin_2)*%
X133500000Y-115670000D03*
%TO.P,WemosD1Mini,5,MISO/D6*%
%TO.N,Net-(U1-MISO{slash}D6)*%
X133500000Y-113130000D03*
%TO.P,WemosD1Mini,4,SCK/D5*%
%TO.N,Net-(U1-SCK{slash}D5)*%
X133500000Y-110590000D03*
%TO.P,WemosD1Mini,3,D0*%
%TO.N,Net-(DispTouch1-Pin_4)*%
X133500000Y-108050000D03*
%TO.P,WemosD1Mini,2,A0*%
%TO.N,unconnected-(U1-A0-Pad2)*%
X133500000Y-105510000D03*
D25*
%TO.P,WemosD1Mini,1,~{RST}*%
%TO.N,unconnected-(U1-~{RST}-Pad1)*%
X133500000Y-102970000D03*
%TD*%
D26*
%TO.N,+5V*%
X170400000Y-113900000D03*
%TO.N,GND*%
X145000000Y-112000000D03*
%TO.N,+5V*%
X162000000Y-111250000D03*
X125500000Y-96500000D03*
%TO.N,Net-(Neopixel1-Pin_2)*%
X129500000Y-110500000D03*
%TD*%
D27*
%TO.N,Net-(D2-K)*%
X162960000Y-116290000D02*
X162960000Y-119250000D01*
X164500000Y-114750000D02*
X162960000Y-116290000D01*
X164500000Y-87750000D02*
X164500000Y-114750000D01*
X154250000Y-77500000D02*
X164500000Y-87750000D01*
D28*
%TO.N,+5V*%
X170400000Y-102140000D02*
X171250000Y-101290000D01*
X170400000Y-113900000D02*
X170400000Y-102140000D01*
X160250000Y-111250000D02*
X162000000Y-111250000D01*
X159500000Y-112000000D02*
X160250000Y-111250000D01*
X159000000Y-120750000D02*
X159500000Y-120250000D01*
X156360000Y-120750000D02*
X159000000Y-120750000D01*
X159500000Y-120250000D02*
X159500000Y-112000000D01*
X130000000Y-121500000D02*
X131500000Y-123000000D01*
X130000000Y-116000000D02*
X130000000Y-121500000D01*
X129500000Y-115500000D02*
X130000000Y-116000000D01*
X126500000Y-115500000D02*
X129500000Y-115500000D01*
X125500000Y-114500000D02*
X126500000Y-115500000D01*
X125500000Y-96500000D02*
X125500000Y-114500000D01*
D27*
%TO.N,Net-(Neopixel1-Pin_2)*%
X129500000Y-111670000D02*
X133500000Y-115670000D01*
X129500000Y-110500000D02*
X129500000Y-111670000D01*
%TO.N,Net-(DispTouch1-Pin_4)*%
X130500000Y-90000000D02*
X131250000Y-89250000D01*
X131250000Y-89250000D02*
X140000000Y-89250000D01*
X130500000Y-105050000D02*
X130500000Y-90000000D01*
X133500000Y-108050000D02*
X130500000Y-105050000D01*
X140000000Y-89250000D02*
X140750000Y-88500000D01*
X140750000Y-88500000D02*
X140750000Y-77500000D01*
%TO.N,+3.3V*%
X156750000Y-77000000D02*
X156750000Y-77500000D01*
X154500000Y-74750000D02*
X156750000Y-77000000D01*
X144645000Y-74750000D02*
X154500000Y-74750000D01*
X142460000Y-72565000D02*
X144645000Y-74750000D01*
X159710000Y-77500000D02*
X162960000Y-80750000D01*
X156750000Y-77500000D02*
X159710000Y-77500000D01*
X138185000Y-72565000D02*
X142460000Y-72565000D01*
X133250000Y-77500000D02*
X138185000Y-72565000D01*
X130250000Y-77500000D02*
X133250000Y-77500000D01*
X127000000Y-80750000D02*
X130250000Y-77500000D01*
%TO.N,Net-(D3-A)*%
X124460000Y-119250000D02*
X124460000Y-80750000D01*
%TO.N,Net-(D1-K)*%
X165500000Y-100000000D02*
X165500000Y-80750000D01*
X169500000Y-115250000D02*
X169500000Y-104000000D01*
X165500000Y-119250000D02*
X169500000Y-115250000D01*
X169500000Y-104000000D02*
X165500000Y-100000000D01*
%TO.N,Net-(D2-K)*%
X127000000Y-121500000D02*
X127000000Y-119250000D01*
X160250000Y-124500000D02*
X130000000Y-124500000D01*
X130000000Y-124500000D02*
X127000000Y-121500000D01*
X162960000Y-119250000D02*
X162960000Y-121790000D01*
X162960000Y-121790000D02*
X160250000Y-124500000D01*
D28*
%TO.N,+5V*%
X154110000Y-123000000D02*
X156360000Y-120750000D01*
X131500000Y-123000000D02*
X154110000Y-123000000D01*
%TD*%
%TA.AperFunction,Conductor*%
%TO.N,GND*%
G36*
X155593600Y-101589685D02*
G01*
X155639355Y-101642489D01*
X155649299Y-101711647D01*
X155620274Y-101775203D01*
X155582856Y-101804485D01*
X155478385Y-101857715D01*
X155312786Y-101978028D01*
X155168028Y-102122786D01*
X155047715Y-102288386D01*
X154954781Y-102470776D01*
X154891522Y-102665465D01*
X154859500Y-102867648D01*
X154859500Y-103072351D01*
X154891522Y-103274534D01*
X154954781Y-103469223D01*
X155047715Y-103651613D01*
X155168028Y-103817213D01*
X155312786Y-103961971D01*
X155467749Y-104074556D01*
X155478390Y-104082287D01*
X155569840Y-104128883D01*
X155571080Y-104129515D01*
X155621876Y-104177490D01*
X155638671Y-104245311D01*
X155616134Y-104311446D01*
X155571080Y-104350485D01*
X155478386Y-104397715D01*
X155312786Y-104518028D01*
X155168028Y-104662786D01*
X155047715Y-104828386D01*
X154954781Y-105010776D01*
X154891522Y-105205465D01*
X154859500Y-105407648D01*
X154859500Y-105612351D01*
X154891522Y-105814534D01*
X154954781Y-106009223D01*
X154989889Y-106078125D01*
X155047027Y-106190264D01*
X155047715Y-106191613D01*
X155168028Y-106357213D01*
X155312786Y-106501971D01*
X155464622Y-106612284D01*
X155478390Y-106622287D01*
X155569840Y-106668883D01*
X155571080Y-106669515D01*
X155621876Y-106717490D01*
X155638671Y-106785311D01*
X155616134Y-106851446D01*
X155571080Y-106890485D01*
X155478386Y-106937715D01*
X155312786Y-107058028D01*
X155168028Y-107202786D01*
X155047715Y-107368386D01*
X154954781Y-107550776D01*
X154891522Y-107745465D01*
X154859500Y-107947648D01*
X154859500Y-108152351D01*
X154891522Y-108354534D01*
X154954781Y-108549223D01*
X155047715Y-108731613D01*
X155168028Y-108897213D01*
X155312786Y-109041971D01*
X155467749Y-109154556D01*
X155478390Y-109162287D01*
X155569840Y-109208883D01*
X155571080Y-109209515D01*
X155621876Y-109257490D01*
X155638671Y-109325311D01*
X155616134Y-109391446D01*
X155571080Y-109430485D01*
X155478386Y-109477715D01*
X155312786Y-109598028D01*
X155168028Y-109742786D01*
X155047715Y-109908386D01*
X154954781Y-110090776D01*
X154891522Y-110285465D01*
X154859500Y-110487648D01*
X154859500Y-110692351D01*
X154891522Y-110894534D01*
X154954781Y-111089223D01*
X155047715Y-111271613D01*
X155168028Y-111437213D01*
X155312786Y-111581971D01*
X155467749Y-111694556D01*
X155478390Y-111702287D01*
X155569840Y-111748883D01*
X155571080Y-111749515D01*
X155621876Y-111797490D01*
X155638671Y-111865311D01*
X155616134Y-111931446D01*
X155571080Y-111970485D01*
X155478386Y-112017715D01*
X155312786Y-112138028D01*
X155168028Y-112282786D01*
X155047715Y-112448386D01*
X154954781Y-112630776D01*
X154891522Y-112825465D01*
X154859500Y-113027648D01*
X154859500Y-113232351D01*
X154891522Y-113434534D01*
X154954781Y-113629223D01*
X154989889Y-113698125D01*
X155042619Y-113801613D01*
X155047715Y-113811613D01*
X155168028Y-113977213D01*
X155312786Y-114121971D01*
X155464622Y-114232284D01*
X155478390Y-114242287D01*
X155569840Y-114288883D01*
X155571080Y-114289515D01*
X155621876Y-114337490D01*
X155638671Y-114405311D01*
X155616134Y-114471446D01*
X155571080Y-114510485D01*
X155478386Y-114557715D01*
X155312786Y-114678028D01*
X155168028Y-114822786D01*
X155047715Y-114988386D01*
X154954781Y-115170776D01*
X154891522Y-115365465D01*
X154859500Y-115567648D01*
X154859500Y-115772351D01*
X154891522Y-115974534D01*
X154954781Y-116169223D01*
X155047715Y-116351613D01*
X155168028Y-116517213D01*
X155312786Y-116661971D01*
X155467749Y-116774556D01*
X155478390Y-116782287D01*
X155550424Y-116818990D01*
X155571629Y-116829795D01*
X155622425Y-116877770D01*
X155639220Y-116945591D01*
X155616682Y-117011726D01*
X155571629Y-117050765D01*
X155478650Y-117098140D01*
X155313105Y-117218417D01*
X155313104Y-117218417D01*
X155168417Y-117363104D01*
X155168417Y-117363105D01*
X155048140Y-117528650D01*
X154955244Y-117710970D01*
X154892009Y-117905586D01*
X154883391Y-117960000D01*
X155984722Y-117960000D01*
X155940667Y-118036306D01*
X155910000Y-118150756D01*
X155910000Y-118269244D01*
X155940667Y-118383694D01*
X155984722Y-118460000D01*
X154883391Y-118460000D01*
X154892009Y-118514413D01*
X154955244Y-118709029D01*
X155048140Y-118891349D01*
X155168417Y-119056894D01*
X155168417Y-119056895D01*
X155313104Y-119201582D01*
X155478652Y-119321861D01*
X155571628Y-119369234D01*
X155622425Y-119417208D01*
X155639220Y-119485029D01*
X155616683Y-119551164D01*
X155571630Y-119590203D01*
X155478388Y-119637713D01*
X155312786Y-119758028D01*
X155168028Y-119902786D01*
X155047715Y-120068386D01*
X154954781Y-120250776D01*
X154891522Y-120445465D01*
X154859500Y-120647648D01*
X154859500Y-120852352D01*
X154859499Y-120852352D01*
X154885995Y-121019639D01*
X154877040Y-121088932D01*
X154851203Y-121126717D01*
X153814741Y-122163181D01*
X153753418Y-122196666D01*
X153727060Y-122199500D01*
X134230307Y-122199500D01*
X134163268Y-122179815D01*
X134117513Y-122127011D01*
X134107569Y-122057853D01*
X134136594Y-121994297D01*
X134191986Y-121957569D01*
X134199219Y-121955220D01*
X134381610Y-121862287D01*
X134492254Y-121781900D01*
X134547213Y-121741971D01*
X134547215Y-121741968D01*
X134547219Y-121741966D01*
X134691966Y-121597219D01*
X134691968Y-121597215D01*
X134691971Y-121597213D01*
X134748259Y-121519738D01*
X134812287Y-121431610D01*
X134905220Y-121249219D01*
X134968477Y-121054534D01*
X135000500Y-120852352D01*
X135000500Y-120647648D01*
X134968477Y-120445466D01*
X134951212Y-120392331D01*
X134930584Y-120328843D01*
X134905220Y-120250781D01*
X134905218Y-120250778D01*
X134905218Y-120250776D01*
X134860166Y-120162358D01*
X134812287Y-120068390D01*
X134750991Y-119984022D01*
X134691971Y-119902786D01*
X134547213Y-119758028D01*
X134381614Y-119637715D01*
X134375006Y-119634348D01*
X134288917Y-119590483D01*
X134238123Y-119542511D01*
X134221328Y-119474690D01*
X134243865Y-119408555D01*
X134288917Y-119369516D01*
X134381610Y-119322287D01*
X134402770Y-119306913D01*
X134547213Y-119201971D01*
X134547215Y-119201968D01*
X134547219Y-119201966D01*
X134691966Y-119057219D01*
X134691968Y-119057215D01*
X134691971Y-119057213D01*
X134744732Y-118984590D01*
X134812287Y-118891610D01*
X134905220Y-118709219D01*
X134968477Y-118514534D01*
X135000500Y-118312352D01*
X135000500Y-118107648D01*
X134982255Y-117992454D01*
X134968477Y-117905465D01*
X134931785Y-117792539D01*
X134905220Y-117710781D01*
X134905218Y-117710778D01*
X134905218Y-117710776D01*
X134812419Y-117528650D01*
X134812287Y-117528390D01*
X134804556Y-117517749D01*
X134691971Y-117362786D01*
X134547213Y-117218028D01*
X134381614Y-117097715D01*
X134375006Y-117094348D01*
X134288917Y-117050483D01*
X134238123Y-117002511D01*
X134221328Y-116934690D01*
X134243865Y-116868555D01*
X134288917Y-116829516D01*
X134381610Y-116782287D01*
X134422062Y-116752897D01*
X134547213Y-116661971D01*
X134547215Y-116661968D01*
X134547219Y-116661966D01*
X134691966Y-116517219D01*
X134691968Y-116517215D01*
X134691971Y-116517213D01*
X134759330Y-116424500D01*
X134812287Y-116351610D01*
X134905220Y-116169219D01*
X134968477Y-115974534D01*
X135000500Y-115772352D01*
X135000500Y-115567648D01*
X134983421Y-115459815D01*
X134968477Y-115365465D01*
X134912302Y-115192578D01*
X134905220Y-115170781D01*
X134905218Y-115170778D01*
X134905218Y-115170776D01*
X134826834Y-115016941D01*
X134812287Y-114988390D01*
X134784324Y-114949902D01*
X134691971Y-114822786D01*
X134547213Y-114678028D01*
X134381614Y-114557715D01*
X134375006Y-114554348D01*
X134288917Y-114510483D01*
X134238123Y-114462511D01*
X134221328Y-114394690D01*
X134243865Y-114328555D01*
X134288917Y-114289516D01*
X134381610Y-114242287D01*
X134470352Y-114177813D01*
X134547213Y-114121971D01*
X134547215Y-114121968D01*
X134547219Y-114121966D01*
X134691966Y-113977219D01*
X134691968Y-113977215D01*
X134691971Y-113977213D01*
X134744732Y-113904590D01*
X134812287Y-113811610D01*
X134905220Y-113629219D01*
X134968477Y-113434534D01*
X135000500Y-113232352D01*
X135000500Y-113027648D01*
X134968477Y-112825466D01*
X134965227Y-112815465D01*
X134905218Y-112630776D01*
X134871503Y-112564607D01*
X134812287Y-112448390D01*
X134804556Y-112437749D01*
X134691971Y-112282786D01*
X134547213Y-112138028D01*
X134381614Y-112017715D01*
X134361984Y-112007713D01*
X134288917Y-111970483D01*
X134238123Y-111922511D01*
X134221328Y-111854690D01*
X134243865Y-111788555D01*
X134288917Y-111749516D01*
X134381610Y-111702287D01*
X134482233Y-111629181D01*
X134547213Y-111581971D01*
X134547215Y-111581968D01*
X134547219Y-111581966D01*
X134691966Y-111437219D01*
X134691968Y-111437215D01*
X134691971Y-111437213D01*
X134770706Y-111328842D01*
X134812287Y-111271610D01*
X134905220Y-111089219D01*
X134968477Y-110894534D01*
X135000500Y-110692352D01*
X135000500Y-110487648D01*
X134968477Y-110285466D01*
X134905220Y-110090781D01*
X134905218Y-110090778D01*
X134905218Y-110090776D01*
X134853720Y-109989707D01*
X134812287Y-109908390D01*
X134790360Y-109878210D01*
X134691971Y-109742786D01*
X134547213Y-109598028D01*
X134381614Y-109477715D01*
X134375006Y-109474348D01*
X134288917Y-109430483D01*
X134238123Y-109382511D01*
X134221328Y-109314690D01*
X134243865Y-109248555D01*
X134288917Y-109209516D01*
X134381610Y-109162287D01*
X134402770Y-109146913D01*
X134547213Y-109041971D01*
X134547215Y-109041968D01*
X134547219Y-109041966D01*
X134691966Y-108897219D01*
X134691968Y-108897215D01*
X134691971Y-108897213D01*
X134744732Y-108824590D01*
X134812287Y-108731610D01*
X134905220Y-108549219D01*
X134968477Y-108354534D01*
X135000500Y-108152352D01*
X135000500Y-107947648D01*
X134968477Y-107745466D01*
X134968476Y-107745464D01*
X134905218Y-107550776D01*
X134856012Y-107454205D01*
X134812287Y-107368390D01*
X134804556Y-107357749D01*
X134691971Y-107202786D01*
X134547213Y-107058028D01*
X134381614Y-106937715D01*
X134375006Y-106934348D01*
X134288917Y-106890483D01*
X134238123Y-106842511D01*
X134221328Y-106774690D01*
X134243865Y-106708555D01*
X134288917Y-106669516D01*
X134381610Y-106622287D01*
X134402770Y-106606913D01*
X134547213Y-106501971D01*
X134547215Y-106501968D01*
X134547219Y-106501966D01*
X134691966Y-106357219D01*
X134691968Y-106357215D01*
X134691971Y-106357213D01*
X134791998Y-106219535D01*
X134812287Y-106191610D01*
X134905220Y-106009219D01*
X134968477Y-105814534D01*
X135000500Y-105612352D01*
X135000500Y-105407648D01*
X134968477Y-105205466D01*
X134965227Y-105195465D01*
X134931157Y-105090608D01*
X134905220Y-105010781D01*
X134905218Y-105010778D01*
X134905218Y-105010776D01*
X134865394Y-104932618D01*
X134812287Y-104828390D01*
X134755263Y-104749902D01*
X134691971Y-104662786D01*
X134660736Y-104631551D01*
X134627251Y-104570228D01*
X134632235Y-104500536D01*
X134674107Y-104444603D01*
X134705080Y-104427689D01*
X134742331Y-104413796D01*
X134857546Y-104327546D01*
X134943796Y-104212331D01*
X134994091Y-104077483D01*
X135000500Y-104017873D01*
X135000499Y-101922128D01*
X134994091Y-101862517D01*
X134992300Y-101857715D01*
X134947401Y-101737333D01*
X134942417Y-101667641D01*
X134975902Y-101606318D01*
X135037226Y-101572834D01*
X135063583Y-101570000D01*
X155526561Y-101570000D01*
X155593600Y-101589685D01*
G37*
%TD.AperFunction*%
%TA.AperFunction,Conductor*%
G36*
X141132766Y-73169787D02*
G01*
X141147970Y-73169136D01*
X141165607Y-73179431D01*
X141185203Y-73185185D01*
X141196100Y-73197229D01*
X141208313Y-73204358D01*
X141228648Y-73233204D01*
X141262185Y-73299023D01*
X141391752Y-73477358D01*
X141391756Y-73477363D01*
X141547636Y-73633243D01*
X141547641Y-73633247D01*
X141661633Y-73716066D01*
X141725978Y-73762815D01*
X141814748Y-73808046D01*
X141922393Y-73862895D01*
X141922396Y-73862896D01*
X141989525Y-73884707D01*
X142132049Y-73931015D01*
X142349778Y-73965500D01*
X142349779Y-73965500D01*
X142570221Y-73965500D01*
X142570222Y-73965500D01*
X142787951Y-73931015D01*
X142858205Y-73908187D01*
X142928044Y-73906192D01*
X142984202Y-73938437D01*
X144276284Y-75230520D01*
X144276286Y-75230521D01*
X144276290Y-75230524D01*
X144408522Y-75306867D01*
X144413216Y-75309577D01*
X144565943Y-75350501D01*
X144565945Y-75350501D01*
X144731654Y-75350501D01*
X144731670Y-75350500D01*
X154199903Y-75350500D01*
X154266942Y-75370185D01*
X154287584Y-75386819D01*
X154688583Y-75787819D01*
X154722068Y-75849142D01*
X154717084Y-75918834D01*
X154675212Y-75974767D01*
X154609748Y-75999184D01*
X154600902Y-75999500D01*
X153599998Y-75999500D01*
X153599981Y-75999501D01*
X153497203Y-76010000D01*
X153497200Y-76010001D01*
X153330668Y-76065185D01*
X153330663Y-76065187D01*
X153181342Y-76157289D01*
X153057289Y-76281342D01*
X152965187Y-76430663D01*
X152965185Y-76430668D01*
X152943689Y-76495540D01*
X152910001Y-76597203D01*
X152910001Y-76597204D01*
X152910000Y-76597204D01*
X152899500Y-76699983D01*
X152899500Y-78300001D01*
X152899501Y-78300018D01*
X152910000Y-78402796D01*
X152910001Y-78402799D01*
X152943690Y-78504464D01*
X152965186Y-78569334D01*
X153057288Y-78718656D01*
X153181344Y-78842712D01*
X153330666Y-78934814D01*
X153497203Y-78989999D01*
X153599991Y-79000500D01*
X154849902Y-79000499D01*
X154916941Y-79020184D01*
X154937583Y-79036818D01*
X163863181Y-87962416D01*
X163896666Y-88023739D01*
X163899500Y-88050097D01*
X163899500Y-104865579D01*
X163879815Y-104932618D01*
X163827011Y-104978373D01*
X163757853Y-104988317D01*
X163694297Y-104959292D01*
X163665015Y-104921874D01*
X163622066Y-104837583D01*
X163612287Y-104818390D01*
X163562528Y-104749902D01*
X163491971Y-104652786D01*
X163347213Y-104508028D01*
X163181613Y-104387715D01*
X163181612Y-104387714D01*
X163181610Y-104387713D01*
X163108546Y-104350485D01*
X162999223Y-104294781D01*
X162804534Y-104231522D01*
X162629995Y-104203878D01*
X162602352Y-104199500D01*
X162397648Y-104199500D01*
X162373329Y-104203351D01*
X162195465Y-104231522D01*
X162000776Y-104294781D01*
X161818386Y-104387715D01*
X161652786Y-104508028D01*
X161508028Y-104652786D01*
X161387715Y-104818386D01*
X161294781Y-105000776D01*
X161231522Y-105195465D01*
X161199500Y-105397648D01*
X161199500Y-105602351D01*
X161231522Y-105804534D01*
X161294781Y-105999223D01*
X161339907Y-106087786D01*
X161363668Y-106134420D01*
X161387715Y-106181613D01*
X161508028Y-106347213D01*
X161652786Y-106491971D01*
X161807749Y-106604556D01*
X161818390Y-106612287D01*
X161930706Y-106669515D01*
X162000776Y-106705218D01*
X162000778Y-106705218D01*
X162000781Y-106705220D01*
X162105137Y-106739127D01*
X162195465Y-106768477D01*
X162258602Y-106778477D01*
X162397648Y-106800500D01*
X162397649Y-106800500D01*
X162602351Y-106800500D01*
X162602352Y-106800500D01*
X162804534Y-106768477D01*
X162999219Y-106705220D01*
X163181610Y-106612287D01*
X163274590Y-106544732D01*
X163347213Y-106491971D01*
X163347215Y-106491968D01*
X163347219Y-106491966D01*
X163491966Y-106347219D01*
X163491968Y-106347215D01*
X163491971Y-106347213D01*
X163605022Y-106191610D01*
X163612287Y-106181610D01*
X163665015Y-106078124D01*
X163712989Y-106027329D01*
X163780810Y-106010534D01*
X163846945Y-106033071D01*
X163890397Y-106087786D01*
X163899500Y-106134420D01*
X163899500Y-112485579D01*
X163879815Y-112552618D01*
X163827011Y-112598373D01*
X163757853Y-112608317D01*
X163694297Y-112579292D01*
X163665015Y-112541874D01*
X163636331Y-112485579D01*
X163612287Y-112438390D01*
X163572001Y-112382940D01*
X163491971Y-112272786D01*
X163347213Y-112128028D01*
X163181613Y-112007715D01*
X163181612Y-112007714D01*
X163181610Y-112007713D01*
X163108546Y-111970485D01*
X162999223Y-111914781D01*
X162804534Y-111851522D01*
X162775473Y-111846920D01*
X162712338Y-111816991D01*
X162675407Y-111757679D01*
X162676405Y-111687817D01*
X162691768Y-111655558D01*
X162709394Y-111629179D01*
X162712854Y-111620827D01*
X162754696Y-111519809D01*
X162769737Y-111483497D01*
X162800500Y-111328842D01*
X162800500Y-111171158D01*
X162800500Y-111171155D01*
X162800499Y-111171153D01*
X162784201Y-111089219D01*
X162769737Y-111016503D01*
X162767163Y-111010289D01*
X162709397Y-110870827D01*
X162709390Y-110870814D01*
X162621789Y-110739711D01*
X162621786Y-110739707D01*
X162510292Y-110628213D01*
X162510288Y-110628210D01*
X162379185Y-110540609D01*
X162379172Y-110540602D01*
X162233501Y-110480264D01*
X162233489Y-110480261D01*
X162078845Y-110449500D01*
X162078842Y-110449500D01*
X160328842Y-110449500D01*
X160171157Y-110449500D01*
X160171155Y-110449500D01*
X160035285Y-110476527D01*
X160024738Y-110478625D01*
X160016513Y-110480261D01*
X160016503Y-110480263D01*
X160016499Y-110480264D01*
X159870827Y-110540602D01*
X159870815Y-110540609D01*
X159785458Y-110597644D01*
X159785457Y-110597645D01*
X159739708Y-110628212D01*
X159739707Y-110628213D01*
X159096312Y-111271610D01*
X158989711Y-111378211D01*
X158946657Y-111421265D01*
X158878209Y-111489712D01*
X158790609Y-111620814D01*
X158790602Y-111620827D01*
X158730264Y-111766498D01*
X158730261Y-111766510D01*
X158699500Y-111921153D01*
X158699500Y-119825500D01*
X158679815Y-119892539D01*
X158627011Y-119938294D01*
X158575500Y-119949500D01*
X157649033Y-119949500D01*
X157581994Y-119929815D01*
X157554748Y-119906038D01*
X157551964Y-119902779D01*
X157407213Y-119758028D01*
X157241611Y-119637713D01*
X157148369Y-119590203D01*
X157097574Y-119542229D01*
X157080779Y-119474407D01*
X157103317Y-119408273D01*
X157148371Y-119369234D01*
X157241347Y-119321861D01*
X157406894Y-119201582D01*
X157406895Y-119201582D01*
X157551582Y-119056895D01*
X157551582Y-119056894D01*
X157671859Y-118891349D01*
X157764755Y-118709029D01*
X157827990Y-118514413D01*
X157836609Y-118460000D01*
X156735278Y-118460000D01*
X156779333Y-118383694D01*
X156810000Y-118269244D01*
X156810000Y-118150756D01*
X156779333Y-118036306D01*
X156735278Y-117960000D01*
X157836609Y-117960000D01*
X157827990Y-117905586D01*
X157764755Y-117710970D01*
X157671859Y-117528650D01*
X157551582Y-117363105D01*
X157551582Y-117363104D01*
X157406895Y-117218417D01*
X157241349Y-117098140D01*
X157148370Y-117050765D01*
X157097574Y-117002790D01*
X157080779Y-116934969D01*
X157103316Y-116868835D01*
X157148370Y-116829795D01*
X157148920Y-116829515D01*
X157241610Y-116782287D01*
X157282062Y-116752897D01*
X157407213Y-116661971D01*
X157407215Y-116661968D01*
X157407219Y-116661966D01*
X157551966Y-116517219D01*
X157551968Y-116517215D01*
X157551971Y-116517213D01*
X157619330Y-116424500D01*
X157672287Y-116351610D01*
X157765220Y-116169219D01*
X157828477Y-115974534D01*
X157860500Y-115772352D01*
X157860500Y-115567648D01*
X157843421Y-115459815D01*
X157828477Y-115365465D01*
X157772302Y-115192578D01*
X157765220Y-115170781D01*
X157765218Y-115170778D01*
X157765218Y-115170776D01*
X157686834Y-115016941D01*
X157672287Y-114988390D01*
X157644324Y-114949902D01*
X157551971Y-114822786D01*
X157407213Y-114678028D01*
X157241614Y-114557715D01*
X157235006Y-114554348D01*
X157148917Y-114510483D01*
X157098123Y-114462511D01*
X157081328Y-114394690D01*
X157103865Y-114328555D01*
X157148917Y-114289516D01*
X157241610Y-114242287D01*
X157330352Y-114177813D01*
X157407213Y-114121971D01*
X157407215Y-114121968D01*
X157407219Y-114121966D01*
X157551966Y-113977219D01*
X157551968Y-113977215D01*
X157551971Y-113977213D01*
X157604732Y-113904590D01*
X157672287Y-113811610D01*
X157765220Y-113629219D01*
X157828477Y-113434534D01*
X157860500Y-113232352D01*
X157860500Y-113027648D01*
X157828477Y-112825466D01*
X157825227Y-112815465D01*
X157765218Y-112630776D01*
X157731503Y-112564607D01*
X157672287Y-112448390D01*
X157664556Y-112437749D01*
X157551971Y-112282786D01*
X157407213Y-112138028D01*
X157241614Y-112017715D01*
X157221984Y-112007713D01*
X157148917Y-111970483D01*
X157098123Y-111922511D01*
X157081328Y-111854690D01*
X157103865Y-111788555D01*
X157148917Y-111749516D01*
X157241610Y-111702287D01*
X157342233Y-111629181D01*
X157407213Y-111581971D01*
X157407215Y-111581968D01*
X157407219Y-111581966D01*
X157551966Y-111437219D01*
X157551968Y-111437215D01*
X157551971Y-111437213D01*
X157630706Y-111328842D01*
X157672287Y-111271610D01*
X157765220Y-111089219D01*
X157828477Y-110894534D01*
X157860500Y-110692352D01*
X157860500Y-110487648D01*
X157828477Y-110285466D01*
X157765220Y-110090781D01*
X157765218Y-110090778D01*
X157765218Y-110090776D01*
X157713720Y-109989707D01*
X157672287Y-109908390D01*
X157650360Y-109878210D01*
X157551971Y-109742786D01*
X157407213Y-109598028D01*
X157241614Y-109477715D01*
X157235006Y-109474348D01*
X157148917Y-109430483D01*
X157098123Y-109382511D01*
X157081328Y-109314690D01*
X157103865Y-109248555D01*
X157148917Y-109209516D01*
X157241610Y-109162287D01*
X157262770Y-109146913D01*
X157407213Y-109041971D01*
X157407215Y-109041968D01*
X157407219Y-109041966D01*
X157551966Y-108897219D01*
X157551968Y-108897215D01*
X157551971Y-108897213D01*
X157604732Y-108824590D01*
X157672287Y-108731610D01*
X157765220Y-108549219D01*
X157828477Y-108354534D01*
X157860500Y-108152352D01*
X157860500Y-107947648D01*
X157828477Y-107745466D01*
X157828476Y-107745464D01*
X157765218Y-107550776D01*
X157716012Y-107454205D01*
X157672287Y-107368390D01*
X157664556Y-107357749D01*
X157551971Y-107202786D01*
X157407213Y-107058028D01*
X157241614Y-106937715D01*
X157235006Y-106934348D01*
X157148917Y-106890483D01*
X157098123Y-106842511D01*
X157081328Y-106774690D01*
X157103865Y-106708555D01*
X157148917Y-106669516D01*
X157241610Y-106622287D01*
X157262770Y-106606913D01*
X157407213Y-106501971D01*
X157407215Y-106501968D01*
X157407219Y-106501966D01*
X157551966Y-106357219D01*
X157551968Y-106357215D01*
X157551971Y-106357213D01*
X157651998Y-106219535D01*
X157672287Y-106191610D01*
X157765220Y-106009219D01*
X157828477Y-105814534D01*
X157860500Y-105612352D01*
X157860500Y-105407648D01*
X157828477Y-105205466D01*
X157825227Y-105195465D01*
X157791157Y-105090608D01*
X157765220Y-105010781D01*
X157765218Y-105010778D01*
X157765218Y-105010776D01*
X157725394Y-104932618D01*
X157672287Y-104828390D01*
X157615263Y-104749902D01*
X157551971Y-104662786D01*
X157407213Y-104518028D01*
X157241614Y-104397715D01*
X157221984Y-104387713D01*
X157148917Y-104350483D01*
X157098123Y-104302511D01*
X157081328Y-104234690D01*
X157103865Y-104168555D01*
X157148917Y-104129516D01*
X157241610Y-104082287D01*
X157262770Y-104066913D01*
X157407213Y-103961971D01*
X157407215Y-103961968D01*
X157407219Y-103961966D01*
X157551966Y-103817219D01*
X157551968Y-103817215D01*
X157551971Y-103817213D01*
X157604732Y-103744590D01*
X157672287Y-103651610D01*
X157765220Y-103469219D01*
X157828477Y-103274534D01*
X157860500Y-103072352D01*
X157860500Y-102867648D01*
X157828477Y-102665466D01*
X157765220Y-102470781D01*
X157765218Y-102470778D01*
X157765218Y-102470776D01*
X157731503Y-102404607D01*
X157672287Y-102288390D01*
X157663351Y-102276090D01*
X157551971Y-102122786D01*
X157407213Y-101978028D01*
X157241614Y-101857715D01*
X157137144Y-101804485D01*
X157086348Y-101756510D01*
X157069553Y-101688689D01*
X157092090Y-101622555D01*
X157146805Y-101579103D01*
X157193439Y-101570000D01*
X157750000Y-101570000D01*
X157750000Y-94770000D01*
X132150000Y-94770000D01*
X132150000Y-101561102D01*
X132130315Y-101628141D01*
X132125267Y-101635413D01*
X132056203Y-101727669D01*
X132056202Y-101727671D01*
X132005908Y-101862517D01*
X132001179Y-101906510D01*
X131999501Y-101922123D01*
X131999500Y-101922135D01*
X131999500Y-104017870D01*
X131999501Y-104017876D01*
X132005908Y-104077483D01*
X132056202Y-104212328D01*
X132056206Y-104212335D01*
X132142452Y-104327544D01*
X132142455Y-104327547D01*
X132257664Y-104413793D01*
X132257673Y-104413798D01*
X132294914Y-104427688D01*
X132350848Y-104469559D01*
X132375266Y-104535023D01*
X132360415Y-104603296D01*
X132339265Y-104631550D01*
X132308027Y-104662787D01*
X132187715Y-104828386D01*
X132094781Y-105010776D01*
X132031522Y-105205465D01*
X131999498Y-105407656D01*
X131999252Y-105410786D01*
X131998826Y-105411902D01*
X131998738Y-105412460D01*
X131998620Y-105412441D01*
X131974359Y-105476071D01*
X131918122Y-105517534D01*
X131848395Y-105522010D01*
X131787955Y-105488720D01*
X131504701Y-105205466D01*
X131136819Y-104837583D01*
X131103334Y-104776260D01*
X131100500Y-104749902D01*
X131100500Y-90300097D01*
X131120185Y-90233058D01*
X131136819Y-90212416D01*
X131462416Y-89886819D01*
X131523739Y-89853334D01*
X131550097Y-89850500D01*
X139913331Y-89850500D01*
X139913347Y-89850501D01*
X139920943Y-89850501D01*
X140079054Y-89850501D01*
X140079057Y-89850501D01*
X140231785Y-89809577D01*
X140303424Y-89768216D01*
X140368716Y-89730520D01*
X140480520Y-89618716D01*
X140480520Y-89618714D01*
X140490724Y-89608511D01*
X140490728Y-89608506D01*
X141108506Y-88990728D01*
X141108511Y-88990724D01*
X141118714Y-88980520D01*
X141118716Y-88980520D01*
X141230520Y-88868716D01*
X141234359Y-88862065D01*
X141287813Y-88769482D01*
X141287814Y-88769480D01*
X141309574Y-88731790D01*
X141309573Y-88731790D01*
X141309577Y-88731785D01*
X141350500Y-88579057D01*
X141350500Y-88420943D01*
X141350500Y-83193713D01*
X143549500Y-83193713D01*
X143549500Y-83406286D01*
X143581386Y-83607611D01*
X143582754Y-83616243D01*
X143604304Y-83682568D01*
X143648444Y-83818414D01*
X143744951Y-84007820D01*
X143869890Y-84179786D01*
X144020213Y-84330109D01*
X144192179Y-84455048D01*
X144192181Y-84455049D01*
X144192184Y-84455051D01*
X144381588Y-84551557D01*
X144583757Y-84617246D01*
X144793713Y-84650500D01*
X144793714Y-84650500D01*
X145006286Y-84650500D01*
X145006287Y-84650500D01*
X145216243Y-84617246D01*
X145418412Y-84551557D01*
X145607816Y-84455051D01*
X145629789Y-84439086D01*
X145779786Y-84330109D01*
X145779788Y-84330106D01*
X145779792Y-84330104D01*
X145930104Y-84179792D01*
X145930106Y-84179788D01*
X145930109Y-84179786D01*
X146055048Y-84007820D01*
X146055047Y-84007820D01*
X146055051Y-84007816D01*
X146151557Y-83818412D01*
X146217246Y-83616243D01*
X146250500Y-83406287D01*
X146250500Y-83193713D01*
X146217246Y-82983757D01*
X146151557Y-82781588D01*
X146055051Y-82592184D01*
X146055049Y-82592181D01*
X146055048Y-82592179D01*
X145930109Y-82420213D01*
X145779786Y-82269890D01*
X145607820Y-82144951D01*
X145418414Y-82048444D01*
X145418413Y-82048443D01*
X145418412Y-82048443D01*
X145216243Y-81982754D01*
X145216241Y-81982753D01*
X145216240Y-81982753D01*
X145054957Y-81957208D01*
X145006287Y-81949500D01*
X144793713Y-81949500D01*
X144745042Y-81957208D01*
X144583760Y-81982753D01*
X144583757Y-81982754D01*
X144383272Y-82047896D01*
X144381585Y-82048444D01*
X144192179Y-82144951D01*
X144020213Y-82269890D01*
X143869890Y-82420213D01*
X143744951Y-82592179D01*
X143648444Y-82781585D01*
X143582753Y-82983760D01*
X143549500Y-83193713D01*
X141350500Y-83193713D01*
X141350500Y-78910718D01*
X141370185Y-78843679D01*
X141418207Y-78800233D01*
X141457815Y-78780052D01*
X141457815Y-78780051D01*
X141457816Y-78780051D01*
X141576728Y-78693657D01*
X141629786Y-78655109D01*
X141629788Y-78655106D01*
X141629792Y-78655104D01*
X141780104Y-78504792D01*
X141899991Y-78339779D01*
X141955320Y-78297115D01*
X142024933Y-78291136D01*
X142086729Y-78323741D01*
X142100627Y-78339781D01*
X142220272Y-78504459D01*
X142220276Y-78504464D01*
X142370535Y-78654723D01*
X142370540Y-78654727D01*
X142542442Y-78779620D01*
X142731782Y-78876095D01*
X142933871Y-78941757D01*
X143000000Y-78952231D01*
X143000000Y-77904145D01*
X143066657Y-77942630D01*
X143187465Y-77975000D01*
X143312535Y-77975000D01*
X143433343Y-77942630D01*
X143500000Y-77904145D01*
X143500000Y-78952230D01*
X143566126Y-78941757D01*
X143566129Y-78941757D01*
X143768217Y-78876095D01*
X143957557Y-78779620D01*
X144129459Y-78654727D01*
X144129464Y-78654723D01*
X144279723Y-78504464D01*
X144279727Y-78504459D01*
X144404620Y-78332557D01*
X144501095Y-78143217D01*
X144566757Y-77941130D01*
X144566757Y-77941127D01*
X144597030Y-77750000D01*
X143654146Y-77750000D01*
X143692630Y-77683343D01*
X143725000Y-77562535D01*
X143725000Y-77437465D01*
X143692630Y-77316657D01*
X143654146Y-77250000D01*
X144597030Y-77250000D01*
X144566757Y-77058872D01*
X144566757Y-77058869D01*
X144501095Y-76856782D01*
X144404620Y-76667442D01*
X144279727Y-76495540D01*
X144279723Y-76495535D01*
X144129464Y-76345276D01*
X144129459Y-76345272D01*
X143957557Y-76220379D01*
X143768215Y-76123903D01*
X143566124Y-76058241D01*
X143500000Y-76047768D01*
X143500000Y-77095854D01*
X143433343Y-77057370D01*
X143312535Y-77025000D01*
X143187465Y-77025000D01*
X143066657Y-77057370D01*
X143000000Y-77095854D01*
X143000000Y-76047768D01*
X142999999Y-76047768D01*
X142933875Y-76058241D01*
X142731784Y-76123903D01*
X142542442Y-76220379D01*
X142370540Y-76345272D01*
X142370535Y-76345276D01*
X142220276Y-76495535D01*
X142220272Y-76495540D01*
X142100627Y-76660218D01*
X142045297Y-76702884D01*
X141975684Y-76708863D01*
X141913889Y-76676257D01*
X141899991Y-76660218D01*
X141780109Y-76495214D01*
X141780105Y-76495209D01*
X141629786Y-76344890D01*
X141457820Y-76219951D01*
X141268414Y-76123444D01*
X141268413Y-76123443D01*
X141268412Y-76123443D01*
X141066243Y-76057754D01*
X141066241Y-76057753D01*
X141066240Y-76057753D01*
X140904957Y-76032208D01*
X140856287Y-76024500D01*
X140643713Y-76024500D01*
X140595042Y-76032208D01*
X140433760Y-76057753D01*
X140231585Y-76123444D01*
X140042179Y-76219951D01*
X139870213Y-76344890D01*
X139719894Y-76495209D01*
X139719890Y-76495214D01*
X139600318Y-76659793D01*
X139544989Y-76702459D01*
X139475375Y-76708438D01*
X139413580Y-76675833D01*
X139399682Y-76659793D01*
X139280109Y-76495214D01*
X139280105Y-76495209D01*
X139129786Y-76344890D01*
X138957820Y-76219951D01*
X138768414Y-76123444D01*
X138768413Y-76123443D01*
X138768412Y-76123443D01*
X138566243Y-76057754D01*
X138566241Y-76057753D01*
X138566240Y-76057753D01*
X138404957Y-76032208D01*
X138356287Y-76024500D01*
X138143713Y-76024500D01*
X138095042Y-76032208D01*
X137933760Y-76057753D01*
X137731585Y-76123444D01*
X137542179Y-76219951D01*
X137370213Y-76344890D01*
X137219894Y-76495209D01*
X137219890Y-76495214D01*
X137100318Y-76659793D01*
X137044989Y-76702459D01*
X136975375Y-76708438D01*
X136913580Y-76675833D01*
X136899682Y-76659793D01*
X136780109Y-76495214D01*
X136780105Y-76495209D01*
X136629786Y-76344890D01*
X136457820Y-76219951D01*
X136268414Y-76123444D01*
X136268413Y-76123443D01*
X136268412Y-76123443D01*
X136066243Y-76057754D01*
X136066241Y-76057753D01*
X136066240Y-76057753D01*
X135908394Y-76032753D01*
X135856287Y-76024500D01*
X135856286Y-76024500D01*
X135853596Y-76024074D01*
X135790461Y-75994145D01*
X135753530Y-75934833D01*
X135754528Y-75864971D01*
X135785311Y-75813922D01*
X138397416Y-73201819D01*
X138458739Y-73168334D01*
X138485097Y-73165500D01*
X141118164Y-73165500D01*
X141132766Y-73169787D01*
G37*
%TD.AperFunction*%
%TA.AperFunction,Conductor*%
G36*
X146125407Y-73336853D02*
G01*
X146155432Y-73385529D01*
X146179676Y-73458693D01*
X146205046Y-73535253D01*
X146296952Y-73684256D01*
X146420744Y-73808048D01*
X146569747Y-73899954D01*
X146593409Y-73907794D01*
X146650853Y-73947567D01*
X146677676Y-74012082D01*
X146665361Y-74080858D01*
X146617818Y-74132058D01*
X146554404Y-74149500D01*
X145436811Y-74149500D01*
X145369772Y-74129815D01*
X145324017Y-74077011D01*
X145314073Y-74007853D01*
X145343098Y-73944297D01*
X145398493Y-73907569D01*
X145537410Y-73862432D01*
X145733760Y-73762386D01*
X145797513Y-73716066D01*
X145797514Y-73716066D01*
X145088584Y-73007138D01*
X145173694Y-72984333D01*
X145276306Y-72925090D01*
X145360090Y-72841306D01*
X145419333Y-72738694D01*
X145442138Y-72653584D01*
X146125407Y-73336853D01*
G37*
%TD.AperFunction*%
%TA.AperFunction,Conductor*%
G36*
X145047160Y-68496667D02*
G01*
X146155895Y-68517845D01*
X146160265Y-68518005D01*
X147267581Y-68578347D01*
X147271889Y-68578657D01*
X148376442Y-68678093D01*
X148380748Y-68678558D01*
X149481060Y-68816955D01*
X149485391Y-68817578D01*
X150580135Y-68994769D01*
X150584356Y-68995529D01*
X151637975Y-69204513D01*
X151672127Y-69211287D01*
X151676412Y-69212215D01*
X152755882Y-69466273D01*
X152760099Y-69467345D01*
X153359987Y-69631104D01*
X153829929Y-69759390D01*
X153834135Y-69760619D01*
X154892933Y-70090268D01*
X154897057Y-70091632D01*
X155943603Y-70458509D01*
X155947665Y-70460013D01*
X156980599Y-70863640D01*
X156984630Y-70865298D01*
X158002659Y-71305173D01*
X158006575Y-71306948D01*
X158976752Y-71767485D01*
X159008410Y-71782513D01*
X159012334Y-71784461D01*
X159806205Y-72196286D01*
X159996706Y-72295109D01*
X160000559Y-72297195D01*
X160966311Y-72842328D01*
X160970035Y-72844518D01*
X161915905Y-73423425D01*
X161919573Y-73425760D01*
X162771320Y-73989371D01*
X162844396Y-74037726D01*
X162848004Y-74040205D01*
X163001127Y-74149500D01*
X163750629Y-74684470D01*
X163754150Y-74687079D01*
X164633407Y-75362803D01*
X164636834Y-75365534D01*
X165491700Y-76071933D01*
X165495028Y-76074784D01*
X166324360Y-76810912D01*
X166327586Y-76813878D01*
X167113267Y-77562535D01*
X167130444Y-77578902D01*
X167133562Y-77581981D01*
X167908843Y-78374852D01*
X167911851Y-78378039D01*
X168658650Y-79197827D01*
X168661543Y-79201118D01*
X169378889Y-80046758D01*
X169381665Y-80050149D01*
X170068720Y-80920654D01*
X170071373Y-80924141D01*
X170337952Y-81287606D01*
X170727139Y-81818242D01*
X170727213Y-81818342D01*
X170729730Y-81821905D01*
X171067993Y-82319031D01*
X171353581Y-82738746D01*
X171355982Y-82742412D01*
X171947042Y-83680714D01*
X171949312Y-83684463D01*
X172506840Y-84643052D01*
X172508976Y-84646878D01*
X173032296Y-85624586D01*
X173034295Y-85628485D01*
X173522740Y-86624071D01*
X173524600Y-86628039D01*
X173977552Y-87640242D01*
X173979271Y-87644273D01*
X174396175Y-88671847D01*
X174397749Y-88675933D01*
X174403041Y-88690424D01*
X174778094Y-89717626D01*
X174779524Y-89721768D01*
X175122826Y-90776254D01*
X175124108Y-90780445D01*
X175429924Y-91846363D01*
X175431058Y-91850595D01*
X175699024Y-92926668D01*
X175700008Y-92930939D01*
X175929788Y-94015821D01*
X175930620Y-94020123D01*
X176121917Y-95112426D01*
X176122597Y-95116755D01*
X176275185Y-96215167D01*
X176275711Y-96219518D01*
X176389389Y-97322613D01*
X176389761Y-97326979D01*
X176464392Y-98433421D01*
X176464609Y-98437798D01*
X176500097Y-99546148D01*
X176500160Y-99550529D01*
X176496464Y-100659469D01*
X176496372Y-100663851D01*
X176453494Y-101771968D01*
X176453247Y-101776343D01*
X176371242Y-102882239D01*
X176370841Y-102886602D01*
X176249810Y-103988918D01*
X176249255Y-103993265D01*
X176089353Y-105090608D01*
X176088645Y-105094933D01*
X175890062Y-106185967D01*
X175889201Y-106190264D01*
X175652196Y-107273581D01*
X175651184Y-107277844D01*
X175376049Y-108352110D01*
X175374887Y-108356335D01*
X175061964Y-109420214D01*
X175060653Y-109424396D01*
X174710343Y-110476527D01*
X174708886Y-110480660D01*
X174321598Y-111519809D01*
X174319995Y-111523887D01*
X173896246Y-112548669D01*
X173894500Y-112552688D01*
X173434810Y-113561849D01*
X173432923Y-113565805D01*
X172937856Y-114558100D01*
X172935831Y-114561986D01*
X172406011Y-115536172D01*
X172403850Y-115539984D01*
X171839928Y-116494859D01*
X171837633Y-116498592D01*
X171240343Y-117432914D01*
X171237918Y-117436564D01*
X170607971Y-118349223D01*
X170605418Y-118352785D01*
X169943621Y-119242607D01*
X169940944Y-119246076D01*
X169248128Y-120111946D01*
X169245330Y-120115319D01*
X168522351Y-120956171D01*
X168519436Y-120959443D01*
X167767176Y-121774246D01*
X167764147Y-121777412D01*
X166983596Y-122565097D01*
X166980457Y-122568155D01*
X166172545Y-123327782D01*
X166169300Y-123330727D01*
X165335046Y-124061339D01*
X165331724Y-124064146D01*
X164472173Y-124764826D01*
X164468728Y-124767534D01*
X163584950Y-125437408D01*
X163581411Y-125439993D01*
X162674540Y-126078204D01*
X162670913Y-126080662D01*
X161742046Y-126686439D01*
X161738333Y-126688768D01*
X160788649Y-127261340D01*
X160784857Y-127263536D01*
X159815519Y-127802203D01*
X159811652Y-127804263D01*
X158823911Y-128308331D01*
X158819973Y-128310254D01*
X157931115Y-128724949D01*
X157878511Y-128736577D01*
X132039507Y-128699696D01*
X131986937Y-128687918D01*
X131099282Y-128270694D01*
X131095349Y-128268760D01*
X130109017Y-127761858D01*
X130105156Y-127759786D01*
X129137382Y-127218367D01*
X129133596Y-127216160D01*
X128185559Y-126640884D01*
X128181853Y-126638545D01*
X127254717Y-126030118D01*
X127251097Y-126027650D01*
X127035733Y-125875166D01*
X126346030Y-125386838D01*
X126342540Y-125384274D01*
X125460626Y-124711841D01*
X125457225Y-124709150D01*
X124920249Y-124268867D01*
X124599685Y-124006026D01*
X124596346Y-124003188D01*
X123764198Y-123270213D01*
X123760961Y-123267259D01*
X122955221Y-122505329D01*
X122952091Y-122502263D01*
X122542752Y-122086819D01*
X122173757Y-121712320D01*
X122170743Y-121709150D01*
X122067989Y-121597213D01*
X121420829Y-120892220D01*
X121417933Y-120888951D01*
X121307944Y-120760289D01*
X120697344Y-120046024D01*
X120694566Y-120042656D01*
X120583300Y-119902781D01*
X120248204Y-119481523D01*
X120004203Y-119174783D01*
X120001536Y-119171305D01*
X119342289Y-118279606D01*
X119339747Y-118276037D01*
X118826837Y-117528386D01*
X118712421Y-117361605D01*
X118710013Y-117357959D01*
X118115372Y-116421903D01*
X118113088Y-116418164D01*
X117551907Y-115461707D01*
X117549756Y-115457888D01*
X117531938Y-115424901D01*
X117022706Y-114482168D01*
X117020720Y-114478331D01*
X116528463Y-113484575D01*
X116526588Y-113480614D01*
X116358464Y-113108720D01*
X116069782Y-112470149D01*
X116068055Y-112466144D01*
X116060773Y-112448390D01*
X115647215Y-111440113D01*
X115645632Y-111436050D01*
X115624264Y-111378212D01*
X115261308Y-110395786D01*
X115259871Y-110391672D01*
X115224845Y-110285465D01*
X114912563Y-109338541D01*
X114911269Y-109334369D01*
X114907530Y-109321523D01*
X114601378Y-108269581D01*
X114600231Y-108265362D01*
X114468658Y-107745466D01*
X114328165Y-107190321D01*
X114327166Y-107186058D01*
X114254961Y-106851446D01*
X114093253Y-106102061D01*
X114092406Y-106097770D01*
X114080821Y-106033071D01*
X113896938Y-105006169D01*
X113896245Y-105001857D01*
X113739463Y-103903984D01*
X113738934Y-103899736D01*
X113621044Y-102797019D01*
X113620661Y-102792721D01*
X113541808Y-101686528D01*
X113541575Y-101682163D01*
X113539900Y-101635413D01*
X113501860Y-100573901D01*
X113501781Y-100569626D01*
X113501250Y-99460625D01*
X113501325Y-99456248D01*
X113505977Y-99322864D01*
X113539979Y-98347941D01*
X113540206Y-98343629D01*
X113617998Y-97237362D01*
X113618383Y-97233008D01*
X113632944Y-97095564D01*
X113735211Y-96130220D01*
X113735748Y-96125890D01*
X113736468Y-96120814D01*
X113891473Y-95027900D01*
X113892150Y-95023663D01*
X114086583Y-93931813D01*
X114087404Y-93927627D01*
X114309475Y-92893713D01*
X116774500Y-92893713D01*
X116774500Y-93106286D01*
X116807753Y-93316239D01*
X116873444Y-93518414D01*
X116969951Y-93707820D01*
X117094890Y-93879786D01*
X117233705Y-94018601D01*
X117267190Y-94079924D01*
X117262206Y-94149616D01*
X117220334Y-94205549D01*
X117211121Y-94211821D01*
X117056342Y-94307289D01*
X116932289Y-94431342D01*
X116840187Y-94580663D01*
X116840186Y-94580666D01*
X116785001Y-94747203D01*
X116785001Y-94747204D01*
X116785000Y-94747204D01*
X116774500Y-94849983D01*
X116774500Y-96150001D01*
X116774501Y-96150018D01*
X116785000Y-96252796D01*
X116785001Y-96252799D01*
X116840185Y-96419331D01*
X116840186Y-96419334D01*
X116932288Y-96568656D01*
X117056344Y-96692712D01*
X117205666Y-96784814D01*
X117372203Y-96839999D01*
X117474991Y-96850500D01*
X119025008Y-96850499D01*
X119127797Y-96839999D01*
X119294334Y-96784814D01*
X119443656Y-96692712D01*
X119567712Y-96568656D01*
X119659814Y-96419334D01*
X119714999Y-96252797D01*
X119725500Y-96150009D01*
X119725499Y-94849992D01*
X119714999Y-94747203D01*
X119659814Y-94580666D01*
X119567712Y-94431344D01*
X119443656Y-94307288D01*
X119294334Y-94215186D01*
X119294333Y-94215185D01*
X119288878Y-94211821D01*
X119242154Y-94159873D01*
X119230931Y-94090910D01*
X119258775Y-94026828D01*
X119266272Y-94018623D01*
X119405104Y-93879792D01*
X119530051Y-93707816D01*
X119626557Y-93518412D01*
X119692246Y-93316243D01*
X119725500Y-93106287D01*
X119725500Y-92893713D01*
X119692246Y-92683757D01*
X119626557Y-92481588D01*
X119530051Y-92292184D01*
X119530049Y-92292181D01*
X119530048Y-92292179D01*
X119405109Y-92120213D01*
X119254790Y-91969894D01*
X119254785Y-91969890D01*
X119089781Y-91850008D01*
X119047115Y-91794678D01*
X119041136Y-91725065D01*
X119073741Y-91663270D01*
X119089781Y-91649371D01*
X119254466Y-91529721D01*
X119404723Y-91379464D01*
X119404727Y-91379459D01*
X119529620Y-91207557D01*
X119626095Y-91018217D01*
X119691757Y-90816129D01*
X119691757Y-90816126D01*
X119702231Y-90750000D01*
X118654146Y-90750000D01*
X118692630Y-90683343D01*
X118725000Y-90562535D01*
X118725000Y-90437465D01*
X118692630Y-90316657D01*
X118654146Y-90250000D01*
X119702231Y-90250000D01*
X119691757Y-90183873D01*
X119691757Y-90183870D01*
X119626095Y-89981782D01*
X119529620Y-89792442D01*
X119404727Y-89620540D01*
X119404723Y-89620535D01*
X119254464Y-89470276D01*
X119254459Y-89470272D01*
X119082557Y-89345379D01*
X118893217Y-89248904D01*
X118691128Y-89183242D01*
X118500000Y-89152969D01*
X118500000Y-90095854D01*
X118433343Y-90057370D01*
X118312535Y-90025000D01*
X118187465Y-90025000D01*
X118066657Y-90057370D01*
X118000000Y-90095854D01*
X118000000Y-89152969D01*
X117808872Y-89183242D01*
X117808869Y-89183242D01*
X117606782Y-89248904D01*
X117417442Y-89345379D01*
X117245540Y-89470272D01*
X117245535Y-89470276D01*
X117095276Y-89620535D01*
X117095272Y-89620540D01*
X116970379Y-89792442D01*
X116873904Y-89981782D01*
X116808242Y-90183870D01*
X116808242Y-90183873D01*
X116797769Y-90250000D01*
X117845854Y-90250000D01*
X117807370Y-90316657D01*
X117775000Y-90437465D01*
X117775000Y-90562535D01*
X117807370Y-90683343D01*
X117845854Y-90750000D01*
X116797769Y-90750000D01*
X116808242Y-90816126D01*
X116808242Y-90816129D01*
X116873904Y-91018217D01*
X116970379Y-91207557D01*
X117095272Y-91379459D01*
X117095276Y-91379464D01*
X117245535Y-91529723D01*
X117245540Y-91529727D01*
X117410218Y-91649372D01*
X117452884Y-91704701D01*
X117458863Y-91774315D01*
X117426258Y-91836110D01*
X117410218Y-91850008D01*
X117245214Y-91969890D01*
X117245209Y-91969894D01*
X117094890Y-92120213D01*
X116969951Y-92292179D01*
X116873444Y-92481585D01*
X116807753Y-92683760D01*
X116774500Y-92893713D01*
X114309475Y-92893713D01*
X114320311Y-92843261D01*
X114321279Y-92839112D01*
X114592341Y-91763706D01*
X114593454Y-91759596D01*
X114902344Y-90694446D01*
X114903613Y-90690342D01*
X115249951Y-89636754D01*
X115251361Y-89632708D01*
X115634705Y-88592034D01*
X115636251Y-88588055D01*
X116056136Y-87561551D01*
X116057835Y-87557601D01*
X116513698Y-86546643D01*
X116515544Y-86542733D01*
X117006857Y-85548488D01*
X117008859Y-85544614D01*
X117534978Y-84568383D01*
X117537089Y-84564627D01*
X118097381Y-83607583D01*
X118099628Y-83603896D01*
X118693399Y-82667227D01*
X118695773Y-82663625D01*
X119322275Y-81748514D01*
X119324755Y-81745026D01*
X119983207Y-80852616D01*
X119985833Y-80849186D01*
X120675406Y-79980600D01*
X120678122Y-79977301D01*
X120827575Y-79802135D01*
X123059500Y-79802135D01*
X123059500Y-81697870D01*
X123059501Y-81697876D01*
X123065908Y-81757483D01*
X123116202Y-81892328D01*
X123116206Y-81892335D01*
X123202452Y-82007544D01*
X123202455Y-82007547D01*
X123317664Y-82093793D01*
X123317671Y-82093797D01*
X123362618Y-82110561D01*
X123452517Y-82144091D01*
X123512127Y-82150500D01*
X123735500Y-82150499D01*
X123802539Y-82170183D01*
X123848294Y-82222987D01*
X123859500Y-82274499D01*
X123859500Y-117908164D01*
X123839815Y-117975203D01*
X123791796Y-118018648D01*
X123725976Y-118052185D01*
X123547641Y-118181752D01*
X123547636Y-118181756D01*
X123391756Y-118337636D01*
X123391752Y-118337641D01*
X123262187Y-118515974D01*
X123162104Y-118712393D01*
X123162103Y-118712396D01*
X123093985Y-118922047D01*
X123072627Y-119056895D01*
X123059500Y-119139778D01*
X123059500Y-119360222D01*
X123060972Y-119369515D01*
X123093985Y-119577952D01*
X123162103Y-119787603D01*
X123162104Y-119787606D01*
X123262187Y-119984025D01*
X123391752Y-120162358D01*
X123391756Y-120162363D01*
X123547636Y-120318243D01*
X123547641Y-120318247D01*
X123649603Y-120392326D01*
X123725978Y-120447815D01*
X123854375Y-120513237D01*
X123922393Y-120547895D01*
X123922396Y-120547896D01*
X124027221Y-120581955D01*
X124132049Y-120616015D01*
X124349778Y-120650500D01*
X124349779Y-120650500D01*
X124570221Y-120650500D01*
X124570222Y-120650500D01*
X124787951Y-120616015D01*
X124997606Y-120547895D01*
X125194022Y-120447815D01*
X125372365Y-120318242D01*
X125422536Y-120268070D01*
X125483857Y-120234586D01*
X125553548Y-120239570D01*
X125609482Y-120281441D01*
X125626398Y-120312419D01*
X125656202Y-120392328D01*
X125656206Y-120392335D01*
X125742452Y-120507544D01*
X125742455Y-120507547D01*
X125857664Y-120593793D01*
X125857671Y-120593797D01*
X125902618Y-120610561D01*
X125992517Y-120644091D01*
X126052127Y-120650500D01*
X126275500Y-120650499D01*
X126342539Y-120670183D01*
X126388294Y-120722987D01*
X126399500Y-120774499D01*
X126399500Y-121413330D01*
X126399499Y-121413348D01*
X126399499Y-121579054D01*
X126399498Y-121579054D01*
X126404366Y-121597220D01*
X126440423Y-121731785D01*
X126466766Y-121777412D01*
X126469358Y-121781900D01*
X126469359Y-121781904D01*
X126469360Y-121781904D01*
X126519479Y-121868714D01*
X126519481Y-121868717D01*
X126638349Y-121987585D01*
X126638354Y-121987589D01*
X129631284Y-124980520D01*
X129631286Y-124980521D01*
X129631290Y-124980524D01*
X129768209Y-125059573D01*
X129768216Y-125059577D01*
X129920943Y-125100501D01*
X129920945Y-125100501D01*
X130086654Y-125100501D01*
X130086670Y-125100500D01*
X160163331Y-125100500D01*
X160163347Y-125100501D01*
X160170943Y-125100501D01*
X160329054Y-125100501D01*
X160329057Y-125100501D01*
X160481785Y-125059577D01*
X160531904Y-125030639D01*
X160618716Y-124980520D01*
X160730520Y-124868716D01*
X160730520Y-124868714D01*
X160740728Y-124858507D01*
X160740729Y-124858504D01*
X163440520Y-122158716D01*
X163519577Y-122021784D01*
X163560501Y-121869057D01*
X163560501Y-121710942D01*
X163560501Y-121703347D01*
X163560500Y-121703329D01*
X163560500Y-120774499D01*
X163580185Y-120707460D01*
X163632989Y-120661705D01*
X163684500Y-120650499D01*
X163907871Y-120650499D01*
X163907872Y-120650499D01*
X163967483Y-120644091D01*
X164102331Y-120593796D01*
X164217546Y-120507546D01*
X164303796Y-120392331D01*
X164303798Y-120392326D01*
X164333601Y-120312420D01*
X164375471Y-120256486D01*
X164440936Y-120232068D01*
X164509209Y-120246919D01*
X164537464Y-120268071D01*
X164587636Y-120318243D01*
X164587641Y-120318247D01*
X164689603Y-120392326D01*
X164765978Y-120447815D01*
X164894375Y-120513237D01*
X164962393Y-120547895D01*
X164962396Y-120547896D01*
X165067221Y-120581955D01*
X165172049Y-120616015D01*
X165389778Y-120650500D01*
X165389779Y-120650500D01*
X165610221Y-120650500D01*
X165610222Y-120650500D01*
X165827951Y-120616015D01*
X166037606Y-120547895D01*
X166234022Y-120447815D01*
X166412365Y-120318242D01*
X166568242Y-120162365D01*
X166697815Y-119984022D01*
X166797895Y-119787606D01*
X166866015Y-119577951D01*
X166900500Y-119360222D01*
X166900500Y-119139778D01*
X166866015Y-118922049D01*
X166843188Y-118851794D01*
X166841193Y-118781953D01*
X166873436Y-118725797D01*
X169868713Y-115730521D01*
X169868716Y-115730520D01*
X169980520Y-115618716D01*
X170030639Y-115531904D01*
X170059577Y-115481785D01*
X170100500Y-115329058D01*
X170100500Y-115170943D01*
X170100500Y-114807702D01*
X170120185Y-114740663D01*
X170172989Y-114694908D01*
X170242147Y-114684964D01*
X170248667Y-114686080D01*
X170305435Y-114697372D01*
X170321157Y-114700500D01*
X170321158Y-114700500D01*
X170478844Y-114700500D01*
X170478845Y-114700499D01*
X170633497Y-114669737D01*
X170779179Y-114609394D01*
X170910289Y-114521789D01*
X171021789Y-114410289D01*
X171109394Y-114279179D01*
X171169737Y-114133497D01*
X171200500Y-113978842D01*
X171200500Y-102522940D01*
X171209144Y-102493499D01*
X171215668Y-102463513D01*
X171219422Y-102458497D01*
X171220185Y-102455901D01*
X171236819Y-102435259D01*
X171320259Y-102351819D01*
X171381582Y-102318334D01*
X171407940Y-102315500D01*
X171576004Y-102315500D01*
X171576005Y-102315499D01*
X171774127Y-102276091D01*
X171960756Y-102198786D01*
X172128718Y-102086558D01*
X172271558Y-101943718D01*
X172383786Y-101775756D01*
X172461091Y-101589127D01*
X172500500Y-101391003D01*
X172500500Y-101188997D01*
X172461091Y-100990873D01*
X172383786Y-100804244D01*
X172330094Y-100723889D01*
X172309217Y-100657214D01*
X172327701Y-100589834D01*
X172330078Y-100586134D01*
X172383786Y-100505756D01*
X172461091Y-100319127D01*
X172500500Y-100121003D01*
X172500500Y-99918997D01*
X172461091Y-99720873D01*
X172427673Y-99640198D01*
X172420205Y-99570730D01*
X172439964Y-99525340D01*
X172439547Y-99525112D01*
X172442095Y-99520444D01*
X172442972Y-99518431D01*
X172443796Y-99517331D01*
X172494091Y-99382483D01*
X172500500Y-99322873D01*
X172500499Y-98177128D01*
X172494091Y-98117517D01*
X172443796Y-97982669D01*
X172443795Y-97982668D01*
X172443793Y-97982664D01*
X172357547Y-97867455D01*
X172357544Y-97867452D01*
X172242335Y-97781206D01*
X172242328Y-97781202D01*
X172107482Y-97730908D01*
X172107483Y-97730908D01*
X172047883Y-97724501D01*
X172047881Y-97724500D01*
X172047873Y-97724500D01*
X172047864Y-97724500D01*
X170452129Y-97724500D01*
X170452123Y-97724501D01*
X170392516Y-97730908D01*
X170257671Y-97781202D01*
X170257664Y-97781206D01*
X170142455Y-97867452D01*
X170142452Y-97867455D01*
X170056206Y-97982664D01*
X170056202Y-97982671D01*
X170005908Y-98117517D01*
X169999501Y-98177116D01*
X169999501Y-98177123D01*
X169999500Y-98177135D01*
X169999500Y-99322870D01*
X169999501Y-99322876D01*
X170005908Y-99382483D01*
X170056202Y-99517328D01*
X170056203Y-99517330D01*
X170056204Y-99517331D01*
X170057028Y-99518432D01*
X170057509Y-99519721D01*
X170060454Y-99525114D01*
X170059678Y-99525537D01*
X170081448Y-99583895D01*
X170072325Y-99640198D01*
X170038910Y-99720868D01*
X170038907Y-99720880D01*
X169999500Y-99918992D01*
X169999500Y-100121007D01*
X170038907Y-100319119D01*
X170038909Y-100319127D01*
X170116213Y-100505755D01*
X170169904Y-100586109D01*
X170190782Y-100652787D01*
X170172297Y-100720167D01*
X170169904Y-100723891D01*
X170116213Y-100804244D01*
X170038909Y-100990872D01*
X170038907Y-100990880D01*
X169999500Y-101188992D01*
X169999500Y-101357058D01*
X169990856Y-101386494D01*
X169984333Y-101416484D01*
X169980577Y-101421501D01*
X169979815Y-101424097D01*
X169963182Y-101444739D01*
X169889711Y-101518211D01*
X169889708Y-101518212D01*
X169778213Y-101629707D01*
X169778210Y-101629711D01*
X169690609Y-101760814D01*
X169690602Y-101760827D01*
X169630264Y-101906498D01*
X169630261Y-101906510D01*
X169599500Y-102061153D01*
X169599500Y-102950903D01*
X169579815Y-103017942D01*
X169527011Y-103063697D01*
X169457853Y-103073641D01*
X169394297Y-103044616D01*
X169387819Y-103038584D01*
X166136819Y-99787584D01*
X166103334Y-99726261D01*
X166100500Y-99699903D01*
X166100500Y-89849983D01*
X170249500Y-89849983D01*
X170249500Y-91150001D01*
X170249501Y-91150018D01*
X170260000Y-91252796D01*
X170260001Y-91252799D01*
X170301973Y-91379459D01*
X170315186Y-91419334D01*
X170407288Y-91568656D01*
X170531344Y-91692712D01*
X170663644Y-91774315D01*
X170686558Y-91788448D01*
X170733283Y-91840396D01*
X170744506Y-91909358D01*
X170716663Y-91973441D01*
X170709144Y-91981668D01*
X170570271Y-92120541D01*
X170445379Y-92292442D01*
X170348904Y-92481782D01*
X170283242Y-92683870D01*
X170283242Y-92683873D01*
X170272769Y-92750000D01*
X171316988Y-92750000D01*
X171284075Y-92807007D01*
X171250000Y-92934174D01*
X171250000Y-93065826D01*
X171284075Y-93192993D01*
X171316988Y-93250000D01*
X170272769Y-93250000D01*
X170283242Y-93316126D01*
X170283242Y-93316129D01*
X170348904Y-93518217D01*
X170445379Y-93707557D01*
X170570272Y-93879459D01*
X170570276Y-93879464D01*
X170720535Y-94029723D01*
X170720540Y-94029727D01*
X170892442Y-94154620D01*
X171081782Y-94251095D01*
X171283870Y-94316757D01*
X171493754Y-94350000D01*
X171500000Y-94350000D01*
X171500000Y-93433012D01*
X171557007Y-93465925D01*
X171684174Y-93500000D01*
X171815826Y-93500000D01*
X171942993Y-93465925D01*
X172000000Y-93433012D01*
X172000000Y-94350000D01*
X172006246Y-94350000D01*
X172216127Y-94316757D01*
X172216130Y-94316757D01*
X172418217Y-94251095D01*
X172607557Y-94154620D01*
X172779459Y-94029727D01*
X172779464Y-94029723D01*
X172929723Y-93879464D01*
X172929727Y-93879459D01*
X173054620Y-93707557D01*
X173151095Y-93518217D01*
X173216757Y-93316129D01*
X173216757Y-93316126D01*
X173227231Y-93250000D01*
X172183012Y-93250000D01*
X172215925Y-93192993D01*
X172250000Y-93065826D01*
X172250000Y-92934174D01*
X172215925Y-92807007D01*
X172183012Y-92750000D01*
X173227231Y-92750000D01*
X173216757Y-92683873D01*
X173216757Y-92683870D01*
X173151095Y-92481782D01*
X173054620Y-92292442D01*
X172929727Y-92120540D01*
X172929723Y-92120535D01*
X172790856Y-91981668D01*
X172757371Y-91920345D01*
X172762355Y-91850653D01*
X172804227Y-91794720D01*
X172813441Y-91788448D01*
X172819331Y-91784814D01*
X172819334Y-91784814D01*
X172968656Y-91692712D01*
X173092712Y-91568656D01*
X173184814Y-91419334D01*
X173239999Y-91252797D01*
X173250500Y-91150009D01*
X173250499Y-89849992D01*
X173242145Y-89768216D01*
X173239999Y-89747203D01*
X173239998Y-89747200D01*
X173230354Y-89718096D01*
X173184814Y-89580666D01*
X173092712Y-89431344D01*
X172968656Y-89307288D01*
X172819334Y-89215186D01*
X172652797Y-89160001D01*
X172652795Y-89160000D01*
X172550010Y-89149500D01*
X170949998Y-89149500D01*
X170949981Y-89149501D01*
X170847203Y-89160000D01*
X170847200Y-89160001D01*
X170680668Y-89215185D01*
X170680663Y-89215187D01*
X170531342Y-89307289D01*
X170407289Y-89431342D01*
X170315187Y-89580663D01*
X170315185Y-89580668D01*
X170296585Y-89636800D01*
X170260001Y-89747203D01*
X170260001Y-89747204D01*
X170260000Y-89747204D01*
X170249500Y-89849983D01*
X166100500Y-89849983D01*
X166100500Y-82274499D01*
X166120185Y-82207460D01*
X166172989Y-82161705D01*
X166224500Y-82150499D01*
X166447871Y-82150499D01*
X166447872Y-82150499D01*
X166507483Y-82144091D01*
X166642331Y-82093796D01*
X166757546Y-82007546D01*
X166843796Y-81892331D01*
X166894091Y-81757483D01*
X166900500Y-81697873D01*
X166900499Y-79802128D01*
X166894091Y-79742517D01*
X166873601Y-79687581D01*
X166843797Y-79607671D01*
X166843793Y-79607664D01*
X166757547Y-79492455D01*
X166757544Y-79492452D01*
X166642335Y-79406206D01*
X166642328Y-79406202D01*
X166507482Y-79355908D01*
X166507483Y-79355908D01*
X166447883Y-79349501D01*
X166447881Y-79349500D01*
X166447873Y-79349500D01*
X166447864Y-79349500D01*
X164552129Y-79349500D01*
X164552123Y-79349501D01*
X164492516Y-79355908D01*
X164357671Y-79406202D01*
X164357664Y-79406206D01*
X164242455Y-79492452D01*
X164242452Y-79492455D01*
X164156206Y-79607664D01*
X164156203Y-79607669D01*
X164126398Y-79687581D01*
X164084526Y-79743514D01*
X164019062Y-79767931D01*
X163950789Y-79753079D01*
X163922535Y-79731928D01*
X163872363Y-79681756D01*
X163872358Y-79681752D01*
X163694025Y-79552187D01*
X163694024Y-79552186D01*
X163694022Y-79552185D01*
X163576791Y-79492452D01*
X163497606Y-79452104D01*
X163497603Y-79452103D01*
X163287952Y-79383985D01*
X163179086Y-79366742D01*
X163070222Y-79349500D01*
X162849778Y-79349500D01*
X162809320Y-79355908D01*
X162632045Y-79383985D01*
X162561794Y-79406811D01*
X162491953Y-79408806D01*
X162435796Y-79376561D01*
X160197590Y-77138355D01*
X160197588Y-77138352D01*
X160078717Y-77019481D01*
X160078716Y-77019480D01*
X159991904Y-76969360D01*
X159991904Y-76969359D01*
X159991900Y-76969358D01*
X159941785Y-76940423D01*
X159789057Y-76899499D01*
X159630943Y-76899499D01*
X159623347Y-76899499D01*
X159623331Y-76899500D01*
X158112148Y-76899500D01*
X158045109Y-76879815D01*
X158001663Y-76831795D01*
X157947239Y-76724983D01*
X157905051Y-76642184D01*
X157890534Y-76622203D01*
X157780109Y-76470213D01*
X157629786Y-76319890D01*
X157457820Y-76194951D01*
X157268414Y-76098444D01*
X157268413Y-76098443D01*
X157268412Y-76098443D01*
X157066243Y-76032754D01*
X157066241Y-76032753D01*
X157066240Y-76032753D01*
X156895110Y-76005649D01*
X156856287Y-75999500D01*
X156650098Y-75999500D01*
X156583059Y-75979815D01*
X156562417Y-75963181D01*
X154987590Y-74388355D01*
X154987588Y-74388352D01*
X154868717Y-74269481D01*
X154868716Y-74269480D01*
X154781904Y-74219360D01*
X154781904Y-74219359D01*
X154781900Y-74219358D01*
X154731785Y-74190423D01*
X154579057Y-74149499D01*
X154420943Y-74149499D01*
X154413347Y-74149499D01*
X154413331Y-74149500D01*
X148525596Y-74149500D01*
X148458557Y-74129815D01*
X148412802Y-74077011D01*
X148402858Y-74007853D01*
X148431883Y-73944297D01*
X148486590Y-73907794D01*
X148510253Y-73899954D01*
X148659256Y-73808048D01*
X148783048Y-73684256D01*
X148874954Y-73535253D01*
X148930021Y-73369072D01*
X148940500Y-73266501D01*
X148940499Y-71863500D01*
X148930021Y-71760928D01*
X148874954Y-71594747D01*
X148783048Y-71445744D01*
X148659256Y-71321952D01*
X148510253Y-71230046D01*
X148417990Y-71199473D01*
X148344073Y-71174979D01*
X148344066Y-71174978D01*
X148241502Y-71164500D01*
X146838506Y-71164500D01*
X146838490Y-71164501D01*
X146735926Y-71174979D01*
X146569749Y-71230045D01*
X146569744Y-71230047D01*
X146420742Y-71321953D01*
X146296953Y-71445742D01*
X146205047Y-71594744D01*
X146205045Y-71594749D01*
X146155434Y-71744465D01*
X146125409Y-71793142D01*
X145442137Y-72476414D01*
X145419333Y-72391306D01*
X145360090Y-72288694D01*
X145276306Y-72204910D01*
X145173694Y-72145667D01*
X145088583Y-72122861D01*
X145797513Y-71413932D01*
X145733756Y-71367611D01*
X145537410Y-71267567D01*
X145327835Y-71199473D01*
X145110181Y-71165000D01*
X144889819Y-71165000D01*
X144672164Y-71199473D01*
X144462589Y-71267567D01*
X144266233Y-71367616D01*
X144202485Y-71413931D01*
X144202485Y-71413932D01*
X144911414Y-72122861D01*
X144826306Y-72145667D01*
X144723694Y-72204910D01*
X144639910Y-72288694D01*
X144580667Y-72391306D01*
X144557861Y-72476415D01*
X143848932Y-71767485D01*
X143848930Y-71767485D01*
X143830626Y-71792679D01*
X143775296Y-71835345D01*
X143705683Y-71841324D01*
X143643888Y-71808718D01*
X143629990Y-71792679D01*
X143528247Y-71652640D01*
X143372363Y-71496756D01*
X143372358Y-71496752D01*
X143194025Y-71367187D01*
X143194024Y-71367186D01*
X143194022Y-71367185D01*
X143131096Y-71335122D01*
X142997606Y-71267104D01*
X142997603Y-71267103D01*
X142787952Y-71198985D01*
X142679086Y-71181742D01*
X142570222Y-71164500D01*
X142349778Y-71164500D01*
X142277201Y-71175995D01*
X142132047Y-71198985D01*
X141922396Y-71267103D01*
X141922393Y-71267104D01*
X141725974Y-71367187D01*
X141547641Y-71496752D01*
X141547636Y-71496756D01*
X141391756Y-71652636D01*
X141391752Y-71652641D01*
X141262185Y-71830976D01*
X141228648Y-71896796D01*
X141180674Y-71947591D01*
X141118164Y-71964500D01*
X138271669Y-71964500D01*
X138271653Y-71964499D01*
X138264057Y-71964499D01*
X138105943Y-71964499D01*
X138026010Y-71985917D01*
X137953216Y-72005422D01*
X137915159Y-72027395D01*
X137915158Y-72027394D01*
X137816287Y-72084477D01*
X137816282Y-72084481D01*
X137704478Y-72196286D01*
X133912582Y-75988181D01*
X133851259Y-76021666D01*
X133824901Y-76024500D01*
X132599998Y-76024500D01*
X132599981Y-76024501D01*
X132497203Y-76035000D01*
X132497200Y-76035001D01*
X132330668Y-76090185D01*
X132330663Y-76090187D01*
X132181342Y-76182289D01*
X132057289Y-76306342D01*
X131965187Y-76455663D01*
X131965185Y-76455668D01*
X131952083Y-76495208D01*
X131910001Y-76622203D01*
X131910001Y-76622204D01*
X131910000Y-76622204D01*
X131899500Y-76724983D01*
X131899500Y-76775500D01*
X131879815Y-76842539D01*
X131827011Y-76888294D01*
X131775500Y-76899500D01*
X130329057Y-76899500D01*
X130170943Y-76899500D01*
X130018215Y-76940423D01*
X130018214Y-76940423D01*
X130018212Y-76940424D01*
X130018209Y-76940425D01*
X129968096Y-76969359D01*
X129968095Y-76969360D01*
X129966455Y-76970307D01*
X129881285Y-77019479D01*
X129881282Y-77019481D01*
X129769478Y-77131286D01*
X127524202Y-79376561D01*
X127462879Y-79410046D01*
X127398203Y-79406811D01*
X127373584Y-79398812D01*
X127327952Y-79383985D01*
X127219086Y-79366742D01*
X127110222Y-79349500D01*
X126889778Y-79349500D01*
X126817201Y-79360995D01*
X126672047Y-79383985D01*
X126462396Y-79452103D01*
X126462393Y-79452104D01*
X126265974Y-79552187D01*
X126087641Y-79681752D01*
X126087636Y-79681756D01*
X126037463Y-79731929D01*
X125976140Y-79765413D01*
X125906448Y-79760428D01*
X125850515Y-79718557D01*
X125833601Y-79687580D01*
X125803797Y-79607671D01*
X125803793Y-79607664D01*
X125717547Y-79492455D01*
X125717544Y-79492452D01*
X125602335Y-79406206D01*
X125602328Y-79406202D01*
X125467482Y-79355908D01*
X125467483Y-79355908D01*
X125407883Y-79349501D01*
X125407881Y-79349500D01*
X125407873Y-79349500D01*
X125407864Y-79349500D01*
X123512129Y-79349500D01*
X123512123Y-79349501D01*
X123452516Y-79355908D01*
X123317671Y-79406202D01*
X123317664Y-79406206D01*
X123202455Y-79492452D01*
X123202452Y-79492455D01*
X123116206Y-79607664D01*
X123116202Y-79607671D01*
X123065908Y-79742517D01*
X123059501Y-79802116D01*
X123059501Y-79802123D01*
X123059500Y-79802135D01*
X120827575Y-79802135D01*
X121397939Y-79133641D01*
X121400831Y-79130372D01*
X121450055Y-79076646D01*
X122149993Y-78312689D01*
X122152953Y-78309571D01*
X122930554Y-77518857D01*
X122933620Y-77515847D01*
X123738724Y-76753056D01*
X123741858Y-76750190D01*
X124573376Y-76016355D01*
X124576671Y-76013549D01*
X125433587Y-75309562D01*
X125436955Y-75306893D01*
X126318231Y-74633610D01*
X126321709Y-74631049D01*
X127226170Y-73989364D01*
X127229779Y-73986899D01*
X128156370Y-73377559D01*
X128159967Y-73375283D01*
X129107577Y-72799023D01*
X129111285Y-72796858D01*
X130078605Y-72254473D01*
X130082436Y-72252414D01*
X131068282Y-71744568D01*
X131072150Y-71742661D01*
X132075355Y-71269951D01*
X132079308Y-71268172D01*
X133098611Y-70831195D01*
X133102617Y-70829561D01*
X134136714Y-70428877D01*
X134140730Y-70427402D01*
X135188360Y-70063501D01*
X135192470Y-70062155D01*
X136252227Y-69735522D01*
X136256432Y-69734307D01*
X137327090Y-69445317D01*
X137331296Y-69444261D01*
X138411510Y-69193279D01*
X138415757Y-69192371D01*
X139504155Y-68979718D01*
X139508439Y-68978959D01*
X140603658Y-68804899D01*
X140607984Y-68804289D01*
X141708677Y-68669034D01*
X141712954Y-68668585D01*
X142817810Y-68572300D01*
X142822092Y-68572004D01*
X143929619Y-68514821D01*
X143933933Y-68514675D01*
X145042807Y-68496661D01*
X145047160Y-68496667D01*
G37*
%TD.AperFunction*%
%TD*%
M02*
